<svg width="63" height="71" viewBox="0 0 63 71" fill="none" xmlns="http://www.w3.org/2000/svg">
<path d="M62.1208 44.4057C61.9887 44.2206 61.9619 44.2466 61.7768 44.1416C61.5916 44.0364 61.6186 44.0095 61.4596 43.9034C61.4542 43.8999 61.4445 43.8953 61.4389 43.8908C61.2736 43.7893 60.9798 43.6877 60.9043 43.5601C60.8262 43.4281 59.4776 41.155 59.1343 40.5736C58.7911 39.9914 58.473 39.0669 58.473 39.0669L57.7327 37.8504L56.8081 36.5026C56.8081 36.5026 55.8036 34.2304 55.6195 33.6752C55.4334 33.1199 54.8791 31.403 54.8522 31.3229C54.8251 31.2439 54.4568 28.9708 54.4568 28.4416V27.332C54.4568 27.1469 54.6933 26.6716 54.6933 26.6716C54.6933 26.6716 55.1432 25.7731 55.1963 25.6931C55.2485 25.6149 55.7785 24.9798 55.7785 24.9798L55.8298 24.5836L55.6707 24.1613C55.6707 24.1613 55.6976 23.8962 55.6976 23.4991C55.6976 23.103 55.8036 22.8918 55.8036 22.8918C55.8036 22.8918 55.9888 22.6806 55.8836 22.6008C55.7784 22.5216 55.6976 22.6008 55.6976 22.4165C55.6976 22.2305 55.6437 22.0193 55.6707 21.8082C55.6976 21.5971 55.7767 21.306 55.8567 21.1469C55.9357 20.9888 56.0678 20.7246 56.1198 20.5404C56.1738 20.3545 56.252 19.8523 56.252 19.8523L56.5431 19.2438C56.5431 19.2438 57.0193 18.0013 57.1513 17.606C57.2834 17.2088 57.4955 16.6015 57.4955 16.6015C57.4955 16.6015 57.8916 16.0984 57.9968 15.9931C58.1037 15.888 58.2089 15.8072 58.2089 15.8072C58.2089 15.8072 58.2089 14.4604 58.3409 14.0633C58.473 13.667 58.8432 12.6634 58.8432 12.6634L58.8961 12.0812C58.8961 12.0812 59.1325 11.5781 59.4505 11.1558C59.7676 10.7327 60.0318 10.3373 60.0318 10.3373C60.0318 10.3373 60.1908 10.2042 60.2177 10.1243C60.2367 10.0687 60.1899 9.78744 60.1881 9.48732C59.9159 9.4002 59.6491 9.30947 59.4775 9.23578C58.9761 9.02104 58.9761 9.23578 58.5466 9.23578C58.1171 9.23578 58.0462 9.23578 57.9743 8.80631C57.9024 8.37684 57.6167 8.59158 57.402 8.4487C57.1873 8.30499 56.8297 8.23396 56.5431 8.23396C56.2565 8.23396 55.9707 7.94735 55.9707 7.94735C55.9707 7.94735 55.5412 7.66169 55.5412 7.30315C55.5412 6.94563 55.1118 6.94565 54.8252 6.94565C54.5396 6.94565 54.6823 7.6617 54.6823 7.6617L55.0399 8.30497C55.0399 8.30497 55.0399 8.73445 54.7542 9.0929C54.4676 9.45051 54.4676 9.23577 53.8234 9.52245C53.1793 9.80812 53.394 10.2377 53.394 10.2377C53.394 10.2377 53.1082 10.5243 52.8216 10.5953C52.535 10.6672 52.6788 10.9537 52.3922 11.2394C52.1056 11.5261 51.9627 11.3832 51.9627 11.3832C51.9627 11.3832 51.6761 11.0247 51.4614 10.739C51.2475 10.4524 51.0327 10.4524 51.0327 10.4524C51.0327 10.4524 50.5314 10.3806 50.1739 10.0948C49.8154 9.80821 49.7443 9.66533 49.7443 9.66533L49.6006 8.94928L48.9573 8.73455C48.9573 8.73455 48.5988 8.44879 48.456 8.09035C48.3131 7.73273 47.8118 7.44705 47.4542 7.16046C47.2566 7.00139 46.9735 7.02026 46.7561 7.06792V6.7354L46.606 6.28266C46.606 6.28266 46.606 5.98072 46.5054 5.62945C46.4048 5.27818 46.5548 4.77509 46.5548 4.77509V4.27195C46.5548 4.27195 46.1532 4.32227 45.801 4.32227C45.4488 4.32227 45.4991 3.97007 45.4991 3.97007L45.2494 3.41751C45.2494 3.41751 45.1973 3.11566 45.0472 2.96468C44.8953 2.81371 44.6447 2.71314 44.2925 2.46151C43.9403 2.20998 43.9403 1.75804 43.9403 1.75804L43.4892 1.60707C43.4892 1.60707 43.2871 1.35553 42.9852 1.25487C42.6834 1.15422 42.2809 1.15425 42.2809 1.15425C42.2809 1.15425 42.0814 1.00336 41.5269 0.90363C40.9736 0.802979 40.4217 0.702317 40.4217 0.702317L39.7183 0.350119C39.7183 0.350119 39.4649 0.299805 38.863 0.299805C38.2601 0.299805 38.3607 0.400461 38.3607 0.400461H37.9079C37.9079 0.400461 37.4047 0.400451 36.9024 0.601661C36.3994 0.802964 35.8468 1.40587 35.8468 1.40587V1.95927C35.8468 2.2109 35.7956 2.31063 35.7956 2.31063C35.7956 2.31063 35.4937 2.31062 35.1425 2.26121C34.7911 2.20997 34.7903 2.26123 34.5387 2.56217C34.2881 2.8632 34.2369 2.71314 33.7346 2.71314C33.2324 2.71314 33.4328 2.86403 33.0806 2.96468C32.7291 3.06533 32.4274 3.16598 32.0248 3.46693C31.6223 3.76879 31.723 3.86943 31.3716 3.91975C31.0185 3.97008 31.1201 4.17128 30.8686 4.52347C30.617 4.87574 30.3654 4.57379 29.9134 4.72385C29.4597 4.87483 29.2593 5.1776 28.8065 5.42822C28.3546 5.67893 28.0527 6.03196 28.0527 6.03196C28.0527 6.03196 27.6502 5.93129 27.3995 5.98162C27.147 6.03195 26.9467 6.03196 26.9467 6.03196L26.5945 6.63567C26.5945 6.63567 26.2432 6.98695 26.1425 7.13783C26.042 7.28881 25.8407 7.33915 25.8407 7.33915L25.4885 7.5395C25.3286 7.63114 25.2442 7.76319 25.1965 7.88095L24.7113 7.77218L24.4723 7.67697C24.2333 7.58175 24.139 7.67698 23.8047 7.39039C23.4705 7.10463 23.8047 7.39039 23.4705 7.39039C23.1362 7.39039 22.5649 7.19983 22.5649 7.19983C22.5649 7.19983 22.3736 7.05612 22.2298 7.00938C22.0869 6.9609 21.8012 7.00941 21.3717 6.96092C21.1759 6.94022 21.1399 6.84673 21.1255 6.74074C21.1084 6.61313 21.1229 6.46585 20.9423 6.38857C20.608 6.24569 20.608 6.29333 20.2747 6.19728C19.9405 6.10104 20.0833 6.10281 19.9404 5.9591C19.7967 5.81622 19.8452 5.67334 19.8452 5.43532C19.8452 5.19538 19.6054 5.14862 19.4625 4.90969C19.3196 4.66975 18.9378 4.48024 18.652 4.24213C18.3654 4.00311 18.5083 3.95555 18.5083 3.95555C18.5083 3.95555 18.4606 3.62129 18.1273 3.23939C17.7931 2.8585 17.6503 3.66886 17.6503 3.66886L17.5551 4.57636C17.5551 4.57636 17.2684 4.76589 16.9341 5.10014C16.6 5.43531 16.3133 5.4353 15.98 5.52961C15.6458 5.62483 15.5029 5.57811 14.8821 5.62484C14.2613 5.67158 14.5488 6.1028 14.5488 6.1028V7.43888C14.5488 7.96357 14.4059 8.15401 14.0232 8.24924C13.6413 8.34455 13.4041 8.72736 13.4041 8.72736C13.4041 8.72736 13.4508 9.48923 13.4993 9.96719C13.547 10.4443 12.9746 10.3014 12.9746 10.3014C12.9746 10.3014 12.5919 10.3967 12.3062 10.5395C12.0195 10.6824 12.0195 10.8261 11.5434 10.7777C11.0654 10.73 10.9711 11.1604 10.9711 11.1604C10.9711 11.1604 11.0654 11.7327 11.0654 11.9708C11.0654 12.2089 10.875 12.4955 10.4455 12.4955C10.016 12.4955 10.2072 12.8783 9.77787 13.0212C9.3484 13.164 9.25319 12.7346 8.72767 12.5918C8.20197 12.4489 8.39424 12.8299 8.20297 13.1639C8.09698 13.3509 7.89926 13.3868 7.71241 13.3832C7.56686 13.3814 7.42847 13.3545 7.34392 13.3545C7.15348 13.3545 6.8669 13.4973 6.6288 13.5457C6.3907 13.5934 6.10413 13.6886 5.8651 13.88C5.62525 14.0695 5.29276 14.1657 5.00617 14.2133C4.71958 14.26 4.24335 14.2609 4.00432 14.3561C3.76447 14.4514 3.86156 14.7389 3.81391 15.2151C3.76625 15.6913 3.43205 15.7407 3.09873 15.9304C2.76448 16.1208 1.95312 16.3131 1.71419 16.456C1.47517 16.5997 1.71418 16.8855 1.61895 17.172C1.52364 17.4577 1.23796 17.6482 0.998113 17.9824C0.759089 18.3166 1.0942 18.4605 1.04663 18.9367C0.998145 19.4128 0.760044 19.5089 0.617163 19.6518C0.474283 19.7956 0.52195 20.0345 0.37907 20.6069C0.236189 21.1792 0.330553 21.3229 0.330553 21.4658C0.330553 21.6087 0.330584 21.7524 0.37907 22.3715C0.425807 22.9914 0.760019 22.7056 0.760019 22.7056C0.760019 22.7056 1.14184 22.9923 1.28472 23.0875C1.4276 23.1837 1.81032 23.0874 1.99985 23.1351C2.19038 23.1837 2.04844 23.517 2.33503 23.6598C2.6207 23.8027 2.7159 23.517 2.85878 23.3265C3.00258 23.1343 3.09873 23.3265 3.09873 23.3265C3.09873 23.3265 3.33677 23.4694 3.62253 23.5647C3.90912 23.6599 4.10047 23.4695 4.29009 23.1352C4.48054 22.8011 4.62518 22.9924 5.10231 22.9924C5.57851 22.9924 5.48326 23.04 6.1041 23.1838C6.72401 23.3266 6.53357 23.6133 6.67636 23.9466C6.82016 24.2817 6.53356 25.0445 6.53356 25.0445L6.6288 25.8549C6.6288 25.8549 6.62879 26.2367 6.43743 26.6653C6.24606 27.0947 6.19937 27.0481 5.91278 27.2385C5.62702 27.4308 5.53177 27.6203 5.3404 27.907C5.14903 28.1936 5.62701 28.6231 5.62701 28.6231C5.62701 28.6231 5.91275 29.1468 6.15076 29.4334C6.38978 29.7191 6.34221 29.4811 6.2469 29.8144C6.15075 30.1504 6.1041 30.1487 6.1041 30.4837C6.1041 30.8163 6.10412 30.4838 5.96124 30.8163C5.81836 31.1523 5.43562 31.0077 5.14903 30.9125C4.86327 30.8163 5.00617 31.1029 5.00617 31.1029C5.00617 31.1029 5.24518 31.2943 5.3404 31.7238C5.43562 32.1532 5.57853 31.9151 5.81838 32.0095C6.05649 32.1048 6.15077 32.1532 6.29457 32.2961C6.43745 32.4389 6.34222 32.5342 6.39071 32.7256C6.43744 32.917 6.48595 33.0597 6.34225 33.2503C6.19936 33.4426 6.2469 33.6798 6.2469 33.6798C6.2469 33.6798 6.3422 33.8702 6.43743 34.4434C6.53265 35.0157 6.19935 34.9672 6.29457 35.3015C6.38979 35.6366 6.67635 35.5404 6.91446 35.5881C7.15348 35.6366 7.24963 35.8263 7.48773 36.0175C7.68085 36.1713 7.81388 36.2979 8.00699 36.491C8.05281 36.5368 8.09956 36.5825 8.15541 36.6384C8.44107 36.924 8.20297 37.0678 8.20297 37.2107C8.20297 37.3535 8.34676 37.8307 8.39423 38.4992C8.40858 38.7066 8.41856 38.8612 8.42573 38.9789C8.48682 38.9816 8.54617 38.9905 8.59015 39.0121C8.73303 39.084 8.89382 39.2269 9.25226 39.2269H9.86058C9.86058 39.2269 10.1283 39.3517 10.1283 39.5135C10.1283 39.6743 10.2002 39.8351 10.272 39.925C10.343 40.0139 10.5578 40.1927 10.7195 40.2466C10.8803 40.3006 11.1661 40.3006 11.1661 40.3006C11.1661 40.3006 11.6495 40.2107 11.8103 40.3715C11.972 40.5332 11.9361 40.5332 12.0969 40.6222C12.2577 40.712 12.3116 40.8727 12.5084 40.8908C12.7052 40.9088 12.795 40.9088 12.9379 40.8369C13.0808 40.7659 13.0628 40.6581 13.2775 40.712C13.4922 40.7659 13.4564 40.748 13.636 40.73C13.7097 40.7219 13.8382 40.6905 13.9631 40.6563L14.0395 40.9789L14.3053 41.1693C14.3053 41.1693 14.6117 41.2843 14.6117 41.3993C14.6117 41.5134 14.3826 42.2394 14.5354 42.5449C14.6881 42.8503 14.7259 42.8512 14.8795 43.0031C15.0323 43.1549 14.9927 43.0795 15.07 43.3859L15.1464 43.6896C15.1464 43.6896 15.3377 43.729 15.5291 44.0346C15.7187 44.3391 16.4446 45.1028 16.4446 45.1028C16.4446 45.1028 16.9415 45.4856 17.2083 45.5996C17.4751 45.7137 17.7807 45.8666 17.7807 45.8666C17.7807 45.8666 18.1257 46.0202 18.2398 46.0579C18.3341 46.0894 18.6081 46.2502 18.7024 46.3049C18.5659 46.4182 18.4482 46.5269 18.4482 46.5269C18.4482 46.5269 18.3773 46.9923 18.5201 47.2779C18.663 47.5646 18.6988 48.4585 18.6988 48.4585L18.5201 48.9239C18.5201 48.9239 18.5201 49.3534 18.4482 49.6041C18.3773 49.8547 18.3054 49.9616 18.2694 50.1045C18.2335 50.2483 18.1265 50.5699 17.9837 50.8205C17.8399 51.0713 17.5542 51.0353 17.0888 51.2141C16.6234 51.3929 16.158 51.8224 16.158 52.0371C16.158 52.2518 15.5498 52.3597 15.2991 52.4306C15.0493 52.5025 14.7627 52.4666 14.3692 52.7173C13.9756 52.9679 13.7609 53.2537 13.5821 53.4684C13.4034 53.6831 13.5103 53.8259 13.4033 54.2203C13.3602 54.3758 13.3134 54.4773 13.2712 54.5546C13.4033 54.5411 13.5022 54.6139 13.6181 54.6139C13.7968 54.6139 14.4411 54.5061 14.4411 54.5061C14.4411 54.5061 15.0493 54.6849 15.264 54.6849C15.4787 54.6849 15.264 54.8637 15.264 54.8637L15.5138 55.6516C15.5138 55.6516 15.6935 56.4746 15.7285 56.6534C15.7645 56.8322 15.6217 57.0469 15.6217 57.0469L15.5138 57.5474C15.5138 57.5474 15.4429 57.834 15.1922 58.2275C14.9415 58.621 14.7987 59.1943 14.7987 59.1943C14.7987 59.1943 14.8346 59.6947 14.9056 60.0173C14.9774 60.3389 15.0134 60.303 15.1203 60.5536C15.2281 60.8043 15.5138 61.126 15.5138 61.126L15.9082 61.2338L16.0511 61.4485C16.194 61.6633 16.087 61.7702 16.087 62.0568C16.087 62.3425 16.158 62.2356 16.3728 62.4144C16.5875 62.5931 16.981 62.5213 17.4464 62.5573C17.6827 62.5761 17.9549 62.6031 18.1679 62.6255C18.1904 62.5141 18.2083 62.4287 18.2083 62.4287L18.8237 62.187L18.9584 61.8384L18.7706 61.3551L19.227 59.5582C19.227 59.5582 19.2801 59.1566 19.9773 58.8619C20.6745 58.5663 22.5244 57.6274 23.3294 57.4666C24.1345 57.3048 24.9907 57.2788 25.2863 57.2518C25.582 57.2249 26.387 57.0918 26.5478 57.0918C26.7086 57.0918 27.246 57.2788 27.246 57.2788C27.246 57.2788 27.405 57.5195 27.4858 57.5195C27.5667 57.5195 28.3708 57.5736 28.3708 57.5736L28.8802 57.3318C28.8802 57.3318 29.3097 57.6005 29.3366 57.6813C29.3637 57.7612 29.7391 57.949 29.7391 57.949C29.7391 57.949 29.846 58.1108 29.846 58.2716C29.846 58.4324 29.8999 59.0227 29.8999 59.0227C29.8999 59.0227 29.8451 59.1017 30.1407 59.3434C30.4355 59.5851 30.5163 59.6399 30.5432 59.7998C30.5702 59.9597 30.4103 59.8528 30.5702 59.9597C30.7302 60.0676 31.2126 60.2284 31.1057 60.3353C30.9979 60.4431 30.8101 60.55 30.7032 60.577C30.5971 60.604 30.5163 60.7378 30.5432 60.8187C30.5702 60.8996 30.6493 60.9795 30.7302 61.0604C30.8101 61.1403 30.9179 61.382 30.891 61.4898C30.864 61.5967 30.8101 61.7046 30.8101 61.7845V62.0522C30.8101 62.0522 30.7302 62.1591 30.7032 62.3201C30.6762 62.4817 30.5954 62.7756 30.6762 62.7756C30.7571 62.7756 31.1327 62.7486 31.1327 62.7486L32.2324 62.5617L32.4471 62.3201C32.4471 62.3201 32.3132 62.1044 32.1794 61.9983C32.0446 61.8923 31.9107 61.5428 31.9107 61.5428C31.9107 61.5428 31.7769 61.1403 31.9377 61.0604C32.0985 60.9795 32.3672 60.6039 32.528 60.6039C32.6879 60.6039 32.9835 60.5231 33.0635 60.4961C33.1443 60.4701 33.2261 60.4701 33.3052 60.4162C33.3842 60.3623 33.465 59.9597 33.465 59.9597C33.465 59.9597 33.4381 59.5582 33.519 59.5312C33.599 59.5052 33.7338 59.2644 33.8406 59.2105C33.9484 59.1566 34.0553 59.1036 34.0553 59.1036L33.7338 58.728C33.7338 58.728 33.2783 58.754 33.1175 58.728C32.9567 58.701 32.5011 58.5663 32.5011 58.5663C32.5011 58.5663 32.2595 58.3245 32.2325 58.2446C32.2065 58.1637 32.2325 58.0029 32.2325 58.0029L32.3403 57.896C32.3403 57.896 32.0717 57.8691 31.9648 57.7612C31.8569 57.6543 31.9108 57.4665 31.9917 57.3586C32.0717 57.2518 32.0447 57.0648 31.9648 56.9301C31.884 56.7961 31.8569 56.7961 31.7231 56.7423L31.5892 56.6892C31.5892 56.6892 31.777 56.5563 31.777 56.4215C31.777 56.2876 31.7231 56.2068 31.7231 56.0729C31.7231 55.939 31.6692 55.2948 31.6692 55.2948C31.6692 55.2948 31.777 55.16 31.5353 55.1331C31.2936 55.107 31.2127 55.1601 31.1858 54.9993C31.1597 54.8385 31.079 54.6238 31.1858 54.5429C31.2936 54.4639 31.3745 54.383 31.5892 54.33C31.803 54.2761 32.3403 54.5178 32.3403 54.5178L32.4203 54.0074L32.555 53.5528L31.8569 53.1764C31.8569 53.1764 31.803 52.9615 31.8569 52.8817L31.9108 52.8008L32.3134 52.7738C32.4742 52.8008 32.7689 52.8278 32.7689 52.8278V52.4522L32.8218 51.8889C32.8218 51.8889 32.9836 51.6211 33.1175 51.5672C33.2514 51.5141 33.5721 51.2185 33.5721 51.2185L33.9485 51.1917L34.8065 50.7639L34.8605 50.6561C34.9144 50.5492 34.776 50.5645 34.776 50.5645L34.8992 50.1503C34.8777 50.0605 34.9998 50.0587 34.9998 49.9023C34.9998 49.6364 35.0915 49.6777 34.9378 49.4486C34.7851 49.2195 34.7374 49.1522 34.6996 49.0372C34.6619 48.923 34.5362 48.6166 34.3906 48.2896C34.2657 48.0093 34.2145 47.8961 34.3286 47.7433C34.4426 47.5897 34.4993 47.551 34.4993 47.551C34.4993 47.551 34.7185 47.3237 35.0618 47.2465C35.4049 47.1692 35.7132 47.091 35.7132 47.091L36.4175 47.0506L37.3547 47.2501L37.5954 47.2771L37.6224 47.5187L37.9449 47.6526C37.9449 47.6526 38.3196 47.5187 38.3995 47.4918C38.4804 47.4648 38.7212 47.0893 38.7212 47.0893C38.7212 47.0893 38.5343 46.7667 38.6142 46.7137C38.6951 46.6598 39.0698 45.9365 39.1497 45.9365C39.2306 45.9365 39.6331 45.8286 39.767 45.9365C39.9018 46.0433 40.4112 46.5519 40.4112 46.5519C40.4112 46.5519 40.6789 46.6597 40.8128 46.7937C40.9476 46.9284 42.2073 48.0821 42.2073 48.0821L42.8515 48.2159L42.9593 48.6714L42.6906 48.9131C42.6906 48.9131 42.6906 49.2069 42.7176 49.3408C42.7446 49.4756 42.9853 49.5025 42.9853 49.6094C42.9853 49.7172 42.8515 50.0389 42.7976 50.1197C42.7446 50.1997 42.5298 50.0658 42.5029 50.1997C42.4758 50.3345 42.5029 50.4414 42.3951 50.4414C42.2881 50.4414 42.1533 50.3075 42.0734 50.4414C41.9925 50.5753 41.6979 51.0577 41.59 51.2455C41.4831 51.4333 41.3501 51.2725 41.2423 51.4602C41.1354 51.648 41.0006 51.7541 40.9476 51.835C40.8937 51.9149 40.9189 51.9418 40.8128 52.0497C40.7068 52.1565 40.8137 52.1044 40.6259 52.3183C40.4381 52.5322 40.5181 52.5591 40.2504 52.5591C39.9817 52.5591 39.8478 52.4254 39.8478 52.4254L39.6062 52.7209L39.5531 52.9887L39.3645 53.1235L39.3384 52.9617C39.3384 52.9617 39.0697 53.0965 39.0697 53.1766C39.0697 53.2574 39.1237 53.4721 39.0158 53.4721C38.9089 53.4721 38.8011 53.4991 38.7211 53.4991C38.6412 53.4991 38.3465 53.5791 38.2386 53.6599C38.1317 53.7408 38.0499 53.7138 38.0239 53.8208C38.0072 53.8914 37.9988 53.9717 37.9988 54.0615C37.9988 54.1954 38.0509 54.438 38.0509 54.518C38.0509 54.597 37.97 54.7309 38.1317 54.8117C38.2925 54.8926 38.4264 54.9186 38.3995 55.0265C38.3725 55.1333 38.0778 55.4559 38.0778 55.4559C38.0778 55.4559 37.9718 55.6168 37.837 55.6437C37.7032 55.6707 37.7552 55.6707 37.4076 55.6707C37.059 55.6707 36.6564 55.5098 36.6564 55.5098L36.6025 55.6707L37.005 56.0193C37.005 56.0193 36.8173 56.2879 36.6834 56.2879C36.5495 56.2879 36.0392 56.1531 36.0392 56.1531L36.1461 56.5548C36.1461 56.5548 36.2809 56.7165 36.1731 56.8234C36.0662 56.9304 36.04 56.9842 35.9062 57.0921C35.7723 57.1989 35.9601 57.0661 35.7723 57.1989C35.5837 57.332 35.5837 57.5468 35.5837 57.5468L35.9601 57.6816L36.4147 58.0032L36.9781 58.7813C36.9781 58.7813 37.1928 59.5053 37.1928 59.6393V60.0409C37.1928 60.0409 37.4075 60.2287 37.032 60.3086C36.7816 60.3626 36.6028 60.4252 36.4956 60.4965C36.3348 60.6043 36.173 60.8999 36.0661 61.1147C35.9601 61.3285 35.9331 61.4363 35.9331 61.705C35.9331 61.9718 36.2 62.776 36.227 62.8568C36.254 62.9368 36.3078 62.9377 36.2809 63.1246C36.254 63.3123 36.254 63.5271 36.227 63.6079C36.2 63.6888 36.1201 63.6349 36.2809 63.7957C36.4417 63.9565 36.4956 63.4471 36.4956 64.1442C36.4956 64.8413 36.3348 65.1091 36.3348 65.1091C36.3348 65.1091 36.3878 65.4838 36.2809 65.5107C36.173 65.5377 35.9062 65.4578 35.8522 65.5377C35.7984 65.6186 35.4237 65.7534 35.9601 65.9133C36.4956 66.075 36.6834 66.0211 36.7642 66.1819C36.8442 66.3427 37.005 66.4506 36.952 66.6114C36.8981 66.7722 36.7903 67.0947 36.7903 67.0947C36.7903 67.0947 36.6025 67.0948 36.4147 67.1208C36.227 67.1478 36.254 67.1738 36.1731 67.2808C36.0931 67.3885 36.094 67.4955 36.0132 67.4955C35.9331 67.4955 34.6995 67.5763 34.6995 67.5763L34.2971 67.7641V68.0849L34.7535 68.2997L36.0132 68.9709V69.3464C36.0132 69.5073 36.3608 69.669 36.3608 69.669L36.9251 69.749C37.1129 69.722 38.4803 69.6151 38.4803 69.6151L39.0158 69.1048L39.3115 68.5684C39.3115 68.5684 39.3914 67.8981 39.3914 67.818C39.3914 67.818 39.5747 67.7183 39.6547 67.4011C39.7338 67.0831 39.6799 66.978 39.9197 66.5557C40.157 66.1325 40.9233 65.9203 41.0024 65.7884C41.0823 65.6563 40.9494 65.4182 41.2926 65.3122C41.6368 65.207 41.9808 64.969 42.4301 64.7309C42.8792 64.4937 42.9323 64.3077 42.9853 64.2295C43.0374 64.1487 42.8784 64.0705 43.2225 63.6734C43.5675 63.2772 43.6978 63.2251 44.1218 63.1982C44.5441 63.172 45.1524 63.172 45.1524 63.172L45.3627 63.2772C45.3627 63.2772 45.8128 63.2781 46.103 63.2251C46.3941 63.172 46.4749 62.8809 46.6061 62.8279C46.7382 62.7759 46.7382 62.8019 47.0024 62.7758C47.2665 62.7489 47.1083 62.8028 47.2665 62.7489C47.4246 62.6949 47.6097 62.3536 48.0069 62.2727C48.404 62.1945 48.3752 62.2736 48.5881 62.1406C48.8002 62.0086 48.8783 61.8235 49.1173 61.6132C49.3555 61.4003 49.4606 61.3221 49.6988 61.2161C49.9368 61.1101 50.1219 60.925 50.148 60.7409C50.1741 60.5548 50.0959 60.6087 50.2009 60.3176C50.3061 60.0275 50.2271 60.1865 50.3061 60.0275C50.386 59.8684 50.3321 59.9735 50.3861 59.5773C50.4391 59.181 50.439 58.6518 50.439 58.6518C50.439 58.6518 50.4121 57.9116 50.4121 57.8334C50.4121 57.7525 50.5962 57.6743 50.5962 57.4363C50.5962 57.1983 50.3591 56.8289 50.3591 56.8289C50.3591 56.8289 50.3061 56.6699 50.28 56.3527C50.254 56.0356 49.989 55.4534 50.0689 55.058C50.1479 54.6618 50.4643 53.1281 50.6772 52.678C50.8874 52.2287 51.7859 50.5908 51.9989 50.1937C52.2091 49.7975 54.2449 47.6565 54.6151 47.2862C54.9844 46.917 56.6762 45.8065 56.8874 45.7275C57.0985 45.6484 57.5226 45.4094 57.8388 45.4094C58.156 45.4094 58.3141 45.4094 58.5271 45.4903C58.7373 45.5684 58.8433 45.5953 58.8433 45.5953C58.8433 45.5953 59.3976 45.5433 59.7409 45.3843C60.0859 45.2252 60.4812 45.12 61.0634 45.0931C61.6447 45.0661 61.4857 45.3313 61.4857 45.3313L61.8038 45.4903L62.0419 45.5415L62.1209 44.8552C62.1209 44.8552 62.2529 44.5907 62.1208 44.4057Z" fill="#D2DFD5" stroke="white" stroke-width="0.6"/>
</svg>
