<svg width="74" height="154" viewBox="0 0 74 154" fill="none" xmlns="http://www.w3.org/2000/svg">
<path d="M72.7982 65.7586V65.4244L72.6068 65.0426L71.9878 64.7569L71.7012 63.4686L71.6527 62.7049L71.4622 62.3706L71.129 62.8963L70.6034 63.6115L70.3652 64.1362L70.0785 64.4228L69.8872 64.0409L70.27 63.4687L70.3652 62.9906L70.4128 62.3231L70.6994 62.0841V61.7031L70.6034 60.9871V60.4624C70.6034 60.4624 70.7948 59.8423 70.7948 59.6987C70.7948 59.5558 70.9375 58.7454 70.9375 58.7454L71.1757 58.3635L70.8424 57.8865C70.8424 57.8865 70.8891 57.3618 70.8424 57.2189C70.7949 57.076 70.7462 56.5504 70.7462 56.5504C70.7462 56.5504 70.8423 56.2638 70.6996 56.1686C70.5567 56.0734 70.3653 55.7876 70.3653 55.7876L70.4605 55.3582L70.3167 54.9287L69.8872 54.546C69.8872 54.546 69.8873 54.165 69.792 53.927C69.6977 53.687 69.6016 53.4014 69.6016 53.2585C69.6016 53.1147 69.9358 52.8767 69.9358 52.8767C69.9358 52.8767 69.9359 52.829 69.9834 52.59C70.0311 52.3518 70.0786 51.4454 70.0786 51.4454L69.7445 51.0159L69.2315 50.6817L68.8729 50.324C68.8729 50.324 68.2647 49.8945 68.1218 49.608C67.9789 49.3223 67.8711 49.3223 67.8711 49.3223C67.8711 49.3223 67.156 48.7491 66.9772 48.6063C66.7974 48.4634 66.7238 47.5873 66.8055 47.405C66.8864 47.2225 66.8864 47.1624 66.9269 47.0204C66.9664 46.8784 67.1901 46.7365 67.271 46.6763C67.3518 46.6161 67.6555 46.6961 67.7157 46.6961C67.7777 46.6961 67.8783 46.4743 67.8783 46.4743C67.8783 46.4743 67.9197 46.1894 67.9197 46.1095C67.9197 46.0277 67.6357 45.7447 67.6357 45.7447C67.6357 45.7447 67.5135 45.6027 67.4532 45.5012C67.3931 45.4006 67.3518 45.4608 67.2709 45.3799C67.19 45.2999 67.1504 45.2379 67.1504 45.2379L66.704 45.0358L66.3194 44.9756C65.9348 44.9154 66.3194 44.9756 66.0562 44.6917C65.7929 44.4087 66.0364 44.6108 66.0768 44.3673C66.1163 44.1248 66.1774 44.2864 66.1972 44.1859C66.2179 44.0843 66.3599 43.8822 66.5215 43.8013C66.6842 43.7195 66.8262 43.6791 66.8262 43.6791C66.8262 43.6791 66.9061 43.5579 66.9268 43.4365C66.9466 43.3153 66.8054 43.1526 66.8054 43.1526C66.8054 43.1526 66.6626 42.9702 66.6626 42.8085C66.6626 42.6477 66.3599 41.6342 66.0562 41.2901C65.7525 40.9451 65.7722 40.8651 65.5485 40.7232C65.3267 40.5812 65.1856 39.5273 65.0832 39.1644C64.9817 38.7996 65.0032 38.7178 64.8208 38.5767C64.6385 38.4348 64.598 38.353 64.4767 38.2326C64.3545 38.1105 64.1937 37.9685 64.1523 37.6037C64.111 37.2398 63.8891 37.2398 63.8891 37.2398C63.8891 37.2398 63.7679 37.0781 63.6861 36.9567C63.6051 36.8346 63.2809 36.5724 63.2809 36.5724L63.1559 36.4259L63.0392 36.2884C63.0392 36.2884 62.8765 36.1456 62.8361 36.0855C62.7956 36.0253 62.6133 35.8429 62.6133 35.8429C62.6133 35.8429 62.4112 35.6605 62.3303 35.5392C62.2485 35.4179 61.8434 34.8914 61.8029 34.8097C61.7625 34.7296 61.7427 34.709 61.5604 34.5473C61.3779 34.3846 61.4588 34.4053 61.3977 34.2832C61.3375 34.1627 61.1353 34.1223 61.1353 34.1223C61.1353 34.1223 60.811 33.9597 60.7095 33.9183C60.6089 33.878 60.6286 33.7162 60.6088 33.5743C60.5881 33.4332 60.4058 33.2105 60.4058 33.2105C60.4058 33.2105 60.3042 33.2311 60.0005 33.6157C59.696 34.0002 59.8191 33.6758 59.8191 33.6758C59.8191 33.6758 59.7175 33.6758 59.3942 33.4935C59.0698 33.3111 59.4139 33.3317 59.4345 33.2716C59.4543 33.2106 59.4139 33.1898 59.4139 33.0685C59.4139 32.9481 59.3124 33.0487 59.1506 32.9886C58.9881 32.9266 58.8056 32.9266 58.8056 32.9266L58.7256 32.8664C58.6447 32.8053 58.3806 32.5627 58.3806 32.4198C58.3806 32.2797 58.2405 32.2797 58.2405 32.2797L58.0968 32.1377C57.9558 31.9948 57.9764 31.8133 57.8344 31.4899C57.6925 31.1655 57.2468 29.8277 57.2468 29.8277C57.2468 29.8277 56.9628 28.8368 56.9224 28.5538C56.8829 28.2698 56.5783 27.0955 56.5379 26.6903C56.4974 26.286 56.0734 23.5519 56.0734 23.4091C56.0734 23.2689 55.8694 21.7488 55.8694 21.7488V20.8574C55.8694 20.6768 55.8497 20.6149 55.8497 20.6149L55.829 20.5349C55.8093 20.4532 55.6682 20.4532 55.6071 20.312C55.5451 20.1702 55.6071 20.312 55.6071 20.2106C55.6071 20.1082 55.6682 20.1297 55.6682 20.1297L55.8092 20.1082L55.7687 19.401C55.7687 19.401 55.6879 18.287 55.7491 17.7398C55.8092 17.1935 55.829 16.4038 55.8497 16.3427C55.8694 16.2816 55.971 15.472 55.971 15.411C55.971 15.3508 55.9916 15.1684 56.0123 14.8638C56.0329 14.561 55.9512 14.2771 55.971 13.9123C55.9916 13.5475 55.8694 12.4757 55.8694 12.4757L56.0734 11.3615C56.0734 11.3615 56.4372 9.31576 56.4372 9.09293C56.4372 8.8701 57.227 6.01571 57.227 6.01571C57.227 6.01571 57.4696 5.58983 57.5711 5.36792C57.6718 5.14417 57.5711 5.02383 57.5513 4.90156C57.5307 4.7803 57.5918 4.73991 57.5918 4.73991C57.5918 4.73991 57.6116 4.61855 57.652 4.49729C57.6925 4.37511 57.6925 4.23316 57.6925 4.23316L57.8541 4.0508L57.7121 3.74803L57.5307 3.82806C57.5307 3.82806 57.0249 4.35542 56.9628 4.39498C56.9027 4.43537 56.7823 4.67891 56.7823 4.67891C56.7823 4.67891 56.458 5.12448 56.1741 5.34731C55.8892 5.56922 54.7966 6.17754 54.4328 6.2988C54.068 6.42006 53.4813 6.3599 52.7715 6.23772C52.0626 6.11646 50.9495 5.18474 50.9495 5.18474C50.9495 5.18474 50.2603 4.49738 50.2001 4.43537C50.1399 4.3752 49.9575 3.97002 49.6744 3.66632C49.3905 3.3617 49.0061 2.87666 48.8236 2.59264C48.6413 2.30964 48.5407 2.43192 48.4589 2.41112C48.3772 2.39052 47.9728 2.08774 47.5073 2.00687C47.042 1.92508 46.1695 1.8235 46.1695 1.8235C46.1695 1.8235 45.9072 1.60076 45.7248 1.43911C45.5424 1.27645 45.4625 1.21628 45.4005 1.1758C45.3403 1.13541 45.1175 0.892803 44.9755 0.771452C44.8336 0.649272 44.6315 0.528838 44.6315 0.528838L44.1462 0.305176C44.1462 0.305176 43.9019 0.324872 43.8417 0.344652C43.7814 0.365353 43.741 0.689663 43.741 0.689663C43.741 0.689663 44.0231 0.881947 43.8119 1.38686C43.6 1.89269 43.4328 2.3562 43.2226 2.56836C43.0107 2.77858 42.9692 2.82082 42.927 2.94751C42.8848 3.07328 42.8417 3.24219 42.7573 3.36887C42.6736 3.49473 42.7572 3.49473 42.5469 3.66356C42.3367 3.83257 42.0411 4.08585 42.0411 4.08585L41.8722 4.63309C41.8722 4.63309 41.8561 5.49203 41.8075 5.80106C41.76 6.10918 41.7123 6.4426 41.7123 6.4426C41.7123 6.4426 41.3556 6.96454 41.308 7.08313C41.2613 7.20356 41.2613 7.29787 41.2613 7.41637C41.2613 7.53505 41.237 7.72549 41.237 7.72549C41.237 7.72549 41.0941 7.86837 41.0708 8.03361C41.0475 8.20078 41.0709 8.31937 41.0475 8.46225C41.024 8.60421 40.9988 8.84231 40.9521 9.00939C40.9055 9.17472 40.8336 9.29331 40.8094 9.41283C40.786 9.53133 40.6674 9.72085 40.6674 9.72085C40.6674 9.72085 40.6908 9.81607 40.715 9.93475C40.7374 10.0533 40.7374 10.3381 40.7374 10.3381C40.7374 10.3381 40.7383 10.6714 40.6674 10.7191C40.5955 10.7667 40.5956 10.4585 40.5956 10.7666C40.5956 11.0758 40.5254 11.2654 40.4293 11.3839C40.3349 11.5026 40.2163 11.4326 40.2389 11.6687C40.2631 11.9078 40.2873 12.0731 40.2873 12.2392C40.2873 12.4063 40.263 12.7865 40.3107 13.0002C40.3574 13.2131 40.3817 13.357 40.3817 13.357C40.3817 13.357 40.5479 13.6416 40.6908 13.6885C40.8336 13.7371 40.9522 13.5699 40.9989 13.6651C41.0476 13.7604 41.3322 13.879 41.3322 13.879C41.3322 13.879 41.476 13.9024 41.5694 13.7118C41.6655 13.5223 41.76 13.2851 41.8561 13.2618C41.9495 13.2384 42.6161 12.7379 42.9252 12.6436C43.2333 12.5484 43.3987 12.5717 43.3987 12.5717C43.3987 12.5717 43.732 12.5717 43.804 12.4774C43.8749 12.3812 43.8506 12.2878 44.1597 12.2878C44.4688 12.2878 44.6826 12.3103 44.8497 12.1917C45.0159 12.0731 45.0627 11.8825 45.2999 11.7406C45.538 11.5985 45.6332 11.4558 45.9414 11.4558C46.2504 11.4558 46.3457 11.6454 46.7491 11.8125C47.1544 11.9787 47.13 12.0497 47.3906 11.9545C47.6529 11.8592 47.6997 11.9078 47.7482 11.8125C47.7958 11.7173 48.0797 11.3839 48.3663 11.2187C48.6502 11.0515 48.7454 11.0281 48.9584 11.0039C49.1731 10.9806 49.1975 10.6948 49.4822 10.5053C49.7671 10.3147 49.9809 10.0066 49.9809 10.0066C49.9809 10.0066 50.077 9.65084 49.9809 9.72076C49.8866 9.79188 49.767 9.95804 49.6251 10.0066C49.4822 10.0534 49.4354 9.81598 49.6008 9.64991C49.767 9.48274 49.9341 9.17463 49.9809 9.10277C50.0285 9.03267 49.9809 8.81885 50.2423 8.77027C50.5038 8.7227 50.5513 8.8655 50.6224 8.88887C50.6942 8.91316 50.7644 8.7469 50.9782 8.93744C51.1929 9.12789 51.2396 9.12789 51.5963 9.57889C51.953 10.03 52.0473 10.0775 52.2621 10.41C52.4769 10.7424 52.7841 11.4082 52.856 11.7173C52.927 12.0254 53.0222 12.1206 53.0455 12.2159C53.0697 12.3112 53.1408 12.6435 53.1408 12.6435L53.0941 13.0945C53.0941 13.0945 52.7607 13.7118 52.6888 13.8556C52.6187 13.9983 52.4525 14.0451 52.4283 14.1403C52.4049 14.2356 52.2387 14.5204 52.2387 14.5204C52.2387 14.5204 52.1902 15.019 52.1902 15.0909C52.1902 15.161 52.2621 15.7316 52.2621 15.7316C52.2621 15.7316 52.1201 16.825 52.1201 17.1817C52.1201 17.5384 51.9296 17.9428 51.8352 18.3461C51.74 18.7496 51.5729 19.6526 51.4544 19.8907C51.3358 20.1288 50.7661 21.0075 50.5513 21.2447C50.3375 21.4819 49.9108 21.9581 49.9108 21.9581C49.9108 21.9581 49.5782 22.2671 49.3879 22.3138C49.1983 22.3615 48.9602 22.3615 48.9602 22.3615L48.6979 22.1486C48.6979 22.1486 48.4849 21.8862 48.3412 21.6967C48.1992 21.5062 48.0096 21.2448 48.0096 21.2448L47.7239 20.9357C47.7239 20.9357 47.6772 21.0786 47.4391 20.9357C47.201 20.7928 47.1543 20.8648 47.059 20.7929C46.9638 20.7227 46.8452 20.5557 46.7023 20.5089C46.5604 20.4604 46.4885 20.4604 46.299 20.3661C46.1084 20.2708 46.2747 20.3428 46.1084 20.2708L45.9413 20.199C45.9413 20.199 45.7517 20.4128 45.4903 20.199C45.2297 19.9861 45.3959 19.7955 45.4903 19.7237C45.5864 19.6527 45.5378 19.7955 45.5864 19.6527C45.6331 19.5108 45.5613 19.3921 45.4678 19.2969C45.3717 19.2017 45.2064 19.0355 45.2064 19.0355L44.944 18.7021L44.8254 18.323L44.279 18.2512H44.0885C44.0885 18.2512 43.9224 18.0131 43.7804 17.9431C43.6384 17.8711 43.2332 17.7993 43.2332 17.7993L43.0904 17.8226L43.068 18.2036C43.068 18.2036 42.9717 18.2997 42.8298 18.4416C42.6878 18.5837 42.8532 18.5837 42.8532 18.6546C42.8532 18.7265 42.6879 18.8684 42.6879 18.8684V19.1542C42.6879 19.2719 42.6159 19.5342 42.6159 19.5342L42.3787 19.6052C42.3787 19.6052 41.8792 19.7489 42.3545 19.819C42.8298 19.8909 42.7345 19.7723 42.7345 19.7723L42.8298 19.8909C42.8298 19.8909 42.8306 20.0093 42.8064 20.0805C42.7812 20.1523 42.7812 20.4605 42.7812 20.4605C42.7812 20.4605 42.7579 20.6276 42.7345 20.7696C42.7112 20.9115 42.8532 20.9358 42.8532 21.031C42.8532 21.1263 42.6393 21.2682 42.5917 21.4354C42.5441 21.6016 42.6159 21.792 42.4973 21.8621C42.3787 21.934 42.1874 21.9816 42.164 22.0768C42.1406 22.1721 41.9269 22.5036 41.9269 22.5036C41.9269 22.5036 41.6411 22.8127 41.4506 23.0024C41.3243 23.1294 41.182 23.2405 41.0239 23.3357C40.7867 23.4777 40.0266 23.7165 39.8594 23.74C39.6933 23.7633 39.4093 23.7633 39.1703 23.5729C38.9322 23.3833 38.6241 23.0275 38.6007 22.9323C38.5774 22.8371 37.9601 21.8622 37.864 21.3168C37.7697 20.7697 37.483 19.0357 37.4596 18.5838C37.4363 18.1328 37.103 16.7546 37.103 16.3268C37.103 15.9001 36.9377 14.4257 36.961 13.9747C36.9843 13.5236 37.1748 12.4536 37.0796 12.0977C36.9843 11.7411 36.5809 11.4329 36.5809 11.4329C36.5809 11.4329 36.4146 11.2909 36.3194 11.1238C36.2242 10.9576 36.0104 10.8138 36.0104 10.8138L35.3455 10.5299H34.9654C34.8936 10.5299 34.703 10.6243 34.6096 10.6485C34.5135 10.6719 34.2997 10.7438 34.2997 10.7438C34.2997 10.7438 34.111 10.8858 34.0392 10.981C33.9672 11.0762 33.7525 11.2891 33.6338 11.4086C33.5162 11.5272 33.4686 11.955 33.279 11.9792C33.0886 12.0025 32.7553 11.9792 32.7553 11.9792L32.3994 11.7896C32.3994 11.7896 31.9951 11.5514 31.9233 11.4563C31.8522 11.3611 31.4245 10.981 31.4245 10.981L31.0687 10.601C31.0687 10.601 30.9259 10.3153 30.8073 10.1966C30.6887 10.0779 30.4272 9.79325 30.2843 9.7456C30.1423 9.69794 30.0471 9.60272 29.9285 9.57935C29.8099 9.55516 29.7614 9.36461 29.7138 9.55515C29.667 9.7456 29.6429 9.88848 29.6195 10.0304C29.5952 10.1732 29.3805 10.22 29.358 10.3638C29.3338 10.5057 29.358 11.1948 29.358 11.1948C29.358 11.1948 29.4299 12.0977 29.3814 12.3592C29.3337 12.6198 29.2151 12.9531 29.2151 12.9531L29.0014 13.1436L28.8818 13.3098C28.8818 13.3098 29.0247 13.547 28.8117 13.6189C28.5979 13.6889 28.3122 13.5236 28.3122 13.5236L27.9555 13.5003L27.6231 13.5236C27.6231 13.5236 27.4335 13.3575 27.4102 13.547C27.3859 13.7375 27.172 13.927 27.5045 13.927C27.8369 13.927 28.0508 14.0456 28.0508 14.0456C28.0508 14.0456 28.2879 14.1176 28.4542 14.2362C28.6213 14.3548 28.978 14.5443 28.978 14.6161C28.978 14.6881 29.1684 15.5434 29.1684 15.7806C29.1684 16.0187 29.1433 16.4688 29.1433 16.4688C29.1433 16.4688 29.0723 16.7788 29.2619 16.636C29.4524 16.4922 29.6671 16.2559 29.7381 16.4688C29.8099 16.6826 30.0705 16.7069 30.0705 16.7069L30.6176 16.7546H30.9977C30.9977 16.7546 31.2349 16.6126 31.3059 16.8021C31.3778 16.9927 31.6393 17.2532 31.4012 17.2532C31.1631 17.2532 31.0444 17.2056 30.8791 17.2056C30.712 17.2056 30.8073 17.0627 30.5701 17.2056C30.332 17.3493 30.1182 17.2532 30.0939 17.5623C30.0705 17.8713 30.3086 18.3933 30.0705 18.1804C29.8324 17.9665 29.5234 17.7761 29.5 17.5866C29.4766 17.396 29.3104 16.9207 29.3104 16.9207C29.3104 16.9207 29.12 16.7546 29.12 16.9927C29.12 17.2298 29.0732 18.7266 29.0014 19.0591C28.9295 19.3924 28.5494 21.8156 28.3832 22.3853C28.2178 22.9558 27.7408 24.334 27.5045 24.5237C27.2673 24.7141 27.2673 24.7384 27.1954 24.8336C27.1236 24.9288 27.0292 25.1185 27.0292 25.1185C27.0292 25.1185 26.7435 25.3556 26.5063 25.3556C26.2682 25.3556 26.2682 25.1903 26.0786 25.2838C25.8881 25.3799 25.4596 25.6171 25.4596 25.6171C25.4596 25.6171 24.961 26.353 24.677 26.4967C24.3913 26.6395 24.297 26.8292 23.8684 26.6629C23.4407 26.4967 23.465 26.3781 23.2754 26.2344C23.0849 26.0923 22.9663 26.069 22.9196 25.9972C22.8711 25.9261 22.6105 25.6647 22.3958 25.7833C22.181 25.9028 21.7785 26.4248 21.7785 26.4248C21.7785 26.4248 21.4929 26.3781 21.279 26.52C21.0652 26.6629 20.9466 27.0897 20.9466 27.0897C20.9466 27.0897 20.7795 27.8039 20.6132 28.0169C20.4479 28.2307 20.377 28.2784 20.3293 28.4212C20.2816 28.5631 20.1864 28.7294 20.1864 28.7294C20.1864 28.7294 20.0211 28.8246 19.8531 28.9198C19.6878 29.0142 19.5207 28.8489 19.3311 29.1813C19.1407 29.5128 19.1892 29.7033 19.1892 29.7033L18.9278 29.8938C18.9278 29.8938 18.7838 29.68 18.6887 29.8938C18.5944 30.1085 18.6654 30.2738 18.4758 30.37C18.2853 30.4635 17.9052 30.7725 17.9052 30.7725C17.9052 30.7725 17.7148 31.0591 17.8586 31.201C18.0005 31.343 17.9772 31.7707 18.3087 31.794C18.6411 31.8191 18.9987 31.7231 19.1406 31.8191C19.2827 31.9125 19.3303 32.1749 19.4499 32.3179C19.5693 32.4598 19.9718 33.458 19.9718 33.7671C19.9718 34.0752 19.8775 35.1678 19.7814 35.5011C19.7104 35.7545 19.422 36.3493 19.5881 36.8713C19.6412 37.0357 19.7356 37.1929 19.9018 37.3304C20.59 37.9009 20.6618 37.9243 20.6852 38.0681C20.7086 38.21 20.732 38.3052 20.9224 38.3995C21.112 38.4948 21.3986 38.5901 21.493 38.7796C21.589 38.9701 21.7544 40.1813 21.7786 40.4426C21.8011 40.7041 21.6116 41.5361 21.5172 41.9638C21.421 42.3905 21.4211 43.1039 21.4211 43.1039C21.4211 43.1039 21.3258 43.8892 21.3025 43.9593C21.2791 44.0311 21.0177 44.2449 21.0177 44.2449C21.0177 44.2449 20.9224 44.4346 20.899 44.5064C20.8757 44.5783 20.8757 44.6484 20.8505 44.7913C20.8281 44.9332 20.8281 45.0051 20.8281 45.1003C20.8281 45.1955 20.7804 45.4085 20.7804 45.4085L20.7086 46.1219C20.7086 46.1219 20.3519 46.953 20.3285 47.0248C20.3052 47.0968 20.1866 47.5001 20.1866 47.5001C20.1866 47.5001 19.4732 49.1389 19.3779 49.306C19.2827 49.4714 18.1426 51.1821 18.0239 51.2782C17.9053 51.3725 17.1695 51.8955 16.9081 52.0617C16.6466 52.228 16.2899 52.4418 16.2899 52.4418L15.8856 52.3708C15.8856 52.3708 15.6961 52.1094 15.5775 52.0375C15.4589 51.9674 15.3869 51.8712 15.2442 51.8245C15.1013 51.7769 14.935 51.7293 14.935 51.7293C14.935 51.7293 14.6502 51.6341 14.5549 51.5873C14.4597 51.5388 14.5307 51.5622 14.3402 51.5155C14.1507 51.4687 14.0321 51.3017 14.0321 51.3017L13.8183 50.9691C13.8183 50.9691 13.5334 50.6834 13.5334 50.9925C13.5334 51.3017 13.581 51.4202 13.581 51.5622C13.581 51.7059 13.6044 51.8955 13.6044 51.8955C13.6044 51.8955 13.5082 52.3232 13.7229 52.3474C13.9377 52.3708 14.0087 52.2512 14.0563 52.3474C14.103 52.4417 14.1264 52.2997 14.103 52.4417C14.0797 52.5845 14.0797 52.7508 14.0797 52.7508C14.0797 52.7508 13.8659 52.5127 13.7949 52.775C13.723 53.0365 13.7463 53.1784 13.8183 53.3213C13.8901 53.4632 14.0563 53.6304 14.0797 53.7247C14.1031 53.82 14.1507 54.0104 14.1507 54.0104C14.1507 54.0104 14.484 53.82 14.484 54.0104C14.484 54.2 14.4597 54.6753 14.5083 54.8415C14.555 55.0077 14.5802 55.1272 14.6503 55.2215C14.7203 55.3177 14.8407 55.4363 14.8407 55.4363C14.8407 55.4363 14.7455 55.7445 14.9584 55.6016C15.1722 55.4596 15.0769 55.4112 15.2908 55.4112H15.5055C15.5055 55.4112 15.8147 55.3644 15.8856 55.3878C15.9576 55.4111 16.0042 55.3644 16.0995 55.4363C16.1947 55.5073 16.1461 55.6977 16.4076 55.6016C16.67 55.5073 16.8594 55.2926 16.8594 55.2926H17.0266L17.2395 55.3644C17.2395 55.3644 17.7391 55.5073 17.5962 55.2215C17.4533 54.9376 17.3814 54.8173 17.3814 54.8173L17.358 54.5809C17.358 54.5809 17.6437 54.3905 17.739 54.3905C17.8333 54.3905 18.2134 54.2242 18.2134 54.2242C18.2134 54.2242 18.7363 54.0805 19.1396 54.2476C19.5449 54.4138 19.6159 54.4372 20.1379 54.8173C20.6608 55.1982 20.9465 55.4596 21.0885 55.7211C21.2304 55.9817 21.3741 56.1002 21.6114 56.623C21.8495 57.147 22.0624 57.5027 22.0624 57.5027V58.049C22.0624 58.049 21.8728 58.2862 21.9681 58.4532C22.0624 58.6195 22.1585 58.88 22.181 58.6661C22.2061 58.4532 22.3472 58.0723 22.3714 58.2628C22.3957 58.4532 22.5377 58.8099 22.5377 58.8099C22.5377 58.8099 22.6581 58.9762 22.5861 58.9995C22.5143 59.0228 22.3948 58.6904 22.3714 58.9519C22.348 59.2134 22.49 59.5701 22.49 59.5701L22.6086 60.6392C22.6086 60.6392 22.5861 62.3966 22.5861 62.659C22.5861 62.9204 22.348 65.0578 22.348 65.2717C22.348 65.4864 22.3005 66.127 22.2771 66.4595C22.2528 66.7928 22.0624 67.7668 22.0624 67.7668C22.0624 67.7668 21.659 69.4055 21.659 69.6912C21.659 69.976 21.6115 70.0946 21.5637 70.1899C21.517 70.2853 21.517 70.4046 21.517 70.4982C21.517 70.5943 21.6115 70.642 21.4928 70.8081C21.3741 70.9753 21.2555 71.6392 21.1595 71.9474C21.0651 72.2573 20.8989 72.6374 20.8989 72.6374C20.8989 72.6374 20.6851 73.1361 20.5189 73.3984C20.3518 73.6589 20.2799 74.0391 19.9484 74.0867C19.6159 74.1351 19.1883 74.2771 19.1883 74.2771C19.1883 74.2771 18.7365 75.1324 18.7597 75.4415C18.7838 75.7497 18.6887 76.0346 18.6887 76.0346C18.6887 76.0346 18.4983 76.0597 18.5225 76.4865C18.5468 76.9141 18.7372 77.2708 18.7372 77.437L18.5989 78.7362C18.5261 78.9877 18.4263 79.3076 18.3311 79.6077C18.1739 80.1055 18.0256 80.5493 18.0256 80.5493C18.0256 80.5493 16.9744 83.3166 16.881 83.6031C16.7849 83.8888 16.3087 85.798 16.1174 86.9427C15.926 88.0883 15.5432 89.8062 14.8774 90.6642C14.2081 91.5232 12.7768 92.4773 12.5873 92.764C12.3959 93.0496 11.6322 93.622 11.2503 94.2895C10.8694 94.9588 10.8694 95.7216 10.4867 96.1988C10.4867 96.1988 10.1183 96.6148 10.0195 96.8817C9.95236 97.0595 9.89698 97.2596 9.85325 97.4818C9.81369 97.6741 9.82802 97.7981 9.8236 97.9139L10.3061 98.0136C10.3061 98.0136 10.7103 98.4189 10.8964 98.5743C11.0841 98.7297 11.3006 98.5743 11.3006 98.5743C11.3006 98.5743 11.6744 98.604 11.8289 98.6669C11.9853 98.7297 12.0473 98.9148 12.3267 99.1017C12.6061 99.2886 12.8865 99.0712 13.0409 99.0712C13.1974 99.0712 13.4147 99.2258 13.6016 99.32C13.7875 99.4135 13.8809 99.444 14.0679 99.631C14.2539 99.8179 14.0679 99.879 14.0679 99.879L13.943 100.19C13.943 100.19 13.9736 100.377 14.0051 101.061C14.0365 101.744 13.819 102.335 13.819 102.335C13.819 102.335 13.7876 102.616 13.819 102.895C13.8496 103.175 14.1299 102.895 14.3788 102.895C14.6268 102.895 14.4408 103.361 14.4408 103.361C14.4408 103.361 14.7201 103.703 14.8757 103.828C15.0311 103.952 15.2484 103.983 15.4669 104.077C15.6843 104.169 15.9322 104.077 16.058 104.045C16.182 104.014 16.6797 104.045 16.6797 104.045C16.6797 104.045 16.8343 104.231 17.0517 104.418C17.27 104.605 17.5494 104.76 17.642 104.884C17.7355 105.009 18.2027 105.568 18.4506 106.004C18.6994 106.439 18.2026 106.906 18.2026 106.906L17.6734 107.807C17.6734 107.807 17.3311 108.055 17.2071 108.087C17.0831 108.118 16.4604 108.584 16.4604 108.584C16.4604 108.584 16.0876 108.895 15.8081 109.051C15.5287 109.206 15.5279 109.019 15.3733 108.988C15.217 108.957 15.1254 109.019 14.7516 109.019C14.3787 109.019 14.5647 108.957 14.1613 108.832C13.757 108.708 13.6015 109.113 13.6015 109.113C13.6015 109.113 13.2286 109.704 13.1972 109.796C13.1657 109.89 13.2907 110.263 13.2907 110.418C13.2907 110.573 13.3832 111.164 13.4147 111.475C13.4461 111.786 13.2592 112.034 13.1038 112.191C12.9483 112.345 12.9177 112.626 12.9177 112.626C12.9177 112.626 13.1973 112.905 13.1973 113.092C13.1973 113.278 13.1038 113.62 13.1038 113.62C13.1038 113.62 12.8864 113.931 12.7929 114.024C12.6986 114.117 12.4434 114.138 12.4434 114.138L12.3005 114.567V115.235L12.1577 115.52V116.237L12.3491 116.714C12.3491 116.714 12.3005 117.049 11.9196 117.334C11.5377 117.621 11.8244 117.716 11.8244 118.05C11.8244 118.384 11.9196 118.812 11.9196 118.812L12.8261 119.72L13.2556 120.149C13.2556 120.149 13.6366 120.054 14.0184 120.101L14.2574 120.341L14.4478 120.626C14.4478 120.626 14.562 120.803 14.5881 120.995C14.5962 121.047 14.6006 121.1 14.5907 121.151C14.5423 121.389 14.2574 121.485 13.5889 121.915C12.9205 122.344 12.6347 122.869 12.6347 122.869C12.6347 122.869 12.5395 123.25 12.3966 123.727C12.2538 124.205 12.11 123.966 11.7758 124.348C11.4416 124.73 11.7282 124.777 11.8244 125.111C11.9196 125.445 11.2988 125.35 11.2988 125.35L11.0122 125.827L10.6312 125.874C10.6312 125.874 10.1532 126.161 9.91513 126.352C9.67703 126.542 9.77227 127.401 9.77227 127.544C9.77227 127.687 10.0104 127.83 10.1065 128.069C10.2017 128.307 10.3446 128.499 10.3446 128.785C10.3446 129.071 10.3931 129.548 10.3931 129.787C10.3931 130.025 10.6312 130.168 10.7741 130.359C10.9169 130.55 10.7264 130.598 10.7264 130.598C10.7264 130.598 10.536 130.789 10.2494 130.979C9.96365 131.171 9.91516 130.979 9.7237 130.789C9.53316 130.598 9.15132 130.693 9.15132 130.693C9.15132 130.693 8.91324 130.741 8.67513 130.741H8.43609C8.43609 130.741 8.24565 130.979 7.86292 130.979C7.48111 130.979 7.62485 130.789 7.2906 130.646C6.95644 130.502 6.81352 130.741 6.57542 130.741C6.33548 130.741 6.33547 131.171 6.33547 131.171V131.935C6.33547 132.22 6.24119 132.315 5.81172 132.267C5.38225 132.22 4.95268 132.077 4.95268 132.077L4.52321 132.364C4.52321 132.364 4.18898 132.315 3.85565 132.315C3.51966 132.315 3.18723 132.602 2.71011 132.745C2.23215 132.888 2.28059 132.745 1.80356 132.745C1.32652 132.745 1.42255 133.27 1.42255 133.27C1.42255 133.27 1.23116 133.555 1.13594 134.033C1.0398 134.51 1.51686 134.414 1.75588 134.51C1.9949 134.606 1.852 134.749 1.9463 134.892C2.04161 135.035 1.89874 135.608 1.70821 135.894C1.51601 136.18 1.61216 136.085 1.66064 136.562C1.70821 137.039 1.66065 136.991 1.42255 137.611C1.1827 138.232 1.27885 137.946 0.563616 138.757C-0.152442 139.567 0.801685 140.188 0.944566 140.474C1.08735 140.76 1.23118 140.569 1.23118 140.569C1.23118 140.569 1.42256 140.522 1.61218 140.474C1.80438 140.426 1.9463 140.903 1.9463 140.903C1.9463 140.903 2.28058 141.476 2.28058 141.714C2.28058 141.953 2.09011 142.764 2.09011 143.528V144.339C2.09011 144.673 2.3282 144.72 2.42434 145.436C2.52057 146.151 2.28058 146.534 2.28058 146.534C2.28058 146.534 2.47117 147.106 2.47117 147.25C2.47117 147.393 2.37589 147.774 2.13778 148.298C2.03989 148.514 1.9347 148.565 1.84399 148.555C1.85834 148.661 1.89435 148.755 2.09022 148.775C2.51969 148.824 2.80538 148.775 2.94826 148.824C3.09197 148.871 3.28339 149.014 3.28339 149.014C3.28339 149.014 3.85483 149.205 4.18898 149.205C4.52314 149.205 4.18897 148.919 4.52321 149.205C4.85746 149.491 4.9518 149.396 5.19083 149.492L5.42982 149.587L5.91494 149.695C5.96259 149.578 6.04718 149.446 6.20699 149.354L6.55914 149.154C6.55914 149.154 6.76046 149.103 6.86102 148.952C6.96167 148.801 7.31295 148.45 7.31295 148.45L7.6652 147.846C7.6652 147.846 7.86552 147.846 8.11797 147.796C8.36868 147.746 8.77116 147.846 8.77116 147.846C8.77116 147.846 9.07305 147.493 9.52497 147.243C9.97781 146.992 10.1782 146.689 10.6319 146.538C11.0839 146.388 11.3354 146.69 11.587 146.338C11.8385 145.986 11.737 145.785 12.0901 145.734C12.4415 145.684 12.3408 145.583 12.7433 145.281C13.1458 144.98 13.4477 144.88 13.799 144.779C14.1512 144.679 13.9509 144.528 14.4531 144.528C14.9554 144.528 15.0066 144.678 15.2572 144.377C15.5087 144.076 15.5097 144.025 15.861 144.076C16.2123 144.125 16.5141 144.125 16.5141 144.125C16.5141 144.125 16.5653 144.025 16.5653 143.774V143.22C16.5653 143.22 17.1179 142.618 17.6209 142.416C18.1232 142.215 18.6264 142.215 18.6264 142.215H19.0792C19.0792 142.215 18.9785 142.114 19.5814 142.114C20.1834 142.114 20.4368 142.165 20.4368 142.165L21.1402 142.517C21.1402 142.517 21.692 142.617 22.2454 142.718C22.7999 142.818 22.9993 142.969 22.9993 142.969C22.9993 142.969 23.4019 142.969 23.7037 143.069C24.0056 143.17 24.2077 143.422 24.2077 143.422L24.6588 143.573C24.6588 143.573 24.6588 144.024 25.011 144.276C25.3632 144.528 25.6138 144.628 25.7657 144.779C25.9158 144.93 25.9678 145.232 25.9678 145.232L26.2176 145.785C26.2176 145.785 26.1673 146.137 26.5195 146.137C26.8716 146.137 27.2733 146.086 27.2733 146.086V146.59C27.2733 146.59 27.1233 147.093 27.2239 147.444C27.3245 147.795 27.3245 148.097 27.3245 148.097L27.4745 148.55V148.882C27.6919 148.835 27.9751 148.816 28.1727 148.975C28.5303 149.262 29.0316 149.547 29.1745 149.905C29.3173 150.263 29.6758 150.549 29.6758 150.549L30.3191 150.764L30.4628 151.48C30.4628 151.48 30.5337 151.623 30.8923 151.909C31.2498 152.195 31.7512 152.267 31.7512 152.267C31.7512 152.267 31.9659 152.267 32.1798 152.554C32.3946 152.839 32.6812 153.198 32.6812 153.198C32.6812 153.198 32.8241 153.341 33.1107 153.054C33.3972 152.768 33.2535 152.482 33.5401 152.41C33.8267 152.339 34.1124 152.052 34.1124 152.052C34.1124 152.052 33.8977 151.623 34.5419 151.337C35.1861 151.05 35.186 151.265 35.4727 150.907C35.7584 150.549 35.7584 150.12 35.7584 150.12L35.4008 149.476C35.4008 149.476 35.258 148.76 35.5436 148.76C35.8302 148.76 36.2597 148.76 36.2597 149.118C36.2597 149.476 36.6892 149.762 36.6892 149.762C36.6892 149.762 36.975 150.048 37.2616 150.048C37.5482 150.048 37.9058 150.119 38.1205 150.263C38.3352 150.406 38.6209 150.191 38.6928 150.621C38.7647 151.05 38.8356 151.05 39.2651 151.05C39.6946 151.05 39.6945 150.836 40.196 151.05C40.3675 151.124 40.6344 151.215 40.9066 151.302C40.9066 151.178 40.9138 151.051 40.9362 150.935C41.0154 150.539 41.2265 150.117 41.3316 149.985C41.4385 149.853 41.3585 149.799 41.6766 149.694C41.9938 149.588 42.5751 149.509 42.5751 149.509L43.1825 148.9C43.1825 148.9 43.4744 148.848 43.5796 148.795C43.6847 148.741 43.8437 148.69 43.8437 148.69L44.0549 148.9L44.2391 148.715L45.2175 147.95C45.2175 147.95 45.1384 147.712 45.3505 147.446C45.5607 147.182 45.6416 147.129 45.6416 147.05V146.706L45.5355 146.415L45.5086 146.178C45.5086 146.178 45.4286 145.2 45.5086 144.883C45.5876 144.566 45.5606 144.327 45.5876 144.248C45.6146 144.17 45.4825 144.038 45.6676 143.932C45.7904 143.861 45.8958 143.791 45.9839 143.721L46.1168 143.614C46.1168 143.614 46.1689 143.694 46.1689 143.402C46.1689 143.112 46.1428 142.768 46.1428 142.689V142.213C46.1428 142.213 46.1142 141.643 46.1142 141.179C46.1142 140.713 46.0432 140.248 46.186 139.926C46.3289 139.604 46.2938 139.21 46.2938 139.103C46.2938 138.996 46.3648 138.387 46.4726 138.065C46.5795 137.743 46.8302 137.457 46.8302 137.349C46.8302 137.243 46.8302 136.92 46.7942 136.777C46.7584 136.634 46.7224 136.384 46.7585 136.276C46.7943 136.169 46.9372 135.703 46.9372 135.703C46.9372 135.703 47.0091 135.417 47.0091 135.274C47.0091 135.131 46.7943 134.809 46.8303 134.2C46.8663 133.592 46.9732 132.59 46.9732 132.59L47.0091 131.946C47.0091 131.946 46.9022 131.803 46.9372 131.552L46.9732 131.302V130.801L46.7585 130.587C46.7585 130.587 46.7226 129.119 46.7226 128.654C46.7226 128.189 46.6875 126.901 46.6875 126.901C46.6875 126.901 46.5797 126.042 46.5438 125.898C46.5087 125.756 46.4009 125.505 46.4009 125.326C46.4009 125.147 46.4369 124.432 46.4728 124.253C46.5087 124.074 46.4009 123.323 46.4009 123.323L46.0433 122.786C46.0433 122.786 46.0074 122.606 45.8996 122.392C45.7927 122.177 45.2913 122.106 45.2913 122.106L45.3632 121.426C45.3632 121.426 45.0056 121.319 44.9696 121.211C44.9337 121.104 44.9696 120.818 44.9696 120.818L44.8978 120.639L44.719 120.102C44.719 120.102 44.2536 118.993 44.2536 118.599C44.2536 118.498 44.2301 118.311 44.1961 118.084C44.0973 117.433 43.9148 116.439 43.9679 116.094C44.0388 115.629 44.0748 114.412 44.0748 114.412C44.0748 114.412 44.3974 112.122 44.6831 111.12C44.9697 110.119 46.1143 107.829 46.4368 107.291C46.7585 106.755 47.5455 106.361 47.5455 106.361C47.5455 106.361 47.8321 106.147 47.9749 106.111C48.1187 106.075 48.3693 106.075 48.3693 105.968C48.3693 105.86 48.1546 105.502 48.1546 105.502C48.1546 105.502 48.4044 105.181 48.0827 105.216C47.7602 105.252 47.7962 105.216 47.5106 105.252C47.2239 105.288 47.3317 105.574 47.2239 105.288C47.117 105.001 47.152 104.822 47.2599 104.787C47.3668 104.751 47.5455 104.322 47.5455 104.322C47.5455 104.322 47.6175 104.107 47.6893 103.999C47.7603 103.892 47.975 103.499 47.975 103.499C47.975 103.499 47.9041 103.284 48.2617 103.284H48.8699C49.0847 103.284 49.2276 103.176 49.3354 103.32C49.4423 103.463 49.4422 103.427 49.4781 103.678C49.5141 103.928 49.8717 103.856 49.8007 103.999C49.7289 104.143 49.7289 103.963 49.7289 104.143C49.7289 104.322 49.621 104.071 49.7289 104.322C49.8358 104.572 50.0154 104.465 49.8358 104.572C49.657 104.679 49.6211 104.536 49.657 104.679C49.6929 104.822 49.7648 104.822 49.9076 104.858C50.0505 104.894 50.2302 104.894 50.2302 104.894V104.5C50.2302 104.25 50.0865 104.25 50.1942 103.999C50.3012 103.749 50.9094 103.105 51.4467 102.819C51.9831 102.532 52.4126 102.282 52.5195 102.282C52.6273 102.282 52.842 102.246 52.842 102.246L53.1996 102.353L53.5572 102.21C53.5572 102.21 54.2373 102.174 54.3452 102.138C54.4521 102.103 54.5599 102.103 54.7387 102.103C54.9175 102.103 55.0603 101.889 55.1322 102.103C55.2032 102.317 55.0963 102.067 55.2032 102.317C55.311 102.568 55.5976 103.069 55.5976 103.069C55.5976 103.069 55.7045 103.105 55.8124 103.069C55.9193 103.033 56.2058 102.819 56.2058 102.819L56.4916 102.712H56.8142V102.997C56.8142 102.997 56.7782 103.105 57.0289 103.212C57.2786 103.32 57.4584 103.248 57.4584 103.355C57.4584 103.463 57.5293 103.57 57.3147 103.606C57.0999 103.642 57.3147 103.535 57.0999 103.642C56.8852 103.749 57.029 103.535 56.8852 103.749C56.7423 103.963 56.9212 104.071 56.9212 104.071H57.3147C57.4225 104.071 57.2078 104.107 57.4225 104.071C57.6373 104.035 57.9949 104.035 57.9229 104.143C57.852 104.25 57.816 104.25 57.7442 104.393C57.6732 104.537 57.4585 104.679 57.5294 104.787C57.6012 104.894 57.6373 104.966 57.7442 105.073C57.852 105.181 57.9949 105.181 58.1376 105.252C58.2814 105.324 58.4243 105.216 58.4962 105.36C58.5671 105.502 58.7109 105.288 58.5671 105.502L58.4243 105.717C58.4243 105.717 58.8178 105.717 58.8897 105.86C58.9607 106.004 58.9966 105.968 58.9966 106.147C58.9966 106.325 58.6749 106.183 58.9966 106.325L59.3191 106.468L59.4261 105.466C59.4261 105.466 59.6049 105.36 59.569 105.109C59.5339 104.858 59.4979 104.465 59.3542 104.25C59.2114 104.035 59.3902 103.892 58.9966 103.784C58.6031 103.678 58.4243 103.678 58.4243 103.535C58.4243 103.391 58.3524 103.14 58.5312 103.14C58.7109 103.14 58.9607 103.069 58.9607 103.069C58.9607 103.069 59.2113 103.069 59.0685 102.926C58.9248 102.783 58.6031 102.317 58.3524 102.317C58.1017 102.317 57.852 102.461 57.852 102.461C57.852 102.461 57.852 102.21 57.816 102.067C57.7801 101.924 57.6372 101.709 57.6013 101.602C57.5654 101.494 57.4225 101.315 57.6373 101.279C57.852 101.244 57.9229 101.244 58.1376 101.244C58.3524 101.244 58.5313 101.387 58.6031 101.209C58.675 101.03 58.7109 101.137 58.7109 100.851C58.7109 100.564 58.6031 100.457 58.639 100.278C58.6749 100.099 58.639 100.457 58.6749 100.099C58.7109 99.7414 58.6749 99.4547 58.3165 99.2041C57.9589 98.9543 58.3165 98.8465 58.3165 98.8465C58.3165 98.8465 58.4244 98.9903 58.6031 98.9903C58.7819 98.9903 58.9607 98.8825 58.9607 98.9903C58.9607 99.0972 58.8538 98.9903 58.9607 99.24C59.0685 99.4907 59.3542 99.6694 59.3542 99.6694C59.3542 99.6694 59.5689 99.7054 59.6049 99.4907C59.6408 99.2759 59.6768 98.8465 59.6768 98.8465L59.569 98.1663L59.462 97.9166C59.462 97.9166 59.1395 98.0953 58.8897 98.1313C58.639 98.1663 58.9247 98.2023 58.639 98.1663C58.3524 98.1313 58.3524 97.9875 58.3524 97.8447C58.3524 97.7019 58.4243 97.5581 58.3165 97.5231C58.2096 97.4872 58.1736 97.4872 58.0307 97.4872C57.8879 97.4872 57.9949 97.5582 57.7082 97.5582C57.4225 97.5582 57.3865 97.3434 57.3865 97.3434V97.0577L58.1018 96.7001L58.6749 96.4494C58.6749 96.4494 59.1044 95.9841 59.1754 95.8052C59.2473 95.6265 59.2833 95.2329 59.2833 95.2329C59.2833 95.2329 58.8178 95.054 58.6749 95.0182C58.5312 94.9822 58.2454 94.9463 57.9948 94.8744C57.7441 94.8035 57.6012 94.6597 57.6012 94.6597H57.2786L57.3146 94.374L57.4224 94.0164C57.4224 94.0164 57.3864 93.6938 57.5653 93.658C57.744 93.622 57.9588 93.622 57.9588 93.622C57.9588 93.622 58.2095 93.7298 58.3164 93.6938C58.4242 93.658 58.639 93.5151 58.6749 93.4073C58.7108 93.3005 58.603 93.1215 58.8177 93.0856C59.0325 93.0496 59.2832 92.8349 59.2832 92.8349L59.39 92.5133C59.39 92.5133 59.6047 92.692 59.7124 92.692C59.8194 92.692 59.9623 92.6562 59.9623 92.6562L60.0701 92.1907L60.2489 91.7972C60.2489 91.7972 60.1419 91.8332 59.8913 91.8332C59.6407 91.8332 59.5337 91.8332 59.4977 91.7262C59.4618 91.6184 59.2831 91.2249 59.2831 91.2249L58.9964 90.4379C58.9964 90.4379 58.9964 90.1871 59.1753 90.1512C59.354 90.1153 59.8195 89.6148 59.8195 89.6148L60.5831 89.1369L61.0611 88.7559L60.6317 88.135C60.6317 88.135 60.8231 87.7056 60.8231 87.516C60.8231 87.3247 61.2525 86.9427 61.2525 86.9427C61.2525 86.9427 61.2039 87.2294 61.3468 87.1333C61.4906 87.038 61.8247 86.7038 61.8247 86.7038C62.1581 86.7523 62.2057 86.9904 62.2057 86.9904L62.3487 87.3247L62.6837 87.516C62.6837 87.516 62.9218 87.516 62.7781 87.2294C62.6352 86.9428 62.4923 86.6572 62.4923 86.6572C62.4923 86.6572 62.4915 86.561 62.301 86.1791C62.1105 85.7982 62.0144 85.702 62.0144 85.5591C62.0144 85.4154 61.9182 84.7002 61.8715 84.5098C61.8536 84.4387 61.8293 84.3139 61.8059 84.1872C61.7665 83.9707 61.7287 83.746 61.7287 83.746C61.7287 83.746 61.7287 83.269 61.8715 83.269H62.4923L63.0647 83.5079L62.7304 83.8412C62.7304 83.8412 62.7781 83.9374 62.9218 84.0803C63.0647 84.224 63.3028 84.5574 63.3028 84.5574C63.3028 84.5574 63.3989 84.6535 63.3989 84.9392C63.3989 85.2258 62.9694 85.1297 63.3989 85.2258C63.8284 85.321 64.0188 85.0821 64.0188 85.0821L64.2093 84.8915C64.2093 84.8915 64.6873 84.8915 64.3531 84.7002C64.0188 84.5097 63.7808 84.3669 63.7808 84.3669L63.6371 84.0326L63.9713 83.8889L64.0665 83.6508V83.4604L64.5444 83.746L64.6388 83.5079C64.6388 83.5079 64.6387 83.1737 64.5444 83.0309C64.4483 82.8871 64.4008 82.8871 64.2093 82.7442C64.0189 82.6014 63.9713 82.41 63.9713 82.41C63.9713 82.41 64.1618 81.8854 64.2093 81.6939C64.2579 81.5044 64.2579 81.1217 64.4007 81.1217C64.5445 81.1217 64.6388 81.075 64.6388 81.313C64.6388 81.551 64.6864 81.5512 64.5912 81.79C64.496 82.0282 64.4008 82.0767 64.496 82.2196C64.5912 82.3633 64.7825 82.5063 64.7825 82.5063L65.2596 82.4577L65.5463 82.3149L65.9758 82.0768C65.9758 82.0768 66.1186 82.0768 66.1186 82.2673C66.1186 82.4577 65.6891 82.3634 66.1186 82.4577C66.548 82.5529 66.7861 82.6015 66.929 82.6015H67.0727L67.2633 82.3149C67.2633 82.3149 67.0242 82.0768 66.7861 81.9339C66.548 81.7901 66.4519 81.5997 66.4519 81.5997C66.4519 81.5997 66.4995 81.4083 66.6433 81.4083H67.0727C67.2632 81.4083 67.6451 81.3607 67.6451 81.3607C67.6451 81.3607 67.7402 80.9788 67.5021 80.9788C67.2632 80.9788 67.1203 80.9789 66.929 80.9321C66.7376 80.8836 66.5947 80.9321 66.5947 80.6923C66.5947 80.4541 66.548 80.1676 66.548 80.1676C66.548 80.1676 66.4519 79.7389 66.5947 79.7389C66.7376 79.7389 66.7861 79.6904 66.929 79.7866C67.0727 79.8818 67.1195 79.977 67.3108 80.0247C67.5022 80.0732 67.8364 80.0732 67.8364 80.0732C67.8364 80.0732 68.1222 80.3589 68.2659 80.3589C68.4088 80.3589 68.6468 80.1199 68.6468 80.1199L68.7421 79.7866C68.7421 79.7866 68.4088 79.7866 68.2659 79.7389L68.1222 79.6904L67.3108 78.9744C67.3108 78.9744 67.2632 78.9744 67.2156 78.6886C67.1671 78.402 67.407 78.0687 67.407 78.0687C67.407 78.0687 67.5022 78.0687 67.6451 78.1639C67.7879 78.2592 67.4069 78.2125 67.7879 78.2592C68.1697 78.3068 68.4555 78.3068 68.5992 78.2125C68.7421 78.1164 68.9811 77.8783 68.9811 77.8783L69.0277 77.6392C69.0277 77.6392 68.8382 77.5431 68.5517 77.4964C68.2659 77.4488 68.5517 77.5917 68.2659 77.4488C67.9793 77.305 67.9793 77.0193 67.9793 77.0193L68.0261 76.6375H68.2174C68.2174 76.6375 68.2642 76.6851 68.4555 76.6851C68.6469 76.6851 69.4106 76.3985 69.4106 76.3985L69.8401 76.0652L69.8867 75.5396C69.8867 75.5396 69.7915 75.6357 69.5058 75.6357C69.2192 75.6357 68.9811 75.4928 68.9811 75.4928C68.9811 75.4928 69.2668 75.3015 68.885 75.2062C68.504 75.1101 68.3603 74.9205 68.3603 74.9205C68.3603 74.9205 68.1222 74.634 68.2174 74.4426C68.3126 74.2513 68.3126 74.1569 68.504 74.2512C68.6953 74.3474 68.504 74.2997 68.6952 74.3474C68.8849 74.395 69.0762 74.395 69.0762 74.395L69.1715 74.1569C69.1715 74.1569 69.0762 74.1083 68.981 73.9656C68.8849 73.8218 68.7896 73.8702 68.9333 73.6322C69.0762 73.3923 69.7438 73.298 69.7438 73.298L70.4122 73.1066L70.556 72.6304C70.556 72.6304 70.3161 72.5343 70.0304 72.6304C69.7438 72.7247 69.8866 72.9161 69.5057 72.9161H68.8382C68.6953 72.6304 68.742 72.3438 68.742 72.3438L68.981 72.1525L69.0277 71.6277C69.0277 71.6277 69.1715 71.9144 69.3143 71.9144C69.4572 71.9144 69.6971 71.8182 69.6971 71.8182L69.9352 71.58V71.1506C69.9352 70.9124 69.8866 70.7211 69.9827 70.5782C70.078 70.4353 70.4114 70.0059 70.4599 69.8622C70.5075 69.7193 70.6989 69.4327 70.6989 69.4327L70.9369 70.0059L71.5578 69.5764L72.0339 69.7193L72.1769 69.0032L72.4167 68.4309L72.4634 68.0966C72.4634 68.0966 72.3206 68.0014 72.1769 68.0014C72.034 68.0014 71.9387 68.0966 71.7006 68.2881C71.4617 68.4794 71.4617 68.7651 71.2236 68.7651C70.9846 68.7651 70.5075 68.7175 70.5075 68.7175L70.3161 68.2395L70.4122 67.9062L70.8417 67.7633L71.2711 67.8586L71.4141 67.5719L71.6045 66.952L71.8911 66.7616L71.9872 66.4273L72.2253 66.2359C72.2253 66.2359 72.5596 66.3788 72.7025 66.2844C72.8453 66.1892 72.7977 65.7597 72.7977 65.7597L72.7982 65.7586Z" fill="#D2DFD5" stroke="white" stroke-width="0.6"/>
</svg>
