<svg width="69" height="57" viewBox="0 0 69 57" fill="none" xmlns="http://www.w3.org/2000/svg">
<path d="M53.8622 3.32658C53.9843 3.17201 53.996 3.15049 54.0616 3.04892C54.129 2.95103 54.0068 2.97255 54.2072 2.90612C54.4057 2.8396 54.3833 2.89528 54.5055 2.81717C54.6276 2.73989 54.3949 2.70575 54.7058 2.7282C55.0158 2.75065 55.182 2.71743 55.1712 2.78303C55.1595 2.85038 55.049 2.89517 55.1595 2.89517C55.2701 2.89517 55.359 2.87274 55.359 2.87274C55.359 2.87274 55.492 2.85028 55.5576 2.98322C55.625 3.11635 55.5369 2.89519 55.6581 3.16117C55.7803 3.42715 55.7913 3.52595 55.7803 3.59247C55.7686 3.65981 55.8029 3.74694 55.7139 3.79192C55.6249 3.83682 55.5252 3.85928 55.5144 3.9258C55.5028 3.99222 55.5028 4.04797 55.5693 4.06949C55.6357 4.09102 55.7579 4.08027 55.7579 4.15847C55.7579 4.23575 55.8019 4.31304 55.7579 4.34625C55.7139 4.38038 55.5801 4.30135 55.5576 4.42445C55.5369 4.5457 55.5028 4.52328 55.5693 4.60139C55.6357 4.67959 55.7256 4.71278 55.7687 4.70201C55.8127 4.69125 55.8576 4.82246 55.9134 4.63469C55.969 4.44691 56.0562 4.03538 56.0678 3.99223C56.0787 3.94825 56.0679 3.97068 56.2018 3.83682C56.3339 3.7047 56.3339 3.67058 56.3896 3.55917C56.4453 3.44959 56.5342 3.30403 56.5342 3.30403C56.5342 3.30403 56.5674 3.19447 56.6779 3.19447C56.7893 3.19447 56.9331 3.15039 56.9888 3.0939C57.0436 3.03815 57.0535 2.96178 57.1209 2.95102C57.1882 2.94025 56.978 2.80548 57.3311 2.92858C57.6869 3.04892 57.7974 3.04892 57.7974 3.12804C57.7974 3.20615 57.9079 3.2043 57.7867 3.29336C57.6645 3.38224 57.5971 3.40478 57.5198 3.42723C57.4435 3.44968 57.1327 3.38215 57.4318 3.49366C57.7318 3.60425 57.9079 3.64904 57.9422 3.64904C57.9754 3.64904 57.9529 3.54931 57.9753 3.64904C57.9978 3.74785 57.9978 3.80278 58.0526 3.91493C58.1073 4.02552 58.1299 4.30135 58.208 4.09103C58.2853 3.8808 58.2296 3.70471 58.2629 3.63736C58.2961 3.56992 58.4838 3.53764 58.518 3.39393C58.5514 3.2493 58.4731 3.00585 58.4407 2.95102C58.4066 2.89526 58.385 2.87282 58.4065 2.77309C58.429 2.67336 58.5189 2.62938 58.5513 2.45237C58.5836 2.27361 58.5728 2.09661 58.5835 1.99687C58.5952 1.89806 58.729 1.49821 58.729 1.3545C58.729 1.20987 58.6509 1.14428 58.606 1.11014C58.562 1.07693 58.4963 1.02116 58.4963 0.954738C58.4963 0.889048 58.4406 0.821719 58.5179 0.756121C58.5952 0.689695 58.6168 0.633928 58.6168 0.600715C58.6168 0.566581 58.606 0.289834 58.5062 0.300599C58.4065 0.312375 58.3077 0.312391 58.2304 0.312391C58.1523 0.312391 58.1631 0.290862 58.0409 0.312391C57.9195 0.33484 57.8521 0.368122 57.7641 0.413019C57.6751 0.456169 57.6419 0.445414 57.5637 0.522604C57.4875 0.600807 57.3984 0.688861 57.3643 0.71131C57.3311 0.733759 57.4991 0.766145 57.288 0.766145C57.0759 0.766145 56.9106 0.756205 56.7893 0.756205H56.5117C56.5117 0.756205 56.3895 0.722059 56.3337 0.733744C56.2789 0.7446 56.1127 0.821811 56.0561 0.866801C56.0013 0.911698 55.8351 0.977288 55.7685 1.04371C55.703 1.11023 55.6132 1.24317 55.6132 1.24317C55.6132 1.24317 55.5036 1.28827 55.4146 1.32047C55.3247 1.3546 55.26 1.33213 55.2268 1.38788C55.1927 1.44354 55.1262 1.51007 55.1262 1.51007C55.1262 1.51007 54.9384 1.59811 54.8711 1.62056C54.8036 1.64301 54.6382 1.67623 54.5278 1.67623C54.4173 1.67623 54.3724 1.73107 54.305 1.67623C54.2394 1.62057 54.1514 1.54236 54.1514 1.54236C54.1514 1.54236 54.0948 1.36545 54.0067 1.49839C53.9187 1.63134 53.8404 1.84155 53.8404 1.84155C53.8404 1.84155 53.8513 1.99694 53.8845 2.04101C53.9186 2.086 54.0948 2.25218 54.0948 2.25218C54.0948 2.25218 54.1846 2.47408 53.8962 2.48494C53.8513 2.48577 53.5961 2.52891 53.5961 2.52891C53.5961 2.52891 53.5629 2.6511 53.5082 2.69599C53.4533 2.74006 53.4309 2.71761 53.3977 2.85056C53.3635 2.9835 53.4533 3.32677 53.4533 3.32677C53.4533 3.32677 53.7408 3.48289 53.8622 3.32658Z" fill="#D2DFD5" stroke="white" stroke-width="0.6"/>
<path d="M68.1109 22.1942C68.1109 22.1942 67.8962 22.409 67.6347 22.4574C67.3733 22.5042 67.5386 22.3856 67.5386 22.3856L67.3481 22.3613C67.3481 22.3613 67.0857 22.5518 66.8476 22.5518C66.6095 22.5518 66.7514 22.5285 66.7282 22.4089C66.7039 22.2894 66.8476 22.2427 66.9662 22.1942C67.0857 22.1466 67.1334 22.099 67.3481 22.0747C67.5628 22.0505 67.4667 21.9318 67.3715 21.8843C67.2771 21.8366 67.2053 21.86 67.2053 21.86C67.2053 21.86 66.9662 21.8366 66.8943 21.8366C66.8224 21.8366 66.7038 21.9318 66.5134 22.0513C66.3221 22.1708 66.3462 22.0029 66.1315 21.9561C65.9167 21.9086 65.7972 22.1233 65.7972 22.1233L66.012 21.6938L66.1073 21.4557L66.0838 21.3838C66.0595 21.3119 65.9166 21.4791 65.6543 21.5985C65.391 21.7172 65.5348 21.4557 65.5348 21.4557L65.6058 21.4071C65.6777 21.3595 65.7971 21.2644 65.9166 21.1923C66.0361 21.1205 66.0119 21.0495 66.0838 20.9542C66.1547 20.8581 66.2266 20.8823 66.3929 20.8348C66.5609 20.7862 66.5608 20.6676 66.5608 20.6676C66.5608 20.6676 66.7756 20.4287 66.8223 20.3101C66.8708 20.1906 66.8708 20.2139 67.0622 20.1906C67.2528 20.1671 67.2051 20.0477 67.2518 19.9524C67.3003 19.8562 67.2284 19.7844 67.1566 19.4511C67.0855 19.1168 67.0622 19.3082 67.0622 19.1653C67.0622 19.0216 66.9903 18.9739 66.9903 18.8787C66.9903 18.7826 66.8223 18.7592 66.7279 18.7358C66.6326 18.7107 66.5132 18.5678 66.2742 18.3774C66.0361 18.1869 66.1313 18.1869 65.9633 17.9479C65.797 17.7089 65.797 17.6622 65.797 17.566C65.797 17.4698 65.7252 17.4474 65.6309 17.3278C65.5356 17.2084 65.5105 17.3755 65.5105 17.3755C65.5105 17.3755 65.5348 17.4941 65.5105 17.6369C65.4871 17.7807 65.5104 17.6369 65.1762 17.7573C64.8429 17.8768 65.0576 17.7339 64.8186 17.4941C64.5805 17.255 64.7002 17.3278 64.6758 17.2326C64.6524 17.1365 64.1511 16.6836 64.223 16.5642C64.2939 16.4447 64.2463 16.4204 64.1987 16.2309C64.152 16.0395 64.1987 16.2309 64.0559 16.0395C63.913 15.848 64.1987 15.6333 64.5572 15.6333C64.9148 15.6333 64.7719 15.6333 64.8428 15.5624C64.9148 15.4905 64.8187 15.4186 64.7467 15.2758C64.6758 15.1329 64.532 15.1086 64.5572 14.9892C64.5814 14.8697 64.6524 14.8229 64.7719 14.7034C64.8914 14.583 64.6281 14.513 64.5806 14.3701C64.532 14.2263 64.6524 13.9155 64.7719 13.9155C64.8914 13.9155 64.8663 13.8688 64.9148 13.7259C64.9633 13.583 64.9381 13.4393 64.9614 13.2721C64.9867 13.1041 64.9615 13.0098 65.1528 12.8194C65.3443 12.6279 65.1762 12.7241 65.2482 12.5804C65.32 12.4375 65.4161 12.3657 65.5347 12.2695C65.6542 12.1734 65.6776 12.0314 65.7018 11.8885C65.727 11.7457 65.7018 11.8885 65.5823 11.7691C65.4629 11.6496 65.4395 11.7933 65.3676 11.7933C65.2957 11.7933 65.32 11.6972 65.2482 11.4824C65.1762 11.2677 65.3444 11.3396 65.4872 11.1967C65.6309 11.053 65.4872 11.053 65.559 10.9344C65.631 10.8148 65.559 10.7196 65.559 10.5525C65.559 10.3845 65.463 10.4807 65.4162 10.3854C65.3686 10.2901 65.3201 10.2901 65.3201 10.2901L65.2724 10.4339L65.2959 10.6487L65.225 10.8382L65.1054 10.9819C64.9868 11.1248 64.9617 11.1014 64.7955 11.149C64.6283 11.1966 64.6526 11.1014 64.4379 10.9819C64.2231 10.8615 64.4612 10.8634 64.5574 10.7438C64.6535 10.6234 64.6526 10.6234 64.8664 10.5291C65.0812 10.4338 64.9869 10.362 65.1299 10.2191C65.2726 10.0762 65.1299 10.0762 65.1299 9.90823C65.1299 9.74023 64.9869 9.71778 64.9869 9.71778L64.8665 9.78966C64.747 9.86151 64.747 9.83637 64.6284 9.90823C64.5098 9.97916 64.4613 10.0044 64.2942 10.0511C64.128 10.0978 64.199 10.0996 64.0795 10.123C63.96 10.1464 63.9852 10.362 63.9852 10.362L63.8881 10.5048L63.9106 10.5974L63.8081 10.7627L63.6625 10.6396L63.5377 10.5569H63.1038C63.1038 10.5569 62.5647 10.5767 62.4614 10.5767C62.3588 10.5767 62.0274 10.5974 62.0274 10.5974C62.0274 10.5974 61.9024 10.7834 61.5925 10.9082C61.2834 11.0322 60.9096 10.928 60.7641 10.8875C60.6204 10.8453 60.5988 10.7834 60.2475 10.6593C59.8943 10.5353 60.0822 10.5767 59.9996 10.5138C59.9168 10.4527 59.9996 10.5138 59.9996 10.4527C59.9996 10.3916 59.9779 10.3287 59.9779 10.2462C59.9779 10.1635 59.7507 10.2462 59.7507 10.2462C59.7507 10.2462 59.7911 10.1222 59.7911 10.0386C59.7911 9.95591 59.6887 9.76995 59.6887 9.76995C59.6887 9.76995 59.2952 9.50132 59.2332 9.5211C59.1721 9.5418 58.7785 9.66665 58.6329 9.66665C58.4874 9.66665 58.447 9.66665 58.3015 9.64512C58.1568 9.62442 57.9906 9.50132 57.9079 9.43839C57.8253 9.37555 57.6599 9.14913 57.4533 9.04489C57.2467 8.94249 57.1218 9.08711 57.1218 9.08711C57.1218 9.08711 56.9151 8.98381 56.7902 8.87957C56.6671 8.77625 56.7903 8.87956 56.7499 8.81755C56.7076 8.75655 56.5414 8.67292 56.5414 8.67292C56.5414 8.67292 56.3356 8.77624 56.2736 8.77624C56.2107 8.77624 56.0454 8.32074 56.0247 8.25873C56.005 8.19764 55.9833 8.17611 56.0247 7.86615C56.067 7.55528 56.0248 7.86614 56.1083 7.80413C56.1909 7.7412 56.2736 7.74121 56.3562 7.61728C56.4389 7.49326 56.3562 7.40972 56.3562 7.30722C56.3562 7.20308 56.1703 7.01622 56.0454 6.87242C55.9223 6.72779 55.8397 7.03774 55.8397 7.03774C55.8397 7.03774 55.6941 7.03776 55.5081 6.97667C55.3221 6.91374 55.4254 6.89304 55.3634 6.74841C55.3005 6.60286 55.2602 6.37467 55.2602 6.37467C55.2602 6.37467 54.9491 6.29196 54.8864 6.43751C54.8244 6.58223 54.8037 6.78971 54.8037 6.78971L54.6799 6.87242C54.6799 6.87242 54.5559 6.83112 54.1839 6.7278C53.811 6.62356 53.9341 6.52022 53.9341 6.52022C53.9341 6.52022 53.7688 6.52023 53.7068 6.4573C53.6457 6.39447 53.6654 6.29197 53.6861 6.20936C53.7068 6.12664 53.6861 6.04404 53.7068 5.96059C53.7284 5.87788 53.7481 5.73407 53.7481 5.67216C53.7481 5.61024 53.5828 5.61015 53.5001 5.40259C53.4175 5.19595 53.1892 5.29927 52.9009 5.29927C52.6099 5.29927 52.8587 5.4853 52.8587 5.4853C52.8587 5.4853 52.9413 5.73406 52.9413 5.79525C52.9413 5.85808 52.7957 5.92103 52.7957 5.92103C52.7957 5.92103 52.8173 6.18874 52.8173 6.25167C52.8173 6.31276 52.7957 6.4574 52.6933 6.52042C52.59 6.58243 52.59 6.3964 52.59 6.3964L52.5478 6.31285C52.5478 6.31285 52.4031 6.06492 52.342 5.96068C52.2792 5.85809 52.1336 5.81687 52.1336 5.81687L52.0726 6.04421C52.0726 6.04421 52.0509 6.49972 51.9683 6.54103C51.8856 6.58243 51.8452 6.70727 51.8452 6.70727C51.8452 6.70727 51.5344 6.62374 51.4922 6.54103C51.4518 6.45841 51.3062 6.54103 51.2442 6.54103C51.1822 6.54103 51.0582 6.66586 51.0582 6.66586C51.0582 6.66586 50.6862 6.58234 50.4993 6.54103C50.3125 6.49972 50.4167 6.54103 50.2712 6.62374C50.1265 6.70728 50.2712 6.62372 50.2091 6.64525C50.1481 6.66595 49.9001 6.62374 49.7959 6.62374C49.6917 6.62374 49.5056 6.41709 49.4643 6.33438C49.423 6.25176 49.1328 6.08643 49.1328 6.08643L48.803 6.16906L48.6583 6.12672L48.5954 5.85808L48.4507 5.8384L48.2846 5.75476L47.9952 5.62993L47.9737 5.75476C47.9737 5.75476 47.706 5.83839 47.6232 5.85808C47.5397 5.87786 47.1875 5.87787 47.1668 5.9408C47.1462 6.00364 47.1462 6.10612 47.1462 6.25167C47.1462 6.3963 47.1462 6.41701 47.1668 6.56265C47.1875 6.7082 47.1668 6.72798 47.1462 6.91392C47.1264 7.09903 46.9179 7.05947 46.8155 7.16187C46.7122 7.26519 46.733 7.24458 46.6089 7.28589C46.4849 7.32719 46.5047 7.30741 46.3601 7.32719C46.2163 7.34789 46.0492 7.39011 45.7598 7.36849C45.4706 7.34788 45.7598 7.36851 45.7598 7.30742C45.7598 7.24458 45.8227 7.14216 45.8227 7.14216C45.8227 7.14216 45.8838 7.03793 45.8838 6.93369C45.8838 6.83129 45.8632 6.83129 45.8632 6.83129L45.7185 6.99664L45.5532 7.05947L45.3879 7.34788L45.3259 7.4512C45.3259 7.4512 45.3878 7.53476 45.263 7.65878C45.139 7.78363 45.0151 7.84563 44.8695 7.94895C44.7248 8.05227 44.7042 8.13498 44.4759 8.17629C44.2495 8.2176 44.2279 8.2589 44.2279 8.2589L44.1453 8.38291C44.0627 8.50693 44.0224 8.44578 43.918 8.50696C43.8138 8.56888 43.6287 8.87975 43.3178 8.98399C43.007 9.08731 43.3178 8.98398 43.255 8.87974C43.1939 8.77642 43.2549 8.87974 43.1525 8.87974C43.0492 8.87974 43.1318 8.98399 43.0896 9.23194C43.0492 9.48007 43.0896 9.37574 43.0492 9.45928C43.007 9.54199 42.8622 9.68661 42.7588 9.77014C42.6556 9.85276 42.1793 10.2464 42.1793 10.2464C42.1793 10.2464 42.0554 10.2661 41.8685 10.2661C41.6825 10.2661 41.7032 10.2463 41.5576 10.1834C41.4122 10.1223 41.3717 10.1008 41.1865 10.1223C40.9997 10.143 41.0824 10.205 40.9172 10.205C40.7519 10.205 40.6072 10.205 40.441 10.1834C40.2739 10.1636 40.2963 10.1008 40.1921 9.95607C40.0878 9.81236 40.068 9.81146 40.0267 9.70722C39.9854 9.604 39.7994 9.64531 39.5515 9.58422C39.3035 9.52129 39.3861 9.47998 39.095 9.31465C38.8048 9.14932 39.095 9.31464 38.9099 9.35595C38.7231 9.39726 38.9099 9.35596 39.0125 9.54199C39.1158 9.72793 39.0754 9.6453 39.0754 9.77014C39.0754 9.89416 39.0331 9.93546 39.2407 10.081C39.4464 10.2256 39.3862 10.143 39.53 10.1834C39.6747 10.2256 39.6342 10.2256 39.7994 10.2661C39.9657 10.3084 39.8614 10.453 39.9027 10.5141C39.9441 10.577 40.1094 10.6398 40.2747 10.7225C40.4409 10.8052 40.5029 10.7837 40.6476 10.8878C40.7931 10.9911 40.7724 11.1161 40.8344 11.2815C40.8955 11.4468 40.8758 11.4261 40.9782 11.5914C41.0825 11.7568 40.9998 12.0047 40.9998 12.1493C40.9998 12.2948 40.9783 12.2948 40.9585 12.4602C40.9378 12.6255 40.9585 12.6687 40.9585 12.7909C40.9585 12.9166 40.9998 12.9571 40.9998 13.1017C40.9998 13.2473 40.8758 13.2473 40.7302 13.4332C40.5856 13.621 40.6269 13.7442 40.6269 13.8268C40.6269 13.9094 40.7931 14.0956 40.7931 14.0956L40.6898 14.9248C40.6898 14.9248 40.5245 15.5455 40.503 15.6696C40.4823 15.7937 40.2334 15.8979 40.0277 15.9176C39.9117 15.9294 39.7195 16.0632 39.5713 16.181C39.4553 16.2717 39.3646 16.3526 39.3646 16.3526C39.3646 16.3526 38.9513 16.9734 38.8686 17.0147C38.786 17.056 38.5164 17.6158 38.3088 17.7183C38.1022 17.8225 38.2056 17.7605 38.0393 17.8836C37.8741 18.0094 37.7716 18.1747 37.7716 18.1747C37.7716 18.1747 37.5847 18.2151 37.2532 18.2573C36.9226 18.2978 36.9837 18.1944 36.8183 18.1118C36.653 18.0292 36.3223 17.9662 36.1768 17.9267C36.0322 17.8836 35.7428 17.9267 35.4744 17.9267C35.2048 17.9267 34.8939 17.7398 34.8939 17.7398C34.8939 17.7398 34.5012 17.7605 34.3764 17.8009C34.2533 17.8431 33.7969 17.9267 33.7969 17.9267C33.7969 17.9267 33.5075 17.7605 33.052 17.6356C32.5965 17.5124 32.8868 17.6356 32.8248 17.6778C32.7619 17.7183 32.6998 17.781 32.6387 17.8836C32.5759 17.9877 32.3477 17.9465 31.9343 18.0094C31.5201 18.0705 31.4581 18.0498 31.2524 18.0705C31.0439 18.092 31.1069 18.1531 31.0035 18.2358C30.9002 18.3184 30.9003 18.3804 30.7753 18.5467C30.6505 18.7137 30.672 18.7335 30.672 18.7335C30.672 18.7335 30.4851 18.7955 29.8229 18.8566C29.1607 18.9196 29.6163 19.0848 29.5543 19.1882C29.4923 19.2916 29.3064 19.2089 28.8301 19.2304C28.3539 19.2502 28.727 19.4156 28.6846 19.5404C28.6442 19.6644 28.6019 19.6437 28.3332 19.7677C28.0628 19.8927 28.1877 19.7677 28.0638 19.6851C27.9398 19.6024 28.0027 19.5818 27.9605 19.5189C27.9201 19.4569 27.7117 19.2304 27.7117 19.2304C27.7117 19.2304 27.4635 19.1262 27.3397 19.1047C27.2157 19.0849 27.0494 18.961 26.9471 18.8567C26.8428 18.7542 26.6362 18.4435 26.6164 18.3401C26.5949 18.2359 26.6164 18.0921 26.656 18.0292C26.6991 17.9663 26.1187 17.4497 26.0774 17.3877C26.036 17.3248 25.7889 16.9537 25.7889 16.8711C25.7889 16.7884 25.6847 16.4568 25.6847 16.4568C25.6847 16.4568 25.4367 15.898 25.3532 15.7328C25.2705 15.5665 25.3119 15.6285 25.0837 15.4012C24.8563 15.173 24.8985 15.2763 24.7727 15.111C24.6505 14.9457 24.753 14.987 24.7332 14.8828C24.7117 14.7795 24.7943 14.5117 24.2768 14.2206C23.7601 13.9322 24.0908 14.0975 23.7799 13.9097C23.469 13.7238 23.7799 13.9097 23.6146 13.6825C23.4493 13.4561 23.5519 13.4757 23.5122 13.2691C23.4691 13.0625 23.4907 13.165 23.3254 13.1245C23.16 13.0823 23.2427 13.2278 23.2211 13.2907C23.2014 13.3518 23.098 13.4561 23.0351 13.4964C22.9732 13.5387 22.8069 13.6618 22.6623 13.6618H22.435C22.2949 13.6618 22.275 13.6474 22.2795 13.6348C22.2507 13.6689 22.1295 13.8226 22.1654 13.9519C22.2076 14.0966 22.3523 13.9727 22.4764 13.9933C22.6004 14.0149 22.6004 13.9933 22.7657 14.0149C22.8765 14.0281 22.9663 14.0415 23.0352 14.0553C23.1386 14.076 23.0766 14.3456 23.0352 14.4686C22.993 14.5944 22.8492 14.6555 22.8492 14.6555L22.8277 15.0697L22.6004 15.3392C22.6004 15.3392 22.2284 15.4219 22.1251 15.4219C22.0218 15.4219 21.8762 15.5665 21.6894 15.6698C21.5033 15.7732 21.3578 15.8352 21.0693 15.9178C20.7791 16.0005 20.7791 16.146 20.5931 16.2493C20.4062 16.3517 19.62 17.1191 19.62 17.1191H19.4341C19.4341 17.1191 19.2678 17.1389 19.1852 17.2017C19.1025 17.2637 19.081 17.3877 19.081 17.3877L19.2472 17.5333C19.2472 17.5333 19.0199 18.7542 18.9985 18.8162C18.9787 18.8782 18.7927 19.4785 18.7307 19.6644C18.6678 19.8522 18.71 19.7893 18.648 19.9753C18.5851 20.1604 18.6481 19.9753 18.5447 20.0777C18.4405 20.1819 18.4818 20.0777 18.1709 20.2035C17.86 20.3267 18.0685 20.2232 17.6948 20.1604C17.3236 20.0993 17.6948 20.1604 17.5097 20.1604C17.3237 20.1604 17.489 20.2645 17.489 20.3266C17.489 20.3886 17.4054 20.4515 17.3228 20.5539C17.2402 20.6572 17.2608 20.7821 17.2814 20.9061C17.3012 21.031 17.2814 20.9061 17.3641 21.1549C17.4468 21.403 17.3434 21.4245 17.3012 21.5682C17.2608 21.713 17.3012 21.5682 17.2186 21.6096C17.1359 21.6509 17.2186 21.8998 17.2186 21.8998L17.0739 22.252L17.0326 22.5629C17.0326 22.5629 17.0954 22.7066 17.0954 22.8108C17.0954 22.9133 17.0739 22.9339 17.0739 22.9339C17.0739 22.9339 17.0326 23.0166 16.95 23.1002C16.8672 23.1846 16.95 23.3696 17.0128 23.4523C17.074 23.535 17.1153 23.535 17.3012 23.721C17.4881 23.907 17.3641 23.9492 17.3838 24.1145C17.4053 24.2798 17.3227 24.3831 17.2401 24.5485C17.1575 24.7138 17.1152 24.7353 17.0532 24.8593C16.9912 24.9834 16.8259 25.2322 16.7217 25.3984C16.6193 25.5637 16.5987 25.6042 16.4953 25.7695C16.3911 25.9348 16.3911 26.0803 16.3084 26.163C16.2258 26.2457 15.8322 26.5772 15.5222 26.8054C15.2123 27.0337 13.2455 28.2529 13.2455 28.2529L12.251 28.6051L11.9005 28.9564C11.9005 28.9564 11.2582 29.5574 11.1557 29.6185C11.0515 29.6814 10.5349 30.2807 10.5349 30.2807C10.5349 30.2807 10.4936 30.4056 10.4522 30.5287C10.4109 30.6544 10.285 30.7982 10.2024 30.9429C10.1198 31.0875 10.0371 31.2124 9.9545 31.2735C9.87179 31.3364 9.78914 31.295 9.72713 31.3364C9.66604 31.3778 9.41811 31.4613 9.3354 31.5017C9.25186 31.5439 9.00302 31.6473 8.92031 31.7497C8.83769 31.8539 8.48545 32.1234 8.48545 32.1234L7.9257 32.2258C7.9257 32.2258 7.82332 32.4747 7.76039 32.4945C7.6993 32.5161 7.01553 32.8683 6.91313 32.9096C6.8089 32.9509 6.66429 33.0965 6.51966 33.1576C6.37411 33.2196 6.39563 33.3022 6.33362 33.3444C6.27079 33.3849 6.33365 33.6958 6.31212 33.7784C6.29142 33.8611 6.12608 33.7784 6.12608 33.7784C6.12608 33.7784 5.83587 33.5925 5.77478 33.5925C5.71185 33.5925 5.67056 33.6328 5.67056 33.6328L5.42258 33.7173L5.40107 34.1522L5.27787 34.172L5.11255 34.048C5.11255 34.048 4.8645 33.9437 4.73873 33.9437L4.57342 34.1306C4.57342 34.1306 4.42786 34.0893 4.36677 34.048C4.30476 34.0066 4.13951 34.0695 4.13951 34.0695L4.16012 34.5026L3.89148 34.3175L3.72616 34.2753C3.72616 34.2753 3.58061 34.3372 3.58061 34.4002C3.58061 34.4612 3.64171 34.5232 3.64171 34.5232L3.76575 34.5655C3.89152 34.6059 3.93197 34.7514 3.93197 34.8134C3.93197 34.8764 3.8915 34.897 3.78726 34.9797C3.68311 35.0623 3.64171 35.1037 3.64171 35.1037L3.5591 35.021L3.37222 34.9384C3.18711 34.8557 3.18714 34.9384 3.18714 34.9384V35.1863C3.18714 35.2474 3.10448 35.2078 3.00116 35.1863C2.89692 35.1648 3.00116 35.1863 3.02177 35.0417C3.04155 34.897 3.02177 34.9384 3.00116 34.8341C2.98046 34.7308 2.85565 34.7928 2.75307 34.7928C2.64883 34.7928 2.64879 34.9994 2.46202 35.0821C2.27516 35.1648 2.29674 35.2276 2.17272 35.33C2.0487 35.4343 1.96612 35.4559 1.96612 35.4559C1.96612 35.4559 1.09543 36.2627 0.930193 36.3247C0.764864 36.3858 0.682156 36.5115 0.578837 36.552C0.476437 36.5942 0.4342 36.7379 0.351581 36.8214C0.268042 36.9041 0.311094 36.9867 0.311094 36.9867C0.311094 36.9867 0.393799 36.9867 0.516899 36.9652C0.641747 36.9454 0.620241 36.8825 0.70378 36.8421C0.786398 36.7999 0.807087 36.6768 0.869097 36.5942C0.930187 36.5114 0.88969 36.4684 0.9517 36.4072C1.0127 36.3461 1.09545 36.2626 1.09545 36.2626C1.09545 36.2626 1.63449 36.1179 1.82052 36.0146C2.00737 35.9104 1.84206 35.9311 1.92468 35.8071C2.00739 35.6831 2.33803 35.7657 2.33803 35.7657C2.33803 35.7657 2.54464 35.7864 2.64879 35.7864C2.75303 35.7864 2.64881 35.8897 2.62728 36.0146C2.6075 36.1386 2.62728 36.242 2.62728 36.242L2.35954 36.2626C2.35954 36.2626 2.3173 36.3857 2.39991 36.4684C2.48263 36.5519 2.39996 36.4684 2.71084 36.4684C3.02172 36.4684 2.83575 36.4486 2.93815 36.4072C3.04147 36.3659 3.10443 36.2833 3.22836 36.242C3.35238 36.2006 3.43495 35.9939 3.47645 35.9311C3.51775 35.8682 3.47647 35.8071 3.51778 35.7244C3.55908 35.6408 3.66331 35.5582 3.74593 35.4962C3.82864 35.4342 4.17991 35.082 4.24284 34.9796C4.30476 34.8763 4.34528 34.9383 4.47105 34.9383C4.59323 34.9383 4.75944 34.8763 4.967 34.7711C5.17539 34.6687 5.02983 34.6885 5.13232 34.6479C5.23564 34.6057 5.46393 34.6057 5.62917 34.586C5.7945 34.5653 5.73153 34.4198 5.91848 34.2751C6.10533 34.1304 6.08558 34.0693 6.25091 34.0065C6.41624 33.9435 6.43686 33.9436 6.56088 33.9238C6.6849 33.9032 6.68487 33.8609 6.83042 33.5716C6.97413 33.2814 6.97414 33.3847 7.09816 33.2814C7.22393 33.179 7.22392 33.2814 7.40903 33.3442C7.59497 33.4062 7.40904 33.3442 7.51235 33.4063C7.61659 33.4673 7.57519 33.55 7.57519 33.55C7.57519 33.55 7.65789 33.5096 7.74051 33.4269C7.82322 33.3442 7.80252 33.2813 7.88606 33.2193C7.96877 33.1573 7.96881 33.2193 8.17452 33.2193C8.38208 33.2193 8.25805 33.1367 8.29935 33.053C8.34076 32.9704 8.36231 32.9309 8.4234 32.9309C8.48541 32.9309 8.50608 32.9309 8.69294 32.992C8.87888 33.0529 8.8583 33.1573 8.94092 33.24C9.02445 33.3226 9.04422 33.4268 9.12684 33.5095C9.20946 33.5921 9.20947 33.4673 9.23017 33.3846C9.25087 33.3019 9.25085 33.1367 9.355 33.0962C9.45924 33.0531 9.56164 33.1573 9.56164 33.1573C9.56164 33.1573 9.74847 33.3226 9.78895 33.3846C9.83118 33.4476 9.66585 33.4269 9.60292 33.4476C9.541 33.4672 9.56164 33.55 9.56164 33.55C9.56164 33.55 9.91382 33.5302 10.1195 33.55C10.3279 33.5715 10.1195 33.6542 10.1195 33.7997C10.1195 33.9444 10.0792 33.8824 10.0369 33.9435C9.99654 34.0064 9.97584 34.0262 9.97584 34.0262C9.97584 34.0262 10.1627 34.0261 10.2454 34.0477C10.328 34.0692 10.0999 34.275 10.0369 34.3576C9.97584 34.4404 9.8312 34.5023 9.72696 34.523C9.62364 34.5445 9.64435 34.5652 9.56164 34.6056C9.47902 34.6478 9.43761 34.7098 9.355 34.7925C9.27238 34.8752 9.50055 35.0207 9.50055 35.0207V35.3927C9.50055 35.4556 9.56072 35.4754 9.39548 35.5993C9.23015 35.7243 9.29208 35.6209 9.23017 35.744C9.16816 35.8689 9.23017 35.744 9.23017 35.8267C9.23017 35.9093 9.41611 36.1798 9.49965 36.2624C9.58236 36.3459 9.58231 36.2418 9.68563 36.2004C9.78895 36.1591 9.72602 36.0972 9.83118 36.0144C9.9345 35.9317 9.97584 35.9515 10.0586 35.9515C10.1412 35.9515 10.0586 36.1178 10.0586 36.2004C10.0586 36.2555 10.031 36.3382 9.97584 36.4485C9.89322 36.6138 9.83118 36.6138 9.83118 36.6138L10.1412 36.6964C10.1412 36.6964 10.0172 36.7378 9.95433 36.7998C9.89324 36.8627 9.81052 36.966 9.81052 36.966C9.81052 36.966 9.72602 36.9876 9.58231 37.0073C9.43759 37.028 9.39548 37.0487 9.31277 37.1107C9.23015 37.1736 9.25077 37.2975 9.23017 37.3586C9.20947 37.4215 9.02436 37.6066 9.02436 37.6066C9.02436 37.6066 9.33347 37.8348 9.39548 37.8761C9.4574 37.9174 9.74847 37.9804 9.74847 38.0424C9.74847 38.1035 9.83118 38.187 9.83118 38.187C9.83118 38.187 9.93449 38.2912 10.0998 38.3532C10.2652 38.4143 10.2238 38.3533 10.328 38.2912C10.4306 38.2283 10.5131 38.0631 10.5761 37.9174C10.638 37.7728 10.6588 37.8555 10.6588 37.8555C10.6588 37.8555 10.7819 37.9381 10.8654 38.0011C10.9499 38.0631 10.9696 38.1044 11.0927 38.1259C11.2176 38.1457 11.1754 38.1259 11.2383 38.1044C11.3011 38.0837 11.4036 37.9804 11.5069 37.9174C11.6103 37.8555 11.6102 37.8348 11.6929 37.7935C11.7764 37.7522 11.9625 37.7728 12.0658 37.8348C12.1709 37.8977 12.0658 37.8348 12.2733 37.9597C12.479 38.0837 12.2733 37.9597 12.418 37.8977C12.5618 37.8348 12.5618 37.8555 12.7486 37.8555C12.9355 37.8555 12.8528 38.1044 12.8528 38.1044C12.8528 38.1044 12.8106 38.2282 12.6875 38.2912C12.5618 38.3533 12.5007 38.2705 12.3965 38.2705C12.2939 38.2705 12.17 38.4772 12.17 38.4772C12.17 38.4772 11.7549 38.8905 11.6929 38.9732C11.6319 39.0559 11.6103 39.1187 11.569 39.2014C11.5276 39.284 11.5493 39.3047 11.5493 39.4503C11.5493 39.5949 11.5897 39.6982 11.7146 39.6353C11.8376 39.5742 11.7146 39.4916 11.755 39.3666C11.7972 39.2426 11.8179 39.2426 11.9418 39.2219C12.0659 39.2004 11.9419 39.2219 12.0452 39.2426C12.1494 39.2642 12.1485 39.2839 12.1485 39.2839C12.1485 39.2839 12.5834 39.5948 12.666 39.6568C12.7487 39.7178 12.7487 39.8634 12.7487 39.8634L12.6454 39.9047C12.6454 39.9047 12.5007 40.2776 12.5007 40.3809C12.5007 40.4851 12.542 40.4851 12.7701 40.547C12.9975 40.6082 12.8106 40.4024 12.8312 40.3189C12.8528 40.2344 12.8529 40.132 12.8933 40.0493C12.9355 39.9667 13.1215 40.1526 13.2867 40.2363C13.453 40.3189 13.515 40.5255 13.4943 40.6082C13.4737 40.6908 13.2867 40.6908 13.2867 40.6908C13.2867 40.6908 13.2041 40.919 12.9148 40.919C12.6246 40.919 12.7701 40.919 12.6453 40.9388C12.5222 40.9604 12.5833 41.0646 12.5833 41.0646C12.5833 41.0646 12.5007 41.3126 12.418 41.3952C12.3354 41.4779 12.2733 41.6235 12.2733 41.6235C12.2733 41.6235 12.5617 42.0161 12.542 42.1203C12.5222 42.2227 12.4395 42.203 12.2939 42.2434C12.1484 42.2856 12.1484 42.326 12.0253 42.4087C11.9004 42.4913 11.9202 42.4087 11.6929 42.3467C11.4664 42.2856 11.6929 42.2641 11.7342 41.9118C11.7764 41.5605 11.6318 41.9748 11.6318 41.9748L11.2796 41.8507C10.9274 41.7269 11.197 41.7888 11.1142 41.5813C11.0316 41.3754 11.0523 41.3747 11.0523 41.23C11.0523 41.0844 10.7818 41.2704 10.6794 41.23C10.5762 41.1878 10.6795 41.23 10.4935 41.1051C10.3067 40.982 10.348 40.9389 10.348 40.9389L9.87178 41.1258C9.39649 41.3127 9.87178 41.1258 9.76846 41.1258C9.66606 41.1258 9.70647 41.1671 9.64363 41.2085C9.58254 41.2498 9.58253 41.3531 9.58253 41.416C9.58253 41.478 9.68584 41.7062 9.87178 41.7682C10.0596 41.8293 9.87177 41.7682 10.0793 41.664C10.285 41.5607 10.0587 41.5193 10.0587 41.5193C10.0587 41.5193 9.85201 41.416 9.99673 41.2705C10.1414 41.1258 9.99669 41.2705 10.1413 41.1878C10.285 41.1052 10.3893 41.1878 10.3893 41.1878C10.3893 41.1878 10.5546 41.4781 10.5762 41.541C10.5959 41.6039 10.8655 41.7063 10.8655 41.7063C10.8655 41.7063 10.9068 41.8716 10.9904 41.8923C11.0731 41.912 11.1351 42.0773 11.3408 42.2436C11.5493 42.4089 11.2582 42.2643 11.1971 42.2643C11.1351 42.2643 11.0523 42.2436 10.7622 42.2436C10.4711 42.2436 10.7622 42.2436 10.6588 42.4089C10.5546 42.5742 10.6589 42.4089 10.472 42.5338C10.2851 42.6569 10.5762 42.8024 10.5762 42.8024L10.6794 42.824C10.6794 42.824 10.8034 43.1331 10.9489 43.3415C11.0937 43.5473 11.0729 43.3199 11.2176 43.1546C11.3622 42.9893 11.2176 43.1546 11.3408 43.1133C11.4665 43.072 11.4665 43.1133 11.7972 43.1331C12.1288 43.1546 12.0039 43.196 12.1701 43.2786C12.3354 43.3612 12.1701 43.5266 12.1701 43.6928C12.1701 43.8582 12.0659 43.7126 12.0038 43.7341C11.9428 43.7548 11.8592 43.7341 11.5493 43.6928C11.2384 43.6515 11.5493 43.6928 11.4235 43.6299C11.3012 43.568 11.2797 43.7548 11.2797 43.7548L11.3623 43.9003L11.4451 44.2309C11.4451 44.2309 11.5493 44.3539 11.6724 44.5624C11.7972 44.7681 11.632 44.6451 11.5277 44.7062C11.4235 44.7682 11.5277 44.7062 11.5493 44.8724C11.5691 45.0377 11.5493 44.8724 11.6104 44.8509C11.6724 44.8311 11.6104 44.9559 11.7343 45.0584C11.8592 45.1617 11.5896 45.5139 11.5896 45.5139L11.4664 45.575H10.9697C10.6795 45.575 10.9067 45.6793 10.8034 45.7008C10.6991 45.7206 10.6794 45.6181 10.6794 45.6181L10.5132 45.5139C10.5132 45.5139 10.3686 45.4726 10.037 45.3271C9.70633 45.1833 10.037 45.3271 9.97595 45.3271C9.91394 45.3271 9.8933 45.4726 9.8313 45.5965C9.76836 45.7206 9.78907 45.7206 9.78907 45.8239C9.78907 45.9281 9.76835 46.0727 9.76835 46.0727C9.76835 46.0727 9.66504 46.1968 9.64352 46.2803C9.63033 46.3354 9.60275 46.3836 9.5608 46.4249C9.49971 46.487 9.5204 46.5282 9.33354 46.611C9.1466 46.6936 9.41615 46.7134 9.54109 46.7763C9.66493 46.8391 9.62376 46.7349 9.72606 46.6523C9.8303 46.5696 9.78895 46.5912 9.83118 46.3423C9.87157 46.0943 9.87158 46.2391 9.93451 46.177C9.99652 46.1141 9.95433 46.0314 9.95433 45.8032C9.95433 45.5749 10.0369 45.7008 10.0998 45.7008C10.1627 45.7008 10.2849 45.7413 10.2849 45.7413L10.3685 45.7619C10.4511 45.7835 10.4107 45.9281 10.5338 45.9892C10.6587 46.0521 10.762 46.0107 10.9273 46.0107C11.0936 46.0107 11.1142 45.9065 11.2382 45.8446C11.3621 45.7835 11.5275 45.9281 11.5275 45.9281L11.7287 45.8832L11.8366 46.3486L12.0154 46.8491C12.1941 47.3504 12.0154 46.8491 12.337 47.1715C12.6596 47.4933 12.337 47.3144 12.337 47.3144C12.337 47.3144 12.337 47.4933 12.4088 47.636C12.4808 47.7799 12.6596 48.0297 12.6596 48.0297C12.6596 48.0297 12.8024 48.1015 12.9812 48.1374C13.16 48.1734 13.125 48.1733 13.5894 48.4231C14.0549 48.6738 13.8401 48.6379 13.8401 48.6379C13.8401 48.6379 13.6972 48.6739 13.5185 48.6739C13.3388 48.6739 13.3388 48.5669 13.2678 48.4591C13.1959 48.3521 13.2678 48.4591 12.7665 48.2803C12.2661 48.1015 12.5877 48.2803 12.4448 48.2803C12.3019 48.2803 12.4448 48.2803 12.2301 48.2444C12.0154 48.2093 12.2301 48.2444 12.2301 47.9227C12.2301 47.6002 12.2301 47.9226 12.1582 47.7799C12.0872 47.6361 12.1582 47.7799 12.0154 47.8149C11.8725 47.8508 12.0154 47.8149 11.8366 47.9586C11.6578 48.1015 11.6928 48.1374 11.6928 48.1374C11.6928 48.1374 11.7288 48.3162 11.8725 48.4231C12.0154 48.531 12.0514 48.531 12.0514 48.531L12.2661 48.6028C12.2661 48.6028 12.0872 48.8176 11.8725 49.0323C11.6578 49.247 11.8725 49.0323 11.6928 49.0674C11.514 49.1033 11.6928 49.0674 11.443 48.9604C11.443 48.9604 11.478 49.2111 11.514 49.4258C11.5499 49.6406 11.514 49.4258 11.4781 49.5687C11.443 49.7116 11.5499 49.7834 11.8006 50.1051C12.0513 50.4276 11.9435 50.141 12.1582 50.141C12.3729 50.141 12.4448 50.0701 12.4448 50.0701L12.4808 49.8904C12.5159 49.7117 12.4808 49.8904 12.2661 49.8553C12.0514 49.8195 12.3019 49.7116 12.3729 49.5328C12.4448 49.354 12.373 49.5328 12.4808 49.3181C12.5877 49.1034 12.4808 49.3181 12.3371 49.1753C12.1942 49.0324 12.302 48.9964 12.302 48.9964L12.4089 48.8176C12.5159 48.638 12.6237 48.8176 12.9453 48.8176C13.2679 48.8176 13.0891 48.8527 13.1961 48.8887C13.3039 48.9246 13.4826 49.1034 13.6255 49.1753C13.7684 49.2471 13.8042 49.2471 13.9121 49.2471H14.055C14.055 49.2471 14.2337 49.39 14.5204 49.5688C14.7629 49.7207 14.6713 49.7943 14.6372 49.814C14.6912 49.7844 15.1719 49.5292 15.3075 49.4609C15.4432 49.3936 15.7694 49.3909 16.0469 49.4215C16.0622 49.4232 16.0802 49.4241 16.0946 49.4259C16.3811 49.4609 16.0946 49.4259 16.1306 49.5328C16.1664 49.6406 16.2733 49.6047 16.524 49.6047C16.7747 49.6047 16.7388 49.5688 16.9176 49.5688C17.0964 49.5688 17.2042 49.6406 17.383 49.6406C17.5617 49.6406 17.5259 49.7474 17.5259 49.7474L17.6337 50.1769V50.4986L17.7046 50.964L17.3111 50.9281L17.1682 51.0718C17.0253 51.2147 16.9535 51.4294 16.9535 51.4294C16.9535 51.4294 16.8106 51.5362 16.4522 51.716C16.0946 51.8948 16.4172 51.9307 16.4172 52.0736C16.4172 52.2164 16.4171 52.2884 16.3812 52.4671C16.3453 52.6459 16.2374 52.574 16.1304 52.6459C16.0236 52.7178 16.0236 52.8249 16.0236 52.9326C16.0236 53.0395 16.2024 53.2901 16.0586 53.397C15.9158 53.5048 15.5942 53.433 15.5942 53.433L15.701 53.8984L15.665 54.0412C15.6291 54.185 15.5221 54.149 15.4862 54.2559C15.4503 54.3638 15.4862 54.2559 15.8088 54.2919C16.1303 54.3279 15.9516 54.2559 16.0235 54.149C16.0945 54.0412 16.1663 53.8624 16.1663 53.8624L16.524 53.7555C16.8816 53.6477 16.8465 53.5768 16.8465 53.5768L16.8816 53.4689C16.9173 53.362 17.0962 53.433 17.24 53.3621C17.3829 53.2901 17.5976 53.397 17.5976 53.397C17.5976 53.397 17.8842 53.6477 18.2418 53.9343C18.5995 54.2201 18.4566 54.149 18.4566 54.149C18.4566 54.149 18.5275 54.5067 18.7782 54.7574C19.0289 55.008 18.9219 54.6854 19.1008 54.6495C19.2795 54.6145 19.1008 54.6495 19.3155 54.7214C19.5302 54.7932 19.6372 54.9002 19.8519 54.7574C20.0666 54.6145 20.0666 54.5426 20.0666 54.5426C20.0666 54.5426 20.3532 54.256 20.6748 54.0063C20.9964 53.7556 20.9255 53.8624 21.2112 53.7196C21.4978 53.5768 21.2112 53.7196 21.4259 53.7196C21.6405 53.7196 21.6056 53.8625 21.7484 53.8264C21.8913 53.7914 21.8913 53.7196 22.0342 53.5767C22.1779 53.4329 22.1779 53.5767 22.5714 53.6117C22.965 53.6476 22.893 53.6836 23.0719 53.7914C23.2516 53.8983 23.1797 54.1131 23.4663 54.2918C23.752 54.4706 23.4663 54.2918 23.681 54.4706C23.8948 54.6494 24.0387 54.7213 24.1096 54.7931C24.1815 54.8642 24.1096 54.7932 23.8949 55.1148C23.6811 55.4374 23.9667 55.2577 24.1096 55.2577C24.2533 55.2577 24.1096 55.2577 24.8616 55.5802C25.6127 55.9019 25.0764 55.6162 25.2911 55.5802C25.5058 55.5443 25.2911 55.4374 25.2911 55.2936C25.2911 55.1508 25.2192 54.972 25.1833 54.7931C25.1593 54.674 25.1357 54.5545 25.1123 54.4347C25.0764 54.2558 25.0045 54.1849 25.0045 54.0771C25.0045 53.9702 24.504 53.7195 24.1814 53.4689C23.8598 53.2182 24.1815 53.4689 23.8598 53.326C23.5373 53.1822 23.681 53.2182 23.4663 53.0394C23.2516 52.8605 23.3225 52.6457 23.4304 52.5389C23.5373 52.4311 23.5732 52.3592 23.5732 52.3592C23.5732 52.3592 23.5732 52.0736 23.5372 51.8228C23.5133 51.6557 23.5612 51.4886 23.681 51.3215C23.8598 51.0717 23.681 51.3215 24.3603 51.2865C25.0404 51.2505 24.5391 51.2505 24.5391 51.2505L24.8616 50.6062C24.8616 50.6062 24.8976 50.2837 24.9325 49.9979C24.9685 49.7114 24.8976 49.8551 24.8976 49.7114C24.8976 49.5685 24.6829 49.5325 24.6829 49.5325V49.175C24.6829 49.0321 24.6109 48.9603 24.5392 48.7095C24.4682 48.4589 24.5391 48.7095 24.5751 48.5667C24.611 48.423 24.7188 48.2092 24.7188 48.2092L24.9498 47.5901C24.9498 47.5901 25.0306 47.1814 25.0926 46.9154C25.1537 46.6477 25.2363 46.6064 25.3388 46.5255C25.4412 46.4429 25.5221 46.3817 25.7279 46.3C25.9336 46.2174 25.9327 46.3 26.0774 46.3C26.2202 46.3 26.425 46.3404 26.7323 46.4429C27.0396 46.5462 26.9578 46.4833 26.9578 46.4833H27.1627C27.2247 46.4833 27.204 46.2587 27.266 46.1356C27.3271 46.0124 27.4502 45.4995 27.4906 45.3979C27.5319 45.2955 27.5123 45.1517 27.5123 45.1517C27.5123 45.1517 27.6758 44.9056 27.7369 44.8643C27.7989 44.8239 27.922 44.7411 28.0244 44.681C28.1259 44.6182 28.1259 44.5579 28.2284 44.4348C28.3317 44.3116 28.2912 44.2093 28.311 44.1473C28.3317 44.0862 28.4342 43.9012 28.4342 43.9012L28.967 43.0602C28.967 43.0602 29.3354 42.5274 29.4585 42.425C29.5816 42.3234 29.5411 42.3639 29.6849 42.3234C29.8277 42.2821 29.8691 42.3028 29.9311 42.3028C29.9923 42.3028 29.9705 42.5067 30.012 42.7125C30.0533 42.9164 30.0534 42.8158 30.1764 42.7942C30.2996 42.7736 30.1566 42.6505 30.1566 42.5481C30.1566 42.4465 30.1566 42.4043 30.1349 42.3028C30.1143 42.2003 30.0936 42.1581 30.0335 41.832C29.9705 41.5031 30.0739 41.6262 30.197 41.5031C30.3202 41.38 30.197 41.5031 30.3398 41.4411C30.4363 41.4004 30.5183 41.3594 30.586 41.318C30.6884 41.257 30.586 41.3179 30.586 41.1752V40.9496C30.586 40.8679 30.7505 40.8679 30.8115 40.8265C30.8736 40.7851 31.0577 40.7035 31.0783 40.6217C31.099 40.5399 30.9967 40.2111 30.9967 40.15C30.9967 40.088 30.8735 40.0269 30.8735 39.8634C30.8735 39.6991 31.038 39.761 31.1809 39.6577C31.3237 39.5552 31.1809 39.4941 31.1809 39.3917C31.1809 39.2883 31.161 39.2488 31.161 39.1653C31.161 39.0853 30.976 39.1455 30.772 39.0629C30.5655 38.9811 30.7504 38.8589 30.7504 38.7969C30.7504 38.7367 30.7297 38.4276 31.038 38.1815C31.3452 37.9353 31.0172 38.0997 30.8735 38.0188C30.7289 37.9353 30.8116 37.9353 30.7298 37.8329C30.6489 37.7295 30.5456 37.5264 30.772 37.3422C30.9967 37.1572 30.9553 37.2803 31.0991 37.1374C31.2437 36.9928 31.1404 36.9928 31.1809 36.8697C31.2213 36.7466 31.2212 36.6657 31.2212 36.6657C31.2212 36.6657 30.9967 36.3575 31.1404 36.1536C31.2841 35.9478 31.4269 36.0503 31.6111 35.9478C31.7962 35.8445 31.6111 35.9478 31.6111 35.8867C31.6111 35.8256 31.6112 35.8041 31.6732 35.6612C31.7342 35.5166 31.7559 35.5579 32.0415 35.4753C32.3281 35.3935 32.0415 35.4753 32.1852 35.4968C32.3289 35.5183 32.2472 35.6405 32.2472 35.6405C32.2472 35.6405 32.0415 35.7431 32.3703 35.9891C32.6983 36.2344 32.5338 35.9891 32.718 35.9891H32.8627V36.1733L32.9228 36.4195C32.983 36.6657 32.9229 36.4195 33.0657 36.2138C33.2104 36.0089 33.1286 36.0701 33.1286 35.8661C33.1286 35.6612 33.1285 35.681 33.1492 35.5381C33.169 35.3935 33.2103 35.4555 33.2714 35.3953C33.3334 35.3324 33.3532 35.3324 33.5176 35.3126C33.682 35.2919 33.7836 35.3953 33.8456 35.3953C33.9067 35.3953 34.0917 35.3126 34.6048 35.3126C35.1169 35.3126 34.6047 35.3126 34.7683 35.2291C34.9309 35.1481 34.7683 35.2291 34.9525 35.2093C35.1367 35.1895 35.0756 35.1275 35.1367 35.0862C35.1986 35.0458 35.2202 35.0044 35.3424 34.9433C35.4655 34.8813 35.4861 34.9029 35.9578 34.8201C36.4295 34.7375 36.0181 34.6774 36.1214 34.574C36.2238 34.4715 36.0387 34.3899 36.0387 34.3899L35.7323 34.4509L35.568 34.5129C35.568 34.5129 35.3829 34.5947 35.2805 34.4509C35.1781 34.3081 35.0972 34.6144 35.0972 34.6144C35.0972 34.6144 34.9741 34.636 34.8708 34.697C34.7684 34.7591 34.851 34.8606 34.8295 34.9433C34.8079 35.026 34.6651 34.9029 34.4602 34.7591C34.2562 34.6144 34.3792 34.9433 34.2759 34.9837C34.1735 35.025 34.2759 34.9837 34.1528 34.9433C34.0297 34.9029 34.0918 34.8399 34.0297 34.697C33.9686 34.5543 34.0297 34.697 33.8869 35.1068C33.7441 35.5165 33.744 35.026 33.744 35.026C33.744 35.026 33.6614 34.7798 33.8672 34.5946C34.0711 34.4105 33.8672 34.5946 33.948 34.5542C34.0297 34.5111 34.0504 34.5336 34.2759 34.5129C34.5014 34.4913 34.4602 34.513 34.5832 34.4716C34.7063 34.4312 34.665 34.4105 34.7683 34.3484C34.8707 34.2882 34.6452 34.1651 34.7063 34.1238C34.7683 34.0825 34.8707 34.0825 34.974 34.042C35.0764 34.0007 35.5059 34.1238 35.6092 34.0618C35.7108 34.0007 35.7719 33.9189 35.8752 33.8776C35.9776 33.8363 36.3137 33.9315 36.3137 33.9315L36.5509 33.7401C36.7898 33.5497 36.5509 33.7401 36.5509 33.5497C36.5509 33.3574 36.647 33.2154 36.647 33.2154L37.1232 33.4068C37.1232 33.4068 37.3154 33.2154 37.5051 33.1202C37.6955 33.0241 37.7449 32.9289 37.9821 32.7859C38.2211 32.6431 38.4601 32.5946 38.8896 32.4517C39.3191 32.3088 38.8896 32.4517 39.1761 32.2613C39.4627 32.069 39.1762 32.2613 39.3657 32.1651C39.5563 32.0717 39.5095 31.8794 39.8913 31.6889C40.2732 31.4966 41.2265 31.2595 41.5598 31.2595H42.1329C42.372 31.2595 42.5148 31.2594 43.0871 31.3062C43.6603 31.3556 43.3737 31.3547 43.6128 31.4976C43.8517 31.6413 43.85 31.7356 43.85 31.7356C43.85 31.7356 44.1366 31.7356 44.5193 31.7841C44.9011 31.8318 45.2346 31.7841 45.2346 31.7841C45.2346 31.7841 45.5212 32.0698 45.9506 32.1651C46.3801 32.2613 46.1896 32.2136 46.619 32.2136C47.0485 32.2136 47.0952 32.2136 47.3818 32.2613C47.6676 32.3088 47.6676 32.405 48.1932 32.7383C48.7179 33.0735 48.4304 33.0726 48.4798 33.3584C48.5265 33.645 48.4798 33.3584 48.6702 33.8364C48.8599 34.3126 48.8599 34.0744 49.0028 34.1697C49.1465 34.2658 49.195 34.3126 49.4323 34.4087C49.6722 34.5021 49.7683 34.5039 50.1977 34.6468C50.6272 34.7896 50.434 34.981 50.5311 35.1715C50.6272 35.3638 50.674 35.5058 50.7206 35.6485C50.7692 35.7923 50.7206 36.078 50.7206 36.078C50.7206 36.078 51.0073 36.2209 51.1501 36.2694C51.2929 36.3161 51.1996 36.6989 51.1996 36.6989C51.1996 36.6989 51.293 36.9855 51.6757 37.175C52.0585 37.3673 51.9624 37.3664 52.2948 37.6045C52.6298 37.8436 52.2948 37.6045 52.4385 37.8911C52.5813 38.1768 52.4385 37.8911 52.4385 38.3206C52.4385 38.7491 52.6775 38.6548 52.6775 38.6548H53.107C53.2499 38.6548 53.3936 38.7025 53.5364 38.7977C53.6793 38.8929 53.7269 39.0359 53.8231 39.1786C53.9192 39.3224 54.205 39.848 54.205 39.848L54.2992 39.4653C54.2992 39.4653 54.4421 39.1786 54.4915 39.0358C54.5382 38.8929 54.5849 38.1768 54.5849 38.1768C54.5849 38.1768 54.6343 37.7473 54.681 37.5577C54.7287 37.3654 54.9678 36.2693 54.9678 36.0779C54.9678 35.8866 55.0144 35.7437 55.0144 35.7437L55.2543 34.9809L55.6362 34.2657C55.6362 34.2657 56.16 33.0241 56.2093 32.8812C56.256 32.7383 56.875 31.6889 56.875 31.6889L56.9235 31.4742C56.9235 31.4742 56.9955 31.3547 57.2578 30.9972C57.5202 30.6386 57.2811 30.83 57.3045 30.7338C57.3296 30.6386 57.3045 30.7338 57.5192 30.4239C57.734 30.1148 57.8777 30.2091 57.9739 30.1382C58.07 30.0663 58.2119 29.9953 58.45 29.9709C58.6891 29.9476 58.5462 29.9 58.6414 29.8039C58.7357 29.7086 58.8319 29.3277 58.9991 29.1839C59.1653 29.0411 59.1904 28.7302 59.1904 28.7302C59.1904 28.7302 59.2138 28.4202 59.2372 28.325C59.2613 28.2306 59.38 28.1103 59.38 28.1103L59.548 27.9197C59.548 27.9197 59.8094 27.6808 59.8812 27.6564C59.9522 27.6331 60.096 27.466 60.2155 27.4183C60.3349 27.3698 60.3583 27.3698 60.5021 27.3465C60.645 27.3231 60.7402 27.3465 60.883 27.2754C61.0259 27.2036 61.122 27.2036 61.1938 27.1551C61.2658 27.1084 61.4806 27.0122 61.5515 26.9889C61.6233 26.9655 62.0043 26.7741 62.0043 26.7741C62.0043 26.7741 62.3861 26.5118 62.5533 26.3447C62.7213 26.1785 63.1732 25.8199 63.1732 25.8199L63.1013 25.5343C63.1013 25.5343 62.7922 25.3429 63.1975 25.2476C63.6036 25.1515 63.4123 25.2476 63.5793 25.2476C63.7456 25.2476 63.8884 25.2 64.0088 25.1515C64.1283 25.1039 64.0798 24.8658 64.1516 24.794C64.2235 24.7221 64.2469 24.6034 64.2469 24.6034C64.2469 24.6034 64.0321 24.5558 64.1031 24.3177C64.175 24.0779 64.3178 24.2926 64.4859 24.3177C64.6539 24.3411 64.7725 24.3411 64.9155 24.2693C65.0583 24.1982 65.0582 24.0779 65.1302 23.9835C65.202 23.8883 65.3916 23.7921 65.5354 23.7203C65.6783 23.6484 65.9172 23.6969 66.1553 23.6017C66.3934 23.5055 66.4185 23.4104 66.5371 23.3393C66.6566 23.2674 66.919 23.1246 67.0376 23.0527C67.1571 22.9808 67.778 22.6717 67.8966 22.5998C68.0161 22.528 68.2074 22.4085 68.2793 22.289C68.3503 22.1695 68.1109 22.1942 68.1109 22.1942Z" fill="#D2DFD5" stroke="white" stroke-width="0.6"/>
</svg>
