<svg width="17" height="22" viewBox="0 0 17 22" fill="none" xmlns="http://www.w3.org/2000/svg">
<path d="M0.659202 21.8037C0.594524 21.7605 0.482222 21.6725 0.385619 21.5908C0.363631 21.5189 0.348344 21.4326 0.355521 21.3904C0.361317 21.3841 0.387416 21.3527 0.387416 21.3527L0.427454 21.2808C0.439138 21.2565 0.450845 21.2323 0.491694 21.1793L0.544648 21.1101L0.568513 20.9528L0.55279 20.8665L0.526285 20.8486C0.514601 20.782 0.487148 20.739 0.452555 20.6985C0.468287 20.6392 0.476405 20.5575 0.44402 20.4487L0.40269 20.3086L0.278702 20.2511C0.317803 20.2179 0.365017 20.1667 0.433743 20.0849L0.47906 20.03V19.8L0.322783 19.7048C0.320115 19.7039 0.308421 19.7012 0.281004 19.6949L0.32458 19.6582L0.336765 19.5503C0.339433 19.4353 0.25855 19.3616 0.1993 19.3077C0.196632 19.305 0.192572 19.3041 0.192112 19.3051L0.144437 19.0975C0.135881 19.0706 0.126074 19.04 0.118438 18.9906C0.102245 18.8846 0.0685645 18.8343 0.0344314 18.7947C0.0492439 18.7804 0.0222676 18.7255 0.00073896 18.6824C-0.00956536 18.6141 0.0906272 18.4731 0.131017 18.4434H0.135509C0.196599 18.4434 0.280606 18.3634 0.342156 18.3041L0.537572 18.1387L0.77662 18.1289L0.902855 17.9375C0.922175 17.8998 0.995833 17.7066 1.05149 17.5314C1.08655 17.4191 1.11803 17.3787 1.11849 17.3778L1.62213 16.8225C1.62029 16.8244 1.66212 16.8108 1.69036 16.8046C1.76047 16.7911 2.03722 16.6914 2.19979 16.6312L2.30452 16.5934C2.46396 16.5395 2.74425 16.1182 2.78924 16.0364C2.91372 15.8136 2.92137 15.4632 2.92137 15.4595V15.4209L2.88229 15.3077C2.84006 15.1567 2.76008 15.04 2.69541 14.9618C2.6932 14.8908 2.69138 14.7848 2.69681 14.738C2.70086 14.7003 2.71069 14.614 2.54941 14.2609C2.56422 14.2061 2.61365 13.9851 2.61365 13.9851L2.54941 13.8773L2.49101 13.8054C2.49101 13.8054 2.35352 13.7937 2.34809 13.7937L2.15897 13.579C2.16439 13.5754 1.95948 13.1414 1.91099 12.9851C1.87327 12.8674 1.85893 12.6428 1.85663 12.5736C1.85663 12.5736 1.85979 12.4559 1.86567 12.3184L1.87017 12.3275C1.89041 12.3526 2.00988 12.4892 2.24348 12.5673L2.27358 12.5781L2.36752 12.5879C2.55263 12.5879 2.67571 12.4531 2.73634 12.3426C2.81004 12.2914 2.95871 12.189 3.00858 12.1647L3.15233 12.0937C3.23366 12.1629 3.29784 12.1845 3.35488 12.1845C3.46041 12.1701 3.57545 12.1261 3.62172 12.1072L3.77177 12.1027L3.90424 12.091L3.99498 11.7846L4.00481 11.6759L4.17591 11.5115L4.5016 11.2564L4.92798 10.888L4.98998 10.7784C5.01426 10.7002 5.03578 10.4693 5.05961 10.3893C5.07709 10.3803 5.53304 10.1818 5.53304 10.1818C5.52899 10.1844 5.53575 10.1853 5.55461 10.1853C5.60088 10.1853 5.72036 10.1799 5.93685 10.1799C6.09629 10.1799 6.31511 10.1799 6.34161 9.98314C6.34299 9.97329 6.34377 9.96245 6.3434 9.95169C6.3883 9.92473 6.44271 9.896 6.50518 9.86987C6.76031 9.76113 6.83756 9.71079 6.83756 9.71079L6.88523 9.67934L6.91129 9.62543C6.96382 9.50951 7.04921 9.37653 7.08739 9.35224C7.21674 9.31986 7.48989 9.17711 7.54785 9.14739C7.55052 9.14739 7.61205 9.12307 7.67498 9.11056C7.78594 9.08903 7.95125 9.00102 7.99928 8.97489L8.0451 8.94973L8.07205 8.90571C8.07205 8.90571 8.41256 8.35042 8.45884 8.24977C8.52757 8.09797 8.48941 7.90293 8.48085 7.86613L8.46693 7.80323L8.26747 7.62803C8.24677 7.61184 8.10041 7.51393 7.88697 7.41779C7.76212 7.36029 7.72474 7.35049 7.65022 7.33788C7.61379 7.33071 7.5608 7.32167 7.44672 7.29021C7.3641 7.26776 7.32005 7.25425 7.29898 7.24349L7.38074 7.43481L7.22351 7.58491L7.26798 7.2039L6.86766 7.07362L6.79988 7.10232C6.79988 7.10232 6.7244 7.13473 6.6381 7.18773L6.50692 7.19492L6.41124 7.19396C6.35235 7.1383 6.32362 7.08166 6.27192 7.01247C6.15737 6.85975 6.04553 6.69982 6.00872 6.57396C5.98223 6.48408 5.93999 6.15526 5.91478 5.92976C5.95204 5.86683 6.01854 5.75727 6.09178 5.64411C6.18433 5.50307 6.21626 5.41594 6.16051 5.27214C6.12812 5.12301 6.09945 4.93073 5.89861 4.93073L5.89001 4.92713C5.89139 4.91094 5.89139 4.8939 5.89001 4.87586C5.88505 4.82287 5.88785 4.72767 5.90349 4.64322C5.94388 4.6675 5.98028 4.68809 5.99289 4.69802C6.05352 4.75911 6.15154 4.77984 6.40528 4.77984L6.58947 4.77529C6.61863 4.77262 6.81633 4.74025 7.04634 4.74025C7.15509 4.74025 7.30551 4.72859 7.39899 4.63962C7.5288 4.61451 7.68788 4.58751 7.744 4.58751C7.72514 4.60545 7.75162 4.64688 7.79605 4.6846C7.78299 4.71423 7.80183 4.7888 7.87102 4.90473C7.94692 5.03049 8.04806 5.09436 8.17116 5.09436H8.19671L8.30503 5.0719H8.34322C8.43439 5.0719 8.45729 5.08175 8.48563 5.09436L8.49596 5.09891C8.42677 5.17886 8.37193 5.2921 8.31222 5.452C8.2871 5.51852 8.2399 5.64427 8.31267 5.74934L8.33014 5.7754C8.32112 5.79692 8.31269 5.82121 8.30588 5.84817C8.2596 6.03328 8.35386 6.14645 8.47254 6.26596C8.53455 6.32797 8.59657 6.38276 8.68323 6.38809L8.69587 6.43032L8.73181 6.49686C8.82933 6.57415 8.96947 6.66755 9.08226 6.68015C9.10876 6.68374 9.1546 6.69899 9.19508 6.7116C9.23869 6.72595 9.28175 6.74032 9.32131 6.74933H9.34512C9.49251 6.74933 9.57919 6.69449 9.66273 6.64242C9.69999 6.61905 9.73768 6.59303 9.77273 6.58042C9.88148 6.53819 10.4417 6.36303 10.722 6.31178C10.973 6.26596 11.1226 6.11683 11.1667 5.86704C11.1672 5.86888 11.1676 5.86884 11.1685 5.86884C11.1761 5.86884 11.2085 5.83646 11.2404 5.80325C11.3464 5.69275 11.3824 5.65586 11.4008 5.60019C11.4111 5.56873 11.4133 5.54086 11.4191 5.45824C11.4245 5.38997 11.4375 5.21028 11.4551 5.16354C11.4821 5.1168 11.7022 4.84009 11.8927 4.61009C11.8927 4.61009 11.8936 4.61098 11.8945 4.61098C11.904 4.61098 11.9515 4.58945 12.0257 4.57684C12.1996 4.54722 12.3559 4.41964 12.537 4.27142L12.6947 4.14474C12.9409 3.95337 13.4979 3.2795 13.5716 3.08455C13.6534 3.00276 13.6928 2.97673 13.7445 2.9345C13.9004 2.80781 13.9993 2.62456 14.0248 2.57332L14.0253 2.57422C14.0356 2.57422 14.152 2.46012 14.2692 2.35763C14.39 2.25164 14.4871 2.04226 14.5895 1.82035C14.6403 1.71077 14.6897 1.60298 14.7369 1.52385C14.78 1.45292 14.8357 1.36841 14.8922 1.28211C15.0247 1.08173 15.1497 0.89224 15.1936 0.759204C15.244 0.609147 15.1977 0.462687 15.1568 0.333331C15.1317 0.2543 15.1079 0.179649 15.1051 0.108714C15.1146 0.0619769 15.1617 0.0378204 15.1995 0.0188678C15.2116 0.0126116 15.2237 0.0062562 15.2362 0C15.252 0.0880468 15.2803 0.17064 15.3414 0.242586C15.4228 0.339649 15.4896 0.37286 15.5512 0.399817C15.5777 0.410582 15.6006 0.42055 15.6689 0.54273C15.7542 0.695454 15.8822 0.869771 16.1172 0.869771C16.1568 0.869771 16.1971 0.864369 16.2403 0.857193L16.2677 0.989267C16.2677 0.989267 16.4213 1.2687 16.5476 1.48528C16.6096 1.59218 16.6769 1.67215 16.7362 1.74134C16.7811 1.79259 16.8234 1.84196 16.8288 1.87066C16.8284 1.89044 16.7969 1.96417 16.7763 2.01357C16.7314 2.11873 16.6756 2.24899 16.6644 2.40171C16.6559 2.51405 16.6549 2.60478 16.6541 2.68832C16.6532 2.77996 16.6527 2.86268 16.6393 2.96241C16.6114 3.16813 16.6339 3.32266 16.6402 3.35863C16.6399 3.35802 16.6396 3.35774 16.6393 3.35774C16.6348 3.35774 16.62 3.45026 16.536 3.50593C16.3774 3.61109 16.2179 3.75929 16.1213 3.84908C15.9277 4.02067 15.8608 4.34151 15.8433 4.52653L15.7629 4.56965C15.7018 4.64059 15.6775 4.70806 15.6371 4.82122L15.5769 4.98469C15.5352 5.09344 15.4655 5.17791 15.4044 5.25243C15.3478 5.32162 15.2989 5.38089 15.2768 5.45459C15.2575 5.51927 15.2328 5.6001 15.0401 5.79331C14.9004 5.93343 14.8163 6.03954 14.7342 6.14461C14.6834 6.20929 14.6336 6.273 14.568 6.34587C14.4525 6.47347 14.2692 6.49769 13.8774 6.52382C13.7071 6.53458 13.599 6.53819 13.5306 6.53819L13.501 6.52915L13.2202 6.53819C13.0298 6.42227 12.8356 6.35584 12.6357 6.33514L12.5369 6.32969C12.4106 6.32969 12.3235 6.37287 12.2786 6.45907C12.2112 6.58668 12.2916 6.70342 12.3347 6.76635L12.3692 7.09794C12.3692 7.16087 12.3693 7.18053 12.3459 7.2039C12.3046 7.19047 12.256 7.18235 12.1999 7.17784H12.1824C11.9717 7.17784 11.8805 7.22993 11.8436 7.33058L11.7964 7.45901L11.8621 7.52819C11.8692 7.57944 11.8795 7.6504 11.8904 7.70339C11.907 7.78334 11.946 7.83724 11.9775 7.88039C12.0076 7.92262 12.0391 7.96578 12.0692 8.05475C12.0943 8.13019 12.119 8.18687 12.1392 8.23085C12.1141 8.27666 12.0858 8.344 12.0557 8.44373C11.996 8.4671 11.8778 8.50305 11.686 8.521C11.5309 8.53535 11.2973 8.55608 11.2578 8.74202C11.1936 8.78691 11.1056 8.84357 11.0202 8.88212L11.0297 8.88931C10.991 8.8722 10.9462 8.86421 10.8936 8.86421C10.8163 8.77524 10.7269 8.68625 10.5544 8.59461C10.4452 8.53711 10.3644 8.51106 10.2925 8.51106H10.1856L10.0872 8.61893C10.0841 8.62436 10.081 8.62877 10.0782 8.6342C10.0333 8.63779 9.97303 8.64044 9.89538 8.64044C9.7709 8.64044 9.63344 8.65664 9.56204 8.77257L9.50499 8.86601L9.56794 9.03761C9.56251 9.08969 9.57918 9.15982 9.67845 9.31889C9.69639 9.34851 9.71527 9.37451 9.73376 9.3988C9.73018 9.40505 9.72608 9.41225 9.72203 9.41952L9.66408 9.36112L9.53565 9.44462C9.53565 9.44462 9.14297 9.68446 9.11831 9.69799L9.10304 9.67013C9.10083 9.67105 8.90358 9.74744 8.81149 9.76363C8.74055 9.77531 8.52306 9.813 8.43952 10.0196C8.37659 10.1831 8.46872 10.2865 8.51325 10.336C8.53975 10.3656 8.56981 10.3997 8.60394 10.4626C8.62685 10.5049 8.62908 10.5444 8.62466 10.5758L8.61343 10.5794C8.58335 10.592 8.47774 10.6431 8.13006 10.7941C8.11791 10.7995 8.10712 10.804 8.09682 10.8085C8.07483 10.7905 8.05147 10.7779 8.03123 10.7708C8.01099 10.7636 7.95483 10.7438 7.61608 10.7259L7.48535 10.7187L7.16146 11.3961C7.12953 11.4626 7.10577 11.512 7.10126 11.5596C7.08553 11.618 7.08283 11.6593 7.08458 11.698C7.05496 11.6935 7.02304 11.6899 6.98844 11.6899C6.98173 11.6773 6.97133 11.6575 6.9579 11.6378C6.83885 11.4581 6.38475 11.4302 6.12457 11.4302C6.01904 11.361 5.95784 11.326 5.89142 11.3045C5.82048 11.2802 5.73462 11.2685 5.63176 11.2685C5.54279 11.2685 5.43499 11.2775 5.30343 11.2972C5.00828 11.3376 4.79716 11.6683 4.64306 11.91L4.58819 11.9953C4.56344 11.9917 4.54191 11.9899 4.52305 11.9899C4.47503 11.9899 4.44218 12.0006 4.40805 12.0159C4.36628 12.0357 4.24411 12.0923 4.21449 12.2253C4.18394 12.3646 4.26883 12.4651 4.37666 12.5918C4.42156 12.6448 4.47734 12.7104 4.53889 12.7939C4.65481 12.9512 4.72481 13.0473 4.85021 13.0473H4.90232C4.98494 13.1416 5.02448 13.183 5.09633 13.2683C5.18659 13.377 5.51227 13.6672 5.51227 13.6672C5.4705 13.8343 5.39681 14.2818 5.39681 14.2818L5.38064 14.3815L5.45246 14.4524C5.45246 14.4524 5.57915 14.5773 5.68606 14.669C5.75212 14.7229 5.82582 14.8074 5.88737 14.8775L5.98621 14.9853C6.08373 15.0824 6.15242 15.1336 6.35952 15.1767C6.40267 15.1857 6.44939 15.2333 6.49429 15.2791C6.50956 15.2944 6.52532 15.3105 6.54151 15.3258L6.49929 15.4175L6.53073 15.4948C6.52981 15.5146 6.5281 15.5432 6.52405 15.5801C6.43913 15.4993 6.32906 15.3942 6.28012 15.3456C5.95176 15.0204 5.74238 14.8425 5.61082 14.7751C5.5362 14.7383 5.46618 14.7202 5.40013 14.7202C5.31705 14.7202 5.25006 14.7481 5.20112 14.7868C5.13101 14.8011 5.07579 14.8308 5.0308 14.8721C5.00881 14.8595 4.98546 14.8452 4.96881 14.8354C4.901 14.794 4.84213 14.7662 4.77524 14.7662H4.59106L4.55461 14.9998C4.50788 15.0609 4.50697 15.1274 4.52188 15.1867L4.46932 15.2064C4.36866 15.2558 4.3336 15.3501 4.31253 15.4059L4.18944 15.4536C4.11888 15.4536 4.05561 15.4706 3.99498 15.5048L3.9244 15.5451L3.8633 15.6673C3.83413 15.7769 3.88578 15.8642 3.92709 15.9333C3.95764 15.9854 3.98909 16.0385 4.00436 16.1112C4.01466 16.1589 4.01604 16.1886 4.01604 16.2038L3.87812 16.2928C3.80627 16.3395 3.43524 16.6369 3.43524 16.6369L3.37414 16.6863L3.29232 17.2864C3.27659 17.3988 3.26043 17.5964 3.2515 17.7195L3.13021 17.786C3.08347 17.8219 2.99546 17.9091 2.88717 17.9962C2.71513 18.1337 2.75144 18.3358 2.77352 18.4562C2.78069 18.4958 2.78924 18.5371 2.78924 18.5784C2.78924 18.7213 2.82881 18.7967 2.8692 18.8614L2.8993 18.9666C2.91862 19.0995 2.95101 19.3214 3.1329 19.5038C3.22546 19.5955 3.32383 19.6423 3.42586 19.6423C3.55568 19.6423 3.65315 19.5641 3.69759 19.4967C3.73623 19.3548 3.7609 19.2397 3.79687 19.1796C3.81435 19.1508 3.81665 19.1471 3.99633 19.0861L4.09342 19.0529C4.11854 19.1256 4.17068 19.1867 4.22864 19.2542C4.2578 19.2883 4.29286 19.3296 4.33196 19.38L4.31764 19.4375C4.31764 19.4644 4.27849 19.5192 4.24436 19.5498C4.23985 19.5498 3.93177 19.7411 3.64739 19.9792L3.41519 20.1725H3.0567L3.01358 20.1958C2.58503 20.4232 2.55542 20.5157 2.53739 20.5704C2.53923 20.5614 2.53422 20.5579 2.52391 20.5579C2.49291 20.5579 2.41792 20.5893 2.35141 20.6109L2.2939 20.6297L2.25752 20.6774C2.25752 20.6774 2.01219 20.9972 1.88909 21.1949C1.79883 21.3395 1.59129 21.4429 1.46681 21.5039C1.44031 21.5174 1.3729 21.521 1.31862 21.5237C1.19101 21.53 1.03292 21.5389 0.891792 21.6413C0.891792 21.6413 0.700511 21.7785 0.659202 21.8037ZM8.98624 5.66C8.98578 5.65641 8.97001 5.65551 8.94177 5.65551H8.86714C8.86134 5.651 8.85502 5.6465 8.84922 5.64209C8.85732 5.63307 8.86807 5.62055 8.87792 5.60794C8.89724 5.58458 8.92423 5.55228 8.9763 5.50462C9.03021 5.45521 9.08549 5.44712 9.08816 5.44712L9.14021 5.46425C9.16 5.52718 9.17704 5.58015 9.19508 5.62597L9.15189 5.61968C9.08179 5.61968 9.02129 5.64298 8.98624 5.66Z" fill="#D2DFD5"/>
<path d="M5.45435 10.0032L5.45795 10.0027C5.48655 9.98976 5.45435 10.0032 5.45435 10.0032Z" fill="#D2DFD5"/>
<path d="M5.46985 9.99707L5.45447 10.0032L5.45807 10.0026C5.46737 9.99842 5.46985 9.99707 5.46985 9.99707Z" fill="#D2DFD5"/>
<path d="M3.77423 4.2431L3.69606 4.19279L3.63856 4.13529L3.49655 4.11187C3.44806 4.11187 3.40493 4.12268 3.37172 4.13529C3.37172 4.13529 2.73609 4.13525 2.71005 4.13433C2.70334 4.10195 2.69072 4.067 2.66827 4.03011C2.66248 4.03278 2.65702 4.03553 2.6516 4.0382C2.71269 4.00139 2.77786 3.95014 2.8533 3.88905L2.94944 3.81004C2.97731 3.78759 3.01505 3.75522 3.0294 3.74805C3.04559 3.7705 3.36363 3.88815 3.36492 3.88815L3.5837 3.92319L3.7813 3.84059L4.05309 3.9269C4.18695 3.96913 4.22374 3.98532 4.24536 3.99608C4.25843 4.00234 4.26966 4.00685 4.28181 4.01135C4.2117 4.06886 4.18394 4.1326 4.17354 4.18201L4.17135 4.19183C4.1489 4.2026 4.01631 4.25838 4.01631 4.25838L3.97408 4.27095C3.95476 4.27095 3.77423 4.2431 3.77423 4.2431Z" fill="#D2DFD5"/>
<path d="M2.98454 3.56152C2.93154 3.56152 2.85967 3.63339 2.76969 3.70533C2.68072 3.77627 2.55589 3.8841 2.48403 3.90204C2.41209 3.91915 2.41212 3.99097 2.502 4.13385C2.59097 4.27755 2.30519 4.33151 2.80569 4.33151H3.41395C3.41395 4.33151 3.45384 4.30759 3.49644 4.30759C3.51769 4.30759 3.53971 4.31357 3.55765 4.33151C3.61064 4.3845 3.57559 4.42047 3.75435 4.43831C3.86292 4.44926 3.91886 4.46684 3.97397 4.46684C4.00967 4.46684 4.0449 4.45947 4.09403 4.43831C4.21888 4.3844 4.27276 4.36647 4.32668 4.33151L4.38058 4.29563C4.38058 4.29563 4.30872 4.2057 4.45151 4.13385C4.48822 4.11572 4.51674 4.11043 4.53855 4.11043C4.57001 4.11043 4.5875 4.12155 4.5956 4.12155C4.60379 4.12155 4.60215 4.10994 4.59543 4.06292C4.57749 3.93716 4.81014 3.91921 4.52355 3.86622C4.23687 3.8123 4.45164 3.8482 4.11206 3.74037L3.77244 3.63346L3.5577 3.72241L3.43186 3.70539C3.43186 3.70539 3.03845 3.56152 2.98454 3.56152Z" fill="#D2DFD5"/>
<path d="M5.20362 6.47697C5.20362 6.79953 5.36445 6.53087 5.36445 6.53087C5.36445 6.53087 5.4364 6.40511 5.52527 6.31614C5.61516 6.22635 5.61517 6.10141 5.61517 6.10141C5.40044 5.85079 5.27466 5.95861 5.27466 5.95861L5.11383 6.10141L5.20362 6.15532V6.47697Z" fill="#D2DFD5"/>
<path d="M5.35177 5.93555C5.30162 5.93555 5.27478 5.95863 5.27478 5.95863L5.11395 6.10143L5.20374 6.15533V6.47698C5.20374 6.59797 5.22639 6.63573 5.25473 6.63573C5.30184 6.63573 5.36457 6.53089 5.36457 6.53089C5.36457 6.53089 5.43652 6.40513 5.52539 6.31616C5.61528 6.22636 5.6153 6.10143 5.6153 6.10143C5.49992 5.96673 5.4101 5.93555 5.35177 5.93555Z" fill="#D2DFD5"/>
<path d="M9.21769 4.53877C9.21863 4.53971 9.22693 4.53784 9.23191 4.53418C9.23144 4.54057 9.2314 4.54706 9.23094 4.55345C9.22502 4.5479 9.22051 4.54337 9.21769 4.53877Z" fill="#D2DFD5"/>
<path d="M9.25135 4.25879C9.24408 4.25879 9.23654 4.25916 9.22872 4.2598C9.22872 4.2598 8.99603 4.47452 9.03201 4.59936C9.06789 4.72522 9.26471 4.79618 9.26471 4.79618C9.26471 4.79618 9.42554 4.79618 9.42554 4.63536C9.42554 4.48043 9.44216 4.25879 9.25135 4.25879Z" fill="#D2DFD5"/>
<path d="M5.99079 19.6452C5.99079 19.6452 5.87396 19.6812 5.88297 19.7441C5.89199 19.8069 5.88293 19.8689 5.97282 19.8429C6.06261 19.8159 6.06262 19.8248 6.10669 19.789C6.15159 19.753 6.21451 19.6721 6.25039 19.6542C6.28636 19.6371 6.33035 19.5473 6.29447 19.4844L5.99079 19.6452Z" fill="#D2DFD5"/>
<path d="M6.29447 19.4844L5.99079 19.6452C5.99079 19.6452 5.87396 19.6812 5.88297 19.7441C5.89052 19.7968 5.88535 19.849 5.9366 19.849C5.94644 19.849 5.95832 19.847 5.97276 19.8429C6.06256 19.8159 6.06257 19.8248 6.10663 19.789C6.15153 19.753 6.21445 19.6721 6.25033 19.6542C6.28631 19.6371 6.33035 19.5473 6.29447 19.4844Z" fill="#D2DFD5"/>
<path d="M7.28818 16.8545C7.28818 16.8545 7.17133 16.8635 7.17133 17.0335C7.17133 17.2031 7.17135 17.32 7.27016 17.2931C7.36814 17.2661 7.47607 17.0693 7.47607 17.0693C7.47607 17.0693 7.34118 16.8636 7.28818 16.8545Z" fill="#D2DFD5"/>
<path d="M7.28818 16.8545C7.28818 16.8545 7.17133 16.8635 7.17133 17.0335C7.17133 17.1867 7.17133 17.2969 7.2441 17.2969C7.25192 17.2969 7.26059 17.2956 7.27016 17.2931C7.36814 17.2661 7.47607 17.0693 7.47607 17.0693C7.47607 17.0693 7.34118 16.8636 7.28818 16.8545Z" fill="#D2DFD5"/>
<path d="M7.72657 15.1195C7.72657 15.1195 7.57386 15.1195 7.56485 15.2543C7.55592 15.3881 7.6008 15.46 7.69962 15.4241C7.79751 15.3882 7.90536 15.2364 7.90536 15.2364C7.90536 15.2364 7.77956 15.0845 7.72657 15.1195Z" fill="#D2DFD5"/>
<path d="M7.74512 15.1143C7.73831 15.1143 7.73202 15.1159 7.72659 15.1195C7.72659 15.1195 7.57388 15.1195 7.56486 15.2543C7.55741 15.365 7.58692 15.4333 7.65325 15.4333C7.66714 15.4333 7.68263 15.4304 7.69975 15.4241C7.79764 15.3881 7.90544 15.2363 7.90544 15.2363C7.90544 15.2363 7.80418 15.1143 7.74512 15.1143Z" fill="#D2DFD5"/>
<path d="M8.03026 13.6697L8.03614 13.6673C8.06552 13.5796 8.03026 13.6697 8.03026 13.6697Z" fill="#D2DFD5"/>
<path d="M8.04769 13.6289L8.03026 13.6697L8.03614 13.6673C8.04578 13.6386 8.04769 13.6289 8.04769 13.6289Z" fill="#D2DFD5"/>
<path d="M7.69334 14.579C7.6547 14.5152 7.65693 14.4766 7.65251 14.4361C7.65113 14.4263 7.6498 14.4172 7.64796 14.4091C7.69019 14.4056 7.73245 14.4029 7.75269 14.4029C7.78775 14.4029 7.82005 14.3966 7.85023 14.384C7.84885 14.4074 7.84706 14.4343 7.84439 14.4684C7.79186 14.5071 7.75188 14.5466 7.72226 14.5834C7.71278 14.5825 7.70318 14.5808 7.69334 14.579ZM8.19243 13.8135C8.22482 13.7992 8.26432 13.7811 8.31013 13.7578L8.41531 13.8522L8.43508 13.9115L8.42474 13.9501L8.39919 13.9654L8.25505 13.9681L8.131 13.9843C8.14407 13.9511 8.19243 13.8135 8.19243 13.8135Z" fill="#D2DFD5"/>
<path d="M8.79037 12.9463C8.78282 12.9463 8.76962 12.9526 8.74634 12.9728C8.70445 13.0082 8.67149 13.0468 8.64751 13.0888C8.61154 13.1516 8.62056 13.1697 8.56665 13.2317C8.51365 13.2945 8.49568 13.3305 8.47764 13.3574C8.4597 13.3844 8.63847 13.3574 8.41481 13.4823C8.20265 13.6015 8.05171 13.6616 8.03616 13.6676C8.02668 13.6957 8.01138 13.7402 7.98534 13.8139C7.87853 14.1175 7.8065 14.2073 7.75258 14.2073C7.69959 14.2073 7.51185 14.2253 7.51185 14.2253C7.51185 14.2253 7.46198 14.207 7.41616 14.207C7.37715 14.207 7.34114 14.2202 7.34114 14.2693C7.34114 14.3772 7.44896 14.3772 7.45789 14.4581C7.4669 14.538 7.43102 14.6098 7.48484 14.6638C7.53783 14.7168 7.56482 14.7527 7.65471 14.7707C7.74367 14.7886 7.82452 14.7886 7.82452 14.7886C7.82452 14.7886 7.86042 14.6898 7.92335 14.6279C7.98536 14.565 8.03023 14.6009 8.03925 14.4842C8.04817 14.3683 8.04818 14.3234 8.04818 14.2784C8.04818 14.2344 8.03927 14.1984 8.08417 14.1895C8.12907 14.1805 8.14704 14.1805 8.28099 14.1625C8.41476 14.1444 8.47758 14.1535 8.52257 14.1174C8.53904 14.104 8.55189 14.1032 8.56238 14.1032C8.56394 14.1032 8.56555 14.1032 8.56693 14.1032C8.58202 14.1032 8.59228 14.1012 8.60259 14.0556C8.62053 13.9747 8.65662 13.9567 8.62056 13.8498L8.58456 13.7419L8.49573 13.6611C8.49573 13.6611 8.54952 13.5183 8.54952 13.4823C8.54952 13.4464 8.54061 13.4023 8.56665 13.3754C8.59361 13.3484 8.58455 13.3754 8.62954 13.3305C8.67444 13.2855 8.71945 13.2675 8.7373 13.2236C8.75533 13.1786 8.78135 13.1967 8.79037 13.0799L8.79929 12.9639C8.79929 12.9639 8.80279 12.9463 8.79037 12.9463Z" fill="#D2DFD5"/>
</svg>
