<svg width="112" height="106" viewBox="0 0 112 106" fill="none" xmlns="http://www.w3.org/2000/svg">
<path d="M40.3363 44.4896C40.3184 44.4087 40.2375 44.3368 40.2375 44.3368C40.2375 44.3368 40.1926 44.203 40.0856 44.0861C39.9779 43.9703 39.862 44.1401 39.7272 44.292C39.5933 44.4447 39.6382 44.8382 39.5043 44.8742C39.3696 44.9092 39.3337 44.8472 39.2536 44.9182C39.1728 44.9902 39.2447 45.053 39.1459 45.115C39.048 45.1779 39.075 45.062 39.003 45.0171C38.9312 44.9721 38.8781 44.9812 38.8781 44.9812C38.8781 44.9812 38.6903 44.7664 38.5645 44.6326C38.4396 44.4978 38.3949 44.6954 38.2959 44.5607C38.198 44.4268 38.2249 44.6235 38.2519 44.8024C38.2779 44.9812 38.1171 44.8383 37.9742 44.7395C37.8313 44.6416 37.8494 44.8293 37.7056 44.9182C37.5628 45.0081 37.6697 44.8652 37.4549 44.8293C37.241 44.7934 37.357 45.0351 37.1692 45.142C36.9814 45.2498 37.0794 44.9012 37.0704 44.7754C37.0614 44.6505 36.9365 44.6505 36.7757 44.5426C36.6149 44.4358 36.6319 44.5966 36.6319 44.6415C36.6319 44.6864 36.6948 44.9451 36.6948 44.9451C36.7578 45.1149 36.9365 45.1688 36.9365 45.1688C36.9365 45.1688 36.9545 45.3207 37.0084 45.4285C37.0614 45.5354 37.1961 45.4644 37.375 45.5893C37.5538 45.715 37.6077 45.9648 37.6786 46.1886C37.7506 46.4123 37.8404 46.3584 37.8404 46.3584C37.8404 46.3584 37.9563 46.1525 38.0722 46.0996C38.1889 46.0457 38.198 46.2605 38.3408 46.2784C38.4845 46.2964 38.4666 46.0098 38.4666 46.0098L38.8242 45.5893C38.8242 45.5893 38.967 45.5983 39.0928 45.7412C39.2177 45.8849 39.2986 45.6702 39.2986 45.6702C39.2986 45.6702 39.4504 45.804 39.5843 45.8939C39.719 45.9829 39.7191 45.804 39.808 45.7682C39.8978 45.7322 40.1476 45.5354 40.2285 45.3656C40.3094 45.1958 40.1036 45.1958 40.0767 45.017C40.0497 44.8382 40.1395 44.7303 40.1395 44.7303C40.1395 44.7303 40.3534 44.5695 40.3363 44.4896Z" fill="#D2DFD5" stroke="white" stroke-width="0.6"/>
<path d="M111.416 8.45562C111.168 8.0199 110.701 7.46098 110.607 7.33613C110.515 7.21211 110.235 7.05672 110.017 6.86986C109.8 6.68291 109.645 6.49697 109.645 6.49697C109.645 6.49697 109.147 6.4655 109.023 6.49697C108.897 6.52843 108.65 6.621 108.432 6.52844C108.214 6.43497 107.996 6.40349 107.841 6.27957C107.685 6.15463 107.406 5.81321 107.406 5.81321C107.406 5.81321 107.592 5.34693 107.344 5.34693C107.095 5.34693 106.815 5.62634 106.784 5.34693C106.753 5.06761 106.784 4.78719 106.784 4.78719C106.784 4.78719 107.002 4.19598 106.97 3.51313C106.939 2.82854 106.908 2.64168 106.908 2.64168L107.033 2.33081C107.033 2.33081 107.219 2.26973 107.033 2.08278C106.846 1.89592 106.753 1.86536 106.567 1.77179C106.38 1.67749 106.163 1.52303 106.006 1.52303C105.852 1.52303 105.571 1.74051 105.292 1.55347C105.013 1.36661 104.951 1.1815 104.794 1.11867C104.64 1.05574 104.266 1.02612 104.266 1.02612C104.266 1.02612 104.049 1.18152 103.862 1.02612C103.676 0.87073 103.271 0.465452 103.271 0.465452L102.789 0.365723C102.786 0.452021 102.774 0.533706 102.719 0.633437C102.585 0.866297 102.285 1.26596 102.085 1.59929C101.884 1.93271 100.685 4.39718 100.585 4.9308C100.485 5.46359 100.553 5.46359 100.453 5.79692C100.352 6.13034 100.386 6.29742 100.352 6.59661C100.319 6.89673 100.319 8.56243 100.286 8.99549C100.251 9.42947 100.186 9.52829 100.186 9.76281C100.186 9.99456 100.386 9.92905 100.386 10.1949C100.386 10.4608 100.319 10.3953 100.186 10.7287C100.053 11.062 99.9181 11.3953 99.9181 11.3953L99.8193 11.9605C99.8193 11.9605 99.2855 13.0602 99.1203 13.3935C98.9522 13.7268 96.9541 16.1249 96.6208 16.5588C96.2875 16.9918 95.4878 17.5588 95.4878 17.5588C95.4878 17.5588 94.8885 17.7241 94.6882 17.9577C94.4887 18.1913 94.1554 18.3243 94.0224 18.424C93.8894 18.5246 93.5885 18.5911 93.3225 18.6899C93.0557 18.7906 92.8221 18.7906 92.689 18.8247C92.5561 18.8579 92.6235 18.9245 92.2228 19.0233C91.8229 19.1239 90.3243 20.0907 89.7906 20.3566C89.257 20.6235 88.0925 21.256 87.8248 21.4573C87.558 21.6559 86.026 22.423 85.5256 23.0898C85.026 23.7557 84.8931 23.9218 84.8266 24.0557C84.76 24.1887 84.4601 24.3558 84.3594 24.5876C84.2597 24.8221 84.1609 25.52 84.1609 25.52C84.1609 25.52 84.0261 25.6548 83.9595 25.8211C83.8931 25.9882 83.7934 26.5201 83.6595 26.954C83.5274 27.3871 83.5606 27.8866 83.5274 28.0196C83.4942 28.1527 83.3261 28.5192 83.2606 28.653C83.1941 28.7861 82.9273 29.9522 82.6272 30.2855C82.328 30.6187 82.2606 30.5856 82.1276 30.8182C81.9946 31.0511 82.1609 31.4517 81.7269 31.7509C81.2948 32.051 81.2956 31.9512 81.0278 32.2846C80.761 32.6179 79.8285 33.8164 79.5957 34.0841C79.3622 34.3501 79.0279 35.316 78.9291 35.5163C78.8284 35.7167 78.7628 36.183 78.5958 36.3825C78.4295 36.5819 78.2957 36.6493 78.1959 36.9153C78.0962 37.1821 78.2633 37.0815 77.9632 37.4148C77.6631 37.7482 77.6623 37.9484 77.2301 38.0815C76.797 38.2144 76.231 38.5478 75.9973 38.6483C75.7637 38.7481 75.0648 39.315 74.3981 39.9475C73.7316 40.5809 72.5652 41.7794 72.5652 41.7794L70.8671 43.1461L69.6336 43.8127C69.6336 43.8127 69.0011 43.9456 68.7332 43.9789C68.4673 44.0122 68.2346 44.3121 67.7332 44.1792C67.2346 44.0445 66.9687 43.9456 66.9687 43.9456C66.9687 43.9456 66.6354 43.5458 66.4018 43.8459C66.1683 44.1451 65.6021 44.8783 65.6021 44.8783L64.9355 45.4111C64.9355 45.4111 64.9356 45.7111 64.5357 45.7444C64.1368 45.7784 63.9366 46.0103 63.7037 46.0777C63.4701 46.1441 63.0371 46.5439 63.0371 46.5439C63.0371 46.5439 62.4711 46.9104 62.2043 47.1108C61.9364 47.3103 61.5384 47.5763 61.0713 47.6436C60.6042 47.7101 60.3059 47.7443 60.172 47.8099C60.0382 47.8756 59.4712 48.3768 58.9716 48.5421C58.473 48.7101 57.1729 49.1432 56.6401 49.3768C56.2843 49.5304 55.606 49.8475 55.0625 50.0425C54.791 50.1386 54.5521 50.2088 54.4083 50.2088C53.9753 50.2088 52.3086 50.5421 52.075 50.6086C51.8414 50.676 51.3096 50.7415 50.9762 50.9087C50.643 51.0749 49.7436 51.6086 49.7436 51.6086C49.7436 51.6086 49.4103 52.6086 49.4103 52.8745C49.4103 53.1405 49.51 53.0407 49.4103 53.4396C49.3096 53.8404 49.2773 53.8736 49.2108 54.2069C49.1659 54.4291 49.088 54.6625 48.9772 54.9069C48.811 55.2725 48.7104 55.6058 48.7104 55.6058C48.7104 55.6058 48.4435 55.6058 48.1776 55.8736C47.9108 56.1395 47.2773 56.6714 47.2773 56.6714C47.2773 56.6714 47.2772 56.9069 46.9772 56.9391C46.678 56.9715 46.4111 56.9068 45.9781 56.8727C45.5459 56.8393 45.5783 56.7721 45.1119 56.8062C44.6457 56.8394 44.4121 56.8727 43.7121 56.7721C43.0132 56.6714 42.5468 56.5061 42.5468 56.5061C42.5468 56.5061 42.1138 56.2724 41.9809 56.2724C41.847 56.2724 41.3807 56.1063 41.3807 56.1063C41.3807 56.1063 40.3825 55.64 40.3483 55.5402C40.3151 55.4397 39.9144 55.073 39.7158 54.9401C39.5145 54.8062 39.1147 54.7397 38.8811 54.2069C38.6484 53.6741 38.6152 53.6068 38.7481 53.2411C38.8811 52.8745 39.7149 52.4082 39.7482 52.0749C39.7814 51.7415 39.8137 51.7406 39.8137 51.6086V51.1746C39.8137 51.1746 40.2324 50.9778 40.3259 50.6616C40.3348 50.6337 40.3457 50.605 40.3483 50.5753C40.3807 50.2087 40.2477 49.9761 40.2477 49.8754C40.2477 49.7748 40.1812 49.9086 40.2477 49.375C40.3151 48.8422 40.3151 48.7416 40.3151 48.6428C40.3151 48.5421 40.2145 48.1432 40.2145 47.7101C40.2145 47.2762 40.2477 46.9096 40.2477 46.7766C40.2477 46.6437 40.448 46.2098 40.2477 46.1775L40.0473 46.1441L39.9485 46.0103C39.9485 46.0103 39.6485 45.9097 39.5145 46.1775C39.3825 46.4434 39.3151 46.7766 39.2486 46.8764C39.1812 46.9771 39.2145 47.2097 39.0492 47.3437C38.8812 47.4766 38.6484 47.7768 38.6484 47.7768C38.6484 47.7768 38.582 48.1433 38.3825 47.9762C38.1812 47.81 38.0833 47.7425 37.9827 47.677C37.9156 47.6321 37.8488 47.4985 37.7823 47.2763C37.6825 46.9429 37.582 46.7444 37.582 46.7444C37.582 46.7444 37.8146 46.6437 37.4489 46.6106C37.0833 46.5765 36.9496 46.5765 36.9496 46.5765L36.7167 46.677C36.7167 46.677 36.8829 46.8766 36.6161 46.943C36.3501 47.0104 36.2829 46.9098 36.1832 47.0778C36.0833 47.2431 35.6495 47.0437 35.6495 47.0437C35.6495 47.0437 35.2496 46.8766 35.4176 46.7768C35.5829 46.677 35.6162 46.677 35.6162 46.4768C35.6162 46.2774 35.4841 46.1443 35.6162 45.9773C35.7501 45.811 35.8175 45.811 35.9495 45.7769C36.0835 45.7446 36.2829 45.4454 36.2829 45.4454C36.2829 45.4454 36.5156 45.2774 36.4832 45.0779C36.451 44.8785 36.4168 44.6781 36.2829 44.7113C36.1498 44.7454 35.9495 45.1777 35.9495 44.811C35.9495 44.4454 36.0835 44.3116 36.2164 44.2118C36.3503 44.1121 36.6827 43.5784 36.7501 43.4796C36.8165 43.3789 36.9154 43.0456 36.9154 43.0456L37.1832 42.8784C37.1832 42.8784 37.3161 42.7455 37.149 42.679C36.9828 42.6125 36.7833 42.1785 36.9497 42.2459C37.1157 42.3133 37.3835 42.4794 37.3835 42.3133C37.3835 42.1462 37.283 42.0456 37.5822 42.0456C37.8822 42.0456 38.3163 41.7123 38.1814 41.9459C38.0494 42.1795 37.6827 42.3789 37.7824 42.5127C37.8822 42.6448 38.0161 42.8127 38.3162 42.8784C38.6154 42.9458 38.7483 43.0456 38.7483 43.0456C38.7483 43.0456 38.9487 43.6781 39.282 43.545C39.6154 43.412 39.681 43.2117 39.7151 43.1119C39.7485 43.0114 39.8813 42.846 39.982 42.846C40.0817 42.846 40.6145 42.8784 40.6818 42.5451C40.7484 42.2127 40.715 41.98 40.9145 41.7796C41.1139 41.5793 41.3152 41.2136 41.3808 41.0798C41.4464 40.9467 41.8139 40.2801 42.2479 40.1471C42.6801 40.0142 42.813 39.7805 42.813 39.7805C42.813 39.7805 43.0798 39.7805 43.3135 39.847C43.547 39.9145 43.7797 39.9145 43.9792 39.9145H44.513C44.513 39.9145 44.7132 40.0465 44.8129 39.8138C44.9118 39.5811 44.6459 39.5137 44.9792 39.3808C45.3125 39.2477 45.2128 39.5138 45.3125 39.2477C45.4123 38.9809 45.5793 38.9144 45.5461 38.7805C45.5129 38.6476 45.4788 38.5146 45.5129 38.4149L45.5461 38.3143C45.5461 38.3143 45.1121 38.3475 45.1121 38.0483C45.1121 37.7482 44.7788 37.3816 44.9792 36.9153C45.1796 36.4491 45.3781 35.9827 45.6126 35.715C45.8462 35.449 46.0789 35.2487 46.3781 35.3493C46.6782 35.449 47.211 35.4832 47.211 35.4832C47.211 35.4832 47.5443 35.6162 47.7779 35.2828C48.0106 34.9495 48.2101 34.9495 48.0106 34.7167C47.8121 34.4832 47.7447 34.316 47.6773 34.0501C47.611 33.7833 47.7447 33.6162 47.7447 33.6162C47.7447 33.6162 47.7447 33.3502 47.6441 33.184C47.5443 33.0169 47.5111 32.9504 47.3781 32.884C47.2452 32.8165 47.2451 32.6836 47.2451 32.6836H46.5785L45.945 32.6171L45.3449 32.6503L44.5803 33.184C44.5803 33.184 44.512 33.45 44.1796 33.4832C43.8463 33.5173 43.8804 33.5829 43.3467 33.5829C42.813 33.5829 41.7816 33.9162 41.4806 34.1831C41.1805 34.4499 40.7807 34.882 40.7807 34.882L40.4151 35.2828C40.4151 35.2828 40.0143 35.3825 39.8813 35.5155C39.7484 35.6494 39.282 35.6494 38.9487 35.8488C38.6154 36.0483 38.016 36.3816 38.016 36.3816C38.016 36.3816 37.5822 36.715 37.2156 36.715C36.8498 36.715 36.7501 36.7824 36.5821 36.715C36.4168 36.6494 36.1833 36.6152 36.1833 36.6152L35.317 36.7483C35.317 36.7483 34.7169 36.9486 34.6504 37.1157C34.584 37.2819 34.4509 37.3152 34.4509 37.3152L33.884 37.6152L33.5184 37.6485L33.1517 37.848C33.1517 37.848 32.9506 37.7149 32.9182 37.9485C32.886 38.1814 32.886 38.4805 32.886 38.4805C32.886 38.4805 32.6182 38.5478 32.5192 38.6152C32.4187 38.6809 32.2515 38.8812 32.1859 38.9809C32.1186 39.0797 32.1186 39.2477 32.1186 39.3807C32.1186 39.5137 32.1518 39.7464 32.1518 39.7464L32.2516 40.1803L32.4851 40.3475L32.1859 41.113C32.1859 41.113 31.8184 41.4463 31.6522 41.679C31.486 41.9126 31.486 42.1795 31.486 42.3133C31.486 42.4463 31.4519 42.6125 31.4519 42.6125C31.4519 42.6125 31.2866 42.6125 31.186 42.8784C31.0853 43.1462 31.0853 43.3448 31.0853 43.3448C31.0853 43.3448 30.9523 43.5128 30.9523 43.6125C30.9523 43.7122 30.9855 43.9781 30.9855 44.1785C30.9855 44.378 30.9533 44.4121 30.9201 44.6107C30.8858 44.811 30.5858 44.6781 30.8858 44.811C31.1859 44.9441 31.1186 45.0779 31.3189 44.8785C31.5192 44.6781 31.5192 44.378 31.7852 44.6107C32.0511 44.8443 31.9856 44.6106 32.0511 44.8443C32.1186 45.0779 32.1518 45.811 32.1518 45.811C32.1518 45.811 32.2183 46.2774 32.1859 46.3778C32.1518 46.4768 32.0179 46.8442 32.0179 46.8442V47.2098C32.0179 47.2098 31.9191 47.4443 32.0511 47.5765C32.1859 47.7103 32.5192 47.943 32.5192 47.943C32.5192 47.943 32.5858 48.209 32.5526 48.377C32.5193 48.5423 32.7511 48.8756 32.7511 48.8756C32.7511 48.8756 32.8518 49.0427 33.0179 49.1416C33.1851 49.2422 33.1518 49.076 33.1851 49.2422C33.2174 49.4093 33.2174 49.7427 33.2174 49.7427V50.3418C33.2174 50.4407 33.1517 50.8746 33.1517 50.8746L32.9182 51.4739C32.9182 51.4739 32.8518 51.508 32.8518 51.6087C32.8518 51.7084 32.886 51.8072 32.9515 51.9079C33.0179 52.0076 33.0512 52.208 33.0512 52.208L33.1185 52.6087C33.1185 52.6087 33.0512 53.4864 32.9792 53.845C32.9065 54.2043 32.0449 56.1792 31.8302 56.5736C31.6145 56.969 29.7825 60.2007 29.7825 60.2007L29.2093 60.9545C29.2093 60.9545 28.8849 61.2429 28.7771 61.4936C28.6702 61.7452 28.4537 62.0686 28.4537 62.0686C28.4537 62.0686 28.2381 62.3561 28.1312 62.4999C28.0233 62.6436 26.2633 65.0138 26.2633 65.0138C26.2633 65.0138 25.0064 66.6283 24.7197 67.0605L24.0719 67.9302L22.9964 68.7846C22.6721 69.1791 21.8463 69.5384 21.8463 69.5384C21.8463 69.5384 21.6316 69.5024 21.3791 69.7899C21.1285 70.0774 20.8041 70.5806 20.8041 70.5806C20.8041 70.5806 20.3738 71.011 20.1941 71.1907C20.1725 71.2122 20.1358 71.2356 20.107 71.2589C19.8951 71.4233 19.531 71.6066 19.4043 71.7657C19.2615 71.9445 18.7934 72.5905 18.3262 72.6622C17.8598 72.7341 17.5724 72.6263 17.4296 72.7341C17.2849 72.8419 17.1421 72.6263 17.178 73.0225C17.2139 73.416 17.3227 73.2731 17.3227 73.5607C17.3227 73.8473 17.4295 73.956 17.2499 74.0989C17.0692 74.2427 16.7477 74.7458 16.7477 74.7458C16.7477 74.7458 16.2804 75.2129 16.2085 75.5004C16.1367 75.7871 16.1366 75.9299 16.1366 75.9299L15.0944 76.8644C15.0944 76.8644 14.8437 77.4034 14.7 77.5822C14.5553 77.761 14.0181 79.6649 14.0181 79.6649L13.3704 80.4196C13.3704 80.4196 12.6165 80.5993 12.904 80.9946C13.1915 81.389 13.6946 82.2866 13.6946 82.2866C13.6946 82.2866 13.8024 82.6819 13.8734 82.9335C13.9453 83.1851 13.8024 83.867 13.8375 83.9739C13.8734 84.0817 14.5913 84.6568 14.5913 84.6568C14.5913 84.6568 15.0234 85.0152 15.3819 85.5184C15.7413 86.0215 16.1366 86.5956 16.1366 86.5956C16.1366 86.5956 16.4592 87.0988 16.4951 87.3145C16.532 87.53 16.6029 87.7447 16.5671 88.0691C16.532 88.3917 16.6389 88.6442 16.4951 88.8229C16.3514 89.0017 16.3154 89.0017 16.2445 89.2174C16.1726 89.4339 16.1007 89.398 16.0656 89.7196C16.0288 90.044 16.0288 90.5103 16.0288 90.5103C16.0288 90.5103 15.9866 91.0116 15.7189 91.0602C15.4484 91.1096 15.3738 91.2318 15.2031 91.0602C15.0324 90.8894 14.9578 90.7915 14.8599 90.6926C14.7611 90.5938 14.7125 90.3737 14.7125 90.3737C14.7125 90.3737 14.6874 90.1042 14.7611 90.0305C14.8356 89.9568 14.9336 89.9568 15.0073 89.9074C15.0809 89.8598 15.1303 90.1536 15.0809 89.8598C15.0324 89.5651 14.983 89.4428 14.983 89.4428C14.983 89.4428 14.9578 89.5651 14.9578 89.2218C14.9578 88.8786 15.1303 89.0017 14.9578 88.7807C14.7862 88.5606 14.7611 88.5615 14.6874 88.4879C14.6146 88.4132 14.5662 88.2164 14.5662 88.2164C14.5662 88.2164 14.9578 88.4879 14.8599 88.3396C14.7611 88.1923 14.5662 87.9964 14.5662 87.9964C14.5662 87.9964 14.6631 87.8983 14.4197 87.9227C14.1735 87.9478 13.9785 87.9964 13.8805 88.1428C13.7817 88.2911 13.8311 88.3154 13.6838 88.4879C13.5355 88.6585 13.4143 88.707 13.4143 88.707C13.4143 88.707 13.4871 88.5606 13.2184 88.707C12.948 88.8544 12.8491 88.9281 12.8491 88.9281C12.8491 88.9281 12.7288 88.9523 12.8259 89.2946C12.9228 89.6396 13.0711 90.0799 13.1196 89.7609C13.169 89.4428 13.2184 89.2209 13.2427 89.3198C13.2678 89.4177 13.4143 89.7861 13.4143 89.7861L13.4386 90.203C13.4386 90.203 13.3406 90.6432 13.2427 90.6684C13.1447 90.6925 13.0459 90.7915 13.2184 91.0116C13.3891 91.2318 13.5608 91.2318 13.6344 91.3297C13.708 91.4285 13.8311 91.4527 13.6838 91.5992C13.5355 91.7457 13.6091 91.8211 13.3648 91.8688C13.1195 91.9182 13.0215 91.9182 12.8742 91.9676C12.7268 92.017 12.5319 92.0888 12.4331 92.2119C12.3352 92.335 12.3352 92.4339 12.2857 92.5066C12.2363 92.5803 12.4825 92.7277 12.1393 92.6297C11.7961 92.5309 11.576 92.4078 11.576 92.4078L11.3064 92.3108C11.3064 92.3108 11.2812 92.2372 11.1339 92.2866C10.9874 92.3351 11.1348 92.5552 10.841 92.3584C10.5454 92.1643 10.5212 92.1383 10.496 92.0655C10.4718 91.9918 10.5948 91.9918 10.3496 91.8939C10.1051 91.7951 10.1051 91.6729 10.1051 91.6729C10.1051 91.6729 10.2273 91.5758 10.1294 91.5515C10.0314 91.5264 9.98204 91.6243 9.80954 91.5264C9.63887 91.4285 9.7853 91.5021 9.63883 91.4285C9.49236 91.3549 9.12401 91.6729 9.36929 91.698C9.61466 91.7223 9.71256 91.5264 9.71256 91.7223C9.71256 91.9182 9.24618 91.7708 9.49238 91.9676C9.73674 92.1643 9.9326 91.9676 10.0063 92.1643C10.0809 92.3584 10.0314 92.1392 10.0063 92.4815C9.98201 92.8247 10.1051 92.8247 10.2516 92.8499L10.3981 92.8741C10.3981 92.8741 10.496 93.1194 10.4718 93.1931C10.4475 93.2668 10.3496 93.4626 10.3496 93.4626C10.3496 93.4626 10.3737 93.5605 10.0808 93.6827L9.78522 93.8059L9.54168 93.6334C9.54168 93.6334 9.27037 93.2911 9.24609 93.6334C9.22189 93.9784 9.56596 94.1015 9.59025 94.1733C9.61454 94.2461 9.80942 94.345 9.80942 94.4186C9.80942 94.4923 10.1293 94.5157 9.83464 94.6639C9.5417 94.8113 9.56599 94.9092 9.2955 94.9578C9.02602 95.0072 8.87955 95.1545 8.78074 94.9578C8.68275 94.7619 8.63426 94.8841 8.68275 94.7619C8.73215 94.6397 8.55966 94.4429 8.55966 94.4429L8.36469 94.2461C8.36469 94.2461 8.21743 93.8059 8.19314 94.0027C8.16802 94.1986 8.38993 94.4429 8.19314 94.4429C7.99634 94.4429 7.84811 94.4429 7.80045 94.1986C7.75197 93.9533 7.60464 93.8553 7.60464 93.8553L7.28569 93.7817C7.28569 93.7817 6.62346 93.7565 6.59926 93.9784C6.57497 94.1986 6.72141 93.929 6.57495 94.1986C6.42848 94.4681 6.50221 94.3945 6.67288 94.5175C6.84446 94.6397 6.96752 94.5417 6.99172 94.7619C7.01601 94.982 6.45273 95.3989 6.96758 95.2525C7.4815 95.1051 7.38352 95.0557 7.5057 94.982C7.6288 94.9084 7.80034 94.859 7.80034 94.859C7.80034 94.859 8.1184 94.8356 8.1184 94.9084C8.1184 94.982 7.92169 95.2525 7.92169 95.2525L7.55506 95.8409C7.55506 95.8409 7.16423 96.1339 6.99172 96.1339C6.81922 96.1339 6.77076 96.1096 6.57489 96.1339C6.37892 96.159 6.03489 96.1833 5.79053 96.2076C5.54433 96.2327 5.69255 96.2812 5.32417 96.2812C4.95671 96.2812 4.51561 96.2327 4.51561 96.2327C4.51561 96.2327 3.87853 96.4528 4.00163 96.2327C4.1239 96.0126 4.04929 96.0126 4.24517 96.0126C4.44196 96.0126 4.39246 96.159 4.59018 95.9632C4.78513 95.7673 4.88302 95.7179 4.88302 95.5462C4.88302 95.3746 4.73751 95.3009 4.95675 95.1788C5.17784 95.0557 5.30081 94.982 5.30081 94.982C5.30081 94.982 5.79055 95.2767 5.71685 95.0072C5.64316 94.7376 5.64318 94.4429 5.42311 94.5175C5.20295 94.5911 4.88396 94.6648 4.78515 94.7862C4.68725 94.9084 4.63773 94.982 4.54076 95.1545C4.44195 95.3252 4.344 95.424 4.344 95.424C4.344 95.424 3.65849 95.424 3.58479 95.5462C3.5111 95.6684 3.63244 95.6684 3.46159 95.7673C3.29001 95.8652 3.26573 95.964 2.94694 96.0126C2.62889 96.0602 2.43116 96.0602 2.43116 96.0602L1.89293 95.8167C1.89293 95.8167 1.94154 95.6683 1.96666 95.5462C1.99095 95.424 2.13824 95.3513 2.01523 95.2525C1.89296 95.1545 1.76992 95.3513 1.81841 94.9326C1.86782 94.5176 2.06462 94.4429 1.86783 94.3692C1.67195 94.2956 1.47697 94.1976 1.55067 94.4185C1.62344 94.6396 1.67377 94.7618 1.57487 94.9083C1.47698 95.0556 1.67378 95.2514 1.42758 95.1787C1.18138 95.105 1.08431 95.2039 1.08431 95.0556C1.08431 94.9083 1.18137 94.9577 1.08431 94.9083C0.986417 94.8589 0.544356 95.0314 0.74115 94.7375C0.937944 94.4428 0.962173 94.3197 0.962173 94.3197C0.962173 94.3197 1.01075 94.3458 1.03495 94.1985C1.03495 94.1985 0.919916 93.9289 0.72947 94.2147C0.539852 94.5013 0.491362 94.5974 0.396139 94.7878C0.299996 94.9801 0.300003 95.2173 0.300003 95.2173C0.300003 95.2173 0.729501 95.0736 0.777987 95.5991C0.825644 96.1248 0.634232 96.4581 0.634232 96.4581C0.634232 96.4581 0.538128 96.5048 0.586614 96.7448C0.634271 96.9836 0.539883 96.9836 0.777987 97.1742L1.01608 97.3637C1.01608 97.3637 1.30185 97.556 1.30185 97.8426C1.30185 98.1292 1.01609 98.0332 1.30185 98.1292C1.58844 98.2227 2.06543 97.8894 2.06543 98.176C2.06543 98.4617 2.30448 98.7015 2.30448 98.8912C2.30448 99.0816 2.25692 99.1778 2.25692 99.3682C2.25692 99.5605 2.35121 99.7034 2.59014 99.7034H3.68801C3.87845 99.7034 4.30795 99.7968 4.30795 99.7968C4.30795 99.7968 4.02133 99.8938 4.49938 99.8938H5.26302C5.26302 99.8938 5.35823 99.9882 5.50111 100.083C5.64399 100.18 5.73932 100.322 5.97825 100.419C6.21636 100.513 6.16869 100.513 6.40772 100.513C6.64582 100.513 6.74106 100.37 6.93242 100.37C7.12379 100.37 7.07438 100.322 7.31332 100.322H7.55326C7.55326 100.322 7.83891 100.322 8.07701 100.276C8.17224 100.256 8.22349 100.246 8.25772 100.239C8.29369 100.057 8.31346 99.9064 8.45358 99.786C8.63777 99.6287 8.61176 99.4168 8.84986 99.3377C9.08704 99.2586 9.24592 99.2587 9.24592 99.1535V98.7304C9.24592 98.7304 9.27204 98.5183 9.4301 98.5183H10.0375C10.0375 98.5183 10.2234 98.4653 10.2774 98.5453C10.3286 98.6243 10.5937 98.9675 10.5937 98.9675C10.5937 98.9675 10.8838 99.0215 11.016 98.9406C11.1481 98.8624 11.3591 98.7815 11.3591 98.6504V98.2002C11.3591 98.2002 11.4912 98.0439 11.6231 98.017C11.7553 97.9899 11.9144 97.5138 11.9144 97.3816C11.9144 97.2496 11.9412 96.9072 12.0465 96.6953C12.1525 96.4832 12.1525 96.273 12.2316 96.1139C12.3106 95.9549 12.4427 95.4275 12.4427 95.4275C12.4427 95.4275 12.4957 95.0573 12.7077 95.2954C12.9179 95.5326 13.104 95.7177 13.236 95.7958C13.3681 95.8758 13.5783 96.1409 13.7904 96.1139C14.0033 96.0869 14.2135 95.9549 14.2135 95.9549C14.2135 95.9549 14.2917 95.6638 14.3986 95.4787C14.5038 95.2954 14.5038 95.1894 14.7419 95.0304C14.9801 94.8713 14.9009 94.7923 15.2441 94.8192C15.5873 94.8453 15.6403 94.9504 15.7464 94.9774C15.8524 95.0043 15.7985 94.9243 15.9576 94.8192C16.1166 94.7141 16.1687 94.6871 16.3807 94.7393C16.5919 94.7923 16.777 94.8982 16.7509 94.6871C16.7239 94.4751 16.6708 94.0006 16.6978 93.8687C16.7239 93.7357 16.8029 93.4176 16.962 93.4446C17.1201 93.4715 17.3321 93.5506 17.4642 93.5506C17.5953 93.5506 17.8344 93.6287 17.8344 93.6287L18.0707 93.6557C18.0707 93.6557 18.1758 93.4984 18.2297 93.3655C18.2836 93.2335 18.3618 92.7833 18.3618 92.7833C18.3618 92.7833 17.9925 92.202 17.9925 91.9379C17.9925 91.6746 17.8074 91.2245 17.8074 91.2245C17.8074 91.2245 17.8074 90.9881 17.6753 90.9073C17.5433 90.8291 17.2522 90.6701 17.6223 90.326C17.6223 90.326 17.8344 90.0098 17.8874 89.9028C17.9395 89.7977 18.1514 89.6395 18.4157 89.6126C18.679 89.5866 18.7329 89.8247 18.9702 89.9836C19.2082 90.1427 19.3133 90.2208 19.5514 90.2477C19.7895 90.2746 20.0276 90.3528 20.2379 90.4058C20.4508 90.4588 20.873 90.696 20.926 90.8291C20.945 90.8758 20.9584 90.9376 20.971 90.9997C21.104 90.9314 21.2872 90.8066 21.316 90.6134C21.3645 90.3034 21.2226 90.1354 21.3879 89.9458C21.5559 89.7544 21.8416 89.4679 21.9135 89.325C21.9844 89.1821 22.1031 88.9908 22.0798 88.7042C22.0563 88.4176 22.0563 88.06 22.0563 88.06C22.0563 88.06 22.032 87.7266 22.1749 87.5837C22.3178 87.4409 22.439 87.4158 22.6044 87.2972C22.7724 87.1777 23.1533 86.9629 23.1533 86.9629C23.1533 86.9629 23.4166 86.7968 23.6313 86.8677C23.8451 86.9396 24.3932 87.1543 24.3932 87.1543C24.3932 87.1543 24.7516 87.3224 25.014 87.3448C25.2772 87.369 25.3734 87.3224 25.5387 87.3448C25.7059 87.369 25.8497 87.3448 25.9925 87.4409C26.1354 87.5352 26.1605 87.5353 26.2539 87.6071C26.3501 87.679 26.4686 87.9171 26.4686 87.9171C26.4686 87.9171 26.7084 88.1786 26.8027 87.9414C26.898 87.7023 26.898 87.1786 27.2088 87.1301C27.5189 87.0824 27.4955 87.1776 27.7812 87.1776C28.0677 87.1776 28.3544 87.0581 28.3544 87.0581C28.3544 87.0581 28.2349 86.7248 28.5926 86.6773C28.9501 86.6287 29.092 86.6054 29.4991 86.6054C29.9043 86.6054 30.501 86.8677 30.811 86.8677C31.1209 86.8677 31.598 86.8201 31.7417 86.7482C31.8846 86.6772 32.2189 86.4139 32.4093 86.4625C32.5998 86.5101 32.8163 86.3205 32.9816 86.343C33.1496 86.3673 33.7687 86.9153 33.8883 86.343C34.0078 85.7698 34.032 85.7231 34.032 85.6511C34.032 85.5802 33.9366 85.3404 34.1262 85.2693C34.3176 85.1975 34.6995 85.1013 34.6995 84.936C34.6995 84.768 34.7956 84.7923 34.6995 84.5299C34.6042 84.2675 34.4622 84.077 34.4848 83.909C34.5089 83.7428 34.5557 83.4796 34.3895 83.2648C34.2224 83.0501 34.0319 82.9315 33.8881 82.8354C33.7453 82.7411 33.6968 82.6458 33.7219 82.503C33.7453 82.3592 33.6968 82.0734 33.5539 81.9773C33.4111 81.882 33.0778 81.7868 33.0778 81.7868C33.0778 81.7868 32.8864 81.6664 32.8864 81.4292C32.8864 81.1893 32.8631 80.9997 32.6716 80.6889C32.4803 80.3789 32.2655 80.3313 32.2422 80.0447C32.2404 80.0204 32.2413 79.989 32.2422 79.9584C32.2979 79.9242 32.4838 79.802 32.5055 79.6386C32.5288 79.4472 32.5997 79.3052 32.5997 79.1857C32.5997 79.0662 32.5764 78.8991 32.6483 78.8515C32.7202 78.803 32.7911 78.9242 32.863 78.6853C32.9349 78.4454 32.9583 78.3025 32.9583 78.3025C32.9583 78.3025 32.9097 78.0411 32.8388 77.9692C32.7669 77.8973 32.7202 77.8264 32.7202 77.6826C32.7202 77.5397 32.6725 77.3008 32.7669 77.2289C32.8631 77.157 33.0779 76.9422 33.0779 76.9422C33.0779 76.9422 33.6034 76.5613 33.4821 76.1552C33.3636 75.7509 33.1021 75.4175 33.4112 75.3214C33.722 75.2253 33.9594 74.9872 34.0078 74.9153C34.0554 74.8435 34.3186 74.3663 34.4849 74.1516C34.652 73.9369 35.032 73.2459 35.0814 73.1499C35.1282 73.0546 35.2485 72.8632 35.1767 72.6251C35.1048 72.3871 35.0571 72.219 34.89 72.219C34.7238 72.219 34.7238 72.3385 34.5558 72.148C34.3896 71.9576 34.3411 71.8615 34.2944 71.7895C34.2459 71.7186 34.1031 71.5038 34.1031 71.5038C34.1031 71.5038 33.8893 71.3853 33.8407 71.2173C33.8273 71.1705 33.8182 71.0987 33.811 71.0213H34.3779C34.4678 71.0213 34.7364 70.9145 34.7364 70.9145L34.9511 70.6278C34.9511 70.6278 35.112 70.1274 35.1299 70.0375C35.1481 69.9477 35.0941 69.8048 35.0941 69.644C35.0941 69.4832 35.3088 69.6261 35.3088 69.6261C35.3088 69.6261 35.5944 69.6079 35.6124 69.5362C35.6304 69.4652 35.8092 69.3933 35.8092 69.3933C35.8092 69.3933 35.8271 69.5011 35.8631 69.6262C35.8991 69.751 36.0599 69.6801 36.2207 69.6619C36.3825 69.644 36.615 69.3045 36.7399 69.3045C36.8648 69.3045 37.0436 69.5363 37.1693 69.5902C37.2944 69.6441 37.3482 69.662 37.6528 69.8409C37.9565 70.0197 37.9026 70.0736 37.9385 70.2163C37.9744 70.3592 38.0462 70.413 38.1712 70.6637C38.296 70.9145 38.243 70.9324 38.1891 71.1831C38.1353 71.4328 37.9925 71.6835 38.0462 71.8264C38.0993 71.9701 38.4757 71.8443 38.4757 71.8443C38.4757 71.8443 38.6725 71.6835 38.7255 71.6117C38.7794 71.5407 38.8693 71.5946 39.0301 71.5407C39.1909 71.4869 39.2987 71.2362 39.3338 71.1472C39.3697 71.0574 39.4775 71.0034 39.4775 71.0034C39.4775 71.0034 39.5843 70.7178 39.6383 70.6279C39.6922 70.539 39.7453 70.646 39.8351 70.6639C39.9249 70.6818 40.1217 70.4491 40.2107 70.2883C40.3005 70.1275 40.2646 69.8948 40.2466 69.751C40.2286 69.6081 40.2466 69.5543 40.4075 69.4114C40.5682 69.2685 40.4793 69.1967 40.5152 69.0178C40.5512 68.8391 40.5862 68.875 40.6581 68.7851C40.7299 68.6962 40.8369 68.6243 40.8908 68.5883C40.9447 68.5525 41.1236 68.5525 41.2663 68.4815C41.4092 68.4097 41.2844 68.3558 41.3203 68.195C41.3562 68.0341 41.3023 68.0521 41.4631 68.0162C41.6239 67.9802 41.606 67.9444 41.7138 67.7296C41.8207 67.5149 41.7857 67.5328 41.8926 67.4968C42.0004 67.4609 42.0894 67.3899 42.1972 67.3181C42.3041 67.2471 42.2682 67.0854 42.34 66.9246C42.412 66.7638 42.5728 66.7638 42.6976 66.7457C42.8234 66.7278 42.7515 66.6029 42.8054 66.531C42.8584 66.4592 42.9303 66.3163 43.145 66.2983C43.3598 66.2804 43.5386 66.3702 43.5386 66.3702C43.5386 66.3702 43.6814 66.3881 43.7713 66.4241C43.8612 66.4591 43.9681 66.6209 44.022 66.7099C44.075 66.7997 44.2187 66.8707 44.3616 66.8707C44.5044 66.8707 44.5044 66.7638 44.5763 66.7099C44.6481 66.6559 44.7011 66.6029 44.791 66.567C44.8809 66.531 44.8809 66.4771 44.9698 66.3522C45.0597 66.2265 45.1487 66.2804 45.3634 66.3522C45.5781 66.4241 45.614 66.2444 45.614 66.2444C45.614 66.2444 45.8108 66.0836 45.9537 66.0836C46.0974 66.0836 46.1334 66.1375 46.2762 66.1554C46.419 66.1734 46.5619 66.0836 46.7237 66.0836C46.8845 66.0836 46.9204 66.3522 46.9204 66.3522C46.9204 66.3522 46.9023 66.6029 46.7946 66.7638C46.6877 66.9246 46.7767 67.0323 46.8665 67.1573C46.9564 67.2821 47.0453 67.1931 47.0453 67.1931C47.0453 67.1931 47.3679 67.0674 47.4748 67.0144C47.5826 66.9605 47.7614 66.9425 47.9402 66.9425C48.119 66.9425 48.0291 66.7997 48.101 66.7278C48.1728 66.6559 48.1368 66.4241 48.1368 66.4241C48.1368 66.4241 48.4226 66.3881 48.4944 66.3702C48.5663 66.3522 48.781 66.3702 48.834 66.4241C48.8879 66.4771 48.87 66.7817 48.9418 67.0144C49.0137 67.2471 49.3892 67.2471 49.6929 67.372C49.9976 67.4968 50.2303 67.5328 50.534 67.5328C50.8385 67.5328 50.8565 67.336 50.8745 67.2821C50.8924 67.2291 50.9814 67.2642 50.9814 67.2642H51.4648L51.8043 67.3001L51.8942 67.5149C51.8942 67.5149 52.1799 67.9084 52.3587 68.0871C52.5384 68.2668 52.7532 68.3019 52.9679 68.3918C53.1817 68.4816 53.2716 68.3558 53.2716 68.3558C53.2716 68.3558 53.4864 68.3199 53.6112 68.3199C53.737 68.3199 53.7549 68.4097 53.7549 68.4097L53.78 68.4438L54.0945 68.8571L54.4727 69.2605C54.6192 69.4394 54.8788 69.6182 54.9436 69.717C55.0083 69.814 55.2194 69.8949 55.2517 70.0242C55.2841 70.1536 55.2517 70.2516 55.2517 70.495C55.2517 70.7385 55.2365 70.9829 55.2194 71.1617C55.2023 71.3396 55.1546 71.5184 55.0576 71.6477C54.9588 71.778 54.8456 71.8266 54.6686 72.0215C54.4889 72.2165 53.8231 73.0773 53.8231 73.0773C53.8231 73.0773 53.8069 73.2731 53.6776 73.4178C53.5473 73.5632 53.5788 73.4834 53.4817 73.6621C53.3847 73.8409 53.5958 74.23 53.7091 74.3926C53.8232 74.5543 53.8716 74.7331 53.8384 74.9613C53.8069 75.1887 53.807 75.2856 53.6282 75.3998C53.4494 75.513 53.2059 75.7888 53.108 75.8697C53.0111 75.9505 52.9786 76.0646 52.9786 76.1949C52.9786 76.3243 53.0263 76.5516 52.9957 76.6809C52.9616 76.8112 52.9463 76.9901 52.9463 76.9901C52.9463 76.9901 53.0756 77.2829 53.1573 77.4124C53.2391 77.5426 53.8384 77.8508 53.9372 77.9802C54.0352 78.1113 54.3596 78.2569 54.408 78.4357C54.4557 78.6145 54.2455 78.7924 54.0513 79.0359C53.8564 79.2802 53.9372 79.848 53.8878 79.9936C53.8384 80.1401 53.6929 80.3836 53.4646 80.5462C53.2382 80.7088 52.9463 80.805 52.7359 81.0009C52.5248 81.1967 52.5725 81.3746 52.5725 81.3746L52.3461 81.6818C52.3461 81.6818 52.2795 81.9424 52.1987 82.1212C52.1186 82.3 51.9057 82.2514 51.7117 82.3323C51.5166 82.4132 51.6309 82.5273 51.5985 82.7061C51.5662 82.884 51.0783 83.5012 50.9166 83.663C50.7539 83.8256 50.6893 83.7618 50.4952 83.7618C50.3003 83.7618 50.1862 83.583 49.9751 83.4527C49.7639 83.3234 49.6497 83.3718 49.6497 83.3718C49.6497 83.3718 49.1143 83.5659 48.9193 83.583C48.7253 83.5983 48.498 83.8426 48.3668 83.9568C48.2365 84.0691 48.1889 84.6046 48.1556 84.7034C48.1241 84.7995 48.1242 85.0115 48.0595 85.1247C47.9948 85.2379 47.6371 85.2379 47.5069 85.2379C47.3766 85.2379 47.1817 85.7096 47.1817 85.8722C47.1817 86.034 47.3928 86.3754 47.4898 86.5218C47.5877 86.6683 47.7504 86.6189 47.7504 86.6189C47.7504 86.6189 47.9454 86.6666 48.0101 86.6836C48.0747 86.7007 48.4161 86.6189 48.6111 86.6189C48.8052 86.6189 48.9022 86.8462 48.9022 86.8462C48.9022 86.8462 48.9364 87.3332 49.082 87.4787C49.2266 87.6252 49.7962 87.5433 49.7962 87.5433C49.7962 87.5433 49.8933 87.5928 49.9751 87.7068C50.0568 87.8209 50.072 87.7715 50.2822 87.8686C50.4934 87.9665 50.4611 87.8686 50.5752 87.9818C50.6893 88.0959 50.7055 88.3071 50.7207 88.4535C50.7378 88.5999 50.8033 88.6485 50.9642 88.8102C51.1277 88.9728 51.1601 89.0061 51.177 89.1193C51.1923 89.2324 51.2247 89.3798 51.258 89.5254C51.2903 89.67 51.4681 90.0446 51.4681 90.0932C51.4681 90.1425 51.8905 90.386 52.0369 90.5155C52.1834 90.6458 52.5077 90.7913 52.5077 90.7913C52.5077 90.7913 52.523 90.9386 52.5571 91.0994C52.5886 91.263 52.5571 91.2783 52.5077 91.36C52.4583 91.4418 52.2148 91.6852 52.2148 91.6852C52.2148 91.6852 52.1663 91.9603 52.1339 92.059C52.1016 92.1561 52.0198 92.1884 51.9228 92.3492C51.8258 92.5128 52.0962 92.6853 52.0962 92.6853C52.0962 92.6853 52.5139 93.0779 52.5706 93.1614C52.6263 93.2451 53.1581 93.6367 53.2148 93.7768C53.2705 93.916 53.3819 94.1973 53.522 94.4767C53.6613 94.7561 53.9973 94.8954 54.1087 94.952C54.2211 95.0077 54.4179 95.0913 54.5293 95.1469C54.6415 95.2036 54.7242 95.3986 54.7529 95.5107C54.7799 95.6222 54.6685 95.7067 54.6685 95.7067C54.6685 95.7067 54.6685 95.986 54.6973 96.1272C54.7242 96.2656 54.7529 96.4893 54.7529 96.6303C54.7529 96.7688 54.5849 96.7975 54.5849 96.7975C54.5849 96.7975 54.1384 97.1335 54.0531 97.2449C53.9704 97.3572 54.0818 97.5809 54.0818 97.5809C54.0818 97.5809 54.2498 97.6653 54.3621 97.748C54.4736 97.8334 54.5006 98.0571 54.5562 98.2512C54.6119 98.4488 54.6973 98.4192 54.8087 98.7004C54.9209 98.9807 54.7242 98.9799 54.5005 99.1191C54.2767 99.2593 54.0818 99.1469 53.7737 99.0912C53.4645 99.0355 53.6057 99.1748 53.7737 99.4839C53.9417 99.7912 54.0818 100.349 54.0818 100.518C54.0818 100.687 54.0261 100.854 53.9417 100.938C53.8581 101.021 53.6613 101.273 53.3819 101.496C53.1025 101.721 52.9911 101.973 53.0467 102.085C53.1025 102.196 53.1025 102.477 52.9632 102.56C52.9228 102.584 52.8545 102.588 52.7773 102.584L52.8087 102.701C52.8087 102.701 52.8086 103.04 52.7234 103.168C52.6389 103.293 52.7234 103.337 52.6811 103.59C52.6389 103.845 53.1052 104.014 53.275 104.098C53.4439 104.184 53.4439 104.523 53.4439 104.523C53.4439 104.523 53.3172 104.988 53.8671 105.03C54.4179 105.072 54.2903 104.819 54.4601 104.777C54.6298 104.734 54.841 104.819 55.1375 104.819C55.4341 104.819 55.3504 104.565 55.434 104.353C55.5176 104.141 55.6453 104.183 55.6453 104.183L55.9858 104.098C55.9858 104.098 56.5778 104.056 56.8743 104.056C57.1709 104.056 57.2561 104.438 57.4241 104.565C57.5931 104.691 58.1025 104.691 58.1025 104.691L58.1447 104.946C58.1869 105.2 59.0334 104.86 59.0334 104.86L59.5428 104.65L59.7207 104.69C59.745 104.585 59.8348 104.425 60.178 104.395C60.6865 104.353 60.8967 104.565 60.9821 104.225C61.0666 103.887 61.1942 103.505 61.1942 103.505C61.1942 103.505 61.1088 103.421 61.5329 103.379C61.957 103.337 62.1268 103.125 62.2103 102.998C62.2948 102.87 62.1268 102.785 62.5491 102.658C62.9722 102.532 63.142 102.489 63.142 102.489C63.142 102.489 63.3972 102.364 63.735 102.067C64.0747 101.77 64.0324 101.77 64.3702 101.77C64.7098 101.77 64.6676 101.642 64.8365 101.432C65.0054 101.22 65.2175 101.177 65.3028 101.008C65.3873 100.839 65.2174 100.585 65.6829 100.585C66.1492 100.585 66.1501 101.01 66.4026 100.585C66.6578 100.161 66.5302 100.077 66.8267 99.9062C67.1231 99.7382 66.6155 99.9916 67.1231 99.7383C67.6317 99.484 67.7152 99.483 67.7584 99.2719C67.8006 99.0599 67.8429 99.0599 67.8429 98.891V98.7212L67.7152 98.466C67.7152 98.466 67.5473 98.6367 67.5473 98.3824C67.5473 98.1289 67.4205 98.2556 67.2507 98.0015C67.0809 97.7463 67.0809 97.3232 67.0809 97.3232C67.0809 97.3232 67.293 97.0697 67.4628 97.0275C67.6317 96.9843 68.0557 97.1532 68.0557 96.7732C68.0557 96.3904 68.098 96.2234 67.9704 96.0104C67.8429 95.7983 67.673 95.7561 67.673 95.6295C67.673 95.5028 67.5885 95.333 67.673 95.1631C67.7584 94.9942 67.8859 94.7831 67.8859 94.7831L67.9282 94.5279L67.7584 94.147C67.7584 94.147 67.6398 93.8379 67.797 93.6627C67.9551 93.4857 68.1851 93.3105 68.1851 93.3105C68.1851 93.3105 68.4134 93.3985 68.5904 93.2037C68.7656 93.0105 68.8365 92.7104 68.8536 92.6224C68.8715 92.5352 68.8536 92.289 68.9588 92.1831C69.0638 92.077 69.1177 92.077 69.2408 91.9009C69.3262 91.7805 69.4646 91.7653 69.4888 91.6332C69.5005 91.5712 69.4906 91.4885 69.4358 91.3555C69.2588 90.9333 69.1707 90.9342 69.0126 90.5631C68.8536 90.1938 68.7835 89.8938 68.7835 89.8236C68.7835 89.7535 68.5723 89.3843 68.5544 89.3124C68.5364 89.2432 68.6083 89.0842 68.8715 88.9433C69.1357 88.8031 69.3819 88.2567 69.5229 88.1858C69.6641 88.1158 69.9273 87.9037 69.7341 87.7627C69.541 87.6216 69.2588 87.4473 69.1888 87.3934C69.1177 87.3404 68.7825 87.1813 68.7655 86.9172C68.7493 86.654 68.9245 86.5838 69.0126 86.3548C69.0998 86.1257 69.1537 85.9666 69.1537 85.8435C69.1537 85.7213 69.3127 85.4913 69.4718 85.2281C69.6298 84.9641 69.788 84.8229 69.8221 84.5408C69.8581 84.2596 70.0171 83.9783 70.2103 84.0304C70.4043 84.0834 70.5265 84.2937 70.6496 84.4006C70.7736 84.5066 70.7907 84.6989 71.0549 84.6297C71.3199 84.5578 71.4951 84.2596 71.4951 84.2596L71.8311 83.8202C71.8311 83.8202 72.5948 82.6692 72.7196 82.4365C72.8446 82.2039 73.2211 81.5067 73.2211 81.5067C73.2211 81.5067 73.3819 81.238 73.5967 81.3449C73.8113 81.4528 73.9003 81.5956 74.0792 81.6136C74.2589 81.6315 74.3837 81.5776 74.6344 81.7035C74.8851 81.8284 75.1169 81.9003 75.2247 82.079C75.3316 82.2579 75.2607 82.4367 75.2426 82.4906C75.2247 82.5445 75.1708 82.8482 75.2069 83.0269C75.2426 83.2057 75.3856 83.4385 75.7431 83.5103C76.1016 83.5822 76.2085 83.6352 76.3163 83.4743C76.4231 83.3135 76.6559 82.884 76.6559 82.884C76.6559 82.884 76.5839 82.7762 76.8886 82.8661C77.1923 82.956 77.6217 82.9739 77.7835 82.956C77.9442 82.938 78.4268 82.92 78.4268 82.92C78.4268 82.92 78.8561 82.8841 78.982 82.9739C79.1068 83.0629 79.2326 83.2057 79.2326 83.3855C79.2326 83.5642 79.0889 83.9038 79.1788 84.0116C79.2677 84.1185 79.3036 84.3332 79.787 84.3154C80.2704 84.2975 80.5381 84.2974 80.5381 84.2974C80.5381 84.2974 80.8427 84.3872 80.9676 84.1905C81.0934 83.9937 81.1284 83.832 81.1644 83.779C81.2003 83.7251 81.2721 83.6532 81.3971 83.6002C81.5228 83.5463 81.6298 83.2596 81.7367 83.2596C81.8122 83.2596 81.9712 83.2362 82.1095 83.2444C82.1024 83.1268 82.0924 82.9722 82.0781 82.7647C82.0306 82.0962 81.8868 81.6191 81.8868 81.4763C81.8868 81.3334 82.1249 81.1896 81.8393 80.904C81.7835 80.8482 81.7367 80.8024 81.6909 80.7566C81.4977 80.5635 81.3647 80.4368 81.1716 80.2831C80.9335 80.0918 80.8373 79.9021 80.5983 79.8537C80.3602 79.806 80.0736 79.9021 79.9784 79.5671C79.8832 79.2328 80.2165 79.2813 80.1213 78.709C80.0261 78.1358 79.9308 77.9453 79.9308 77.9453C79.9308 77.9453 79.8832 77.7082 80.0261 77.5159C80.1698 77.3252 80.1213 77.1825 80.0745 76.9912C80.026 76.7998 80.1213 76.7045 79.9784 76.5617C79.8346 76.4188 79.7403 76.3704 79.5022 76.275C79.2623 76.1807 79.1194 76.4188 79.0242 75.9893C78.929 75.5599 78.69 75.3685 78.69 75.3685C78.69 75.3685 78.5471 75.0819 78.8329 75.1781C79.1195 75.2733 79.5022 75.4179 79.6451 75.0819C79.7879 74.7493 79.788 75.0819 79.788 74.7493C79.788 74.4143 79.8346 74.4161 79.9308 74.08C80.0261 73.7467 80.0736 73.9848 79.8346 73.699C79.5966 73.4124 79.3108 72.8887 79.3108 72.8887C79.3108 72.8887 78.8328 72.4591 79.0242 72.1726C79.2156 71.8859 79.3108 71.6964 79.5966 71.5041C79.8832 71.3137 79.9298 71.3603 80.1213 70.9308C80.3127 70.5023 80.3127 70.1205 80.3127 70.1205L80.2174 69.31C80.2174 69.31 80.504 68.5472 80.3602 68.2122C80.2174 67.8788 80.4079 67.5921 79.788 67.4494C79.1671 67.3056 79.2623 67.258 78.7861 67.258C78.309 67.258 78.1644 67.0666 77.9739 67.4008C77.7843 67.735 77.5929 67.9255 77.3063 67.8303C77.0206 67.735 76.7826 67.5921 76.7826 67.5921C76.7826 67.5921 76.6864 67.3999 76.5426 67.5921C76.3998 67.7827 76.3045 68.0683 76.0188 67.9254C75.7323 67.7826 75.8743 67.4493 75.6837 67.4007C75.4942 67.353 75.1115 67.4493 74.9685 67.353C74.8257 67.2578 74.4439 66.9712 74.4439 66.9712C74.4439 66.9712 74.1096 67.2569 74.0629 66.6371C74.0144 66.018 74.0144 65.8743 74.0144 65.7314C74.0144 65.5885 73.92 65.4448 74.0629 64.8725C74.2058 64.3001 74.1581 64.0612 74.301 63.9174C74.4439 63.7745 74.682 63.6784 74.7304 63.2022C74.778 62.726 74.443 62.5822 74.682 62.248C74.9218 61.9138 75.2075 61.7233 75.3028 61.4376C75.398 61.151 75.1591 60.8653 75.3981 60.7215C75.637 60.5787 76.4483 60.3864 76.7826 60.1959C77.1159 60.0063 77.4501 59.9569 77.4977 59.4807C77.5454 59.0046 77.4483 58.7171 77.6882 58.6217C77.9272 58.5265 78.4034 58.5255 78.69 58.4789C78.9766 58.4312 79.3091 58.3351 79.5489 58.1456C79.7879 57.9542 80.0746 57.8589 80.3127 57.8113C80.5508 57.7628 80.8373 57.62 81.0278 57.62C81.1123 57.62 81.2506 57.647 81.3963 57.6488C81.5831 57.6523 81.7808 57.6165 81.8868 57.4295C82.0781 57.0954 81.8859 56.7144 82.4115 56.8573C82.9371 57.0001 83.0323 57.4295 83.4617 57.2868C83.8912 57.1439 83.6999 56.7611 84.1293 56.7611C84.5587 56.7611 84.7492 56.4745 84.7492 56.2364C84.7492 55.9983 84.6549 55.426 84.6549 55.426C84.6549 55.426 84.7492 54.9956 85.2273 55.0432C85.7034 55.0917 85.7034 54.948 85.9901 54.8051C86.2757 54.6622 86.6585 54.567 86.6585 54.567C86.6585 54.567 87.2308 54.7099 87.1831 54.2328C87.1346 53.7548 87.0879 52.9929 87.0879 52.9929C87.0879 52.9929 87.3251 52.6102 87.707 52.5148C88.0897 52.4196 88.2326 52.2291 88.2326 51.7044V50.3684C88.2326 50.3684 87.9451 49.9372 88.566 49.8904C89.1868 49.8437 89.3297 49.8904 89.6638 49.7952C89.9972 49.7009 90.2838 49.7009 90.618 49.3657C90.9522 49.0315 91.2389 48.8419 91.2389 48.8419L91.3342 47.9344C91.3342 47.9344 91.4769 47.1241 91.8112 47.505C92.1445 47.8869 92.1921 48.2211 92.1921 48.2211C92.1921 48.2211 92.0493 48.2687 92.3359 48.5077C92.6216 48.7458 93.0034 48.9353 93.1463 49.1753C93.2892 49.4142 93.529 49.461 93.529 49.7009C93.529 49.9389 93.4806 50.0818 93.6243 50.2247C93.7672 50.3684 93.6243 50.3666 93.9585 50.4629C94.2918 50.559 94.2918 50.5114 94.6261 50.6542C94.8067 50.7314 94.7923 50.8787 94.8094 51.0063C94.9001 51.0162 95.0052 50.965 95.1031 50.7494C95.3412 50.2247 95.4365 49.8437 95.4365 49.7009C95.4365 49.5571 95.2459 48.9847 95.2459 48.9847C95.2459 48.9847 95.4859 48.602 95.3897 47.8869C95.2936 47.1708 95.0555 47.1241 95.0555 46.7898V45.9794C95.0555 45.2148 95.2459 44.4044 95.2459 44.1655C95.2459 43.9274 94.9117 43.3541 94.9117 43.3541C94.9117 43.3541 94.7697 42.877 94.5775 42.9255C94.3879 42.9732 94.1965 43.0198 94.1965 43.0198C94.1965 43.0198 94.0527 43.2111 93.9099 42.9255C93.7671 42.6389 92.8129 42.0181 93.5289 41.2077C94.2442 40.3972 94.148 40.6829 94.3879 40.0621C94.626 39.4422 94.6736 39.4898 94.626 39.0127C94.5775 38.5365 94.4814 38.6308 94.6736 38.3452C94.8641 38.0586 95.007 37.4861 94.9117 37.3434C94.8174 37.1996 94.9602 37.0568 94.7212 36.9615C94.4822 36.8653 94.0052 36.9615 94.1013 36.4844C94.1965 36.0064 94.3879 35.7207 94.3879 35.7207C94.3879 35.7207 94.2917 35.196 94.7689 35.196C95.246 35.196 95.1974 35.3389 95.6755 35.196C96.1526 35.0532 96.485 34.7664 96.821 34.7664C97.1544 34.7664 97.4886 34.8151 97.4886 34.8151L97.9181 34.5284C97.9181 34.5284 98.3476 34.6713 98.7771 34.718C99.2066 34.7665 99.3008 34.6713 99.3008 34.3856V33.6219C99.3008 33.6219 99.3008 33.1924 99.5408 33.1924C99.7789 33.1924 99.9218 32.9534 100.256 33.0972C100.59 33.2401 100.446 33.4305 100.828 33.4305C101.211 33.4305 101.401 33.1924 101.401 33.1924H101.641C101.879 33.1924 102.117 33.1439 102.117 33.1439C102.117 33.1439 102.498 33.0485 102.689 33.24C102.88 33.4305 102.929 33.6218 103.215 33.4305C103.501 33.24 103.692 33.0485 103.692 33.0485C103.692 33.0485 103.882 33.001 103.739 32.8105C103.597 32.6191 103.358 32.4763 103.358 32.2382C103.358 31.9992 103.31 31.5221 103.31 31.2364C103.31 30.9498 103.167 30.7584 103.072 30.5203C102.976 30.2813 102.738 30.1385 102.738 29.9947C102.738 29.8518 102.642 28.9929 102.881 28.8034C103.119 28.6121 103.597 28.3254 103.597 28.3254L103.978 28.2777L104.264 27.8006C104.264 27.8006 104.885 27.8959 104.79 27.5616C104.694 27.2284 104.407 27.1806 104.741 26.7989C105.075 26.417 105.219 26.656 105.362 26.1781C105.505 25.7009 105.6 25.32 105.6 25.32C105.6 25.32 105.886 24.7952 106.554 24.3658C107.223 23.9363 107.508 23.8403 107.556 23.6022C107.566 23.5509 107.562 23.4979 107.553 23.4457C107.527 23.2545 107.413 23.0775 107.413 23.0775L107.223 22.7917L106.984 22.5519C106.602 22.5051 106.221 22.6003 106.221 22.6003L105.791 22.1709L104.885 21.2635C104.885 21.2635 104.79 20.8349 104.79 20.5015C104.79 20.1673 104.503 20.0721 104.885 19.7854C105.266 19.4998 105.314 19.1646 105.314 19.1646L105.123 18.6875V17.9714L105.266 17.6857V17.0181L105.409 16.5887C105.409 16.5887 105.664 16.5681 105.758 16.4755C105.852 16.3821 106.069 16.0712 106.069 16.0712C106.069 16.0712 106.163 15.7288 106.163 15.5429C106.163 15.356 105.883 15.0766 105.883 15.0766C105.883 15.0766 105.914 14.7963 106.069 14.6417C106.225 14.4854 106.411 14.2365 106.38 13.9257C106.349 13.6148 106.256 13.0245 106.256 12.869C106.256 12.7136 106.131 12.3407 106.163 12.2473C106.194 12.1548 106.567 11.5636 106.567 11.5636C106.567 11.5636 106.722 11.1593 107.127 11.2832C107.53 11.4082 107.344 11.4701 107.717 11.4701C108.091 11.4701 108.182 11.4082 108.339 11.4387C108.493 11.4701 108.494 11.657 108.773 11.5016C109.053 11.3462 109.426 11.0353 109.426 11.0353C109.426 11.0353 110.048 10.5689 110.172 10.5376C110.296 10.5061 110.639 10.2581 110.639 10.2581L111.168 9.35698C111.168 9.35698 111.665 8.89052 111.416 8.45562Z" fill="#D2DFD5" stroke="white" stroke-width="0.6"/>
<path d="M69.6073 23.7696C69.9166 23.8819 70.283 24.0229 70.6199 23.8819C70.9561 23.7409 71.0692 23.4884 71.0692 23.4884C71.0692 23.4884 71.5175 23.3482 71.7996 23.3482C72.0809 23.3482 72.6425 23.4326 72.9515 23.2647C73.2597 23.0957 73.5121 22.589 73.9622 22.3087C74.4115 22.0276 74.6936 21.5504 74.9739 21.3537C75.2551 21.1569 75.5921 20.9035 75.9569 20.651C76.3226 20.3986 76.6325 19.9492 76.6325 19.9492C76.6325 19.9492 76.7717 19.0777 77.2219 18.3751C77.6712 17.6734 77.7268 17.5611 77.84 17.1954C77.9523 16.8298 78.2049 16.5216 78.2336 16.2125C78.2605 15.9034 78.3459 15.8468 78.3459 15.5378C78.3459 15.2288 78.2048 15.0876 78.2048 15.0876C78.2048 15.0876 77.9811 14.9762 77.8957 15.0598C77.8113 15.1451 77.5319 15.341 77.5319 15.341C77.5319 15.341 77.1088 15.5665 77.0252 15.5944C76.9407 15.6222 76.6038 15.6222 76.4628 15.6222C76.3226 15.6222 76.3783 15.7345 76.239 15.7345C76.098 15.7345 75.9282 15.7345 75.7045 15.65C75.4808 15.5665 75.311 15.5108 75.2265 15.4255C75.1429 15.341 74.974 15.1442 74.9462 15.0598C74.9183 14.9762 74.8905 14.9483 74.9183 14.7794C74.9462 14.6106 74.974 14.4704 74.974 14.3581C74.974 14.2459 75.0019 14.1326 75.0019 14.1326C75.0019 14.1326 75.1142 13.7688 75.2265 13.4309C75.3397 13.094 75.7889 12.3069 75.9865 11.8299C76.1833 11.352 76.3503 11.2962 76.3503 11.0158C76.3503 10.7338 76.3504 10.5927 76.4357 10.4813C76.5193 10.369 76.6873 9.80657 76.7151 9.52624C76.7439 9.24499 76.7716 9.04828 76.7716 9.04828L76.8004 8.2612L76.8283 8.03653C76.8283 8.03653 77.0242 7.22266 76.8004 7.22266C76.8004 7.22266 76.211 7.25054 75.9568 7.44724C75.7043 7.64312 75.5633 7.81202 75.5633 7.81202C75.5633 7.81202 75.4805 7.78416 75.3952 8.09237C75.3108 8.40233 75.1706 8.6269 75.1706 8.6269C75.1706 8.6269 75.114 8.76802 75.087 8.90722C75.0582 9.04836 75.3116 9.30156 75.0313 9.49844C74.7492 9.69524 74.5524 9.80666 74.3844 9.83444C74.2146 9.86416 74.0188 9.86232 73.9352 9.9477C73.8499 10.0312 73.8777 10.2002 73.7385 10.3403C73.5974 10.4814 73.3727 10.7617 73.2892 10.8184C73.2038 10.875 72.9514 11.211 72.7268 11.3242C72.5012 11.4357 72.4725 11.4077 72.2766 11.5487C72.0808 11.689 71.7995 12.1669 71.7718 12.2792C71.7439 12.3906 71.7717 12.5874 71.5749 12.7563C71.3781 12.9252 71.6028 13.1499 71.238 13.431C70.8723 13.7114 70.6181 14.1327 70.5624 14.3016C70.5067 14.4706 70.6199 14.7239 70.5067 14.7518C70.3953 14.7796 70.1985 14.7518 70.1985 14.9207C70.1985 15.0878 70.2245 15.3124 70.1419 15.3978C70.0574 15.4813 69.9451 15.4813 69.973 15.7635C70.0008 16.0438 70.114 16.0725 70.0574 16.3528C70.0008 16.6332 69.9164 16.971 69.9164 16.971C69.9164 16.971 69.7204 17.1676 69.7484 17.2801C69.7762 17.3915 69.9747 17.4768 69.945 17.7572C69.9164 18.0383 69.8885 18.2351 69.9164 18.4041C69.945 18.5721 70.113 18.7975 70.113 18.7975L70.3098 18.9944C70.3098 18.9944 70.3952 18.7698 70.4508 18.6286C70.5065 18.4876 70.6197 18.2073 70.6197 18.2073L70.759 18.0951C70.759 18.0951 70.9 18.0672 70.9558 17.954C71.0124 17.8417 71.041 17.6737 71.041 17.6737C71.041 17.6737 71.0123 17.5605 71.2648 17.5605C71.5182 17.5605 71.4058 17.477 71.5182 17.5605C71.6313 17.6459 71.546 17.5884 71.7715 17.7573C71.9961 17.9262 72.2765 18.0941 72.3896 18.1786C72.501 18.264 72.6978 18.4877 72.6699 18.6566C72.6422 18.8255 72.6422 19.0501 72.3896 19.2748C72.1372 19.4993 72.1372 19.4438 71.8551 19.6126C71.5748 19.7806 71.4346 20.1741 71.2935 20.4544C71.1524 20.7357 71.1525 20.8201 71.1525 20.9881C71.1525 21.1571 71.209 21.6341 71.209 21.6341C71.209 21.6341 71.1524 21.8309 71.041 22.0843C70.9279 22.3367 70.8721 22.6467 70.6754 22.7302C70.4786 22.8147 69.8604 22.8992 69.8604 22.8992C69.8604 22.8992 69.3834 22.9549 69.2432 23.1796C69.1021 23.4042 69.2992 23.6573 69.6073 23.7696Z" fill="#D2DFD5" stroke="white" stroke-width="0.6"/>
</svg>
