<svg width="56" height="71" viewBox="0 0 56 71" fill="none" xmlns="http://www.w3.org/2000/svg">
<path d="M55.2476 19.2289C55.2988 18.9908 55.0617 18.9378 54.9026 18.8066C54.7445 18.6745 54.5073 18.5945 54.2431 18.4894C53.979 18.3834 54.2701 18.1211 54.2701 18.1211C54.2701 18.1211 54.2972 17.803 54.2972 17.6439C54.2972 17.5631 54.2478 17.4678 54.183 17.387C54.1202 17.3115 54.0438 17.2477 53.9791 17.2216C53.847 17.1677 53.4769 16.7724 53.4769 16.5352C53.4769 16.2953 53.7419 16.1902 53.821 15.98C53.9009 15.7679 53.821 15.4517 53.821 15.2136C53.821 14.9755 53.847 14.8955 54.0061 14.7383C54.165 14.5801 54.3492 13.5748 54.3492 13.5748C54.3492 13.5748 54.3753 13.4176 54.3492 13.2845C54.3241 13.1516 54.192 13.1264 54.086 12.8875C53.9791 12.6503 54.1381 12.7293 54.2171 12.6772C54.2972 12.6233 54.5604 12.5451 54.7725 12.3862C54.9837 12.228 54.9305 12.0689 54.9305 12.0689L54.6403 11.7778C54.6403 11.7778 54.5083 11.5667 54.4812 11.4876C54.4543 11.4077 54.324 11.1965 54.2972 10.9854C54.2701 10.7742 54.4813 10.4049 54.5344 10.192C54.5874 9.98182 54.165 9.82369 54.033 9.66471C53.9009 9.50563 53.9009 9.53259 53.8739 9.45264C53.847 9.37352 53.7158 9.21545 53.7158 9.21545V8.89739L53.768 8.5811C53.768 8.5811 53.927 8.3429 53.9523 8.18401C53.9791 8.02677 53.7949 7.84085 53.6107 7.78868C53.4247 7.73569 53.4247 7.6296 53.4247 7.6296C53.4247 7.6296 53.4247 7.36555 53.2388 7.15431C53.0555 6.94316 52.9494 7.33859 52.8704 7.55149C52.7905 7.76171 52.5011 7.57661 52.4741 7.41846C52.4471 7.25948 52.3151 7.23343 52.0771 7.23343C51.839 7.23343 51.839 6.91622 51.839 6.91622L51.971 6.65207C51.971 6.65207 51.9979 6.22987 51.9979 6.01688C51.9979 5.80573 51.839 5.33046 51.839 5.19843C51.839 5.06632 51.7338 5.12021 51.7338 5.12021H51.2577C51.0204 5.12021 51.0204 4.82911 51.0204 4.82911L50.8884 4.19392C50.8884 4.19392 50.8767 4.0825 50.8542 3.96925C50.8416 3.90724 50.8282 3.84533 50.8093 3.79859C50.7563 3.66547 50.3339 3.42838 50.121 3.37539C49.9108 3.3224 49.6727 3.24419 49.4346 3.21723C49.1965 3.19027 49.0915 3.11215 48.8534 2.95317C48.6161 2.79409 48.5622 2.55609 48.2988 2.58213C48.0347 2.60908 47.8228 2.76724 47.7706 2.8723C47.7176 2.9793 47.5055 3.29551 47.5055 3.29551C47.1354 3.6396 47.4265 3.79868 47.5585 3.87679C47.6906 3.95766 47.6906 4.19403 47.6906 4.19403C47.6906 4.19403 47.8757 4.6441 47.8757 4.90741C47.8757 5.17155 48.2449 5.75281 48.2449 5.75281C48.2449 5.75281 48.1668 6.203 48.1129 6.33502C48.059 6.46796 47.9538 6.6252 47.9538 6.6252L47.7176 6.59824C47.7176 6.59824 47.4786 6.52013 47.3475 6.52013C47.2154 6.52013 47.0033 6.44101 46.8452 6.41414C46.6862 6.38718 46.607 6.70525 46.581 6.83819C46.554 6.97021 46.6071 7.44466 46.634 7.65664C46.6601 7.86778 46.475 7.7618 46.2639 7.7088C46.0519 7.65664 45.9998 7.68361 45.8408 7.78877C45.6817 7.89383 45.7356 7.97388 45.6296 7.94692C45.5235 7.91997 45.4705 7.8148 45.1273 7.78877C44.784 7.76181 44.8633 7.84083 44.6251 7.99991C44.387 8.15898 44.387 8.26497 44.2818 8.44824C44.175 8.63335 44.0967 8.92446 44.0967 8.92446C44.0967 8.92446 43.8865 9.05647 43.6736 9.08343C43.4615 9.11038 43.2513 8.84532 43.1192 8.76537C42.9872 8.68726 42.8011 8.50216 42.5909 8.26498C42.3789 8.02679 42.3258 8.397 42.3258 8.397C42.3258 8.397 42.1938 8.92445 42.1148 9.08343C42.0357 9.2425 42.0357 9.45272 41.9297 9.66479C41.8245 9.87677 41.7975 10.2191 41.7975 10.3511C41.7975 10.4833 41.6385 10.9595 41.5064 10.9865C41.3744 11.0135 41.2423 11.1698 41.2423 11.1698V11.6199C41.2423 11.751 41.0312 11.8319 40.8991 11.9101C40.767 11.9911 40.4769 11.9371 40.4769 11.9371C40.4769 11.9371 40.2118 11.5939 40.1605 11.5148C40.1066 11.4348 39.9207 11.4878 39.9207 11.4878H39.3133C39.1552 11.4878 39.1291 11.6999 39.1291 11.6999V12.123C39.1291 12.2282 38.9701 12.2282 38.733 12.3072C38.4948 12.3863 38.521 12.5982 38.3368 12.7555C38.1966 12.876 38.1769 13.0269 38.1409 13.2084C38.1068 13.2155 38.0555 13.2255 37.9602 13.2453C37.7221 13.2919 37.4364 13.2919 37.4364 13.2919H37.1965C36.9576 13.2919 37.007 13.3396 36.8156 13.3396C36.6242 13.3396 36.529 13.4825 36.2909 13.4825C36.0519 13.4825 36.0995 13.4825 35.8614 13.3881C35.6224 13.2919 35.5272 13.1491 35.3843 13.053C35.2414 12.9578 35.1462 12.8634 35.1462 12.8634H34.3826C33.9045 12.8634 34.1911 12.7663 34.1911 12.7663C34.1911 12.7663 33.7616 12.6729 33.5712 12.6729H32.4733C32.2343 12.6729 32.1401 12.53 32.1401 12.3378C32.1401 12.1473 32.1877 12.0512 32.1877 11.8607C32.1877 11.6711 31.9487 11.4313 31.9487 11.1455C31.9487 10.8589 31.4716 11.1922 31.185 11.0987C30.8993 11.0027 31.185 11.0987 31.185 10.8122C31.185 10.5256 30.8993 10.3333 30.8993 10.3333L30.6612 10.1438C30.4231 9.95313 30.5175 9.95313 30.4698 9.71429C30.4213 9.47435 30.5175 9.4276 30.5175 9.4276C30.5175 9.4276 30.7088 9.09437 30.6612 8.56866C30.6127 8.04314 30.1832 8.18687 30.1832 8.18687C30.1832 8.18687 30.1832 7.94966 30.2794 7.75738C30.3746 7.56693 30.423 7.4708 30.6127 7.18421C30.8031 6.89845 30.9181 7.16801 30.9181 7.16801C30.9424 7.02062 30.5012 6.72594 30.5012 6.72594C30.5012 6.72594 30.2326 6.84904 30.2083 6.57864C30.1832 6.31 30.1581 6.0395 30.2811 5.89303C30.4034 5.74665 30.3548 5.59928 30.1832 5.74667C30.0116 5.89304 29.8157 5.72054 29.742 5.94071C29.6683 6.16262 29.84 6.40697 29.5956 6.60285C29.3495 6.79964 29.3243 6.70175 29.2265 6.79964C29.1294 6.89845 28.8104 7.1914 28.6136 7.1914C28.4178 7.1914 28.3442 6.92265 28.124 7.16793C27.9039 7.41229 27.8293 7.53539 27.6829 7.4617C27.5356 7.388 27.1924 7.1419 27.2166 7.48691C27.2417 7.82833 27.5113 8.19754 27.5113 8.19754C27.5113 8.19754 27.4134 8.343 27.4862 8.56417C27.5598 8.78608 27.585 8.80944 27.6587 8.90733C27.7323 9.00614 27.7062 9.02952 27.6587 9.20203C27.6092 9.37361 27.6586 9.47157 27.4618 9.54527C27.266 9.61887 27.292 9.49671 27.1689 9.74116C27.0458 9.98644 26.9964 10.4518 26.8733 10.3045C26.7503 10.158 26.6038 10.061 26.7754 9.86425C26.947 9.66654 27.0458 9.78965 27.0458 9.52008C27.0458 9.25051 27.0701 9.07891 27.0701 9.07891C27.0701 9.07891 27.265 9.10321 27.2166 8.81018C27.1689 8.5155 27.0701 8.2702 27.0701 8.2702C27.0701 8.2702 27.0701 7.97643 26.8985 8.22171C26.726 8.46607 26.9228 8.71228 26.4825 8.51548C26.0405 8.31952 25.8697 8.09953 25.7215 7.97643C25.5741 7.85333 25.5984 7.80487 25.3055 7.75547C25.0108 7.70689 24.8626 7.73117 24.7908 7.56042C24.718 7.38791 24.5697 7.26573 24.7655 7.14263C24.9614 7.02045 25.2076 7.02044 25.2076 7.02044C25.2076 7.02044 25.0845 7.14263 25.2813 7.11834C25.4771 7.09405 25.6236 7.2648 25.6731 7.02044C25.7054 6.85692 25.6644 6.75871 25.55 6.72577C25.3783 6.67636 25.2552 6.72575 25.2076 6.62786C25.1582 6.52988 25.1088 6.43191 25.1582 6.33494C25.2076 6.23612 25.5005 5.94052 25.257 5.96564C25.0108 5.98993 25.0351 6.23613 24.9613 6.26042C24.8876 6.28554 24.7421 6.21183 24.6685 6.28552C24.5948 6.35921 24.716 6.45618 24.5948 6.60265C24.4717 6.75096 24.3486 6.77516 24.2749 6.87315C24.2022 6.97196 24.2758 7.06903 24.2022 7.24062C24.1285 7.4122 24.08 7.63411 23.9084 7.5847C23.7359 7.5353 23.5885 7.48681 23.54 7.36371C23.4924 7.24052 23.3936 7.06901 23.3936 7.06901C23.3936 7.06901 23.3443 7.04381 23.0504 7.02044C22.7566 6.99624 22.4871 6.79944 22.9039 6.60265C23.3199 6.40678 23.5661 6.28553 23.6874 6.16243C23.8096 6.03933 24.1528 6.11302 24.2516 5.86866C24.3495 5.62329 24.4717 5.52456 24.7421 5.37717C25.0108 5.2307 25.1088 5.2065 25.1088 5.03483C25.1088 4.86315 25.1825 4.47059 25.4286 4.1023C25.6731 3.73567 25.7952 3.31973 25.9434 3.46611C26.0899 3.61257 25.9183 3.90724 26.1141 3.80935C26.31 3.71146 26.3595 3.73567 26.3595 3.46611C26.3595 3.19654 26.4574 3.2945 26.3595 2.87671C26.2606 2.46077 26.213 2.4859 26.1878 2.21642C26.1636 1.94686 26.1627 1.89745 25.9678 1.77435C25.771 1.65125 25.4772 1.40772 25.4772 1.40772C25.4772 1.40772 25.0351 0.989104 25.0351 0.917158C25.0351 0.844384 24.5696 0.425781 24.5696 0.425781C24.5696 0.425781 24.3747 0.64768 24.1537 0.671877C23.9327 0.696165 23.4178 0.867742 23.4178 0.867742C23.4178 0.867742 22.7565 1.08792 22.6083 1.08792C22.4619 1.08792 22.3891 0.867742 22.1924 1.03859C21.9956 1.2111 21.3091 1.38177 21.187 1.50487C21.0656 1.62797 20.8689 1.87325 20.7952 2.02064C20.7206 2.16702 20.0603 2.63337 20.0603 2.63337C20.0603 2.63337 19.9632 2.60909 19.7413 2.77985C19.5203 2.95051 19.4214 3.02513 19.178 3.02513C18.9318 3.02513 18.762 2.82833 18.541 3.02513C18.3191 3.22183 18.1726 3.27041 18.0019 3.46619C17.8294 3.66206 17.5599 4.02962 17.4134 4.1518C17.2662 4.2749 16.948 4.3737 16.8501 4.3737C16.7513 4.3737 16.1386 4.39782 16.1386 4.39782L15.9175 4.1274C15.9175 4.1274 15.9661 4.02953 15.8187 4.02953C15.6956 4.02953 15.6363 3.99899 15.5061 4.01785C15.4809 4.0196 15.4584 4.02226 15.4278 4.02953C15.231 4.07893 15.0838 4.15169 15.0838 4.15169H14.4468C14.4468 4.15169 14.5214 3.80935 14.0793 3.80935C13.6381 3.80935 13.3919 3.88306 13.2213 3.90818C13.0505 3.93247 12.5591 4.00524 12.4126 4.02953C12.2653 4.05465 11.7756 4.07802 11.6031 4.1023C11.4324 4.12742 10.5744 4.00524 10.4756 4.00524C10.3777 4.00524 10.2788 4.00432 9.91222 4.1023C9.54384 4.20112 9.7406 4.5937 9.37314 4.4958C9.00476 4.39782 8.61301 4.07892 8.41622 4.07892C8.22034 4.07892 7.68132 4.17773 7.63191 4.07892C7.58333 3.98093 7.77921 3.61257 7.33806 3.73567C6.89782 3.85877 6.30843 4.078 6.16196 4.1274C6.01467 4.17681 5.59863 4.4221 5.59863 4.4221L5.13238 4.78955C5.13238 4.78955 5.54925 4.78955 4.93651 5.03483C4.32377 5.28011 3.88075 5.32777 3.68579 5.37717C3.60851 5.39787 3.4648 5.44185 3.29322 5.50478L3.56096 5.75273C3.56096 5.75273 3.75234 5.84887 3.94371 6.03931C4.13323 6.23068 4.27608 6.85153 4.27608 6.85153V7.28099C4.27608 7.28099 4.2761 7.6135 4.22936 7.75721C4.1818 7.90009 4.1818 8.32956 4.1818 8.32956C4.1818 8.32956 4.46745 8.52091 4.70555 8.80667C4.94366 9.09335 4.7056 8.80669 4.80174 8.99796C4.89697 9.18942 4.80174 9.28462 4.80174 9.61804C4.80174 9.95229 4.94544 10.5246 4.94544 10.5246C4.94544 10.5246 5.18345 10.6198 5.32634 10.7159C5.46922 10.8121 5.61292 10.9055 5.7558 11.2406C5.89868 11.5749 5.7558 11.7178 5.7558 11.7178C5.7558 11.7178 5.75576 12.1939 5.80443 12.4805C5.85108 12.7662 5.99397 12.6234 6.28056 12.91C6.56632 13.1957 6.71001 13.3395 6.61479 13.7213C6.51957 14.104 6.61479 14.1508 6.61479 14.4374C6.61479 14.7241 6.71003 15.2963 6.71003 15.2963C6.71003 15.2963 6.61482 15.5821 6.37681 15.8686C6.13696 16.1552 6.04255 16.0115 5.8511 16.1067C5.65964 16.202 5.4693 16.5362 5.18354 16.8705C4.89695 17.2047 4.51603 17.0133 4.51603 17.0133L3.78563 16.6557C3.77671 16.6944 3.77306 16.7249 3.75245 16.7743C3.60865 17.1103 3.5143 17.1103 3.5143 17.3961C3.5143 17.6827 3.60864 18.1588 3.60864 18.1588C3.60864 18.1588 3.99054 18.255 4.0381 18.3977C4.08668 18.5415 4.08668 18.9225 4.0381 19.1139C3.99054 19.3034 4.08667 19.59 3.8953 19.59C3.70394 19.59 3.32297 19.3995 3.18018 19.6862C3.03647 19.9729 3.03555 20.1624 2.98881 20.3062C2.94115 20.449 2.74893 21.0213 2.7022 21.1642C2.65546 21.3079 2.41564 21.4041 2.12987 21.6899C1.84329 21.9764 1.84328 22.1184 1.79654 22.3565C1.74806 22.5953 1.4138 22.7868 1.27083 22.8353C1.12795 22.882 0.937614 22.882 0.794642 23.2648C0.650933 23.6448 0.316665 23.6448 0.508031 23.9314C0.698477 24.2171 0.602455 23.979 0.698506 24.2171C0.794649 24.4569 0.889925 24.7913 0.746125 24.9817C0.603244 25.1722 0.411881 25.1254 0.316658 25.5549C0.222355 25.9845 0.554797 26.2701 0.698506 26.3177C0.841386 26.3644 1.27084 26.6519 1.03274 26.9862C0.794632 27.3195 0.554751 27.749 0.554751 27.749L0.411895 28.6547C0.411895 28.6547 0.508099 29.4193 0.650887 29.4193C0.794596 29.4193 1.27083 29.6098 1.27083 29.6098L1.74797 30.4211C1.74797 30.4211 1.50984 30.5154 1.79643 30.7544C2.08302 30.9935 2.27266 30.9935 2.08304 31.3268C1.89177 31.66 1.89178 31.6134 1.89178 31.8524C1.89178 31.9486 1.92321 32.0832 1.96001 32.2091H2.07063C2.24939 32.2091 2.21342 32.3168 2.5001 32.1731C2.78577 32.0303 3.00049 31.9593 3.00049 31.9593L3.21522 32.0302C3.21522 32.0302 3.32307 32.1021 3.46595 32.1021H4.32488C4.50364 32.1021 4.61146 32.1381 4.64642 31.9944C4.6823 31.8515 4.64642 31.7446 4.6823 31.6367C4.71828 31.5298 4.86114 31.386 5.00485 31.3151C5.14773 31.2432 5.75586 31.2073 5.75586 31.2073C5.75586 31.2073 6.00658 31.1713 6.36429 31.1004C6.72181 31.0285 7.61675 30.9925 7.61675 30.9925L8.5475 31.2432C8.5475 31.2432 9.44152 31.0644 9.58523 31.0285C9.72811 30.9925 10.2285 30.9215 10.2285 30.9215L10.9806 30.9925L11.6248 31.1354C11.6248 31.1354 12.269 31.2432 12.5547 31.3151C12.8413 31.386 13.3067 31.5649 13.4495 31.7086C13.5924 31.8515 13.95 31.9944 14.0219 32.1021C14.0937 32.2091 14.2726 32.3168 14.2726 32.4238C14.2726 32.5316 14.2007 32.4957 14.3445 32.6744C14.4873 32.8533 14.5232 32.9961 14.8449 33.1399C15.1674 33.2828 15.0955 33.2828 15.3821 33.3905C15.6678 33.4975 15.7756 33.5693 15.8826 33.5693C15.9904 33.5693 15.9904 33.4256 16.1333 33.5693C16.2761 33.7121 16.2401 33.6763 16.4909 33.855C16.7415 34.0339 16.6338 34.1057 16.9204 34.2486C17.207 34.3923 17.2069 34.4283 17.4927 34.4992C17.7793 34.5711 17.4577 34.4634 18.2446 34.643C19.0317 34.8218 19.3893 34.8568 19.5322 34.9647C19.6759 35.0715 19.8188 35.3221 20.0335 35.3941C20.2483 35.466 20.4989 35.501 20.7136 35.501C20.9284 35.501 21.286 35.43 21.6795 35.3221C22.0731 35.2152 22.3237 34.9647 22.3237 34.9647C22.3237 34.9647 22.5744 34.714 22.7531 34.6781C22.932 34.643 22.8601 34.607 23.1467 34.607H23.4333C23.4333 34.607 23.5043 34.3205 23.6481 34.1416L23.7909 33.9628L24.7568 33.4256C24.7568 33.4256 25.1152 33.2468 25.3291 33.2108C25.5438 33.1758 26.0811 33.068 26.3318 33.0321C26.5816 32.9961 27.2258 32.9961 27.2258 32.9961C27.2258 32.9961 27.4406 32.961 27.5483 32.9961C27.6553 33.0321 28.4072 33.5334 28.4072 33.5334L29.1224 33.6052L29.5878 33.855L30.1601 34.2486C30.1601 34.2486 30.4108 34.6781 30.4108 34.7858C30.4108 34.8928 30.3748 35.5011 30.3748 35.6449C30.3748 35.7877 30.3389 36.36 30.3389 36.36L30.232 36.8613C30.232 36.8613 29.9454 38.0419 29.8385 38.0779C29.7306 38.1138 29.2653 38.7221 29.1224 38.793C28.9796 38.8649 28.2635 39.616 28.2635 39.616C28.2635 39.616 27.8699 40.9763 27.6192 41.0832C27.3695 41.1911 26.0811 42.2288 26.0811 42.2288L25.0434 43.1946C25.0434 43.1946 24.3273 43.8028 24.1844 43.9107C24.0415 44.0176 23.2186 44.7696 23.0748 44.7696C22.932 44.7696 22.6104 44.8047 22.5025 44.8047C22.3956 44.8047 22.0371 44.6618 22.0371 44.6618L21.3184 44.9898L21.25 45.0194L20.9643 45.2341L20.6777 45.4489V46.022L20.356 46.2368L20.391 46.5944C20.391 46.5944 20.7136 46.5584 20.8564 46.5944C20.9993 46.6304 21.5725 46.7732 21.6794 46.8801C21.7872 46.9879 22.037 47.2026 22.037 47.2026C22.037 47.2026 22.1448 47.3455 21.966 47.3455C21.7873 47.3455 21.5006 47.2386 21.5006 47.2386L21.5725 47.4533C21.5725 47.4533 21.6075 47.4884 22.037 47.7031C22.4665 47.9179 22.6102 48.4552 22.6102 48.4552L22.5743 48.6339C22.5743 48.6339 22.5025 48.7408 22.896 48.9205C23.2894 49.0994 23.4332 49.0993 23.4332 49.2421C23.4332 49.3849 23.5401 49.8145 23.5401 49.8145C23.5401 49.8145 23.4683 50.208 23.2894 50.244C23.1107 50.28 22.9678 50.2799 22.7172 50.2799C22.4665 50.2799 22.1448 50.3518 22.1448 50.3518L22.037 50.5665L22.073 50.8522C22.073 50.8522 22.2167 50.96 22.073 50.9959C21.9346 51.03 21.7325 51.1307 21.7199 51.136C21.7261 51.136 21.7333 51.1567 21.6794 51.3176C21.6075 51.5323 21.5725 51.711 21.5725 51.711C21.5725 51.711 21.4287 51.8899 21.3218 51.9258C21.214 51.9617 21.1071 52.2124 21.1071 52.2124C21.1071 52.2124 21.2499 52.3194 21.4646 52.3553C21.6794 52.3912 21.8223 52.4622 21.8223 52.4622C21.8223 52.4622 22.1088 52.6418 22.3236 52.7847C22.5383 52.9276 22.6812 52.8566 22.789 53.0354C22.8959 53.2142 22.9319 53.3211 22.9319 53.4289C22.9319 53.5358 22.8599 53.6796 22.7172 53.7506L22.5743 53.8224L22.4305 54.18C22.4305 54.18 22.1448 54.4666 21.7513 54.5377C21.3576 54.6095 21.2499 54.5377 21.107 54.6814C20.9642 54.8242 20.9282 54.8961 20.9282 55.0031C20.9282 55.1108 21.0351 54.8242 20.9282 55.1108C20.8204 55.3966 20.7494 55.6472 20.7494 55.6472C20.7494 55.6472 20.6056 55.6832 20.9641 55.6832H21.3218C21.3218 55.6832 21.5005 55.5044 21.3927 55.8261C21.2858 56.1486 20.9992 56.2555 20.9992 56.2555L20.7135 56.3984C20.7135 56.3984 20.5347 56.4343 20.5697 56.5781C20.6056 56.7209 20.8563 56.649 20.8563 56.8278V57.0066L20.4628 57.1863V57.4361C20.4628 57.5798 20.4269 57.6158 20.4628 57.7227C20.4987 57.8296 20.2481 57.7946 20.4987 57.8296C20.7494 57.8656 20.7844 57.8656 21.2139 57.8656C21.6434 57.8656 21.6074 57.8296 21.8222 57.8296C22.0369 57.8296 22.1087 57.6508 22.4304 57.9015C22.7529 58.1522 22.7529 58.224 22.8598 58.4387C22.9677 58.6535 23.3972 59.5115 23.3972 59.5115L23.7907 59.8701L24.5543 60.4298L24.7448 60.8593L25.1734 61.0022L26.5112 61.4801H26.7978C26.7978 61.4801 27.0834 61.7182 27.131 61.9096C27.1777 62.1009 27.3206 62.2905 27.3206 62.2905C27.3206 62.2905 28.1795 62.1486 28.1795 62.3866C28.1795 62.6246 27.9414 62.1478 28.1795 62.6247C28.4185 63.1028 28.6098 63.1494 28.5146 63.4362C28.4185 63.7219 28.5146 63.9141 28.2757 63.9618C28.0367 64.0084 27.8929 64.0084 27.7501 64.0561C27.6072 64.1046 27.5596 64.1998 27.4634 64.3427L27.37 64.4856C27.37 64.4856 27.3206 64.7254 27.5595 64.8198C27.7995 64.915 28.0367 64.9635 28.1795 65.0586C28.3223 65.153 28.5623 65.2493 28.6584 65.4396C28.7518 65.631 28.7052 65.87 28.7518 66.1081C28.8012 66.3462 28.6584 66.729 28.8479 66.8242C29.0385 66.9194 29.468 67.2051 29.7069 67.3004C29.9459 67.3965 29.5156 67.4432 30.1831 67.6345C30.8524 67.826 31.1382 67.9212 31.1382 67.9212C31.1382 67.9212 32.0439 68.7325 32.1876 68.8277C32.3305 68.923 32.9513 69.3533 33.4751 69.4001C34.0008 69.4477 34.0959 69.4476 34.4779 69.4476C34.8599 69.4476 35.2424 69.4001 35.3853 69.4953C35.5282 69.5905 35.9091 69.878 36.291 69.9733C36.6737 70.0676 36.6737 70.0694 37.1499 70.1161C37.6261 70.1629 38.105 70.3057 38.105 70.3057L38.4382 70.4971C38.4382 70.4971 38.4859 69.9733 38.6772 69.9248C38.8678 69.8771 38.9638 69.8295 39.1534 69.6382C39.3439 69.4476 39.5361 69.1143 39.8227 69.1143C40.1085 69.1143 40.2028 68.9706 40.8713 68.5888C41.5398 68.2069 41.8264 67.8727 41.9691 67.7299C42.1129 67.587 42.4463 67.3965 42.4463 67.3965C42.4463 67.3965 42.5892 67.2051 42.493 66.8709C42.3986 66.5376 42.2549 66.3947 42.2064 66.2033C42.1597 66.0121 42.0635 66.0605 42.3492 65.631C42.6359 65.2015 42.8749 65.2967 43.0654 65.0102C43.2576 64.7236 43.3529 64.8197 43.4005 64.5339C43.4481 64.2474 43.4004 64.1997 43.4481 64.0083C43.4948 63.8179 43.5909 63.7217 43.7814 63.4836C43.9736 63.2455 44.0679 63.1028 44.1164 62.9114C44.1254 62.8736 44.1452 62.7738 44.1712 62.6517L44.0023 62.6544L43.7661 62.6202C43.7661 62.6202 43.7327 62.6552 43.5971 62.6885C43.4623 62.7227 43.5306 62.8898 43.1596 62.7891C42.7867 62.6886 42.5846 62.6202 42.4839 62.3507C42.3807 62.0803 42.5173 62.0139 42.314 61.8431C42.111 61.676 41.9089 61.7424 41.8082 61.5736C41.7058 61.4047 41.5711 61.472 41.4705 61.1683C41.3679 60.8638 41.0984 60.4926 41.0984 60.4926C41.0984 60.4926 40.7614 60.2232 40.625 60.1549C40.4911 60.0875 40.625 60.3588 40.4911 60.0875C40.3546 59.8171 40.3213 59.4792 40.3213 59.4792C40.3213 59.4792 40.2872 59.2438 40.3213 59.0749L40.4031 58.5816V58.0281C40.6322 57.8952 40.9565 57.6787 41.0068 57.4935C41.0859 57.2025 41.2179 56.8322 41.2179 56.8322L41.377 56.7801C41.377 56.7801 41.404 56.33 41.4561 56.0667C41.5091 55.8026 41.5352 55.9346 41.7472 55.6435C41.9583 55.3534 41.9583 55.2213 42.4075 55.1413C42.8577 55.0623 42.8038 55.2994 43.3312 54.9301C43.8613 54.56 43.8864 54.3489 43.9394 54.2438C43.9933 54.1377 44.1254 53.8215 44.4156 53.6355C44.7067 53.4495 44.5998 53.4495 44.9439 53.4495H45.6043C45.6842 53.4495 46.0796 53.8215 46.1865 53.6355C46.2926 53.4495 46.2656 53.1593 46.2656 53.1593C46.2656 53.1593 46.0545 52.9733 46.1865 52.604C46.3186 52.2356 46.3977 51.9975 46.6088 52.0227C46.8199 52.0497 46.7669 52.0228 46.6078 51.5735C46.4498 51.1252 46.5028 50.8341 46.5028 50.8341C46.5028 50.8341 46.5567 50.6229 46.5297 50.5179C46.5028 50.4118 46.4758 50.3588 46.5028 50.2006C46.5297 50.0416 46.6348 49.7506 46.5818 49.3822C46.5297 49.012 46.2916 48.7478 46.2916 48.6418C46.2916 48.5367 46.3976 47.9284 46.6348 47.6912C46.8729 47.4531 47.2432 47.4002 47.111 46.9509C46.9789 46.5007 46.846 46.1836 46.6887 46.0785C46.5298 45.9734 46.1865 45.4972 46.4498 45.312C46.7139 45.1279 46.8982 45.233 46.979 45.074C47.0571 44.9159 47.1892 44.8377 46.8729 44.6248C46.5567 44.4146 46.4498 44.2286 46.4498 44.2286C46.4498 44.2286 46.3707 43.5951 46.1595 43.198C45.9484 42.8018 45.6043 42.7488 45.7364 42.4577C45.8684 42.1684 46.1065 41.6122 46.1065 41.6122C46.1065 41.6122 46.2646 41.4281 46.6078 41.322C46.952 41.2169 47.2943 41.0318 47.7184 40.9528C48.1416 40.8728 48.5647 40.8728 48.5647 40.8728C48.5647 40.8728 48.881 40.9528 49.0131 40.7937C49.1452 40.6347 49.146 40.2394 49.2512 40.0264C49.3562 39.8162 49.5423 39.6841 49.5423 39.6841C49.5423 39.6841 49.7005 39.6041 49.5944 39.4721C49.4884 39.34 49.3293 39.34 49.3293 39.2619V38.9438C49.3293 38.9438 49.5692 38.4945 49.1973 38.5215C48.8289 38.5485 48.4318 38.7057 48.4318 38.7057C48.4318 38.7057 48.2206 39.0238 48.1677 38.7327C48.1155 38.4425 47.9834 37.9402 47.9834 37.9402C47.9834 37.9402 47.8243 37.7272 47.7183 37.7021C47.6122 37.676 47.8756 37.676 47.6122 37.676C47.3481 37.676 47.402 37.8081 47.1891 37.8351C46.9789 37.8602 46.925 38.0975 46.7938 37.9133C46.6617 37.7291 46.6347 37.491 46.4757 37.491C46.3185 37.491 45.8944 37.464 45.8944 37.464C45.8944 37.464 45.34 37.411 45.261 37.0678C45.1811 36.7246 45.1028 36.2224 45.208 36.0633C45.314 35.9051 45.6033 35.5871 45.6033 35.5871C45.6033 35.5871 45.6572 35.2708 45.6572 35.1649C45.6572 35.0597 45.6033 34.9276 45.6033 34.9276C45.6033 34.9276 45.42 34.6095 45.6302 34.5314L45.8432 34.4515L46.0005 34.0552C46.0005 34.0552 45.8163 33.5009 45.7094 33.2098C45.6033 32.9196 45.5782 32.6814 45.5782 32.5494C45.5782 32.4173 45.4982 32.2314 45.393 32.1792C45.3059 32.1361 45.252 32.031 45.1649 32.0623C45.0247 31.9464 44.7381 31.6895 44.6797 31.4927C44.6006 31.2285 44.6257 31.0966 44.6257 30.9644C44.6257 30.8395 44.446 30.6293 44.4236 30.6032C44.5726 30.5151 44.863 30.3471 44.9411 30.3275C45.0463 30.3004 45.4424 30.2475 45.5485 30.1953C45.6554 30.1414 45.7336 29.9572 45.7336 29.9572C45.7336 29.9572 45.9986 29.8773 46.0777 29.8251C46.1558 29.7721 46.1298 29.614 46.1298 29.614C46.1298 29.614 46.0238 29.2959 46.1558 29.0318L46.5269 28.9527C46.5269 28.9527 46.579 28.7416 46.6051 28.6616C46.632 28.5826 46.7372 28.5557 46.7372 28.5557C46.7372 28.5557 46.8692 28.3715 46.9231 28.2654C46.977 28.1603 46.8181 28.1073 46.8181 28.1073C46.8181 28.1073 46.553 28.0552 46.288 28.0282C46.0238 28.0012 45.9986 27.7641 45.9986 27.685C45.9986 27.6051 46.1558 27.4468 46.1558 27.4468C46.1558 27.4468 46.4209 27.2348 46.5531 27.2097C46.6851 27.1827 46.8441 27.2878 46.8441 27.2878L47.0553 27.5519C47.2664 27.8152 47.2924 27.605 47.5575 27.605H48.429C48.694 27.605 48.4551 27.7101 48.5089 27.8422C48.5602 27.9742 48.5089 27.8422 48.7192 28.0811C48.9312 28.3183 49.3005 28.2393 49.3805 28.2653C49.4596 28.2913 50.0949 28.4234 50.1999 28.4234C50.3051 28.4234 50.7274 28.2653 50.8083 28.2393C50.8863 28.2132 51.1766 27.9482 51.1766 27.9482C51.1766 27.9482 51.6538 27.737 51.7329 27.6319C51.8119 27.5259 51.9439 27.4998 51.9439 27.4998L52.2351 27.3939C52.2351 27.3939 52.6842 27.2096 52.8684 27.1557C53.0536 27.1017 53.0536 26.8377 53.0536 26.8377C53.0536 26.8377 53.1335 26.2832 53.1595 26.0461C53.1857 25.8072 53.4237 25.676 53.4237 25.676L53.767 25.5428L53.952 25.1206L54.2962 24.3811V23.8259L54.3482 23.1117C54.3482 23.1117 54.5864 22.5321 54.6393 22.4522C54.6915 22.373 54.8514 21.5277 54.8514 21.5277C54.8514 21.5277 54.8514 21.3686 54.9026 21.1574C54.9565 20.9463 54.9565 20.8142 54.9565 20.8142C54.9565 20.8142 54.9565 20.7083 54.9836 20.5492C55.0096 20.3902 54.9565 20.2851 54.9565 20.2851C54.9565 20.2851 54.8514 20.0739 54.8514 19.9949C54.8514 19.9158 54.9565 19.8098 55.0346 19.7307C55.1146 19.6507 55.1937 19.467 55.2476 19.2289Z" fill="#D2DFD5" stroke="white" stroke-width="0.6"/>
<path d="M19.1534 36.0715C19.1534 36.0715 18.991 36.0948 18.876 36.0715C18.761 36.0481 18.6675 36.0023 18.5301 36.1173C18.3926 36.2323 18.4375 36.2781 18.2075 36.4398C17.9765 36.6016 18.07 36.5324 17.9541 36.8558C17.8391 37.1775 17.9541 37.2 17.7933 37.3383C17.6324 37.4775 17.1023 37.9375 17.1023 37.9375C17.1023 37.9375 16.5948 38.146 16.4564 38.2601C16.319 38.376 16.1114 38.5126 15.9038 38.651C15.6954 38.7902 15.5579 38.9978 15.5579 38.9978L15.0511 39.8971C15.0511 39.8971 15.0045 40.1963 14.9353 40.2412C14.8669 40.2889 14.867 40.4497 14.6828 40.4497C14.4978 40.4497 14.3369 40.3805 14.3369 40.4497C14.3369 40.5189 14.0377 40.8405 14.0377 40.8405L13.8068 41.1406L13.6002 41.4856C13.6002 41.4856 13.6684 41.7848 13.5076 42.04C13.3458 42.2924 12.84 42.8001 12.84 42.8001C12.84 42.8001 12.7924 42.9844 12.6783 43.1693C12.5625 43.3526 12.1249 44.3212 12.1249 44.3212L11.9865 44.6895C11.9865 44.6895 11.8491 44.7344 11.7107 44.7344C11.5714 44.7344 11.3647 44.6428 11.2956 44.6428C11.2264 44.6428 11.0413 44.597 11.0413 44.597C11.0413 44.597 11.1348 44.7345 11.0413 44.7812C10.9497 44.827 10.7888 44.9429 10.7888 44.9429L10.5347 45.288L10.4197 45.5421C10.4197 45.5421 10.3739 45.5647 10.3739 45.6563C10.3739 45.7489 10.4889 45.7721 10.4654 45.8871C10.4422 46.0021 10.4422 46.1639 10.4422 46.1639C10.4422 46.1639 10.8113 46.3023 10.8113 46.3714C10.8113 46.4406 10.8805 46.8782 10.8805 46.8782C10.8805 46.8782 10.7888 46.9932 11.0413 47.0157C11.2956 47.039 11.6182 46.9465 11.6182 46.9465C11.6182 46.9465 11.7547 46.5772 11.7799 46.6464C11.8023 46.7156 11.9173 46.7156 11.8715 46.8548C11.8257 46.9932 11.8949 47.1082 11.8023 47.1316C11.7107 47.154 11.5256 47.2701 11.5256 47.2701C11.5256 47.2701 11.4106 47.5693 11.4106 47.6618C11.4106 47.7534 11.2264 47.6384 11.4106 47.7534C11.5948 47.8693 11.549 47.7992 11.7565 47.8926C11.9632 47.9842 12.0323 48.0076 12.0557 48.076C12.0791 48.1451 12.0782 48.0293 12.1015 48.2835C12.1249 48.5369 12.1483 48.6752 12.1483 48.6752C12.1483 48.6752 12.9775 48.491 13.0468 48.491H13.4833C13.7143 48.491 13.7844 48.5369 13.876 48.4668C13.9676 48.3977 14.1069 48.306 14.2444 48.1918C14.3828 48.076 14.7053 47.7534 14.8436 47.7067C14.982 47.6618 14.9353 47.5926 15.2821 47.4318C15.6271 47.2701 16.0198 47.0849 16.088 47.0158C16.1563 46.9466 16.3648 46.8325 16.5256 46.7858C16.6864 46.7399 17.0098 46.6941 17.2165 46.624C17.424 46.5548 17.5156 46.5773 17.6091 46.509C17.7016 46.4407 17.8156 46.3248 17.7699 46.2098C17.7241 46.094 17.4698 45.6573 17.4465 45.5648C17.424 45.4722 16.9164 44.9206 16.9164 44.9206C16.9164 44.9206 16.8723 45.058 16.8248 44.7346C16.779 44.4129 16.8481 44.5513 16.779 44.4129C16.7098 44.2736 16.3648 44.0436 16.3648 44.0436C16.3648 44.0436 16.3405 43.0302 16.3648 42.9387C16.3881 42.8461 16.4115 41.7858 16.4115 41.7858C16.4115 41.7858 16.5714 41.4625 16.5948 41.3932C16.6181 41.3249 16.6864 41.1407 16.7098 41.0716C16.7331 41.0025 16.8023 40.8641 16.8023 40.8641C16.8023 40.8641 17.2631 40.2189 17.3322 40.2189C17.4023 40.2189 17.954 39.7589 18.0933 39.6673C18.2307 39.5738 18.5758 39.2746 18.6233 39.1372C18.6674 38.998 18.6925 38.7212 18.715 38.6072C18.7375 38.4903 18.9225 37.7545 19.0143 37.7077C19.106 37.661 19.4285 37.4077 19.4285 37.2693C19.4285 37.131 19.3826 36.7643 19.3368 36.6018C19.291 36.44 19.1534 36.0715 19.1534 36.0715Z" fill="#D2DFD5" stroke="white" stroke-width="0.6"/>
</svg>
