<svg width="180" height="143" viewBox="0 0 180 143" fill="none" xmlns="http://www.w3.org/2000/svg">
<path d="M15.1768 114.938C15.2213 114.925 15.3137 114.952 15.1768 114.938V114.938Z" fill="#DBFF00" stroke="white" stroke-width="0.6"/>
<path d="M179.237 59.7119C179.267 59.6337 179.11 59.5457 179.002 59.428C178.894 59.3103 178.629 59.1342 178.523 59.0651C178.415 58.9968 178.415 59.2411 178.228 58.8503C178.042 58.4586 177.992 58.3606 177.836 58.2825C177.679 58.2034 177.523 58.2332 177.494 58.1549C177.464 58.0768 177.542 58.0372 177.473 57.959C177.405 57.8809 177.407 57.8503 177.376 57.8018C177.346 57.7533 177.416 57.6939 177.267 57.7631C177.121 57.8315 177.122 57.9392 177.033 57.8512C176.946 57.7631 176.847 57.6356 176.798 57.7434C176.749 57.8512 176.65 57.88 176.74 58.0561C176.827 58.2331 176.886 58.4388 176.837 58.517C176.789 58.5951 176.71 58.7712 176.641 58.5951C176.572 58.419 176.691 58.3112 176.572 58.3211C176.456 58.331 176.397 58.4388 176.357 58.3507C176.319 58.2618 176.201 58.2133 176.201 58.2133C176.201 58.2133 176.015 58.0372 176.004 58.1648C175.995 58.2915 176.093 58.5071 176.093 58.5071C176.093 58.5071 176.23 58.694 176.319 58.7425C176.407 58.791 176.367 58.9385 176.279 58.9284C176.191 58.9186 176.102 58.7227 176.102 58.7227C176.102 58.7227 175.896 58.4101 175.818 58.3705C175.74 58.331 175.584 58.2816 175.574 58.3212C175.563 58.3606 175.476 58.5072 175.447 58.5369C175.417 58.5665 175.123 58.6932 175.054 58.7722C174.986 58.8504 174.78 59.0661 174.653 59.1343C174.526 59.2026 174.39 59.2906 174.378 59.4083C174.369 59.5261 174.291 59.5548 174.477 59.6042C174.662 59.6527 174.879 59.7228 174.938 59.8692C174.995 60.0157 175.036 60.2026 174.946 60.2026C174.859 60.2026 174.761 60.0067 174.624 59.9079C174.487 59.81 174.33 59.791 174.222 59.791C174.115 59.791 174.055 59.791 174.045 59.8692C174.036 59.9475 174.046 60.1038 173.978 60.084C173.908 60.0651 173.888 59.9772 173.851 59.8791C173.81 59.7803 173.741 59.7614 173.633 59.8099L173.408 59.8881C173.408 59.8881 173.39 59.9475 173.242 59.9475C173.096 59.9475 173.077 59.9375 172.831 59.9475C172.586 59.9573 172.155 60.2314 171.999 60.2511C171.842 60.2708 171.518 60.3194 171.518 60.3194L171.254 60.4083C171.254 60.4083 171.068 60.6716 171.018 60.6716C170.97 60.6716 170.833 60.7309 170.862 60.8881C170.892 61.0444 171.107 61.5053 171.107 61.5053C171.107 61.5053 171.43 61.6518 171.42 61.7686C171.41 61.8863 171.41 62.0436 171.352 62.102C171.293 62.1612 171.117 62.2197 171.048 62.3571C170.98 62.4946 170.774 62.5916 170.93 62.6806C171.087 62.7686 171.216 62.7785 171.264 62.818C171.312 62.8568 171.312 62.837 171.312 62.9151C171.312 62.9933 171.401 63.1702 171.47 62.9843C171.538 62.7974 171.46 62.8074 171.46 62.6995C171.46 62.5917 171.312 62.5917 171.46 62.4848C171.607 62.3761 171.558 62.3572 171.685 62.3572C171.813 62.3572 171.831 62.3474 171.88 62.3078C171.93 62.2692 171.793 62.1802 172.037 62.2107C172.283 62.2395 172.39 62.1802 172.41 62.3078C172.43 62.4354 172.517 62.5343 172.361 62.4552C172.205 62.3761 172.214 62.2396 172.067 62.3573C171.921 62.475 171.949 62.5819 171.85 62.6214C171.754 62.6601 171.725 62.9934 171.735 63.1021C171.744 63.209 172.008 63.3761 172.067 63.5136C172.126 63.6502 172.086 63.66 172.233 63.7185C172.381 63.7778 172.468 63.9341 172.468 63.9341C172.468 63.9341 172.165 64.1596 172.381 64.1596C172.595 64.1596 172.781 64.0509 172.871 64.0617C172.958 64.0717 173.124 64.1893 173.164 63.9935C173.204 63.7976 173.281 63.7778 173.33 63.6701C173.38 63.5613 173.311 63.4931 173.302 63.4445C173.291 63.3951 173.291 63.3556 173.291 63.3556C173.291 63.3556 173.349 63.3368 173.427 63.3556C173.507 63.3762 173.526 63.4643 173.585 63.5137C173.645 63.5613 173.682 63.5523 173.682 63.5523C173.682 63.5523 173.791 63.4733 173.742 63.3862C173.692 63.2981 173.781 63.2684 173.633 63.2199C173.488 63.1705 173.427 63.1309 173.427 63.1309C173.427 63.1309 173.361 63.1022 173.418 63.0627C173.477 63.024 173.487 63.024 173.497 62.9648C173.507 62.9054 173.439 62.847 173.555 62.8272C173.673 62.8075 173.702 62.7096 173.898 62.7976C174.094 62.8866 174.143 63.0142 174.182 63.024C174.222 63.033 174.328 63.1903 174.447 63.0717C174.565 62.9548 174.555 62.6809 174.555 62.6809C174.555 62.6809 174.702 62.6413 174.799 62.6315C174.897 62.6215 174.839 62.6907 174.897 62.6215C174.956 62.5533 174.957 62.2298 175.064 62.3286C175.172 62.4256 175.182 62.6126 175.319 62.4948C175.456 62.3762 175.456 62.2693 175.465 62.1903C175.476 62.1121 175.496 61.9656 175.574 62.0636C175.652 62.1615 175.682 62.298 175.789 62.2586C175.896 62.2199 175.857 62.1417 175.936 62.1417C176.015 62.1417 175.937 61.8577 175.946 61.7895C175.955 61.7213 175.917 61.6036 176.045 61.4948C176.172 61.387 176.123 61.2703 176.23 61.3385C176.337 61.4068 176.426 61.5145 176.494 61.397C176.563 61.2792 176.494 61.1022 176.699 61.1517C176.905 61.2011 176.806 61.2999 176.934 61.3385C177.062 61.378 177.23 61.378 177.23 61.378C177.23 61.378 177.523 61.3187 177.308 61.2207C177.092 61.1228 177.043 61.0545 177.043 61.0545C177.043 61.0545 177.073 60.9369 177.004 60.8677C176.934 60.7993 176.877 60.8182 177.024 60.643C177.17 60.466 177.328 60.3492 177.416 60.466C177.503 60.5837 177.542 60.7212 177.67 60.6628C177.798 60.6034 177.816 60.5055 178.012 60.4571C178.209 60.4085 178.296 60.4571 178.374 60.4867C178.453 60.5154 178.523 60.3977 178.542 60.466C178.56 60.5352 178.797 60.7014 178.815 60.466C178.835 60.2316 178.807 60.1326 178.815 60.0455C178.826 59.9575 178.798 59.8101 178.885 59.7805C178.972 59.7518 179.206 59.791 179.237 59.7119Z" fill="#DBFF00" stroke="white" stroke-width="0.6"/>
<path d="M176.181 62.2583C176.181 62.2583 176.073 62.3266 176.073 62.3958C176.073 62.464 176.053 62.6312 176.053 62.6312C176.053 62.6312 176.132 62.7192 176.221 62.5916C176.308 62.464 176.378 62.2691 176.181 62.2583Z" fill="#DBFF00" stroke="white" stroke-width="0.6"/>
<path d="M154.62 73.2582C154.608 73.1694 154.518 72.9914 154.684 72.9788C154.848 72.9662 155.052 72.9788 154.964 72.8773C154.874 72.7758 154.773 72.7632 154.709 72.7632C154.646 72.7632 154.658 72.6994 154.532 72.8511C154.404 73.0039 154.43 73.118 154.226 73.1054C154.023 73.0928 153.731 73.0039 153.731 73.0039C153.731 73.0039 153.516 72.9536 153.516 72.8134C153.516 72.6742 153.566 72.5215 153.477 72.5852C153.389 72.649 153.274 72.738 153.224 72.738C153.172 72.738 152.931 72.7757 152.931 72.7757C152.931 72.7757 152.74 72.8898 152.944 72.9033C153.147 72.9151 153.324 72.9536 153.324 72.9536C153.324 72.9536 153.49 73.0039 153.591 73.1054C153.694 73.207 153.808 73.2833 153.808 73.4225C153.808 73.5627 153.782 73.8682 153.782 73.8682C153.782 73.8682 153.694 73.994 153.808 74.0578C153.922 74.1216 154.074 73.9437 154.111 73.8548C154.149 73.7667 154.201 73.7281 154.443 73.8548C154.684 73.9823 154.95 73.8799 154.95 73.8799C154.95 73.8799 155.23 74.0452 155.077 73.8171C154.925 73.5888 154.632 73.3472 154.62 73.2582Z" fill="#DBFF00" stroke="white" stroke-width="0.6"/>
<path d="M158.454 73.2073C158.34 73.3348 158.24 73.3726 158.278 73.475C158.316 73.5757 158.329 73.5119 158.329 73.6395C158.329 73.7671 158.316 73.8551 158.316 73.8551C158.316 73.8551 157.998 73.9943 157.973 73.8685C157.947 73.7409 158.023 73.5371 157.934 73.6143C157.846 73.6907 157.896 73.8048 157.833 73.8551C157.769 73.9063 157.732 73.9943 157.667 73.9063C157.604 73.8174 157.527 73.8048 157.463 73.8048C157.463 73.8048 157.236 73.8174 157.224 73.9566C157.211 74.0968 157.173 74.1857 157.173 74.1857C157.173 74.1857 156.728 74.3762 156.932 74.4138C157.135 74.4516 157.248 74.4138 157.325 74.5028C157.401 74.5918 157.463 74.5279 157.553 74.3886C157.643 74.2495 157.705 74.1605 157.819 74.1218C157.934 74.0841 157.96 74.0706 158.061 74.0841C158.162 74.0967 158.161 74.2108 158.289 74.1605C158.417 74.1092 158.454 73.9942 158.492 73.9062C158.531 73.8173 158.327 73.6007 158.556 73.6007C158.786 73.6007 158.81 73.4614 158.798 73.36C158.786 73.2584 158.684 73.0293 158.684 73.0293C158.684 73.0293 158.569 73.0815 158.454 73.2073Z" fill="#DBFF00" stroke="white" stroke-width="0.6"/>
<path d="M160.334 70.0969C160.143 69.9955 160.132 70.0206 160.029 69.9316C159.929 69.8426 159.865 69.8049 159.865 69.8049L159.559 69.5894C159.559 69.5894 159.293 69.716 159.203 69.7924C159.115 69.8679 159.102 69.8552 158.95 69.893C158.797 69.9316 158.722 69.9568 158.672 70.008C158.62 70.0583 158.709 70.1473 158.505 70.1473C158.302 70.1473 158.252 70.1086 158.151 70.1724C158.048 70.2362 157.832 70.185 157.87 70.3503C157.909 70.5166 158.061 70.5794 158.061 70.5794C158.061 70.5794 158.251 70.592 158.302 70.7187C158.354 70.8463 158.379 70.9217 158.379 70.9217C158.379 70.9217 158.403 71.1131 158.518 71.1634C158.633 71.2138 158.683 71.1895 158.722 71.2901C158.76 71.3917 158.925 71.4051 158.938 71.5319C158.95 71.6586 158.873 71.8616 158.95 71.9631C159.026 72.0647 159.179 72.2048 159.179 72.2048C159.179 72.2048 158.874 72.6496 159.23 72.5858C159.584 72.522 159.787 72.3828 159.89 72.2938C159.991 72.2048 160.067 72.1411 160.143 72.1411C160.22 72.1411 160.208 72.1159 160.309 72.0531C160.41 71.9892 160.384 71.9758 160.537 71.9632C160.69 71.9507 160.716 72.1169 160.816 71.9129C160.919 71.709 160.919 71.6334 160.995 71.5832C161.071 71.532 161.223 71.5571 161.019 71.4179C160.816 71.2777 160.778 71.1762 160.778 71.0999C160.778 71.0243 160.93 70.6434 161.033 70.4781C161.133 70.3128 161.21 70.2238 161.21 70.2238L161.247 70.1223C161.247 70.1223 161.033 70.1088 160.816 70.1088C160.601 70.1088 160.525 70.1985 160.334 70.0969Z" fill="#DBFF00" stroke="white" stroke-width="0.6"/>
<path d="M165.121 66.9735C165.133 66.8333 165.045 66.8836 165.045 66.8836C165.045 66.8836 165.02 66.8072 165.02 66.6177C165.02 66.4272 165.02 66.5278 164.994 66.4775C164.969 66.4263 164.994 66.4775 164.918 66.5027C164.842 66.5278 164.918 66.5027 164.88 66.5278C164.842 66.5539 164.804 66.5413 164.562 66.5413C164.32 66.5413 164.487 66.4775 164.424 66.4137C164.359 66.3499 164.233 66.1981 164.144 66.1343C164.054 66.0714 164.068 66.1604 164.068 66.1604C164.068 66.1604 164.092 66.4138 163.992 66.5539C163.889 66.6932 163.889 66.7318 163.395 66.8208C162.901 66.9096 163.319 66.9475 163.523 66.9475H163.762C163.851 66.9475 163.954 67.0615 164.004 67.0615C164.054 67.0615 164.131 67.0363 164.41 67.0112C164.69 66.9852 164.512 67.1128 164.88 67.1756C165.248 67.2394 165.008 67.1756 165.083 67.163C165.16 67.1513 165.109 67.1127 165.121 66.9735Z" fill="#DBFF00" stroke="white" stroke-width="0.6"/>
<path d="M151.687 75.2074C151.588 75.1984 151.338 75.1984 151.195 75.1805C151.052 75.1625 151.168 75.1356 150.9 75.0906C150.631 75.0457 150.667 74.9567 150.55 74.9748C150.435 74.9927 150.372 75.0996 150.31 75.0017C150.247 74.9028 150.354 74.751 150.22 74.76C150.086 74.7689 150.13 74.787 150.086 74.9118C150.041 75.0367 150.095 75.3503 149.987 75.3413C149.88 75.3323 149.942 75.2784 149.853 75.1715C149.763 75.0636 149.826 75.0277 149.621 75.0547C149.415 75.0817 149.54 75.1535 149.227 75.1895C148.913 75.2245 148.744 75.2694 148.547 75.2245C148.35 75.1805 147.948 75.0906 147.948 75.0906C147.948 75.0906 147.778 74.9837 147.608 75.0547C147.437 75.1266 147.294 75.2874 147.205 75.4042C147.116 75.5201 147.008 75.7169 147.008 75.7169C147.008 75.7169 147.071 75.8067 146.802 75.9136C146.534 76.0215 146.444 76.0125 146.382 76.1014C146.32 76.1912 146.105 76.4419 146.042 76.5309C145.979 76.6207 145.97 76.8084 145.764 76.8804C145.559 76.9513 145.371 76.8444 145.336 77.0143C145.3 77.184 145.121 77.4078 145.121 77.4078C145.121 77.4078 145.112 77.4707 144.78 77.6854C144.45 77.9002 144.315 77.9981 144.217 78.1589C144.118 78.3206 143.833 78.866 143.833 78.866C143.833 78.866 143.698 78.9379 143.609 79.0358C143.519 79.1347 143.582 79.1786 143.448 79.1877C143.313 79.1966 143.51 79.3404 143.179 79.1877C142.849 79.0358 142.759 79.0178 142.759 79.0178C142.759 79.0178 142.625 78.9549 142.526 78.9019C142.428 78.848 142.329 78.7411 142.16 78.6423C141.99 78.5435 142.035 78.4905 141.882 78.4814C141.73 78.4724 141.873 78.4006 141.614 78.4006C141.355 78.4006 141.194 78.4365 141.194 78.4365C141.194 78.4365 141.444 78.4635 141.453 78.5704C141.461 78.6782 141.283 78.6602 141.48 78.7671C141.676 78.8749 141.364 78.8391 141.766 78.884C142.169 78.9289 142.232 78.938 142.232 78.938C142.232 78.938 142.446 78.991 142.481 79.0539C142.517 79.1167 142.347 79.0988 142.571 79.1787C142.795 79.2596 142.956 79.0718 142.795 79.2596C142.634 79.4474 142.786 79.5373 142.437 79.4474C142.088 79.3584 142.16 79.3494 141.981 79.3494C141.802 79.3494 141.497 79.3045 141.283 79.3225C141.068 79.3405 140.791 79.3315 140.791 79.3315C140.791 79.3315 140.397 79.0988 140.317 79.0269C140.236 78.955 139.976 78.6693 139.78 78.6693C139.583 78.6693 139.548 78.5884 139.449 78.6603C139.35 78.7322 139.225 78.902 139.225 78.902C139.225 78.902 138.85 78.6514 138.76 78.6154C138.671 78.5794 138.653 78.4906 138.68 78.3207C138.707 78.1499 138.653 77.8642 138.823 77.8733C138.992 77.8822 138.93 77.7834 139.144 77.9263C139.359 78.07 139.458 78.2039 139.494 78.088C139.53 77.9712 139.753 78.0341 139.485 77.8463C139.216 77.6586 139.144 77.6405 139.01 77.5507C138.877 77.4618 139.404 77.4977 138.805 77.4258C138.205 77.354 138.152 77.4258 138.063 77.3988C137.973 77.3719 137.937 77.265 137.821 77.2919C137.704 77.318 137.848 77.5417 137.561 77.3449C137.275 77.1483 137.168 77.0944 137.132 77.0502C137.096 77.0054 136.962 76.9514 137.043 76.8715C137.123 76.7906 137.141 76.9604 137.123 76.7906C137.105 76.6208 136.98 76.5579 136.998 76.495C137.016 76.433 137.213 76.0746 137.346 76.0835C137.481 76.0925 137.749 76.0746 138.08 76.1644C138.411 76.2542 138.751 76.2982 138.769 76.406C138.787 76.5129 138.814 76.4241 138.895 76.6918C138.974 76.9604 138.992 77.0943 139.082 77.1662C139.171 77.238 139.35 77.336 139.35 77.336C139.35 77.336 139.404 77.4887 139.512 77.4348C139.618 77.3809 139.618 77.247 139.699 77.3091C139.779 77.372 139.887 77.5417 139.887 77.5417L140.129 77.5866C140.129 77.5866 140.218 77.6586 140.299 77.7295C140.38 77.8014 140.576 77.9352 140.576 77.9352C140.576 77.9352 140.916 78.141 140.844 78.0161C140.773 77.8912 140.236 77.4618 140.236 77.4618C140.236 77.4618 139.744 77.1123 139.601 76.9424C139.458 76.7727 138.707 75.7799 138.662 75.6989C138.617 75.619 138.545 75.1715 138.402 75.0017C138.259 74.831 138.062 74.1338 137.991 73.8112C137.919 73.4896 137.74 72.6666 137.695 72.4428C137.651 72.2191 137.57 71.9775 137.507 71.7447C137.445 71.512 137.4 70.8328 137.328 70.5372C137.257 70.2425 136.881 69.4635 136.819 69.1958C136.756 68.9271 136.595 68.4348 136.586 68.3638C136.577 68.2919 136.541 68.1311 136.496 68.0951C136.451 68.0593 136.255 67.9433 136.193 67.7556C136.13 67.5679 136.103 67.4959 136.121 67.424C136.139 67.353 136.148 67.2991 136.139 67.2631C136.13 67.2273 136.049 67.1382 136.049 67.1382C136.049 67.1382 136.014 67.1113 135.978 66.9855C135.942 66.8606 135.834 66.7088 135.834 66.7088L135.146 66.1894C135.146 66.1894 134.538 66.0826 134.43 65.5812C134.323 65.0808 134.108 64.7222 134.108 64.7222C134.108 64.7222 134.144 64.3287 133.893 63.9351C133.643 63.5416 133.321 63.0402 133.321 63.0402C133.321 63.0402 132.856 62.5398 132.784 62.1104C132.713 61.6808 132.713 61.3233 132.713 61.3233L132.748 61.1086C132.748 61.1086 132.704 60.9073 132.825 60.663C132.947 60.4195 133.068 60.5012 133.191 60.2776C133.312 60.0538 133.637 59.5265 133.637 59.0188C133.637 58.5111 133.617 57.9828 133.617 57.7807C133.617 57.5767 133.982 56.9685 134.063 56.7043C134.145 56.4402 134.023 56.521 134.227 56.2578C134.429 55.9936 134.47 55.8113 134.53 55.6279C134.591 55.4456 134.611 55.2218 134.754 55.0799C134.895 54.9379 134.978 54.9173 135.038 54.7348C135.099 54.5525 135.099 54.5318 135.343 54.308C135.586 54.0843 135.79 53.8615 136.014 53.4968C136.236 53.1311 136.276 53.0907 136.378 52.9892C136.48 52.8868 136.601 52.7448 136.682 52.7052C136.764 52.6639 136.804 52.6639 136.846 52.5012C136.885 52.3395 137.07 52.0753 137.19 51.7294C137.313 51.3844 137.313 51.4454 137.313 51.1813V50.6737C137.313 50.5318 137.25 50.4509 137.353 50.2686C137.454 50.0852 137.515 49.9029 137.515 49.9029C137.515 49.9029 137.698 49.2128 137.84 49.0907C137.981 48.9685 138.185 48.8265 138.389 48.6441C138.591 48.4608 138.429 48.7654 138.591 48.4608C138.753 48.1571 138.653 48.238 138.753 48.1571C138.855 48.0754 138.917 48.0754 138.977 47.8526L139.064 47.6629C139.064 47.6629 139.18 47.5102 139.261 47.3854C139.342 47.2604 139.377 47.3404 139.431 47.1526C139.485 46.9648 139.413 46.831 139.512 46.6782C139.61 46.5264 139.923 46.3926 139.914 46.2227C139.905 46.0521 139.878 45.7753 139.878 45.7753L139.985 45.4788C140.003 45.3881 140.186 45.2973 140.294 45.2245C140.404 45.1517 140.368 44.9703 140.386 44.8247C140.404 44.6792 140.386 44.5516 140.404 44.4609C140.422 44.3701 140.294 44.3701 140.204 44.2066C140.113 44.0429 140.077 43.9343 140.003 43.6791C139.932 43.4249 139.913 43.2434 139.895 42.9883C139.877 42.7349 139.913 42.8256 139.84 42.6073C139.768 42.389 139.768 42.2794 139.768 42.2794C139.768 42.2794 139.731 42.0799 139.585 41.9523C139.44 41.8247 139.459 41.9164 139.312 42.0251C139.167 42.1339 139.149 42.2434 139.149 42.2434L138.986 42.9344C138.986 42.9344 138.823 43.0979 138.75 43.1526C138.677 43.2066 138.622 43.1885 138.531 43.2613C138.442 43.3341 138.477 43.5156 138.477 43.5156C138.477 43.5156 138.387 43.5345 138.295 43.6791C138.205 43.8247 138.241 43.7699 138.204 43.8247C138.168 43.8795 137.823 44.2794 137.75 44.3701C137.678 44.4609 137.586 44.6064 137.441 44.7699C137.295 44.9343 137.114 45.0062 136.951 45.1149C136.787 45.2245 136.823 45.4977 136.823 45.4977C136.823 45.4977 136.769 45.7151 136.623 45.9514C136.478 46.1877 136.604 46.1697 136.495 46.3332C136.387 46.4976 136.224 46.769 136.133 46.9145C136.04 47.06 136.06 47.0969 135.823 47.2246C135.586 47.3521 135.532 47.424 135.224 47.5696C134.915 47.7151 135.041 47.6603 134.841 47.8238C134.643 47.9873 134.661 48.0062 134.569 48.0969C134.477 48.1868 134.26 48.2964 134.223 48.4051C134.186 48.5147 134.114 48.4779 133.952 48.5686C133.788 48.6603 133.733 48.7869 133.624 48.8957C133.515 49.0053 133.46 49.0601 133.369 49.096C133.278 49.1328 133.314 49.1687 133.243 49.2784C133.168 49.3871 132.187 50.2416 131.988 50.3872C131.789 50.5318 131.842 50.477 131.697 50.5866C131.55 50.6962 131.534 50.7869 131.425 50.9325C131.315 51.0781 131.169 51.3315 131.042 51.4411C130.914 51.5507 130.389 51.8598 130.297 51.8778C130.205 51.8948 130.169 52.0404 130.169 52.0404C130.169 52.0404 130.134 52.168 129.989 52.3315C129.842 52.4958 129.806 52.4591 129.606 52.5498C129.408 52.6415 129.461 52.7861 129.353 52.9676C129.244 53.1499 129.188 53.3682 128.752 53.8589C128.316 54.3494 127.497 54.7861 127.334 54.9316C127.17 55.0763 127.098 55.4401 126.953 55.5857C126.807 55.7304 126.662 55.8032 126.408 55.9128C126.153 56.0215 126.281 56.0035 126.171 56.185C126.062 56.3674 125.771 56.3494 125.517 56.4222C125.262 56.4949 124.081 56.6756 123.645 56.6756C123.209 56.6756 122.282 56.8032 121.828 56.8032C121.374 56.8032 121.3 56.8032 120.809 56.7672C120.318 56.7304 119.155 56.5669 118.683 56.495C118.209 56.4222 118.482 56.4572 118.228 56.4033C117.975 56.3494 117.72 56.2398 117.592 56.2039C117.464 56.1671 117.284 56.1122 117.284 56.1122C117.284 56.1122 116.901 56.0404 116.701 56.0215C116.502 56.0034 116.011 55.7672 115.919 55.7304C115.83 55.6944 115.156 55.495 114.994 55.4401C114.83 55.3854 114.501 55.2399 114.501 55.2399C114.501 55.2399 114.41 55.1131 114.21 55.0035C114.012 54.8939 113.756 54.7313 113.756 54.7313C113.756 54.7313 113.702 54.4582 113.702 54.2587C113.702 54.0593 113.538 53.8221 113.483 53.7313C113.428 53.6406 113.321 53.4959 113.303 53.3315C113.284 53.1679 113.083 53.1859 113.083 53.1859C113.083 53.1859 112.866 52.9677 112.829 52.7313C112.792 52.4959 112.774 52.477 112.757 52.3683C112.739 52.2587 112.63 52.0224 112.63 52.0224L112.539 51.9137C112.448 51.805 112.52 51.7322 112.484 51.4959C112.448 51.2587 112.52 51.2587 112.576 51.1141C112.63 50.9685 112.557 50.8598 112.557 50.7323C112.557 50.6047 112.484 50.3324 112.466 50.2048C112.448 50.0781 112.285 49.9505 112.285 49.9505C112.285 49.9505 112.229 50.1142 112.175 50.1509C112.122 50.1869 111.976 50.2237 111.666 50.3692C111.357 50.5139 111.43 50.3872 111.194 50.3503C110.957 50.3145 111.012 50.442 111.012 50.442C111.012 50.442 111.018 50.4479 111.056 50.4851L110.668 50.4298C110.705 50.4088 110.743 50.3876 110.775 50.3692C110.903 50.2964 110.739 50.2417 110.666 50.2048C110.594 50.1689 110.375 50.1869 110.304 50.1689C110.23 50.1509 109.793 50.0053 109.793 50.0053C109.793 50.0053 109.194 49.8777 109.048 49.8777C108.904 49.8777 108.776 49.6226 108.43 49.5327C108.085 49.442 108.195 49.6054 107.812 49.6054C107.43 49.6054 107.195 49.4419 107.195 49.4419L106.541 49.3323C106.541 49.3323 106.195 49.3323 105.94 49.3143C105.686 49.2964 105.759 49.2057 105.704 49.1687C105.649 49.1328 105.45 49.0232 105.45 49.0232C105.45 49.0232 104.832 48.8786 104.741 48.8418C104.649 48.8058 103.905 48.6414 103.905 48.6414L103.015 48.3871L101.942 47.9334C101.942 47.9334 101.47 47.7851 101.15 47.6765C101.154 47.662 101.155 47.6468 101.172 47.6405C101.262 47.6045 100.668 47.4968 100.668 47.4968C100.597 47.442 100.287 47.4248 100.287 47.4248C100.287 47.4248 100.197 47.406 100.014 47.3332C99.8319 47.2604 100.014 47.3332 99.7241 47.1697C99.4331 47.0054 99.5417 47.079 99.2686 46.9335C98.9954 46.7878 98.9973 46.9154 98.8149 46.8058C98.6334 46.6971 98.4708 46.6971 98.106 46.5336C97.7439 46.3699 97.8329 46.3512 97.6163 46.2245C97.3971 46.097 97.3971 46.1149 96.9425 45.8966C96.4887 45.6792 96.6702 45.8795 96.5426 45.8795C96.4159 45.8795 96.3064 45.8615 96.3432 45.6971C96.3792 45.5336 96.2515 45.6064 96.2515 45.6064C96.2515 45.6064 96.1609 45.5695 95.9075 45.4428C95.6523 45.3153 95.7619 45.3333 95.5426 45.2605L94.5606 44.8795L93.9613 44.5705L93.6163 44.3701L93.2705 44.2794C93.1815 44.2066 93.1617 44.2434 93.035 44.2434C92.9074 44.2434 92.9622 44.1527 92.8895 43.9892C92.8167 43.8247 92.4708 43.7519 92.1994 43.5524L91.5157 43.1211C90.9802 42.7321 90.8329 42.6826 90.345 42.2927C89.858 41.9028 90.053 41.8048 89.956 41.4159C89.859 41.0259 89.5175 41.0743 89.3711 41.026C89.2246 40.9765 88.9812 40.6845 88.6882 40.441C88.3962 40.1976 87.8608 39.8067 87.4213 39.4167C86.982 39.0268 86.9336 38.8319 86.6415 38.6377C86.3486 38.442 86.0081 38.4914 85.7637 38.1984C85.5202 37.9064 84.6424 37.6621 84.399 37.3215C84.1546 36.9792 83.7162 36.8821 83.5221 36.7842C83.3271 36.6872 82.8878 36.1994 82.5957 35.8103C82.3029 35.4204 82.0594 35.4204 81.7179 35.1275C81.3774 34.8354 80.9389 34.2012 80.6461 33.9092C80.3531 33.6162 80.2552 33.5192 79.6703 33.0314C79.0854 32.5444 79.1833 32.3 79.0854 32.1536C78.9884 32.0071 78.7449 31.7151 78.5985 31.4222C78.452 31.1312 77.7701 30.6909 77.4277 30.2534C77.0863 29.8149 76.6488 29.8626 76.5509 29.6685C76.4521 29.4726 76.4054 29.4241 76.0629 28.8886C75.7207 28.3523 75.4305 28.2058 75.0388 27.6694C74.6497 27.133 74.3092 26.9389 74.1133 26.5967C73.9184 26.2552 73.8214 26.3047 73.6749 25.8168C73.5285 25.3298 73.5293 25.3783 73.382 25.0369C73.2364 24.6955 72.9435 24.5984 72.8464 24.452C72.7485 24.3064 72.5051 23.965 72.5033 23.8177C72.4988 23.5832 72.1924 23.364 72.0244 23.1007C71.8564 22.8384 71.9283 22.886 71.9049 22.7899C71.8814 22.6946 71.6174 22.6704 71.6174 22.6704C71.6174 22.6704 71.1878 22.1681 71.0917 22.0729C70.9955 21.9767 70.8519 21.6182 70.8285 21.3073C70.8051 20.9965 70.8518 21.0207 70.7808 20.8527C70.709 20.6857 70.6613 20.6389 70.6128 20.4709C70.5661 20.3028 70.4233 20.1367 70.2786 19.9453C70.1339 19.754 69.9192 19.5149 69.7763 19.3711C69.6335 19.2274 69.585 18.6533 69.514 18.2472C69.4422 17.8411 69.4654 17.9372 69.2741 17.7925C69.0836 17.6497 68.7477 17.1475 68.7477 16.9803C68.7477 16.8133 68.7727 16.7881 68.7727 16.6938C68.7727 16.5975 68.4862 16.6695 68.3657 16.6695C68.2472 16.6695 68.0073 16.311 67.7215 16.0235C67.434 15.7368 66.4529 14.4934 66.142 14.1115C65.8311 13.7288 64.8986 12.7962 64.4926 12.4611C64.0872 12.1268 63.6317 11.3614 63.0585 10.7162C62.4845 10.0703 62.1493 9.37667 61.9822 9.25716C61.815 9.13765 61.6003 8.70726 61.408 8.46916C61.2176 8.2293 60.9067 7.65603 60.5958 7.2491C60.2849 6.843 59.7351 6.41261 59.2562 6.07837C58.7774 5.7432 58.3479 5.43241 57.966 5.14573C57.5833 4.85822 57.1287 4.06939 57.1287 4.06939C57.1287 4.06939 56.7935 3.73515 56.7459 3.49529C56.6974 3.25627 56.7226 2.94631 56.2203 2.63543C55.7181 2.32456 55.7181 2.13319 55.4791 1.86997C55.2392 1.60656 55.1431 0.889769 55.1431 0.649826C55.1431 0.411722 54.8323 0.459379 54.5941 0.338948C54.356 0.219436 54.3066 0.411723 54.3066 0.411723C54.3066 0.411723 53.9723 0.459381 53.6614 0.602261C53.3505 0.74597 53.4952 0.960705 53.2563 1.08114C53.0163 1.20056 53.1844 1.41529 53.1592 1.77383C53.1349 2.13319 53.1349 1.94182 53.1349 2.37231C53.1349 2.80279 53.1125 2.53846 52.9202 2.99314C52.728 3.44773 52.18 3.63909 51.8448 3.92577C51.5088 4.21328 50.9364 4.42802 50.8402 4.45222C50.5608 4.5214 50.2671 4.38036 49.9796 4.35598C49.6929 4.3327 49.8843 4.38027 49.6453 4.49987C49.4054 4.61847 49.382 4.66695 48.9751 4.66695C48.569 4.66695 48.7603 4.5951 48.7127 4.52407C48.6642 4.45221 48.3533 4.38036 48.2581 4.3327C48.1637 4.28422 48.0425 4.23656 48.0191 4.14134C47.9958 4.04611 48.0191 3.87904 47.9714 3.63909C47.9239 3.40016 47.9714 3.63909 47.9472 3.51967C47.9239 3.40016 47.781 3.25728 47.542 3.2088C47.3021 3.16022 47.1098 3.49538 47.1098 3.49538C47.1098 3.49538 47.065 3.60772 47.065 3.95448C47.065 4.30124 47.064 4.40824 47.1179 4.78103C47.1718 5.15392 47.3048 5.31474 47.3713 5.39386C47.4378 5.47474 47.5842 5.54024 47.6112 5.64724C47.6381 5.75415 47.6651 5.79454 47.6381 5.86014C47.6112 5.92748 47.5977 5.87357 47.5842 6.10091C47.5708 6.32733 47.5438 6.55375 47.5438 6.55375C47.5438 6.55375 47.357 6.87364 47.1835 7.10006C47.012 7.32639 46.745 7.75319 46.745 7.75319C46.745 7.75319 46.4782 7.79275 46.4917 7.88613C46.5052 7.97869 46.5987 8.00564 46.6112 8.0856C46.6247 8.16564 46.6921 8.59327 46.5708 8.84572C46.4513 9.09818 46.1179 9.71276 45.985 9.81875C45.852 9.92483 45.6517 10.2582 45.6517 10.2582L45.453 10.3785C45.453 10.3785 45.3857 10.5385 45.3991 10.6579C45.4127 10.7783 45.4118 12.1376 45.5582 12.471C45.7055 12.8043 45.9311 13.6166 46.0793 13.8834C46.224 14.1502 46.4647 14.63 46.4647 14.63C46.4647 14.63 47.7846 17.8017 48.0379 18.401C48.2913 19.0011 49.1835 21.373 49.1835 21.373C49.1835 21.373 49.5168 22.3335 49.5429 22.4799C49.5698 22.6264 49.6373 22.6533 49.6642 22.8798C49.6912 23.1062 49.6912 23.3326 49.7046 23.3856C49.7163 23.4395 50.277 25.6111 50.277 25.6515C50.277 25.692 50.5159 26.8905 50.5833 27.3308C50.6506 27.771 50.9966 30.7683 50.9832 31.0882C50.9706 31.4081 50.9706 31.5814 50.9832 31.7019C50.9966 31.8223 50.9032 33.2742 50.8627 33.5007C50.8223 33.7279 50.7432 33.9543 50.5834 34.1943C50.4235 34.4341 50.4226 34.5536 50.383 34.781C50.3444 35.0065 50.2904 35.1799 50.2904 35.4071C50.2904 35.6336 50.1558 37.6722 50.0497 38.1385C49.9437 38.6048 49.7963 39.0046 49.5834 39.3119C49.3713 39.6183 48.9041 40.311 48.7442 40.6183C48.5843 40.9247 48.5178 41.0846 48.4773 41.2715C48.4379 41.4574 48.0237 42.3371 47.9176 42.4305C47.8116 42.5239 47.5708 42.8168 47.5708 42.8168C47.5708 42.8168 47.4253 42.8302 47.4253 43.0027V43.443L47.5304 44.4025C47.5304 44.4025 47.5448 45.7485 47.5708 46.1087C47.5978 46.4681 47.5708 47.4547 47.5708 47.6675C47.5708 47.8804 47.6112 48.2273 47.5978 48.4798C47.5843 48.734 47.5053 48.9335 47.5053 49.1194C47.5053 49.3064 47.7047 50.9855 47.7047 51.4663C47.7047 51.9451 47.7181 52.5049 47.7047 52.9047C47.6913 53.3046 47.4783 53.9577 47.3983 54.238C47.3184 54.5174 47.224 54.9182 47.2106 55.1041C47.197 55.2902 47.2645 55.371 47.251 55.4905C47.2376 55.6109 47.145 55.7574 47.0515 56.0502C46.9581 56.3431 46.879 56.5696 46.6787 56.7564C46.4783 56.9433 46.5179 56.8364 46.3049 57.3162C46.0928 57.796 46.145 57.716 45.9851 57.902C45.8251 58.0889 45.906 58.1023 45.6922 58.2758C45.4783 58.4492 45.4262 58.636 45.2259 58.689C45.0255 58.742 45.0524 58.769 44.8657 58.8625C44.6787 58.9558 44.7732 58.9954 44.5594 58.9954C44.3464 58.9954 44.3859 58.9019 44.2125 58.9424C44.04 58.9827 44.1065 58.9154 43.9591 58.9954C43.8136 59.0754 43.5331 59.5955 43.2925 59.6621C43.0534 59.7286 42.8809 59.742 42.7875 59.742C42.6931 59.742 42.774 59.4356 42.5476 59.636C42.3194 59.8355 42.1209 59.9954 42.1209 59.9954C42.1209 59.9954 41.8936 60.0753 41.8415 60.1023C41.7876 60.1283 41.4003 60.4087 41.2152 60.5147C41.0284 60.6217 40.8819 60.7546 40.7345 60.8615C40.5889 60.9684 40.562 60.875 40.535 61.1409C40.5081 61.4078 40.2422 61.928 40.1208 62.1149C40.0014 62.3 39.6546 62.8076 39.589 62.9415C39.5216 63.0745 39.2692 63.4868 39.3482 63.7797C39.4281 64.0735 39.6016 64.6333 39.668 64.9801C39.7354 65.326 39.8953 65.9792 39.9627 66.2586C40.0283 66.538 39.9214 66.6458 40.1478 66.9118C40.3751 67.1778 40.5216 67.3242 40.562 67.432C40.6024 67.5381 40.7875 68.0717 40.7875 68.2721C40.7875 68.4715 40.5755 69.0708 40.5755 69.0708C40.5755 69.0708 40.4946 69.4715 40.4542 69.5244C40.4147 69.5775 40.2961 69.724 40.2961 69.724C40.2961 69.724 40.2286 69.7644 40.2152 69.857C40.2017 69.9504 40.1613 70.7644 40.2422 70.8839C40.3212 71.0034 40.3742 71.0169 40.4011 71.0978C40.4281 71.1768 40.4542 71.2442 40.4677 71.3772C40.4811 71.5101 40.5081 71.6162 40.6815 71.7627C40.8549 71.9109 40.907 71.8956 40.9608 72.0034C41.0147 72.1094 40.9222 72.0438 41.0283 72.2298C41.1343 72.4158 41.0534 72.2559 41.2151 72.5892C41.3732 72.9225 41.3733 72.9495 41.4002 73.069C41.4272 73.1893 41.6553 73.4823 41.6815 73.6422C41.7066 73.8022 41.8549 74.1885 41.8549 74.4688C41.8549 74.7482 41.9735 74.8156 41.9475 74.9755C41.9214 75.1355 41.828 75.2415 41.8145 75.4553C41.8011 75.6674 41.828 75.6278 41.8145 75.9351C41.8011 76.2414 41.7471 76.4283 41.7471 76.4283C41.7471 76.4283 41.7067 76.8542 41.7202 76.9872C41.7336 77.1202 41.6412 77.307 41.6412 77.307C41.6412 77.307 41.2943 77.8273 41.2153 78.0006C41.1344 78.1731 40.7221 78.6529 40.4543 79.0932C40.1884 79.5334 39.6816 80.0806 39.5487 80.2792C39.4148 80.4796 39.2153 80.9199 39.0679 80.9324C38.9224 80.9458 38.8289 80.8533 38.775 80.9324C38.7212 81.0132 38.7481 81.0797 38.7481 81.1327C38.7481 81.1857 38.6942 81.3196 38.6017 81.3196C38.5091 81.3196 38.5756 81.0653 38.5091 81.3196C38.4417 81.5721 38.4417 81.6924 38.4417 81.732C38.4417 81.7724 38.4417 82.0518 38.3608 81.8919C38.2818 81.732 38.4013 81.7454 38.2818 81.732C38.1623 81.7186 38.2028 81.6655 38.0545 81.759C37.9098 81.8524 37.8964 81.8524 37.8964 81.9054V81.9584C37.8964 81.9584 37.696 82.1453 37.3492 82.3583C37.0024 82.5712 35.8829 83.2244 35.8829 83.2244C35.8829 83.2244 35.2172 83.4516 35.1767 83.4516C35.1362 83.4516 34.7507 83.3573 34.7507 83.3573C34.7507 83.3573 34.0445 82.8911 33.7112 82.7985C33.3788 82.705 32.9781 82.5182 32.8577 82.4382C32.7391 82.3583 32.6312 82.2522 32.4848 82.2252C32.3384 82.1983 32.2979 82.2522 32.0724 82.1319C31.8451 82.0123 31.7121 81.9189 31.7121 81.9189C31.7121 81.9189 31.7382 82.1183 31.5378 81.8389L31.3383 81.5586C31.3383 81.5586 31.4452 81.4921 31.5244 81.3987C31.6052 81.3061 31.5783 81.3852 31.6052 81.2252C31.6322 81.0653 31.6052 80.9997 31.5647 80.8533C31.5243 80.7068 31.5254 80.7455 31.5118 80.6125C31.4983 80.4796 31.5253 80.3196 31.4848 80.3061C31.4453 80.2927 31.4867 80.2927 31.1784 80.2927C30.8712 80.2927 30.6321 80.2388 30.4597 80.2927C30.2853 80.3466 30.2989 80.4257 30.0994 80.5066C29.8981 80.5856 29.8325 80.653 29.686 80.6799C29.5397 80.707 29.3662 80.6396 29.2854 80.7456C29.2063 80.8535 29.1794 80.9065 29.1794 80.973C29.1794 81.0395 29.2601 81.0665 29.1407 81.1329C29.0194 81.1994 28.952 81.2254 28.952 81.2254C28.952 81.2254 28.2737 81.2794 28.1138 81.3459C27.9537 81.4123 27.8343 81.3853 27.8343 81.3853L27.7131 81.1598C27.7131 81.1598 27.767 81.026 27.6601 81.0655C27.5549 81.1059 27.4067 81.4259 27.3671 81.4529C27.3267 81.4798 26.9664 81.5993 26.8343 81.6397C26.7004 81.6793 26.5279 81.9191 26.1676 81.6927C25.8083 81.4663 25.8218 81.4798 25.7544 81.4393C25.6879 81.3989 25.7014 81.5589 25.5953 81.3064C25.4884 81.053 25.4345 80.9731 25.4614 80.8796C25.4884 80.7862 25.5549 80.7727 25.4884 80.7323C25.4211 80.6936 25.0473 80.6128 25.0473 80.6128C25.0473 80.6128 25.0203 80.3603 24.8217 80.3468C24.6223 80.3334 24.5019 80.2139 24.5019 80.2139C24.5019 80.2139 24.2225 79.9596 23.9817 79.9075C23.7418 79.8536 23.2629 79.7997 23.1156 79.7206C22.97 79.6398 22.6493 79.4673 22.6097 79.4547C22.5693 79.4412 22.156 79.2543 22.156 79.2543L22.183 78.867C22.183 78.867 22.1696 78.6802 22.1021 78.6011C22.0365 78.5203 22.1291 78.4008 21.97 78.3604C21.8092 78.3208 21.8901 78.3604 21.6772 78.2948C21.4624 78.2273 21.3573 78.1869 21.3573 78.1869C21.3573 78.1869 21.3304 78.2004 21.1831 78.1078C21.0374 78.0144 20.8901 77.921 20.8901 77.921C20.8901 77.921 20.6107 77.5742 20.4893 77.5607C20.3707 77.5481 20.1696 77.5742 20.0905 77.4277C20.0114 77.2813 20.0384 77.2012 19.9304 77.0818C19.8236 76.9614 19.7049 76.842 19.7049 76.842C19.7049 76.842 19.5701 76.8689 19.4641 76.6416C19.3581 76.4151 19.3177 76.3217 19.3177 76.3217C19.3177 76.3217 19.3446 76.1357 19.2638 76.1357C19.1838 76.1357 18.9574 76.2023 18.8639 76.0683C18.7705 75.9354 18.8774 75.7889 18.7183 75.7089C18.5575 75.629 18.3986 75.602 18.3446 75.5886C18.2907 75.5751 18.2647 75.5616 18.1309 75.5616C17.9978 75.5616 17.5316 75.549 17.6645 75.6955C17.7984 75.8428 17.9584 75.8024 17.8909 75.8814C17.8245 75.9623 17.7858 75.9354 17.7454 76.0953C17.705 76.2552 17.705 76.4015 17.6645 76.4681C17.625 76.5347 17.439 76.6946 17.439 76.6946L17.2116 76.842C17.2116 76.842 16.9314 77.0019 16.7454 77.0153C16.5594 77.0279 16.2378 77.0279 16.2378 77.0279L15.8657 77.0153C15.8657 77.0153 15.386 77.1214 15.279 77.1078C15.1739 77.0944 14.9987 77.0548 14.9987 77.0548C14.9987 77.0548 14.9205 77.0818 15.0121 77.2948C15.1065 77.5077 15.0931 77.5742 15.0392 77.7206C14.9852 77.8671 14.7193 78.7341 14.6788 78.867C14.6392 79.0001 14.3995 79.7341 14.3995 79.7341C14.3995 79.7341 14.1605 80.6667 14.28 80.8796C14.3995 81.0926 14.5864 81.2399 14.5864 81.2399C14.5864 81.2399 14.6393 81.5993 14.7194 81.7457C14.8004 81.8931 15.1201 82.3189 15.2539 82.425C15.3861 82.5328 15.9612 83.0916 16.1731 83.2111C16.386 83.3325 16.6394 83.4654 16.7859 83.6523C16.9322 83.8391 17.1865 84.0782 17.2269 84.2516C17.2655 84.425 17.3061 84.4385 17.3851 84.5849C17.466 84.7314 17.5468 84.9973 17.5989 85.0647C17.6519 85.1311 17.9718 85.504 18.0517 85.7178C18.1326 85.9308 18.2521 85.9973 18.3446 86.1042C18.4389 86.2102 18.4659 86.4501 18.5585 86.5839C18.651 86.717 18.7858 86.717 18.8118 86.9173C18.8388 87.1167 18.7858 87.3028 18.944 87.3701C19.1056 87.4357 19.2368 87.3162 19.2773 87.3701C19.3177 87.4231 19.3716 87.4097 19.3716 87.5831C19.3716 87.7556 19.3582 87.9173 19.3716 87.9829C19.385 88.0503 19.3985 88.1429 19.3985 88.2354C19.3985 88.3297 19.412 88.4232 19.3446 88.5166C19.2773 88.6091 19.2907 88.5301 19.2251 88.6765C19.1587 88.8229 19.0652 88.9425 19.0652 88.9425C19.0652 88.9425 18.7723 89.0098 18.6375 89.0889C18.5055 89.1699 18.1856 89.3557 18.1856 89.3557C18.1856 89.3557 17.5064 89.8481 17.306 89.982C17.1056 90.1159 17.0787 90.0755 16.8262 90.2218C16.5738 90.3683 16.439 90.6217 16.439 90.6217C16.439 90.6217 16.1066 91.168 15.9862 91.2479C15.8667 91.3279 15.8936 91.2344 15.7733 91.4348C15.6529 91.6343 15.5603 91.8337 15.5603 91.8337C15.5603 91.8337 15.3869 92.3135 15.281 92.4348C15.1741 92.5543 14.9341 92.8607 14.8803 92.9532C14.8272 93.0475 14.6673 93.327 14.5874 93.3944C14.5074 93.46 14.1202 93.7798 14.1202 93.7798C14.1202 93.7798 13.8272 94.0862 13.7733 94.22C13.7212 94.3539 13.7347 94.6199 13.7347 94.7133C13.7347 94.8067 13.7868 95.2461 13.7868 95.2461C13.7868 95.2461 13.8138 95.5795 13.7599 95.699C13.7078 95.8193 13.6809 95.9927 13.6018 96.0457C13.5209 96.0987 13.2819 96.2857 13.1471 96.3125C13.0141 96.3395 12.5344 96.3791 12.5074 96.3125C12.4813 96.2452 12.3627 96.1392 12.3223 96.0323C12.2819 95.9254 12.1355 95.7654 12.016 95.6189C11.8946 95.4725 11.6683 95.2865 11.5488 95.1662C11.4283 95.0467 11.3897 94.7133 11.2684 94.6738C11.148 94.6334 10.9755 94.3934 10.8821 94.4195C10.7886 94.4464 10.6287 94.6064 10.6287 94.6064L10.202 95.459L9.82999 96.0457C9.82999 96.0457 9.76261 96.0466 9.76261 96.2191C9.76261 96.3917 9.81654 96.486 9.78968 96.539C9.76263 96.5921 9.67015 96.858 9.51025 96.8985C9.35017 96.9389 8.93607 97.0718 8.86965 97.1662C8.80313 97.2588 8.65659 97.3127 8.4563 97.4321C8.25601 97.5516 8.14911 97.5786 8.10954 97.6711C8.0709 97.7655 8.12294 97.858 7.96304 98.0314C7.80314 98.2048 7.49679 98.5382 7.49679 98.5382C7.49679 98.5382 7.52375 98.725 7.27038 98.8445C7.017 98.9641 6.69709 99.2048 6.41768 99.0844C6.13836 98.964 6.13736 98.937 6.01803 98.9245C5.89852 98.9119 5.88321 98.9119 5.76545 98.938C5.64419 98.9641 5.69815 98.9641 5.51129 98.9641C5.32444 98.9641 4.84542 98.938 4.84542 98.938C4.84542 98.938 3.87151 99.0836 3.47267 99.3647C3.07283 99.6441 2.92725 99.7242 2.87334 99.8176C2.81943 99.911 2.51306 100.43 2.51306 100.43C2.51306 100.43 2.09981 101.057 2.08628 101.096C2.07285 101.137 1.94084 101.377 1.90036 101.391C1.85988 101.403 1.73962 101.684 1.726 101.83C1.71257 101.977 1.71339 102.123 1.75295 102.364C1.79334 102.603 2.03226 103.31 2.03226 103.509C2.03226 103.709 2.03229 103.722 2.04591 103.909C2.05925 104.095 2.17967 104.122 2.17967 104.442C2.17967 104.762 2.16614 105.028 2.17967 105.296C2.1931 105.561 2.2461 105.654 2.2461 105.841C2.2461 106.028 2.19219 106.041 2.2461 106.188C2.29919 106.334 2.33864 106.215 2.33864 106.667C2.33864 107.12 2.32611 107.361 2.31259 107.508C2.29915 107.654 2.28656 107.854 2.22004 108.161C2.1527 108.467 1.79333 109.173 1.79333 109.173L1.63335 109.373C1.63335 109.373 1.39255 109.946 1.27396 110.052C1.15353 110.16 0.967639 110.412 0.967639 110.412C0.967639 110.412 0.620775 110.453 0.620775 110.506C0.620775 110.559 0.51386 110.933 0.486903 110.998C0.459946 111.065 0.447453 111.185 0.434848 111.239C0.421324 111.293 0.500439 111.372 0.473482 111.426C0.447445 111.478 0.432958 111.412 0.380884 111.586C0.32789 111.759 0.261413 111.466 0.327931 111.906C0.394357 112.345 0.422218 112.412 0.447427 112.491C0.473464 112.572 0.634293 112.732 0.674682 112.811C0.714244 112.891 0.767236 112.784 0.753804 112.958C0.741199 113.131 0.767224 113.225 0.767224 113.225C0.767224 113.225 0.687301 113.384 0.634308 113.425C0.581314 113.464 0.673837 113.691 0.700794 113.824C0.727843 113.958 0.901096 114.118 0.901096 114.118C0.901096 114.118 0.860717 114.371 1.00801 114.45C1.15356 114.531 1.31439 114.544 1.31439 114.544C1.31439 114.544 1.34135 114.744 1.4869 114.77C1.63428 114.797 1.77982 114.744 1.87329 114.81C1.9676 114.878 1.9802 114.89 2.16614 114.89C2.35309 114.89 2.31453 114.97 2.44646 114.97C2.58041 114.97 2.66122 114.877 2.77889 114.97C2.90024 115.063 3.09879 115.024 3.11222 115.198C3.12575 115.371 3.07275 115.691 3.11222 115.81C3.1527 115.93 3.17962 115.943 3.28652 116.011C3.39343 116.076 3.49946 116.263 3.52641 116.331C3.55337 116.396 3.7924 117.117 3.85974 117.25C3.92626 117.383 4.04668 117.689 4.04668 117.689C4.04668 117.689 4.13925 117.822 4.29915 117.862C4.45905 117.903 4.45903 117.956 4.80589 117.995C5.15172 118.036 5.49855 118.049 5.49855 118.049H5.7915L6.03134 118.209C6.03134 118.209 6.00438 118.262 6.19216 118.302C6.37819 118.342 6.29816 118.262 6.3782 118.342C6.45815 118.422 6.59108 118.528 6.59108 118.528L6.88578 118.795L7.2847 119.314C7.2847 119.314 7.68633 120.151 7.93704 120.473C8.18683 120.795 8.65213 121.01 8.6881 121.439C8.72407 121.869 8.76001 121.976 8.90289 122.119C9.04577 122.262 9.15356 122.441 9.15356 122.441C9.15356 122.441 9.51107 122.585 9.43922 122.87C9.36828 123.157 9.26048 123.229 9.29636 123.372C9.33233 123.515 9.54709 123.765 9.54709 123.765L9.55607 124.204L9.60459 124.625L9.75464 124.75C9.75464 124.75 9.80404 124.999 9.75464 125.072C9.70431 125.147 9.77972 125.147 9.65395 125.421C9.53085 125.694 9.406 126.316 9.38172 126.39C9.3566 126.464 9.35662 126.54 9.25689 126.639C9.15798 126.737 9.00887 126.688 9.08348 126.911C9.158 127.135 9.23167 127.259 9.23167 127.383V128.005C9.23167 128.005 9.20658 128.229 9.158 128.378C9.10859 128.528 9.05744 128.676 8.95854 128.726C8.86065 128.776 8.68546 128.752 8.68546 128.752C8.68546 128.752 8.38629 128.701 8.28738 128.726C8.18949 128.752 7.93968 128.651 7.93968 128.8C7.93968 128.949 7.91559 129.372 7.91559 129.521C7.91559 129.671 7.88943 130.193 7.76633 130.441C7.64148 130.689 7.21831 131.484 7.09613 131.659C6.97036 131.831 6.79607 131.957 6.77178 132.031C6.74658 132.105 6.72242 132.405 6.57328 132.503C6.42497 132.602 6.34951 132.826 6.34951 132.826C6.34951 132.826 6.25072 133.596 6.20132 133.82C6.15099 134.043 5.97754 134.467 5.97754 134.467C5.97754 134.467 5.60383 135.884 5.77808 136.579C5.95151 137.274 5.90116 137.349 5.95149 137.498C6.00181 137.648 6.27488 138.12 6.27488 138.12C6.27488 138.12 6.42496 138.616 6.49865 138.915C6.57235 139.213 6.57328 139.362 6.69721 139.685C6.82215 140.008 6.87244 140.182 6.92093 140.356C6.97034 140.53 6.99554 140.53 7.12039 140.704C7.24349 140.878 7.71612 141.499 7.9901 141.549C8.26326 141.599 8.28746 141.649 8.71067 141.574C9.13297 141.499 8.98292 141.325 9.48066 141.475C9.9784 141.623 10.2021 141.723 10.3252 141.921C10.4501 142.121 10.6729 142.395 10.7475 142.419C10.8229 142.444 10.9964 142.493 10.9964 142.493C10.9964 142.493 11.1706 142.419 11.2703 142.369C11.3693 142.32 11.4187 142.294 11.4681 142.22C11.5184 142.145 11.6917 141.897 11.6917 141.897C11.6917 141.897 11.9155 141.475 11.9658 141.299C12.0161 141.127 12.0656 140.903 12.1644 140.778C12.264 140.654 12.3134 140.778 12.4131 140.456C12.512 140.132 12.6117 140.058 12.6117 140.058C12.6117 140.058 12.9342 139.61 13.0826 139.511C13.2325 139.411 13.6045 139.461 13.8543 139.337C14.1023 139.213 14.326 139.113 14.574 138.99C14.8229 138.866 14.8481 138.965 14.9235 138.915C14.9971 138.866 15.1212 138.691 15.1212 138.691C15.1212 138.691 15.2954 138.642 15.5946 138.567C15.8921 138.492 16.3385 138.492 16.3385 138.492C16.3385 138.492 16.4635 138.244 16.5623 138.194C16.662 138.144 16.8112 137.722 16.91 137.622C17.0097 137.523 17.1328 137.374 17.0834 137.125C17.0349 136.877 16.91 136.703 16.91 136.703C16.91 136.703 16.8355 136.131 16.8596 135.784C16.8858 135.436 16.936 134.889 16.936 134.889C16.936 134.889 17.0349 133.919 17.1094 133.596C17.184 133.273 17.3574 132.976 17.3574 132.976C17.3574 132.976 17.4329 132.85 17.5308 132.726C17.6315 132.602 17.8551 132.429 17.8551 132.429L18.6502 132.354L19.1479 132.329L19.4696 132.131C19.4696 132.131 19.7185 131.783 19.9413 131.634C20.165 131.484 20.688 131.236 20.688 131.236L21.2342 131.012C21.2342 131.012 21.2594 130.689 21.4085 130.366C21.5577 130.043 21.6816 129.745 21.6816 129.745C21.6816 129.745 21.6574 129.347 21.7059 129.198C21.7552 129.05 21.5819 128.85 21.856 128.701C22.1291 128.552 22.3033 128.477 22.5028 128.428C22.7005 128.378 22.6771 128.353 22.8748 128.353C23.0725 128.353 23.4705 128.477 23.6458 128.602C23.8201 128.726 23.8937 128.652 24.0177 128.826C24.1417 129 24.2172 129.074 24.2172 129.074C24.2172 129.074 24.2676 129.223 24.2676 129.323C24.2676 129.422 24.3412 129.471 24.316 129.571C24.2917 129.671 24.2423 129.695 24.2172 129.845C24.1911 129.993 24.0924 130.168 24.0924 130.168H23.9674C23.8202 130.168 23.8202 130.018 23.6207 130.168C23.422 130.317 23.2478 130.54 23.3726 130.689C23.4957 130.839 23.6207 130.888 23.6207 130.888C23.6207 130.888 23.6458 130.938 23.794 130.938C23.9432 130.938 23.8695 130.988 23.9432 130.938C24.4894 130.575 24.3412 130.416 24.3412 130.416L24.6135 130.242C24.6135 130.242 24.6889 130.043 24.9127 130.018C25.1363 129.993 25.4346 129.894 25.4346 129.894C25.4346 129.894 26.1057 129.943 26.2297 130.043C26.3538 130.142 26.3044 130.142 26.528 130.266C26.7518 130.391 26.6781 130.441 26.8759 130.466C27.0745 130.49 27.1499 130.441 27.3979 130.49C27.6467 130.54 27.9189 130.664 27.9189 130.664C27.9189 130.664 28.3368 130.719 28.7896 130.91C29.2424 131.1 29.4814 131.172 29.6485 131.41C29.8148 131.65 29.768 131.911 30.0061 131.982C30.2442 132.054 30.2685 132.078 30.5785 132.031C30.8885 131.982 30.7699 132.008 31.008 131.982C31.2462 131.959 31.2693 131.959 31.4131 131.888C31.556 131.816 31.556 131.744 31.6754 131.744C31.7948 131.744 31.6521 131.888 31.9135 131.721C32.1769 131.554 31.9387 131.721 32.2964 131.506C32.6538 131.291 32.7725 131.124 32.8443 131.077C32.9152 131.029 32.9153 131.172 33.0348 130.934C33.1551 130.695 33.0348 130.576 33.2738 130.48C33.5126 130.385 33.608 130.122 33.608 130.122C33.608 130.122 33.6457 129.946 33.7274 129.805C33.8102 129.663 33.9746 129.44 34.1516 129.428C34.3277 129.416 34.4814 129.404 34.4814 129.463C34.4814 129.522 34.4455 129.557 34.5865 129.557C34.7275 129.557 34.9988 129.651 35.1274 129.522C35.2567 129.393 35.3619 129.251 35.3619 129.251C35.3619 129.251 35.6692 129.157 35.7401 129.04C35.8093 128.922 35.9161 128.863 35.8219 128.698C35.7275 128.534 35.7985 128.475 35.5855 128.428C35.3745 128.381 35.528 128.557 35.2333 128.358C34.9396 128.158 34.9522 128.181 34.8695 128.11C34.7869 128.04 34.7626 127.946 34.7626 127.816C34.7626 127.687 34.7744 127.405 34.7744 127.405L34.7519 127.217C34.7519 127.217 34.5506 127.052 34.4689 126.993C34.3871 126.934 34.2461 126.757 34.0223 126.593C33.7995 126.429 33.6809 126.345 33.4689 126.239C33.2578 126.134 32.5866 125.887 32.5291 125.875C32.4698 125.864 32.3881 125.875 32.1868 125.851C31.9872 125.828 32.0107 125.841 31.8346 125.841C31.6576 125.841 31.5049 125.851 31.3746 125.781C31.2462 125.711 30.9523 125.581 30.9523 125.581C30.9523 125.581 30.5991 125.382 30.4347 125.275C30.2704 125.169 30.0349 125.076 30.0349 124.993C30.0349 124.911 29.9873 124.841 29.9055 124.688C29.8229 124.534 29.6927 124.452 29.6927 124.452C29.6927 124.452 29.5758 124.429 29.5632 124.31C29.5525 124.193 29.4689 123.852 29.4114 123.711C29.353 123.57 29.2119 123.441 29.2119 123.441C29.2119 123.441 28.9416 122.782 28.6818 122.546C28.4231 122.311 28.1769 122.193 27.9999 122.1C27.8229 122.005 27.53 121.91 27.4115 121.817C27.2929 121.723 26.7879 121.441 26.7178 121.346C26.6468 121.252 26.5174 120.852 26.459 120.688C26.3998 120.523 26.3297 120.477 26.318 120.417C26.3054 120.359 26.2937 120.23 26.2712 120.146C26.247 120.065 26.2246 119.924 26.2119 119.841C26.1993 119.759 26.1885 119.711 26.1885 119.711C26.1885 119.711 26.034 119.724 25.8462 119.654C25.6584 119.582 25.6944 119.583 25.5893 119.511C25.4814 119.441 25.459 119.511 25.3879 119.311C25.3188 119.112 25.2702 118.488 24.9647 118.335C24.6583 118.183 24.5532 118.17 24.494 118.1C24.4346 118.029 24.3412 117.912 24.3412 117.912L24.0465 117.7C24.0465 117.7 24.0349 117.642 23.9181 117.7C23.7995 117.759 23.4356 118.006 23.3646 118.041C23.2946 118.077 23.0458 118.077 22.858 118.064C22.6703 118.054 22.5767 118.041 22.4356 118.1C22.2946 118.16 22.2838 118.265 22.0349 118.312C21.7896 118.358 21.2945 118.605 21.2945 118.605C21.2945 118.605 20.8004 118.688 20.7538 118.688H20.1895C20.1895 118.688 19.9532 118.746 19.7762 118.618C19.6001 118.489 18.9532 118.029 18.9532 118.029C18.9532 118.029 18.9658 117.864 18.5058 117.547C18.0475 117.229 17.8355 116.959 17.7771 116.912C17.7187 116.865 17.1069 116.265 16.6837 115.983C16.2596 115.701 15.4492 115.194 15.2255 115.03C15.1428 114.969 15.1491 114.946 15.1769 114.938C15.168 114.937 15.1652 114.937 15.1535 114.936C14.8714 114.9 14.4591 114.782 14.212 114.605C13.9658 114.43 13.7421 114.407 13.4141 114.171C13.0835 113.936 13.0601 113.595 13.0359 113.455C13.0134 113.312 12.9541 111.865 12.9667 111.666C12.9775 111.466 12.9307 111.466 12.9892 111.183C13.0485 110.901 13.2956 109.631 13.4141 109.301C13.5301 108.971 13.778 108.254 13.8256 108.042C13.8724 107.83 14.5076 106.479 14.637 106.289C14.7655 106.101 15.6118 104.972 15.7061 104.843C15.8014 104.713 16.9649 103.255 17.2119 103.078C17.459 102.901 17.8014 102.455 17.9541 102.408C18.1059 102.361 18.212 102.349 18.4006 102.408C18.5893 102.466 18.7546 102.455 18.7888 102.466C18.8238 102.479 18.8364 102.538 18.9531 102.466C19.0709 102.396 18.9172 102.302 19.2819 102.385C19.6467 102.466 19.8839 102.643 20.025 102.737C20.1651 102.831 20.2235 102.832 20.2954 102.914C20.3646 102.996 20.5416 103.148 20.5416 103.148C20.5416 103.148 20.5991 103.197 20.7761 103.078C20.9531 102.96 21.9522 102.432 22.201 102.408C22.4463 102.385 23.0815 102.385 23.0815 102.385C23.0815 102.385 23.6826 102.314 23.9998 102.572C24.3179 102.831 24.3987 103.066 24.6116 103.267C24.8237 103.466 25.2235 103.855 25.2235 103.855C25.2235 103.855 25.4453 104.137 25.4705 104.313C25.493 104.489 25.493 104.596 25.493 104.596C25.493 104.596 25.5524 104.748 25.5757 104.796C25.5991 104.843 25.6332 104.913 25.6457 104.96C25.6584 105.007 25.7042 105.09 25.7401 105.183C25.776 105.277 25.6943 105.277 25.8461 105.337C25.9979 105.395 26.1283 105.395 26.1283 105.395L26.3277 105.571C26.3277 105.571 26.5991 105.713 26.6108 105.761C26.6224 105.808 26.4922 105.666 26.6458 105.854C26.7985 106.042 26.8802 106.065 26.9288 106.172C26.9755 106.277 27.0222 106.407 27.1049 106.419C27.1866 106.43 26.9998 106.383 27.2693 106.443C27.5389 106.501 27.5991 106.513 27.5991 106.513L27.8811 106.643C27.8811 106.643 28.2342 107.171 28.2693 107.254C28.3043 107.336 28.3519 107.502 28.5164 107.713C28.6808 107.924 28.7761 107.984 28.8102 108.171C28.8453 108.359 28.8345 109.066 28.8345 109.066L28.9395 109.407L28.9638 109.583C28.9638 109.583 28.8345 109.535 29.0106 109.63L29.1875 109.725L29.2217 109.842L29.2694 109.866C29.2694 109.866 29.6225 109.913 29.6817 109.936C29.74 109.959 29.9045 110.09 29.9045 110.09L29.8695 110.371C29.8695 110.371 29.7644 110.535 29.7167 110.618C29.6682 110.701 29.6574 110.677 29.6682 110.818C29.6816 110.959 29.7401 110.948 29.7401 111.077C29.7401 111.206 29.6215 111.266 29.8228 111.359C30.0213 111.453 30.3753 111.594 30.4328 111.665C30.4921 111.736 30.5631 111.818 30.5631 111.818L31.0105 112.042C31.0105 112.042 31.2226 112.218 31.2576 112.006C31.2918 111.795 31.3035 111.547 31.3978 111.489C31.493 111.43 31.6098 111.312 31.6098 111.312L32.5865 110.077C32.5865 110.077 32.9979 109.478 33.0563 109.442C33.1156 109.407 33.882 108.607 34.1039 108.337C34.3267 108.066 34.9979 107.478 35.1273 107.418C35.2566 107.359 35.4202 107.112 35.5855 107.055C35.7517 106.995 35.8209 106.984 35.8676 106.937C35.9161 106.89 36.7149 106.443 36.9502 106.196C37.1857 105.949 37.6097 105.466 37.7508 105.407C37.8919 105.349 40.3384 103.843 40.4678 103.714C40.5981 103.585 41.7966 102.76 41.9376 102.62C42.0796 102.479 44.8909 101.479 45.2548 101.385C45.6196 101.291 46.1138 101.114 46.1138 101.114C46.1138 101.114 46.3034 100.997 46.3725 100.985C46.4435 100.974 46.8307 100.961 46.8307 100.961C46.8307 100.961 47.2791 100.985 47.6438 100.974C48.0086 100.961 48.8325 101.02 48.8325 101.02C48.8325 101.02 49.1847 101.161 49.5369 101.219C49.89 101.278 50.1137 101.291 50.1496 101.314C50.1847 101.338 50.2197 101.314 50.3958 101.432C50.5719 101.55 50.7606 101.749 51.1244 101.761C51.4892 101.772 51.6663 101.772 51.6663 101.772C51.6663 101.772 51.7372 101.726 51.9367 101.843C52.138 101.961 52.2664 102.008 52.5027 102.125C52.7372 102.243 53.2781 102.515 53.2781 102.515C53.2781 102.515 53.5602 102.595 53.6788 102.713C53.7947 102.832 54.0768 103.255 54.1595 103.348C54.2422 103.443 54.5378 103.631 54.5378 103.631C54.5378 103.631 54.7722 103.796 54.8773 103.878C54.9833 103.96 55.4901 104.572 55.4901 104.572C55.4901 104.572 55.9017 104.925 56.0661 105.066C56.2305 105.208 56.2898 105.301 56.4308 105.431C56.5719 105.56 56.8656 105.82 56.8656 105.82L57.0804 105.897C57.0804 105.897 57.5206 106.028 57.7004 106.124C57.8791 106.219 58.1182 106.351 58.1182 106.351C58.1182 106.351 58.4029 106.433 58.8917 106.422C59.3814 106.41 60.323 106.589 60.4668 106.708C60.6096 106.827 60.9447 107.054 61.0166 107.125C61.0885 107.197 61.482 107.65 61.482 107.65C61.482 107.65 61.7902 107.984 61.8621 108.104C61.9339 108.222 62.1972 108.522 62.376 108.7C62.5557 108.879 62.8279 109.213 63.0067 109.428C63.1863 109.643 63.3895 109.857 63.6041 109.976C63.8189 110.096 63.8908 110.215 64.1055 110.358C64.3203 110.502 64.3203 110.609 64.5592 110.681C64.7964 110.752 65.0354 110.835 65.2394 111.002C65.4406 111.169 65.5835 111.336 65.7865 111.491C65.9905 111.646 66.3472 111.86 66.5853 111.908C66.8242 111.956 66.9914 111.896 67.1935 112.087C67.3975 112.278 67.5872 112.552 67.6123 112.588C67.6365 112.624 68.1243 113.113 68.3633 113.232C68.6023 113.352 68.9357 113.411 68.9357 113.411L69.8772 113.853C69.8772 113.853 70.5107 114.019 70.7964 114.175C71.083 114.33 71.4406 114.568 71.8099 114.795C72.1809 115.021 72.2277 115.225 72.4541 115.404C72.6823 115.582 72.7533 115.714 73.1225 115.809C73.4918 115.905 73.3498 116.107 73.9222 116.155C74.4945 116.202 74.817 116.166 75.1872 116.477C75.5556 116.787 75.711 117.145 76.2599 117.347C76.808 117.551 77.1189 117.442 77.5843 117.598C78.0497 117.753 78.0246 117.789 78.3471 117.812C78.6688 117.837 78.9436 117.896 78.9436 117.896C78.9436 117.896 79.5762 118.063 79.7666 118.134C79.9572 118.206 79.9806 118.111 80.2788 118.385C80.578 118.66 80.9464 119.006 81.0775 119.113C81.2096 119.22 81.1611 119.281 81.233 119.399C81.3049 119.519 81.4127 119.601 81.5672 119.626C81.7217 119.65 82.3309 119.935 82.5339 120.103C82.7361 120.271 83.2015 120.58 83.4037 120.7C83.6067 120.818 84.0721 120.961 84.3228 121.247C84.5734 121.534 85.0973 122.142 85.0973 122.142C85.0973 122.142 85.277 122.393 85.277 122.536V122.918C85.277 122.918 85.3965 122.965 85.5501 123.073C85.7055 123.18 85.7308 123.325 85.826 123.442C85.9203 123.563 86.0281 123.634 86.2662 123.788C86.5052 123.944 86.5771 123.968 86.6723 124.051C86.7675 124.135 87.1727 124.671 87.1727 124.671C87.1727 124.671 87.3282 124.874 87.268 124.539C87.2087 124.207 87.2572 123.467 87.3524 123.121C87.4468 122.775 87.8187 121.702 88.0083 121.606C88.1988 121.511 88.3416 121.451 88.3775 121.368C88.4135 121.283 88.4737 121.022 88.4737 121.022C88.4737 121.022 88.6884 120.784 88.8187 120.652C88.9499 120.52 88.9858 120.389 88.9858 120.389C88.9858 120.389 88.9741 119.96 88.9499 119.805C88.9266 119.65 88.9624 119.161 89.0577 118.886C89.1539 118.612 89.2482 118.457 89.2482 118.457C89.2482 118.457 89.2015 118.361 89.1889 118.159C89.1772 117.955 89.1413 117.3 89.2841 117.05C89.4269 116.799 89.4396 116.692 89.4863 116.501C89.5348 116.31 89.595 116.035 89.5824 115.846C89.5708 115.654 89.4997 115.642 89.4395 115.487C89.3794 115.332 89.3093 115.307 89.2608 115.153C89.2131 114.997 89.2131 114.783 89.1647 114.604C89.1179 114.425 89.0334 114.115 89.0334 114.115C89.0334 114.115 88.9741 113.745 89.0353 113.53C89.0945 113.316 89.1889 113.042 89.2014 112.839C89.214 112.636 89.2004 112.624 89.2248 112.422C89.2499 112.219 89.4288 111.587 89.6435 111.086C89.8583 110.585 89.7855 110.668 89.905 110.513C90.0244 110.358 90.073 110.251 90.073 110.179C90.073 110.108 90.3811 109.451 90.4665 109.237C90.5492 109.022 91.241 107.674 91.3488 107.435C91.4557 107.197 92.267 105.813 92.3982 105.635C92.5294 105.456 92.9713 104.859 93.0064 104.812C93.0423 104.764 93.4835 104.071 93.4835 104.071C93.4835 104.071 95.6776 101.149 96.1313 100.684C96.5851 100.22 97.0863 99.4927 97.2292 99.3489C97.3721 99.2061 98.9345 97.7273 98.9345 97.7273C98.9345 97.7273 99.9714 96.7129 100.174 96.5584C100.378 96.403 100.521 96.2835 100.521 96.2835C100.521 96.2835 101.344 95.3653 101.571 95.1263C101.797 94.8872 103.538 93.2898 103.837 93.0032C104.136 92.7174 106.748 90.8316 106.748 90.8316C106.748 90.8316 107.213 90.4632 107.343 90.3787C107.474 90.2952 107.761 90.1282 108.023 90.0931C108.287 90.0572 108.489 90.0337 108.668 89.926C108.847 89.8191 109.346 89.4372 109.503 89.3411C109.657 89.2459 109.933 89.139 109.933 89.139C109.933 89.139 111.137 88.8766 111.351 88.7454C111.566 88.6134 112.998 88.2674 113.368 88.2441C113.737 88.2207 113.869 88.1839 113.965 88.2324C114.059 88.28 114.084 88.3879 114.18 88.4229C114.273 88.4588 114.358 88.4714 114.452 88.4714C114.548 88.4714 114.811 88.4822 114.953 88.554C115.096 88.626 115.168 88.6376 115.371 88.7813C115.575 88.9242 115.563 89.0078 115.503 89.103C115.443 89.1982 115.252 89.3537 115.454 89.3896C115.658 89.4256 115.883 89.4849 115.883 89.4849C115.883 89.4849 115.86 89.4965 116.134 89.6637C116.409 89.8307 116.517 89.9746 116.946 90.0698C117.376 90.1641 117.315 90.2 117.529 90.2235C117.744 90.2486 118.103 90.3555 118.258 90.3788C118.413 90.4023 118.413 90.4634 118.652 90.3672C118.89 90.272 118.986 90.2001 119.129 90.1525C119.272 90.1049 119.737 90.0699 119.904 90.1283C120.07 90.1875 120.07 90.1408 120.393 90.1408C120.714 90.1408 120.678 90.1768 120.929 90.1768C121.18 90.1768 121.19 90.1534 121.527 90.1408C121.86 90.1283 122.206 90.1875 122.229 90.2361C122.253 90.2837 122.432 90.3313 122.599 90.308C122.766 90.2837 122.886 90.3555 123.04 90.4023C123.196 90.4508 123.482 90.4741 123.876 90.5101C124.27 90.5461 124.651 90.6296 124.77 90.617C124.89 90.6062 125.414 90.617 125.414 90.617C125.414 90.617 125.95 90.6781 125.677 90.4508C125.402 90.2235 124.876 89.962 124.819 89.7833C124.758 89.6044 124.64 89.5452 124.568 89.4607C124.496 89.3772 124.306 89.3412 124.293 89.1265C124.281 88.9117 124.4 88.3269 124.4 88.3269C124.4 88.3269 124.793 87.7078 124.914 87.5649C125.033 87.4212 125.14 87.325 125.14 87.325L125.438 86.8722C125.438 86.8722 125.677 86.5739 126.058 86.5021C126.439 86.4311 126.561 86.431 126.715 86.431C126.869 86.431 126.93 86.5146 127.073 86.5146C127.216 86.5146 127.298 86.5021 127.298 86.5021L127.681 86.0492C127.681 86.0492 128.206 85.9899 128.42 85.9899C128.635 85.9899 128.791 85.9297 129.076 86.0726C129.363 86.2163 129.434 86.4661 129.565 86.5865C129.696 86.706 129.911 86.8362 129.744 86.9441C129.578 87.051 129.506 87.1354 129.506 87.1354C129.506 87.1354 129.588 87.361 129.458 87.3735C129.327 87.3852 129.231 87.3852 129.231 87.3852C129.231 87.3852 129.088 87.6359 128.921 87.7078C128.755 87.7796 128.468 88.0052 128.348 87.7905C128.229 87.5758 128.289 87.5164 128.098 87.4688C127.907 87.4211 127.907 87.493 127.776 87.361C127.645 87.2298 127.561 87.0636 127.561 87.0636C127.561 87.0636 127.394 86.8255 127.37 86.9917C127.347 87.1588 127.168 87.1714 127.132 87.2541C127.096 87.3377 127.049 87.4698 127.144 87.6718C127.239 87.874 127.262 87.7671 127.406 87.8983C127.549 88.0295 127.406 88.1967 127.585 88.327C127.764 88.459 128.003 88.4347 128.039 88.5542C128.074 88.6737 128.062 88.8884 128.313 88.8884C128.563 88.8884 128.719 88.6863 128.862 88.7815C129.004 88.8768 129.004 88.9244 129.255 88.8884C129.506 88.8526 129.614 88.6737 129.78 88.7456C129.946 88.8175 129.876 88.9352 130.222 88.9478C130.567 88.9602 130.83 88.9352 130.937 88.8049C131.045 88.6737 131.2 88.6494 131.295 88.6494C131.39 88.6494 131.891 88.3988 131.915 88.1841C131.939 87.9693 131.855 87.9586 131.843 87.8265C131.832 87.6953 131.903 87.7186 131.915 87.5883C131.927 87.4572 131.796 87.397 132.011 87.397C132.225 87.397 132.368 87.4213 132.535 87.2425C132.702 87.0637 132.798 86.9801 132.88 86.9316C132.965 86.8849 133.145 86.9675 133.263 86.7528C133.382 86.538 133.395 86.4554 133.406 86.3233C133.418 86.193 133.608 85.858 133.608 85.858C133.608 85.858 133.585 85.6917 133.907 85.7151C134.229 85.7394 134.073 85.7511 134.324 85.8229C134.575 85.8938 134.598 85.9064 134.705 85.8938C134.813 85.883 134.92 85.7985 134.92 85.7985C134.92 85.7985 135.124 85.7159 135.1 85.6683C135.075 85.6198 134.992 85.6198 134.992 85.6198C134.992 85.6198 134.873 85.679 134.741 85.679C134.611 85.679 134.563 85.679 134.444 85.6431C134.324 85.6081 134.229 85.5362 134.229 85.5362L134.097 85.2137C134.097 85.2137 133.948 85.1903 133.966 84.9045C133.983 84.6179 134.037 84.2424 134.144 84.0995C134.251 83.9558 134.502 83.8129 134.681 83.6881C134.86 83.5623 134.877 83.4733 135.2 83.4014C135.522 83.3295 135.629 83.3116 135.843 83.5084C136.058 83.706 136.363 83.9379 136.989 83.3835C137.615 82.8291 137.329 82.7932 137.919 82.6683C138.51 82.5425 138.563 82.4886 138.832 82.4886C139.1 82.4886 139.046 82.6144 139.189 82.5964C139.333 82.5784 139.297 82.4706 139.44 82.3816C139.583 82.2918 140.603 82.131 141.14 82.0062C141.676 81.8804 142.41 81.9163 142.732 81.9163C143.054 81.9163 143.466 81.8983 143.573 82.0241C143.681 82.149 143.734 82.3458 143.77 82.3998C143.806 82.4537 143.877 82.5246 143.824 82.5605C143.77 82.5964 143.43 82.5964 143.555 82.7753C143.681 82.9541 143.966 82.8821 144.092 82.7753C144.217 82.6684 144.414 82.6504 144.271 82.4887C144.127 82.3279 143.948 82.274 143.948 82.185C143.948 82.0951 143.681 81.9882 143.948 81.9523C144.217 81.9164 144.074 82.0592 144.307 81.9523C144.539 81.8453 144.593 81.7376 144.593 81.6127C144.593 81.4869 144.307 81.5767 144.468 81.362C144.629 81.1473 144.897 81.2722 144.986 81.1114C145.076 80.9505 145.094 80.8606 145.076 80.7359C145.058 80.6101 145.04 80.4852 145.04 80.4852C145.04 80.4852 145.219 80.0018 145.237 79.7341C145.255 79.4654 145.255 79.3585 145.345 79.1788C145.434 79.0001 145.345 78.8033 145.434 78.7494C145.523 78.6964 145.702 78.5526 145.756 78.6424C145.809 78.7323 145.899 78.9111 146.042 78.6964C146.185 78.4816 146.292 78.3029 146.399 78.1411C146.507 77.9803 146.435 77.7835 146.614 77.6406C146.794 77.4978 147.312 77.39 147.617 77.4619C147.921 77.5328 147.921 77.6766 148.063 77.6227C148.207 77.5688 148.153 77.372 148.35 77.2831C148.547 77.1932 148.833 77.0863 148.833 77.0863C148.833 77.0863 148.824 76.9515 148.931 76.9246C149.039 76.8976 149.128 76.7907 149.254 76.8626C149.379 76.9336 149.325 77.0773 149.451 77.0234C149.575 76.9695 149.522 76.8626 149.674 76.8356C149.826 76.8086 150.166 76.7907 150.336 76.6659C150.506 76.54 150.649 76.3792 150.703 76.3253C150.756 76.2713 150.891 76.1105 150.891 76.1105C150.891 76.1105 150.953 76.0565 151.097 75.9947C151.239 75.9318 151.293 75.9497 151.4 75.8779C151.508 75.8069 151.535 75.8599 151.481 75.744C151.427 75.6281 151.32 75.4844 151.427 75.4133C151.535 75.3415 151.785 75.2164 151.687 75.2074Z" fill="#DBFF00" stroke="white" stroke-width="0.6"/>
</svg>
