<svg width="83" height="85" viewBox="0 0 83 85" fill="none" xmlns="http://www.w3.org/2000/svg">
<path d="M82.1987 46.8898C82.0639 46.702 81.93 46.1396 81.93 46.1396C81.93 46.1396 81.2049 45.7371 81.1789 45.6562C81.152 45.5763 81.0172 45.1738 81.0172 45.1738L81.2319 44.9051L81.3928 44.0201L80.8564 43.7794L80.6955 43.4047C80.6955 43.4047 80.8573 43.3778 80.8833 43.2969C80.9103 43.217 80.7773 42.5727 80.8564 42.5188C80.9372 42.4649 81.4467 42.1163 81.4467 42.1163C81.4467 42.1163 81.5815 41.7955 81.6075 41.6877C81.6246 41.6185 81.6866 41.3139 81.7288 41.1073C81.5158 41.0849 81.2436 41.058 81.0074 41.0391C80.5419 41.0031 80.1484 41.0749 79.9337 40.8962C79.719 40.7174 79.6479 40.8243 79.6479 40.5386C79.6479 40.252 79.7549 40.1451 79.612 39.9303L79.4691 39.7156L79.0747 39.6078C79.0747 39.6078 78.7891 39.2861 78.6812 39.0354C78.5743 38.7848 78.5384 38.8207 78.4665 38.499C78.3955 38.1765 78.3596 37.6761 78.3596 37.6761C78.3596 37.6761 78.5024 37.1028 78.7531 36.7093C79.0038 36.3158 79.0747 36.0292 79.0747 36.0292L79.1826 35.5287C79.1826 35.5287 79.3254 35.314 79.2894 35.1352C79.2544 34.9563 79.0747 34.1334 79.0747 34.1334L78.8249 33.3455C78.8249 33.3455 79.0398 33.1666 78.8249 33.1666C78.6101 33.1666 78.002 32.9879 78.002 32.9879C78.002 32.9879 77.3578 33.0957 77.179 33.0957C77.0631 33.0957 76.9643 33.0229 76.8321 33.0364C76.8744 32.9591 76.9211 32.8576 76.9643 32.7021C77.0712 32.3078 76.9643 32.1649 77.1431 31.9502C77.3218 31.7354 77.5365 31.4497 77.9301 31.1991C78.3236 30.9484 78.6102 30.9843 78.86 30.9124C79.1107 30.8415 79.7189 30.7336 79.7189 30.5189C79.7189 30.3042 80.1844 29.8747 80.6497 29.6959C81.1152 29.5171 81.4008 29.553 81.5446 29.3023C81.6874 29.0517 81.7944 28.7301 81.8303 28.5863C81.8663 28.4434 81.9381 28.3365 82.0092 28.0859C82.081 27.8352 82.081 27.4057 82.081 27.4057L82.2598 26.9402C82.2598 26.9402 82.224 26.0464 82.081 25.7597C81.9381 25.474 82.0092 25.0087 82.0092 25.0087C82.0092 25.0087 82.1268 24.9 82.2634 24.7867C82.1691 24.732 81.895 24.5712 81.8007 24.5397C81.6866 24.502 81.3416 24.3483 81.3416 24.3483C81.3416 24.3483 81.036 24.1955 80.7692 24.0814C80.5024 23.9674 80.0055 23.5846 80.0055 23.5846C80.0055 23.5846 79.2796 22.8209 79.09 22.5164C78.8986 22.2109 78.7073 22.1714 78.7073 22.1714L78.6309 21.8677C78.5536 21.5613 78.5932 21.6368 78.4404 21.485C78.2868 21.3331 78.249 21.3321 78.0963 21.0267C77.9436 20.7212 78.1727 19.9952 78.1727 19.8811C78.1727 19.7661 77.8663 19.6511 77.8663 19.6511L77.6004 19.4607L77.524 19.1381C77.3992 19.1723 77.2707 19.2038 77.197 19.2118C77.0173 19.2298 77.0532 19.2477 76.8384 19.1938C76.6237 19.1399 76.6417 19.2477 76.4988 19.3187C76.3559 19.3906 76.2661 19.3906 76.0693 19.3727C75.8725 19.3545 75.8187 19.1938 75.6578 19.104C75.497 19.015 75.533 19.015 75.3712 18.8533C75.2104 18.6925 74.727 18.7824 74.727 18.7824C74.727 18.7824 74.4414 18.7823 74.2804 18.7284C74.1187 18.6745 73.904 18.4957 73.8329 18.4068C73.7611 18.3169 73.6892 18.1561 73.6892 17.9953C73.6892 17.8335 73.4215 17.7087 73.4215 17.7087H72.8132C72.4547 17.7087 72.294 17.5658 72.1511 17.4939C72.107 17.4723 72.0477 17.4634 71.9867 17.4606C71.8483 17.4525 71.6893 17.4758 71.6137 17.4758C71.5069 17.4758 71.3999 17.7625 71.2742 17.8164C71.1492 17.8694 71.0774 17.9413 71.0415 17.9952C71.0056 18.0482 70.9706 18.2099 70.8447 18.4067C70.7198 18.6034 70.4152 18.5136 70.4152 18.5136C70.4152 18.5136 70.1475 18.5136 69.6641 18.5316C69.1807 18.5495 69.1448 18.3348 69.0559 18.2278C68.966 18.12 69.1097 17.7804 69.1097 17.6017C69.1097 17.4219 68.9839 17.2791 68.8591 17.1901C68.7333 17.1003 68.3038 17.1362 68.3038 17.1362C68.3038 17.1362 67.8213 17.1542 67.6606 17.1722C67.4989 17.1901 67.0694 17.1722 66.7657 17.0823C66.4611 16.9924 66.533 17.1003 66.533 17.1003C66.533 17.1003 66.3002 17.5297 66.1934 17.6906C66.0856 17.8513 65.9786 17.7984 65.6202 17.7265C65.2626 17.6547 65.1198 17.4219 65.084 17.2432C65.048 17.0644 65.1019 16.7607 65.1197 16.7068C65.1378 16.6529 65.2087 16.4741 65.1018 16.2952C64.9939 16.1165 64.7622 16.0446 64.5115 15.9197C64.2608 15.7939 64.136 15.8478 63.9563 15.8298C63.7774 15.8118 63.6885 15.6691 63.4738 15.5611C63.259 15.4543 63.0981 15.7229 63.0981 15.7229C63.0981 15.7229 62.7217 16.4201 62.5967 16.6528C62.4719 16.8854 61.7081 18.0364 61.7081 18.0364L61.3722 18.4758C61.3722 18.4758 61.197 18.7741 60.9319 18.8459C60.6678 18.9151 60.6507 18.7228 60.5267 18.6169C60.4037 18.51 60.2814 18.2996 60.0874 18.2466C59.8942 18.1946 59.7352 18.4758 59.6992 18.757C59.665 19.0391 59.5069 19.1802 59.3488 19.4443C59.1898 19.7075 59.0308 19.9376 59.0308 20.0597C59.0308 20.1828 58.9769 20.3419 58.8897 20.571C58.8016 20.8001 58.6264 20.8702 58.6426 21.1334C58.6597 21.3975 58.9948 21.5566 59.0659 21.6096C59.1358 21.6635 59.418 21.8378 59.6111 21.9789C59.8043 22.12 59.5411 22.332 59.4 22.402C59.2589 22.473 59.0127 23.0193 58.7486 23.1595C58.4854 23.3005 58.4137 23.4594 58.4315 23.5286C58.4494 23.6005 58.6606 23.9698 58.6606 24.0399C58.6606 24.1099 58.7307 24.41 58.8897 24.7793C59.0478 25.1503 59.1359 25.1495 59.3129 25.5717C59.3677 25.7048 59.3775 25.7874 59.3658 25.8494C59.3417 25.9815 59.2033 25.9968 59.1179 26.1171C58.9948 26.2932 58.9409 26.2932 58.8359 26.3993C58.7307 26.5053 58.7486 26.7515 58.7307 26.8386C58.7136 26.9267 58.6426 27.2267 58.4674 27.4199C58.2904 27.6148 58.0622 27.5267 58.0622 27.5267C58.0622 27.5267 57.8322 27.7021 57.6741 27.879C57.5169 28.0541 57.6355 28.3632 57.6355 28.3632L57.8052 28.7442L57.763 28.9993C57.763 28.9993 57.6355 29.2104 57.5501 29.3794C57.4656 29.5492 57.5501 29.719 57.5501 29.8457C57.5501 29.9723 57.7199 30.0145 57.8474 30.2266C57.975 30.4396 57.9329 30.6067 57.9329 30.9894C57.9329 31.3695 57.5088 31.2006 57.3399 31.2437C57.17 31.2859 56.958 31.5394 56.958 31.5394C56.958 31.5394 56.958 31.9625 57.1278 32.2177C57.2977 32.4718 57.4243 32.3451 57.4243 32.5986C57.4243 32.8529 57.5923 32.6823 57.5923 32.6823L57.7199 32.9374V33.1072C57.7199 33.2761 57.6777 33.2761 57.6355 33.4881C57.5923 33.6992 57.5088 33.7002 57.0002 33.9545C56.4926 34.2078 57.0002 33.9545 56.7038 34.1225C56.4072 34.2931 56.5348 34.3776 56.2796 34.8008C56.0272 35.2258 56.0263 34.8008 55.56 34.8008C55.0946 34.8008 55.2643 35.0551 55.1799 35.224C55.0945 35.3928 54.8826 35.436 54.7136 35.6481C54.5447 35.8583 54.587 35.9859 54.2473 35.9859C53.9095 35.9859 53.9517 35.9859 53.6121 36.2833C53.2742 36.5807 53.0191 36.7055 53.0191 36.7055C53.0191 36.7055 52.8493 36.7487 52.4262 36.8744C52.0039 37.0011 52.1719 37.0865 52.0874 37.214C52.0039 37.3408 51.834 37.5528 51.41 37.595C50.9859 37.6372 51.0713 37.7217 51.0713 37.7217C51.0713 37.7217 50.9436 38.1035 50.8592 38.4414C50.7739 38.781 50.5636 38.569 50.0551 38.6112C49.7119 38.6408 49.622 38.8016 49.5977 38.9059L49.4199 38.8663L48.9105 39.0766C48.9105 39.0766 48.064 39.4162 48.0218 39.1619L47.9796 38.9077C47.9796 38.9077 47.4702 38.9077 47.3012 38.781C47.1333 38.6544 47.048 38.2724 46.7514 38.2724C46.4549 38.2724 45.8629 38.3147 45.8629 38.3147L45.5224 38.3991C45.5224 38.3991 45.3948 38.3569 45.3111 38.569C45.2275 38.781 45.3111 39.0352 45.0146 39.0352C44.7181 39.0352 44.507 38.9499 44.3372 38.993C44.1674 39.0352 44.295 39.2886 43.7442 39.2464C43.1944 39.2042 43.321 38.7388 43.321 38.7388C43.321 38.7388 43.321 38.4 43.1521 38.3147C42.9822 38.2302 42.516 38.0612 42.5582 37.8062C42.6005 37.5528 42.516 37.5096 42.6005 37.3839C42.6858 37.2563 42.6857 36.9176 42.6857 36.9176L42.6544 36.7998C42.7316 36.8043 42.7999 36.7998 42.8403 36.7765C42.9796 36.6929 42.9796 36.4125 42.9239 36.3012C42.8682 36.1889 42.9796 35.9372 43.259 35.7126C43.5384 35.4889 43.7352 35.2374 43.8187 35.1538C43.9032 35.0703 43.9589 34.9031 43.9589 34.7342C43.9589 34.5653 43.8188 34.0074 43.6508 33.7001C43.4828 33.391 43.3417 33.2518 43.6508 33.3074C43.9589 33.3632 44.1538 33.4755 44.3776 33.3353C44.6013 33.1961 44.7981 33.1969 44.6858 32.9166C44.5744 32.6355 44.489 32.665 44.4333 32.4674C44.3777 32.2733 44.3507 32.0497 44.2392 31.9643C44.1269 31.8816 43.9589 31.7971 43.9589 31.7971C43.9589 31.7971 43.8474 31.5734 43.9301 31.4611C44.0155 31.3497 44.462 31.0137 44.462 31.0137C44.462 31.0137 44.6301 30.985 44.6301 30.8465C44.6301 30.7055 44.6014 30.4818 44.5744 30.3434C44.5456 30.2023 44.5456 29.9229 44.5456 29.9229C44.5456 29.9229 44.657 29.8384 44.6301 29.7269C44.6013 29.6148 44.5186 29.4197 44.4064 29.3632C44.295 29.3075 44.0982 29.2239 43.9859 29.1682C43.8744 29.1116 43.5384 28.9723 43.3992 28.6929C43.259 28.4135 43.1476 28.1323 43.0918 27.9931C43.0352 27.8529 42.5034 27.4612 42.4477 27.3776C42.3911 27.2941 41.9733 26.9015 41.9733 26.9015C41.9733 26.9015 41.7029 26.729 41.7999 26.5654C41.8968 26.4046 41.9787 26.3723 42.011 26.2753C42.0434 26.1765 42.0919 25.9015 42.0919 25.9015C42.0919 25.9015 42.3354 25.658 42.3848 25.5762C42.4342 25.4945 42.4657 25.4793 42.4342 25.3157C42.4001 25.1549 42.3848 25.0076 42.3848 25.0076C42.3848 25.0076 42.0605 24.862 41.914 24.7317C41.7676 24.6023 41.3453 24.3588 41.3453 24.3094C41.3453 24.2608 41.1674 23.8862 41.135 23.7416C41.1018 23.596 41.0694 23.4487 41.0542 23.3355C41.0371 23.2223 41.0048 23.189 40.8413 23.0264C40.6805 22.8647 40.6149 22.8161 40.5979 22.6697C40.5826 22.5233 40.5664 22.3122 40.4523 22.1981C40.3382 22.0848 40.3705 22.1827 40.1593 22.0848C39.9491 21.9877 39.9338 22.0372 39.8521 21.9231C39.7703 21.809 39.6733 21.7596 39.6733 21.7596C39.6733 21.7596 39.1037 21.8414 38.959 21.6949C38.8135 21.5494 38.7793 21.0625 38.7793 21.0625C38.7793 21.0625 38.6823 20.8351 38.4882 20.8351C38.2932 20.8351 37.9518 20.9169 37.8871 20.8998C37.8224 20.8828 37.6275 20.8351 37.6275 20.8351C37.6275 20.8351 37.4649 20.8845 37.367 20.7381C37.2699 20.5917 37.0587 20.2503 37.0587 20.0884C37.0587 19.9258 37.2537 19.4541 37.384 19.4541C37.5143 19.4541 37.8719 19.4541 37.9365 19.3409C38.0012 19.2277 38.0012 19.0157 38.0327 18.9196C38.066 18.8208 38.1135 18.2853 38.2438 18.173C38.375 18.0588 38.6024 17.8145 38.7964 17.7992C38.9914 17.7821 39.5268 17.5881 39.5268 17.5881C39.5268 17.5881 39.641 17.5396 39.8521 17.6689C40.0633 17.7992 40.1774 17.978 40.3723 17.978C40.5664 17.978 40.6311 18.0418 40.7937 17.8792C40.9555 17.7174 41.4434 17.1002 41.4757 16.9223C41.508 16.7435 41.3938 16.6294 41.5888 16.5485C41.7828 16.4677 41.9957 16.5162 42.0758 16.3374C42.1565 16.1586 42.2232 15.8981 42.2232 15.8981L42.4496 15.5908C42.4496 15.5908 42.4019 15.4129 42.6131 15.2171C42.8234 15.0212 43.1153 14.925 43.3417 14.7624C43.57 14.5998 43.7155 14.3563 43.7649 14.2098C43.8144 14.0642 43.7335 13.4963 43.9284 13.2521C44.1225 13.0086 44.3328 12.8307 44.2851 12.6519C44.2366 12.4731 43.9123 12.3275 43.8144 12.1964C43.7155 12.067 43.1162 11.7589 43.0344 11.6286C42.9527 11.4991 42.8233 11.2063 42.8233 11.2063C42.8233 11.2063 42.8386 11.0274 42.8728 10.8972C42.9033 10.7678 42.8557 10.5406 42.8557 10.4111C42.8557 10.2808 42.888 10.1667 42.985 10.0859C43.083 10.005 43.3264 9.72919 43.5053 9.61603C43.684 9.50185 43.6841 9.40486 43.7155 9.17752C43.7487 8.94935 43.7002 8.7705 43.5861 8.60876C43.473 8.44619 43.2618 8.05722 43.3588 7.87836C43.4559 7.6996 43.4244 7.77956 43.5547 7.63401C43.6841 7.48929 43.7003 7.29349 43.7003 7.29349C43.7003 7.29349 44.366 6.43272 44.5457 6.23777C44.7227 6.04281 44.8359 5.99422 44.9347 5.86395C45.0317 5.73459 45.0794 5.55584 45.0965 5.37791C45.1136 5.19914 45.1288 4.95478 45.1288 4.71124C45.1288 4.46771 45.1612 4.36983 45.1288 4.24048C45.0965 4.11112 44.8854 4.03024 44.8207 3.93317C44.7559 3.83436 44.4963 3.65561 44.3498 3.47675L43.9716 3.07331L43.6571 2.66005L43.632 2.6259C43.632 2.6259 43.6139 2.53611 43.4883 2.53611C43.3634 2.53611 43.1487 2.572 43.1487 2.572C43.1487 2.572 43.0588 2.69776 42.845 2.60796C42.6303 2.51808 42.4155 2.48313 42.2359 2.30336C42.057 2.12459 41.7713 1.73109 41.7713 1.73109L41.6815 1.51636L41.3418 1.48039H40.8585C40.8585 1.48039 40.7695 1.44534 40.7515 1.49833C40.7336 1.55224 40.7156 1.74903 40.4111 1.74903C40.1074 1.74903 39.8747 1.71305 39.5701 1.5882C39.2664 1.46326 38.8908 1.46326 38.8189 1.23059C38.7471 0.997912 38.765 0.693289 38.7111 0.640295C38.6581 0.586381 38.4434 0.568447 38.3716 0.586387C38.2997 0.604328 38.0139 0.640295 38.0139 0.640295C38.0139 0.640295 38.0499 0.87215 37.978 0.944005C37.9061 1.01586 37.996 1.15874 37.8173 1.15874C37.6385 1.15874 37.4597 1.17667 37.3519 1.23059C37.245 1.28358 36.9224 1.40935 36.9224 1.40935C36.9224 1.40935 36.8335 1.49832 36.7437 1.37347C36.6538 1.24853 36.5648 1.14079 36.6717 0.979971C36.7795 0.819058 36.7976 0.568446 36.7976 0.568446C36.7976 0.568446 36.7616 0.299805 36.6007 0.299805C36.439 0.299805 36.2962 0.389594 36.1534 0.371654C36.0105 0.353713 35.9745 0.299805 35.8308 0.299805C35.6879 0.299805 35.4911 0.46063 35.4911 0.46063C35.4911 0.46063 35.4553 0.6403 35.2405 0.568446C35.0258 0.496592 34.9368 0.442678 34.8469 0.568446C34.758 0.693294 34.758 0.747206 34.6681 0.783179C34.5783 0.819061 34.5253 0.87215 34.4534 0.926064C34.3816 0.979977 34.3816 1.08689 34.2387 1.08689C34.0958 1.08689 33.9521 1.01586 33.8991 0.926064C33.8452 0.837097 33.7383 0.675348 33.6484 0.640295C33.5585 0.604322 33.4157 0.586387 33.4157 0.586387C33.4157 0.586387 33.2368 0.496597 33.0221 0.514538C32.8074 0.532479 32.7355 0.675358 32.6825 0.747213C32.6286 0.819067 32.7005 0.944005 32.5747 0.961946C32.4499 0.979979 32.289 0.979976 32.2171 1.1408C32.1452 1.30162 32.1812 1.46327 32.0743 1.5343C31.9665 1.60615 31.8775 1.67718 31.7697 1.71306C31.6628 1.74904 31.6979 1.73109 31.591 1.94582C31.4831 2.16056 31.501 2.19643 31.3402 2.2324C31.1794 2.26819 31.2333 2.25035 31.1973 2.41117C31.1614 2.57199 31.2863 2.6259 31.1434 2.69775C31.0006 2.76869 30.8218 2.76871 30.7678 2.80459C30.7139 2.84056 30.6071 2.91241 30.5352 3.00138C30.4633 3.09127 30.4283 3.05529 30.3923 3.23405C30.3564 3.41291 30.4454 3.48476 30.2846 3.62764C30.1237 3.77052 30.1057 3.82435 30.1236 3.96723C30.1417 4.11103 30.1776 4.34369 30.0878 4.50451C29.9988 4.66533 29.802 4.89801 29.7122 4.88007C29.6223 4.86213 29.5694 4.75523 29.5154 4.8441C29.4614 4.93399 29.3546 5.21966 29.3546 5.21966C29.3546 5.21966 29.2468 5.27356 29.2109 5.36345C29.1759 5.45241 29.068 5.70303 28.9072 5.75695C28.7464 5.81086 28.6565 5.75696 28.6026 5.8279C28.5496 5.89975 28.3528 6.06057 28.3528 6.06057C28.3528 6.06057 27.9764 6.18634 27.9233 6.04263C27.8695 5.89975 28.0123 5.64902 28.0662 5.39933C28.1202 5.14862 28.1731 5.1307 28.0482 4.87999C27.9233 4.62928 27.8515 4.57546 27.8156 4.43258C27.7796 4.2897 27.8336 4.23577 27.5299 4.0571C27.2253 3.87816 27.1715 3.86032 27.0465 3.8064C26.9207 3.75249 26.7419 3.52072 26.617 3.52072C26.4921 3.52072 26.2595 3.86032 26.0978 3.87817C25.9369 3.89629 25.7761 3.96713 25.7402 3.84237C25.7042 3.71743 25.6863 3.60953 25.6863 3.60953C25.6863 3.60953 25.5075 3.68145 25.4895 3.75238C25.4715 3.82424 25.1858 3.84229 25.1858 3.84229C25.1858 3.84229 24.9711 3.69941 24.9711 3.86023C24.9711 4.02105 25.0251 4.16393 25.007 4.25373C24.9891 4.34362 24.8283 4.84402 24.8283 4.84402L24.6135 5.13069C24.6135 5.13069 24.3449 5.23752 24.255 5.23752H23.688C23.6952 5.3148 23.7042 5.38664 23.7178 5.43347C23.7662 5.60147 23.9802 5.72005 23.9802 5.72005C23.9802 5.72005 24.123 5.9348 24.1714 6.00574C24.2182 6.07768 24.2667 6.17381 24.4329 6.36425C24.6009 6.5547 24.6009 6.4352 24.7672 6.4352C24.9342 6.4352 24.9819 6.6033 25.0538 6.84131C25.1256 7.07951 25.0053 7.27078 24.9585 7.3661C24.9091 7.46215 24.5291 8.15307 24.362 8.3678C24.1958 8.58254 23.9325 9.05967 23.8849 9.13153C23.8364 9.20338 23.5991 9.44149 23.2883 9.53763C22.9792 9.63378 23.2407 9.96709 23.3593 10.3714C23.4805 10.7775 22.955 11.1584 22.955 11.1584C22.955 11.1584 22.7402 11.3732 22.644 11.4451C22.5496 11.517 22.5973 11.7559 22.5973 11.8988C22.5973 12.0426 22.644 12.1135 22.7159 12.1854C22.7868 12.2573 22.8354 12.5187 22.8354 12.5187C22.8354 12.5187 22.812 12.6616 22.7402 12.9015C22.6682 13.1405 22.5973 13.0192 22.5254 13.0677C22.4535 13.1153 22.4769 13.2824 22.4769 13.4019C22.4769 13.5214 22.4059 13.6634 22.3825 13.8548C22.3609 14.0183 22.175 14.1405 22.1193 14.1746C22.1184 14.2052 22.1175 14.2366 22.1193 14.2609C22.1426 14.5475 22.3573 14.5951 22.5487 14.9051C22.7401 15.2159 22.7634 15.4055 22.7634 15.6454C22.7634 15.8826 22.9549 16.0031 22.9549 16.0031C22.9549 16.0031 23.2882 16.0983 23.431 16.1935C23.5739 16.2896 23.6224 16.5753 23.599 16.7192C23.5739 16.862 23.6224 16.9573 23.7653 17.0516C23.909 17.1477 24.0995 17.2663 24.2666 17.4811C24.4328 17.6958 24.3861 17.959 24.3619 18.1253C24.3394 18.2933 24.4813 18.4837 24.5765 18.7461C24.6727 19.0085 24.5765 18.9842 24.5765 19.1522C24.5765 19.3175 24.1947 19.4137 24.0034 19.4855C23.8137 19.5566 23.9091 19.7964 23.9091 19.8674C23.9091 19.9393 23.8847 19.986 23.7653 20.5592C23.6458 21.1315 23.0269 20.5835 22.8588 20.5592C22.6934 20.5368 22.4768 20.7263 22.2864 20.6787C22.0959 20.6301 21.7617 20.8934 21.6188 20.9644C21.4751 21.0363 20.998 21.0839 20.688 21.0839C20.3781 21.0839 19.7814 20.8216 19.3763 20.8216C18.9692 20.8216 18.8273 20.8449 18.4698 20.8935C18.1121 20.941 18.2316 21.2744 18.2316 21.2744C18.2316 21.2744 17.9449 21.3939 17.6583 21.3939C17.3726 21.3939 17.3961 21.2986 17.086 21.3463C16.7752 21.3948 16.7752 21.9185 16.6798 22.1576C16.5855 22.3948 16.3457 22.1333 16.3457 22.1333C16.3457 22.1333 16.2272 21.8951 16.1311 21.8233C16.0376 21.7515 16.0124 21.7515 15.8695 21.6572C15.7267 21.561 15.583 21.5852 15.4158 21.561C15.2505 21.5386 15.1543 21.5852 14.8911 21.561C14.6287 21.5386 14.2703 21.3705 14.2703 21.3705C14.2703 21.3705 13.7222 21.1557 13.5084 21.0839C13.2936 21.013 13.0303 21.1791 13.0303 21.1791C13.0303 21.1791 12.6495 21.3939 12.4815 21.5134C12.3162 21.632 12.1948 21.6572 12.052 21.8C11.9092 21.9427 11.9334 22.2762 11.9334 22.2762C11.9334 22.2762 11.9334 22.6338 11.9568 22.9204C11.9801 23.207 11.8616 23.3983 11.7906 23.5412C11.7188 23.6841 11.433 23.9707 11.265 24.162C11.0997 24.3517 11.2416 24.5197 11.1931 24.8296C11.1643 25.0228 10.9811 25.1477 10.8481 25.216C10.8706 25.3292 10.8823 25.4406 10.8823 25.4406L11.0143 26.0758C11.0143 26.0758 11.0143 26.3669 11.2516 26.3669H11.7277C11.7277 26.3669 11.8328 26.313 11.8328 26.4451C11.8328 26.5771 11.9918 27.0524 11.9918 27.2636C11.9918 27.4765 11.9649 27.8987 11.9649 27.8987L11.8328 28.1629C11.8328 28.1629 11.8328 28.4801 12.0709 28.4801C12.309 28.4801 12.4411 28.5062 12.468 28.6651C12.495 28.8233 12.7843 29.0084 12.8643 28.7982C12.9433 28.5853 13.0494 28.1898 13.2327 28.401C13.4186 28.6122 13.4186 28.8763 13.4186 28.8763C13.4186 28.8763 13.4186 28.9825 13.6046 29.0354C13.7888 29.0874 13.973 29.2734 13.9462 29.4307C13.9209 29.5897 13.7619 29.8278 13.7619 29.8278L13.7097 30.1441V30.4621C13.7097 30.4621 13.8409 30.6202 13.8679 30.6993C13.8948 30.7793 13.8948 30.7523 14.0269 30.9114C14.1589 31.0704 14.5812 31.2285 14.5282 31.4388C14.4753 31.6516 14.2641 32.0209 14.2911 32.2321C14.3179 32.4432 14.4482 32.6544 14.4752 32.7343C14.5022 32.8133 14.6343 33.0245 14.6343 33.0245L14.9244 33.3156C14.9244 33.3156 14.9775 33.4747 14.7663 33.6328C14.5543 33.7918 14.2912 33.87 14.211 33.9239C14.132 33.976 13.973 33.897 14.0799 34.1342C14.1859 34.3731 14.318 34.3983 14.3432 34.5312C14.3692 34.6643 14.3432 34.8215 14.3432 34.8215C14.3432 34.8215 14.1589 35.8268 13.9999 35.985C13.8409 36.1422 13.8149 36.2221 13.8149 36.4603C13.8149 36.6984 13.8948 37.0146 13.8149 37.2266C13.7357 37.4369 13.4708 37.542 13.4708 37.7819C13.4708 38.0191 13.8409 38.4144 13.973 38.4683C14.0377 38.4944 14.1141 38.5582 14.1769 38.6336C14.2417 38.7145 14.2911 38.8097 14.2911 38.8906C14.2911 39.0497 14.264 39.3677 14.264 39.3677C14.264 39.3677 13.9729 39.63 14.2371 39.7361C14.5012 39.8412 14.7384 39.9211 14.8966 40.0532C15.0556 40.1844 15.2927 40.2374 15.2416 40.4756C15.1877 40.7137 15.1085 40.8978 15.0286 40.9778C14.9505 41.0568 14.8453 41.1628 14.8453 41.2419C14.8453 41.3209 14.9505 41.5321 14.9505 41.5321C14.9505 41.5321 15.0034 41.6373 14.9775 41.7962C14.9504 41.9553 14.9505 42.0613 14.9505 42.0613C14.9505 42.0613 14.9505 42.1933 14.8966 42.4045C14.8453 42.6157 14.8453 42.7747 14.8453 42.7747C14.8453 42.7747 14.6854 43.6201 14.6333 43.6992C14.5803 43.7792 14.3422 44.3587 14.3422 44.3587L14.29 45.0729V45.6282L13.946 46.3677L13.7608 46.7899L13.4176 46.923C13.4176 46.923 13.1796 47.0542 13.1535 47.2931C13.1274 47.5303 13.0475 48.0847 13.0475 48.0847C13.0475 48.0847 13.0475 48.3488 12.8624 48.4028C12.6782 48.4567 12.229 48.6409 12.229 48.6409L11.9378 48.7469C11.9378 48.7469 11.8058 48.7729 11.7268 48.879C11.6477 48.9841 11.1705 49.1952 11.1705 49.1952C11.1705 49.1952 10.8803 49.4603 10.8023 49.4863C10.7213 49.5123 10.2991 49.6705 10.1938 49.6705C10.0888 49.6705 9.45345 49.5384 9.37442 49.5123C9.29447 49.4863 8.92516 49.5653 8.71309 49.3282C8.50278 49.0892 8.55404 49.2213 8.5028 49.0892C8.44897 48.9571 8.68789 48.852 8.42283 48.852H7.55138C7.28632 48.852 7.26028 49.0623 7.04913 48.7989L6.838 48.5348C6.838 48.5348 6.67894 48.4298 6.547 48.4567C6.41489 48.4818 6.14971 48.6939 6.14971 48.6939C6.14971 48.6939 5.99248 48.852 5.99248 48.9321C5.99248 49.0111 6.0177 49.2483 6.28184 49.2752C6.54691 49.3022 6.812 49.3544 6.812 49.3544C6.812 49.3544 6.97097 49.4074 6.91706 49.5124C6.86305 49.6185 6.73108 49.8027 6.73108 49.8027C6.73108 49.8027 6.62596 49.8297 6.599 49.9087C6.57297 49.9886 6.52078 50.1998 6.52078 50.1998L6.14971 50.2788C6.01769 50.5429 6.12371 50.861 6.12371 50.861C6.12371 50.861 6.14971 51.0192 6.0716 51.0722C5.99248 51.1243 5.72744 51.2043 5.72744 51.2043C5.72744 51.2043 5.64931 51.3885 5.54241 51.4424C5.43633 51.4945 5.0402 51.5474 4.93504 51.5745C4.85693 51.5943 4.56657 51.7622 4.41753 51.8502C4.43998 51.8764 4.61963 52.0866 4.61963 52.2114C4.61963 52.3435 4.5945 52.4755 4.67353 52.7397C4.73196 52.9365 5.01855 53.1935 5.15876 53.3094C5.24589 53.2779 5.29979 53.3831 5.38692 53.4262C5.49208 53.4784 5.57206 53.6643 5.57206 53.7965C5.57206 53.9285 5.59715 54.1666 5.70323 54.4569C5.81014 54.748 5.99434 55.3023 5.99434 55.3023L5.8371 55.6985L5.62411 55.7785C5.41388 55.8566 5.59716 56.1746 5.59716 56.1746C5.59716 56.1746 5.65107 56.3068 5.65107 56.4119C5.65107 56.5179 5.59716 56.8341 5.59716 56.8341C5.59716 56.8341 5.30793 57.1521 5.20194 57.3103C5.09679 57.4694 5.17486 57.9716 5.2549 58.3148C5.33393 58.6581 5.88826 58.7111 5.88826 58.7111C5.88826 58.7111 6.31239 58.738 6.46962 58.738C6.62861 58.738 6.65556 58.9761 6.78768 59.1603C6.91888 59.3445 6.97278 59.1072 7.18301 59.0821C7.3959 59.0551 7.34199 58.923 7.60613 58.923C7.86944 58.923 7.60612 58.923 7.7122 58.9492C7.81819 58.9743 7.97725 59.1873 7.97725 59.1873C7.97725 59.1873 8.10938 59.6895 8.16155 59.9797C8.21454 60.2708 8.4257 59.9527 8.4257 59.9527C8.4257 59.9527 8.82281 59.7955 9.19119 59.7686C9.56316 59.7416 9.32321 60.1908 9.32321 60.1908V60.5089C9.32321 60.587 9.48227 60.587 9.58826 60.7191C9.69433 60.8512 9.5362 60.9312 9.5362 60.9312C9.5362 60.9312 9.35017 61.0632 9.2451 61.2734C9.13994 61.4863 9.13906 61.8818 9.00695 62.0408C8.87483 62.1998 8.55867 62.1199 8.55867 62.1199C8.55867 62.1199 8.13544 62.1199 7.71231 62.1998C7.28818 62.2788 6.94594 62.464 6.60175 62.569C6.25858 62.6751 6.10041 62.8593 6.10041 62.8593C6.10041 62.8593 5.86232 63.4155 5.7303 63.7047C5.59818 63.9958 5.94227 64.0488 6.15342 64.445C6.36457 64.8421 6.44368 65.4756 6.44368 65.4756C6.44368 65.4756 6.55059 65.6616 6.8668 65.8718C7.18311 66.0847 7.05099 66.1629 6.97288 66.3211C6.8921 66.4801 6.70782 66.375 6.44368 66.5591C6.18037 66.7442 6.52364 67.2204 6.68262 67.3256C6.83985 67.4307 6.97287 67.7478 7.1049 68.1979C7.23701 68.6472 6.86672 68.7002 6.62871 68.9383C6.39153 69.1755 6.28555 69.7837 6.28555 69.8889C6.28555 69.9949 6.52363 70.259 6.5757 70.6292C6.62869 70.9976 6.52365 71.2887 6.49669 71.4477C6.46973 71.6058 6.49669 71.6588 6.52364 71.7649C6.5506 71.87 6.49669 72.0811 6.49669 72.0811C6.49669 72.0811 6.44369 72.3722 6.60175 72.8205C6.76083 73.2698 6.8138 73.2967 6.60265 73.2698C6.39151 73.2446 6.31249 73.4827 6.18037 73.8511C6.04835 74.2204 6.2595 74.4063 6.2595 74.4063C6.2595 74.4063 6.28645 74.6967 6.18037 74.8825C6.07347 75.0686 5.67812 74.6966 5.59817 74.6966H4.9378C4.59371 74.6966 4.70059 74.6966 4.4095 74.8825C4.11932 75.0686 3.98722 75.3848 3.93331 75.4908C3.88032 75.5959 3.85517 75.8071 3.32505 76.1772C2.79769 76.5465 2.8516 76.3093 2.40143 76.3883C1.95218 76.4684 1.9522 76.6004 1.74105 76.8906C1.52908 77.1817 1.50294 77.0496 1.44995 77.3138C1.39788 77.577 1.37094 78.0272 1.37094 78.0272L1.21186 78.0792C1.21186 78.0792 1.07984 78.4495 1.00072 78.7406C0.950485 78.9257 0.626036 79.1422 0.396949 79.2752V79.8287L0.315189 80.3219C0.281055 80.4908 0.315189 80.7263 0.315189 80.7263C0.315189 80.7263 0.348466 81.0641 0.484999 81.3345C0.618863 81.6058 0.485006 81.3345 0.61887 81.4019C0.755402 81.4702 1.09231 81.7397 1.09231 81.7397C1.09231 81.7397 1.3618 82.1108 1.46438 82.4154C1.56494 82.7191 1.69975 82.6517 1.80215 82.8206C1.9028 82.9894 2.10494 82.923 2.30799 83.0901C2.51113 83.2609 2.37448 83.3273 2.4778 83.5978C2.57845 83.8672 2.78061 83.9356 3.1535 84.0362C3.52455 84.1368 3.45627 83.9698 3.59105 83.9356C3.72666 83.9023 3.75996 83.8672 3.75996 83.8672L3.9962 83.9015L4.16512 83.8987C4.26669 83.4072 4.47241 82.4127 4.5865 82.2986C4.72938 82.1557 5.54156 80.4378 5.54156 80.4378C5.54156 80.4378 6.54342 78.8152 6.68621 78.8152C6.83001 78.8152 7.16335 78.72 7.16335 78.72L7.59282 78.0516L8.02229 78.0048L8.30794 78.0516L8.73741 77.5268L9.07164 77.7182C9.07164 77.7182 9.35825 77.3831 9.35825 77.1926C9.35825 77.003 9.30973 76.9545 9.30973 76.7164C9.30973 76.4774 9.59634 76.0479 9.59634 76.0479L10.0258 76.4306L10.4086 76.525C10.4086 76.525 10.4553 76.5727 10.4553 76.3338C10.4553 76.0956 10.4086 75.5233 10.4086 75.5233C10.4086 75.5233 10.741 75.4757 10.741 75.2852C10.741 75.0938 10.3592 74.713 10.1687 74.4263C9.9791 74.1406 9.93057 73.854 9.93057 73.854C9.93057 73.854 9.30974 73.8054 9.07164 73.7111C8.83344 73.615 8.64218 73.2332 8.78598 73.2332C8.92877 73.2332 9.16685 73.3284 9.30973 73.1855C9.45344 73.0417 9.405 72.9942 9.45349 72.7561C9.50114 72.518 8.97548 72.4227 9.7392 72.3742C10.5029 72.3266 10.8372 72.4695 10.8372 72.4695L11.076 72.0885L10.7894 71.3724L10.9808 70.7516C10.9808 70.7516 11.8397 70.2745 11.9826 70.1792C12.1254 70.084 12.6502 69.3689 12.6502 69.3689L13.0311 69.5117L13.9862 68.9394C13.9862 68.9394 13.89 68.8441 14.2243 68.9394C14.5585 69.0346 15.0355 68.6527 15.0355 68.6527L15.3698 68.2718C15.3698 68.2718 15.465 68.2232 15.6555 68.2232C15.8468 68.2232 16.1334 68.1757 16.1334 68.1757L16.5629 67.7947L17.1353 67.4596H17.4218L18.0409 67.2215L18.5665 67.0787L18.6132 67.3167L18.8046 67.4129C18.8046 67.4129 18.853 67.5081 19.0426 67.4129C19.234 67.3167 19.7119 67.1739 19.7119 67.1739L19.9977 66.7444C19.9977 66.7444 20.1891 66.6977 20.2843 66.5539C20.3795 66.4111 20.2359 66.1245 20.3796 65.9816C20.5224 65.8387 20.2359 65.7427 20.6653 65.5989C21.0948 65.456 21.3329 65.4092 21.3329 65.4092C21.3329 65.4092 21.667 65.456 21.667 65.5989C21.667 65.7427 21.6689 65.8387 21.5727 65.9816C21.4766 66.1245 21.3814 66.172 21.3329 66.3626C21.2862 66.5539 21.2375 66.9358 21.2375 66.9358L21.8108 66.8873L22.3346 66.8405H22.8603V66.4578C22.8603 66.4578 23.2898 66.3149 23.2898 66.4578C23.2898 66.6015 23.385 66.7921 23.5279 66.7921H23.6717C23.6717 66.7921 23.9097 66.3149 23.9574 66.172C24.0058 66.0283 23.9106 65.8386 24.2916 65.8386C24.6734 65.8386 24.9115 66.5062 24.9115 66.5062L25.1505 66.6491L25.4371 66.8872C25.4371 66.8872 25.341 66.8872 25.1029 66.9833L24.8647 67.0785L24.8162 67.3167L24.9591 67.5557C24.9591 67.5557 24.9124 67.6032 24.721 67.6509C24.5305 67.6994 23.9573 67.6994 23.9573 67.6994L24.1953 67.889L24.9591 67.9375L25.437 67.6032L25.9617 67.4128L26.1998 67.0301C26.1998 67.0301 26.4388 67.2699 26.296 66.6491C26.1522 66.0282 26.1521 65.2655 26.1521 65.2655L26.4389 64.7883L25.8665 64.837L25.6751 65.1227L25.6267 64.6932L25.4838 64.3589L25.9133 63.8819H26.2475L26.3427 64.4543L26.5341 64.5018L26.7254 63.8343L26.8198 63.2143L26.9149 62.8801L26.9636 62.3069C26.9636 62.3069 26.4389 62.4982 26.3427 62.2602C26.2475 62.0212 25.9617 61.5917 25.9617 61.5917C25.9617 61.5917 25.8665 61.5441 25.8665 61.4012V61.2584L25.0076 60.7804C25.0076 60.7804 24.7685 60.59 24.6248 60.59C24.4819 60.59 24.0534 60.6843 23.7192 60.59C23.3849 60.4947 23.004 60.3509 22.8126 60.2081C22.6211 60.0653 22.2402 59.5405 22.2402 59.5405C22.2402 59.5405 21.8108 59.6358 21.667 59.4929C21.5242 59.3492 21.3328 58.9682 21.3328 58.9682C21.3328 58.9682 20.9033 58.7292 20.7605 58.5855C20.6176 58.4426 20.1881 58.2045 20.1881 58.2045L19.8063 57.775L18.2798 57.3456L18.0893 57.2503C17.8979 57.1542 17.4218 57.1542 17.4218 57.1542L17.2779 56.7247L17.4218 56.5351V56.0572C17.4218 55.8658 17.4685 55.4363 17.4685 55.4363L17.1351 55.1506C17.1351 55.1506 16.8962 54.9601 16.8962 54.8173C16.8962 54.6744 16.9923 52.8604 17.1818 52.8137C17.3732 52.7652 18.3274 50.8569 18.3274 50.8569C18.3274 50.8569 19.3292 49.616 19.3768 49.4732C19.4253 49.3304 19.7586 48.519 19.7586 48.519L19.9015 47.8039C19.9015 47.8039 19.95 47.3744 19.95 47.2315C19.95 47.0878 19.9015 46.802 19.95 46.6106C19.9976 46.4193 20.2357 46.1812 20.3794 45.8945C20.5223 45.6088 20.9518 45.2746 20.9518 45.2746L21.1431 44.988L21.5726 44.7975C21.5726 44.7975 21.4765 44.5594 21.7622 44.5118C22.0488 44.4632 22.4793 44.4632 22.7173 44.4632C22.9338 44.4632 22.9967 44.5037 23.1135 44.5477C23.1242 44.5505 23.1333 44.554 23.1467 44.5585C23.2294 44.5872 23.1531 44.5989 23.1395 44.6034V44.6052C23.1467 44.607 23.1827 44.607 23.2896 44.607H23.8143C23.8143 44.607 24.0057 44.607 24.1953 44.5585C24.3867 44.5118 25.0075 44.5118 25.0075 44.5118C25.0075 44.5118 25.3884 44.4641 25.3408 44.6547C25.294 44.8451 25.4837 44.9413 25.1027 45.4175C24.7209 45.8945 24.3867 46.5153 24.3867 46.5153L24.2914 46.7058C24.2914 46.7058 24.197 46.7544 24.2914 46.9448C24.3866 47.1353 24.578 47.4695 24.578 47.7076C24.578 47.9466 24.578 47.8514 24.4818 48.2332C24.3866 48.6142 24.5304 48.8056 24.339 48.9484C24.1485 49.0922 24.0524 49.2818 24.0524 49.2818C24.0524 49.2818 23.9095 49.2826 23.9572 49.6645C24.0057 50.0454 24.1009 50.3321 24.1009 50.3321L24.2914 50.1406L24.3867 49.7597L24.7685 49.1866L25.437 50.0455V51.9547C25.437 52.0976 25.1027 52.4795 25.1027 52.4795C25.1027 52.4795 25.437 53.2908 25.7235 53.386C26.0092 53.4813 26.7253 54.0069 26.8682 54.1012C27.011 54.1964 27.5842 54.3402 27.5842 54.3402H28.0604C28.0604 54.3402 28.1089 53.9117 28.0128 53.6717C27.9166 53.4328 27.5356 52.67 27.3928 52.6223C27.249 52.5738 26.772 52.2881 26.772 52.2881L26.8195 51.6205V51.0958L27.1062 49.998C27.1062 49.998 27.1547 49.6647 27.3442 49.5218C27.5356 49.378 27.7737 49.0439 27.7737 49.0439L28.0604 48.5667C28.0604 48.5667 28.108 48.7572 28.0604 48.901C28.0128 49.0438 27.9651 49.2352 27.9651 49.7599V50.2837C27.9651 50.2837 27.249 50.237 27.9651 50.6189C28.6803 50.9998 28.3946 50.7617 28.6803 50.9998C28.9669 51.2388 29.4449 51.8111 29.4449 51.8111L29.8259 52.193C29.8259 52.193 30.2068 51.9548 30.3982 51.9548C30.5896 51.9548 30.8285 51.9081 31.019 51.9548C31.2085 52.0016 31.5913 52.0016 31.5913 52.0016L31.9732 51.8111H32.6883L33.1664 51.8587V52.3843L33.4988 52.193L33.5949 51.6682L33.8815 51.1911H34.311L34.8357 51.1426L35.7423 51.3826H36.4583L36.6479 51.7635L37.1259 52.0016L37.6982 52.3358L37.1727 53.1938L36.8788 53.4086L37.0918 53.8362L36.2076 53.8632C36.2076 53.8632 35.6973 54.1319 35.5904 54.2127C35.4825 54.2926 34.9471 55.1777 34.7863 55.2307C34.6255 55.2846 33.9813 55.4724 33.7135 55.5263C33.4458 55.5802 33.1502 55.8749 32.9624 55.9827C32.7746 56.0896 32.1313 56.3313 32.1313 56.3313C32.1313 56.3313 31.5689 56.5182 31.4889 56.5182C31.4081 56.5182 31.3271 56.1975 31.2472 56.1705C31.1663 56.1436 31.0324 55.8479 31.0324 55.8479H30.657C30.657 55.8479 30.603 55.9558 30.5222 56.1435C30.4423 56.3313 29.9859 57.1884 29.905 57.3223C29.825 57.4562 29.6103 57.9126 29.6103 57.9126C29.6103 57.9126 29.5564 58.1004 29.7172 58.1004C29.878 58.1004 30.6031 58.2342 30.7639 58.0734C30.9247 57.9126 31.2203 57.8057 31.5159 57.8057C31.8099 57.8057 33.1233 57.617 33.1233 57.617C33.1233 57.617 34.17 56.9207 34.2509 56.8668C34.3299 56.8138 38.4063 55.741 38.6211 55.7141C38.7442 55.6988 39.9112 55.4436 41.0559 55.2388C41.8968 55.0887 42.7279 54.9674 43.1251 54.9899C44.064 55.0429 45.2975 55.1507 45.3784 55.1507C45.4583 55.1507 46.3433 55.3385 46.5041 55.3924C46.665 55.4454 47.1753 55.7949 47.6587 55.9018C48.1404 56.0097 48.7567 56.1435 48.8636 56.1166C48.9714 56.0896 50.1789 55.82 50.5006 55.741C50.8213 55.6601 52.9138 55.5263 53.4511 55.6072C53.9865 55.6871 55.2193 56.0627 55.488 56.1435C55.7566 56.2243 56.6946 56.5182 57.0962 56.679C57.4987 56.8398 58.143 57.2953 58.5184 57.3762C58.8932 57.4562 59.3774 57.5909 59.4565 57.5909C59.5364 57.5909 59.6703 57.537 59.6703 57.537C59.6703 57.537 59.5104 57.2684 59.4034 57.1076C59.2957 56.9477 58.9739 56.8138 58.9201 56.652C58.8661 56.4912 58.814 56.4921 58.814 56.2243C58.814 55.9558 58.9739 55.2576 59.0809 55.0168C59.1886 54.7752 59.4824 53.838 59.7771 53.6233C60.0727 53.4086 61.2533 52.308 61.2533 52.308L62.0844 51.0214L62.432 50.3242C62.432 50.3242 62.0035 50.0825 62.0035 49.9486C62.0035 49.8147 61.8966 49.5191 62.0035 49.3583C62.1113 49.1975 62.8885 47.75 62.8885 47.75C62.8885 47.75 63.8274 47.3718 64.0151 47.3458C64.2038 47.3188 66.1068 46.4616 66.1068 46.4616L66.8579 45.8174L67.2604 45.308L67.1805 44.9324C67.1805 44.9324 66.9118 44.9055 66.831 44.8785C66.751 44.8516 66.5363 44.7177 66.5363 44.7177C66.5363 44.7177 66.5363 44.2892 66.5902 44.2083C66.6432 44.1283 66.804 43.9675 66.9118 43.9136C67.0187 43.8597 67.5021 43.6998 67.5021 43.6998L67.9577 42.1436L69.4589 41.8211L70.9073 41.3125C70.9073 41.3125 71.4437 41.1518 71.7114 41.2048C71.9792 41.2586 73.8839 41.5811 73.8839 41.5811C73.8839 41.5811 75.3862 42.4114 75.3862 42.4922C75.3862 42.5731 75.7077 43.2973 75.7077 43.2973C75.7077 43.2973 75.8676 43.7528 76.0556 43.8327C76.2434 43.9136 76.4849 44.1283 76.4849 44.1283L76.2434 44.7447L75.2783 44.8516L74.661 44.7177L74.0168 44.7447L73.75 44.6908L73.1606 46.3547L73.2675 47.2379L73.5352 47.8282L73.617 48.2038L73.2945 48.6062L72.9998 48.6872V49.5452L73.3214 49.7869L73.2675 50.0807L73.0528 50.3493V50.8317L73.1606 51.6098V52.0114L73.3754 52.4139L73.4024 52.8426C73.4024 52.8426 73.2145 52.8156 73.1606 52.8965C73.1067 52.9764 73.0528 53.4598 73.0528 53.4598L72.6772 53.5677L72.6233 54.4796L72.9459 54.5856L73.5901 55.5245L73.4553 55.7652L73.5631 56.3564L73.9387 56.5442C73.9387 56.5442 74.1526 57.0267 74.3134 57.0806C74.4742 57.1345 74.583 57.2405 74.7698 57.2675C74.9567 57.2945 75.1445 57.4013 75.1445 57.4013L75.6539 56.9737L76.379 56.8119C76.379 56.8119 76.7275 56.4094 76.7815 56.3025C76.8354 56.1947 76.9944 55.953 76.9944 55.953L77.6107 55.4436L77.8254 55.3358L77.9602 55.6044L78.4157 55.7652L78.5775 55.5505L78.3357 55.2019C78.3357 55.2019 78.3896 54.6116 78.3896 54.5326C78.3896 54.4526 78.4156 54.0771 78.4965 54.0501C78.5775 54.0232 78.6843 53.9702 78.6843 53.9702C78.6843 53.9702 78.899 53.5137 78.9529 53.4329C79.0068 53.3529 79.0868 53.1112 79.1946 53.0034L79.4623 52.7357C79.4623 52.7357 79.6492 52.7617 79.7301 52.6278C79.81 52.4948 79.9978 52.2531 79.9978 52.2531C79.9978 52.2531 80.1326 52.2531 80.1596 52.1723C80.1865 52.0923 80.5072 51.5568 80.5072 51.5568L80.8019 50.8317L81.0436 50.5101C81.0436 50.5101 81.0436 49.8668 81.0705 49.7869C81.0975 49.706 81.7956 48.875 81.7956 48.875L82.1172 48.6063C82.1172 48.6063 82.331 47.4797 82.3579 47.3988C82.3841 47.3189 82.3325 47.0776 82.1987 46.8898Z" fill="#D2DFD5" stroke="white" stroke-width="0.6"/>
</svg>
