<svg width="92" height="78" viewBox="0 0 92 78" fill="none" xmlns="http://www.w3.org/2000/svg">
<path d="M33.3436 73.4872C33.3436 73.4872 33.3436 73.7874 33.3211 73.8574C33.2978 73.9266 33.3212 73.9733 33.2286 74.0425C33.136 74.1117 33.0669 74.2033 33.0669 74.2033C33.0669 74.2033 33.1127 74.2033 33.0893 74.4118C33.0668 74.6193 33.1361 74.8053 33.1361 74.9203C33.1361 75.0353 33.0902 75.0128 33.2978 75.2438C33.5062 75.4764 33.7829 75.6373 33.7829 75.7064V75.9383C33.7829 75.9383 33.853 76.0999 33.968 75.9841C34.084 75.8691 33.8296 75.9616 34.0839 75.8691C34.3391 75.7756 33.8539 75.7981 34.3391 75.7756C34.8243 75.7532 34.7776 75.7298 35.0551 75.7532C35.3319 75.7756 35.2627 75.8448 35.3319 75.7756C35.401 75.7064 35.4487 75.3597 35.5404 75.2671C35.6337 75.1746 35.6329 75.0829 35.7955 75.0829C35.9572 75.0829 36.0031 75.0353 36.1414 75.1045C36.2807 75.1746 36.0947 75.1288 36.3965 75.1979C36.6967 75.2671 36.835 75.2213 36.9509 75.3821C37.0677 75.5456 37.3454 75.6148 37.1593 75.684C36.9734 75.7532 36.9042 75.7298 36.8818 75.8233C36.8593 75.9149 36.605 76.0533 36.8818 76.0533C37.1593 76.0533 37.4604 75.9617 37.4604 75.9617C37.4604 75.9617 37.3435 75.9383 37.5529 76.0075C37.7613 76.0767 37.5763 76.2149 37.7613 76.0767C37.9455 75.9383 38.1072 75.7756 38.0147 75.5905C37.9222 75.4072 37.8305 75.3139 37.8305 75.2213C37.8305 75.1287 37.8305 74.8745 37.8997 74.8053C37.9689 74.7361 37.808 74.5502 38.038 74.5277C38.269 74.5043 38.2699 74.5043 38.3624 74.5043C38.4541 74.5043 38.7092 74.6427 38.8008 74.6427C38.8934 74.6427 38.87 74.6669 39.0785 74.5043C39.2861 74.3426 39.4028 74.2968 39.472 74.251C39.5412 74.2033 39.5412 74.1565 39.7029 74.1341C39.8114 74.1191 39.9117 74.1117 40.0039 74.1117C40.1432 74.1117 40.4667 73.8107 40.3732 73.7873C40.2816 73.764 39.9572 73.8332 39.8422 73.764C39.7272 73.6948 39.8656 73.6247 39.7488 73.5798C39.6328 73.5331 39.3328 73.3938 39.1944 73.4171C39.056 73.4414 39.0561 73.3713 38.9168 73.5106C38.7784 73.649 38.8008 73.5106 38.755 73.8098C38.7092 74.1117 38.9869 74.2257 38.64 74.2257C38.2932 74.2257 37.9455 74.1799 37.8531 74.2257C37.7613 74.2734 37.6221 74.6193 37.5296 74.6893C37.437 74.7585 37.5529 75.0128 37.0903 74.8745C36.6266 74.7361 36.72 74.852 36.3275 74.5735C35.9339 74.2949 35.8881 74.4351 35.8422 74.251C35.7955 74.0649 35.7731 73.9733 35.7731 73.8098V73.4872C35.7731 73.4872 36.003 73.5331 35.5179 73.5106C35.0327 73.4872 35.0327 73.4414 34.9851 73.3713C34.9393 73.3021 35.0327 73.0254 34.8935 73.0254H34.5233C34.4083 73.0254 34.5223 73.1863 34.3615 73.2329C34.2007 73.2788 34.1298 73.1629 34.0372 73.2554C33.9456 73.348 34.0148 73.4414 33.853 73.4629C33.6904 73.4872 33.4595 73.3479 33.3436 73.4872Z" fill="#D2DFD5" stroke="white" stroke-width="0.6"/>
<path d="M91.4348 31.9722C91.4348 31.6855 91.3396 31.6388 91.4348 31.2561C91.53 30.8742 91.3863 30.7303 91.1006 30.4448C90.814 30.1582 90.6711 30.301 90.6245 30.0153C90.5758 29.7287 90.5758 29.2525 90.5758 29.2525C90.5758 29.2525 90.7187 29.1096 90.5758 28.7754C90.4329 28.4403 90.2892 28.3468 90.1463 28.2507C90.0034 28.1544 89.7654 28.0593 89.7654 28.0593C89.7654 28.0593 89.6217 27.4871 89.6217 27.1528C89.6217 26.8195 89.7169 26.7243 89.6217 26.5327C89.5256 26.3415 89.7637 26.628 89.5256 26.3414C89.2874 26.0558 89.0018 25.8643 89.0018 25.8643C89.0018 25.8643 89.0018 25.4349 89.0494 25.292C89.0961 25.1483 89.0961 24.8158 89.0961 24.8158V24.3863C89.0961 24.3863 88.9533 23.7654 88.7637 23.5741C88.5724 23.3836 88.381 23.2875 88.381 23.2875L88.1132 23.0396C87.8463 23.1384 87.5113 23.2785 87.2561 23.4276C86.8392 23.6729 86.1537 24.0395 86.0054 24.0889C85.8581 24.1374 85.761 24.0413 85.6873 24.2363C85.6137 24.433 85.2695 24.5804 84.7799 24.8238C84.2902 25.07 82.5975 25.5112 82.0584 25.5597C81.5194 25.609 80.5643 25.7816 79.9273 25.7816C79.2893 25.7816 78.505 25.708 78.1869 25.7816C77.867 25.8543 77.7215 25.8795 77.4762 25.9523C77.2301 26.025 76.594 26.3691 76.2751 26.3691H74.9759C74.4861 26.3691 75.319 26.3691 73.7746 26.3691C72.2301 26.3691 70.9794 26.2954 70.2939 26.1481C69.6084 26.0008 68.6515 25.6342 68.4071 25.5849C68.1609 25.5355 67.9166 25.5112 67.7206 25.5597C67.524 25.609 66.5427 25.9524 66.249 26.0503C65.9553 26.1481 65.8078 26.4186 65.4404 26.5408C65.0729 26.663 64.5581 27.2012 64.4602 27.2506C64.3614 27.3 64.435 27.3737 64.1906 27.4474C63.9454 27.5211 63.7728 27.5706 63.7728 27.5706C63.7728 27.5706 62.6705 27.7422 61.9841 27.4474C61.2976 27.1535 60.1701 26.4672 60.1701 26.4672C60.1701 26.4672 59.8763 26.2713 59.8763 25.8293V25.2416C59.8763 25.2416 59.9985 25.2183 60.1206 25.0216C60.2437 24.8239 60.3182 24.7026 60.3182 24.7026C60.3182 24.7026 59.9732 24.6532 60.4396 24.6289C60.9059 24.6038 61.3714 24.5804 61.3714 24.5804C61.3714 24.5804 61.7389 24.6531 61.7389 24.4824C61.7389 24.3099 61.7389 24.2111 61.5439 24.1867C61.3471 24.1626 61.0291 24.1392 60.8081 24.0899C60.5861 24.0405 60.4891 24.0404 60.1701 24.0404C59.8521 24.0404 60.3426 24.0898 59.7299 24.0404C59.5987 24.0305 59.4981 24.0233 59.4119 24.0188C59.092 24.0009 59.0255 24.0162 58.8709 24.0162C58.6751 24.0162 58.6014 23.7215 58.5043 23.9182C58.4055 24.114 58.7236 24.3593 58.4549 24.3836C58.1845 24.4079 58.1593 24.3836 58.013 24.3593C57.8665 24.3342 58.1117 23.8447 57.7928 24.0899C57.4747 24.3343 57.4729 24.6299 57.2051 24.3837C56.9338 24.1375 57.0326 24.09 56.8611 23.9435C56.6904 23.7953 56.7138 23.8941 56.5923 23.771C56.4692 23.6479 56.4441 23.5014 56.4441 23.5014C56.4441 23.5014 55.9787 22.8877 55.9787 23.2319C55.9787 23.5742 56.0039 23.7216 56.0039 23.7953C56.0039 23.8698 56.3461 23.7953 56.0039 23.8698C55.6597 23.9435 55.3911 23.9183 55.3911 23.9183C55.3911 23.9183 54.7774 23.7467 54.8997 24.0162C55.0228 24.2858 54.9984 24.5311 54.9984 24.5311C54.9984 24.5311 54.7783 24.4574 54.6058 24.5562C54.4333 24.6533 54.4585 24.7998 54.4091 24.9723C54.3614 25.1438 54.6058 25.3388 54.2626 25.2166C53.9194 25.0953 53.8458 24.9723 53.6993 24.9723C53.5528 24.9723 53.0371 24.9965 53.0371 24.9965C53.0371 24.9965 52.8413 25.1195 52.9401 25.3397C53.0372 25.5598 53.2078 25.6586 53.0371 25.7323C52.8665 25.806 52.6454 25.8293 52.3758 25.8293C52.1054 25.8293 51.8853 25.9758 51.5663 25.9758C51.2482 25.9758 51.1494 25.9021 50.7326 26.001C50.3165 26.0989 50.1934 26.0018 49.9006 26.0989C49.605 26.1977 48.9679 26.4421 48.9679 26.4421L48.6014 26.8599L47.4001 27.1295C47.4001 27.1295 46.9338 27.1779 47.1297 27.3244C47.3264 27.4726 47.571 27.594 47.571 27.6676C47.571 27.7422 47.792 27.8653 47.571 27.9371C47.3508 28.0118 47.4982 28.1097 47.0076 28.0854C46.517 28.0602 46.2725 28.0117 46.1989 28.0117C46.1253 28.0117 46.0759 27.8887 45.8791 27.9866C45.6832 28.0854 45.7578 28.1824 45.4631 28.1339C45.1693 28.0854 44.7766 28.2813 44.7766 28.2813L44.3858 28.452C44.3858 28.452 44.0417 28.2813 44.2376 28.6245C44.4335 28.9677 44.7273 28.9443 44.8504 29.0162C44.9735 29.089 44.9987 29.0414 45.0955 29.1878C45.1926 29.3351 45.2169 29.434 45.2169 29.434C45.2169 29.434 45.3157 29.7269 45.3157 29.9731C45.3157 30.2174 45.561 30.5858 45.34 31.0755C45.1198 31.5652 44.7524 32.4726 44.7524 32.4726C44.7524 32.4726 44.4837 32.7422 44.3363 32.8401C44.1881 32.9381 43.0615 33.4771 43.0615 33.4771C43.0615 33.4771 42.5718 33.8455 42.2762 33.9668C41.9833 34.0899 41.8603 34.1887 41.7623 34.3118C41.6635 34.4331 41.5907 34.5553 41.5907 34.5553C41.5907 34.5553 41.3947 34.4088 41.2474 34.5794C41.1001 34.752 41.0012 34.6531 40.7335 34.752C40.4622 34.8509 40.1693 34.8257 40.1693 35.0458C40.1693 35.2659 40.0219 35.389 39.8746 35.5121C39.7281 35.6343 39.6293 35.7323 39.508 35.8302C39.3849 35.9282 39.3112 36.0764 39.163 36.1248C39.0166 36.1742 39.0417 36.1006 38.8953 36.2713C38.747 36.4429 38.747 36.5903 38.6491 36.7376C38.5503 36.8841 38.4038 37.3018 38.3067 37.4249C38.2079 37.5462 37.9627 37.8895 37.8405 38.0126C37.7183 38.1348 37.6203 38.2813 37.6203 38.2813C37.6203 38.2813 37.571 38.3306 37.3247 38.5023C37.0813 38.6748 36.9339 38.797 36.9339 38.797C36.9339 38.797 36.9582 38.478 36.8108 38.9678C36.6644 39.4583 36.3948 39.9002 36.2717 40.0468C36.1486 40.1932 35.7821 40.39 35.7821 40.39C35.7821 40.39 35.438 40.4151 35.1199 40.4636C34.801 40.5131 34.8746 40.4151 34.6787 40.5616C34.4819 40.7081 34.4083 40.6595 34.2851 40.806C34.1638 40.9542 34.3588 40.9048 34.0902 41.1258C33.8206 41.3451 33.6742 41.5176 33.5996 41.6155C33.5259 41.7143 33.2815 42.2534 32.8889 42.3764C32.4963 42.4978 32.3004 42.5715 32.1782 42.6937C32.0561 42.8168 32.0066 42.9874 31.8341 43.0621C31.6635 43.1357 31.64 43.1339 31.5655 43.1833C31.4918 43.2327 31.4675 43.3064 31.4181 43.4295C31.3687 43.5527 31.2949 43.6497 31.2949 43.6497H30.879C30.879 43.6497 30.7316 43.479 30.6579 43.7961C30.5843 44.116 30.6328 44.2149 30.5115 44.3361C30.3894 44.4583 30.1188 44.6308 30.1188 44.6308C30.1188 44.6308 30.2663 44.5815 30.3157 44.8025C30.3651 45.0216 30.6094 44.7045 30.365 45.0216C30.1188 45.3415 30.1683 45.1205 30.1188 45.3415C30.0694 45.5617 29.5304 45.6345 29.5304 45.6345C29.5304 45.6345 29.4324 45.4897 29.3336 45.5868C29.2356 45.6839 29.0165 45.6839 29.0407 45.8312C29.0659 45.9795 29.2105 46.0773 29.1377 46.1753C29.0659 46.2723 28.6472 46.5922 28.6472 46.5922L28.2311 47.0577C28.2311 47.0577 28.0848 47.1062 27.9868 47.1555C27.888 47.2049 27.8152 47.0082 27.6678 47.2777C27.5205 47.5473 27.348 47.9408 27.2752 47.9884C27.2024 48.0369 27.0299 48.1842 27.0299 48.1842C27.0299 48.1842 26.9086 48.2085 26.7856 48.2831C26.6624 48.3567 26.5403 48.5535 26.4666 48.6012C26.3929 48.6497 26.2464 48.6003 26.1727 48.6497C26.0991 48.6991 26.074 48.8465 26.074 48.8465C26.074 48.8465 26.0739 49.0665 25.9527 49.1158C25.8296 49.1653 25.8781 48.9443 25.6571 49.1653C25.4369 49.3854 25.5583 49.1886 25.4118 49.7529C25.2653 50.3181 25.1916 50.3423 25.0201 50.4645C24.8485 50.5858 24.2608 51.0763 24.1387 51.1006C24.0156 51.1248 23.1324 51.2246 22.8638 51.3962C22.5934 51.5669 22.4962 51.7143 22.3005 51.69C22.1037 51.6657 22.0543 51.6406 21.6383 51.6406C21.2214 51.6406 21.1981 51.6657 20.9268 51.6163C20.8602 51.6037 20.7955 51.5858 20.7371 51.5678C20.5593 51.513 20.4308 51.4627 20.4128 51.5913C20.3877 51.7629 20.5593 51.9102 20.2897 52.0827C20.0202 52.2534 19.9213 52.1303 19.8972 52.3262C19.8729 52.523 19.7012 52.5472 19.7012 52.5472C19.7012 52.5472 19.8 52.3505 19.7012 52.2291C19.6033 52.107 19.6033 52.0566 19.4073 52.0332C19.2115 52.0091 19.0883 51.8859 18.941 51.9596C18.7936 52.0332 18.7686 52.1302 18.6715 52.3755C18.5746 52.6217 18.3525 52.7188 18.525 52.8167C18.6957 52.9155 18.8422 52.8913 18.6715 53.0125C18.5008 53.1356 18.3777 53.1608 18.304 53.1356C18.2295 53.1113 18.2546 53.1113 18.1324 53.1113C18.0102 53.1113 18.2052 52.9631 17.9123 53.1356C17.6167 53.3081 17.6419 53.185 17.5925 53.4052C17.5439 53.6253 17.4217 53.9936 17.4217 53.9936C17.4217 53.9936 17.3472 54.1411 17.3966 54.238C17.446 54.3368 17.5439 54.3863 17.4703 54.5813C17.3966 54.7771 17.2258 55.0232 17.1027 55.0728C16.9797 55.1222 16.7605 55.0476 16.5637 55.2434C16.3669 55.4393 16.2196 55.6855 16.0247 55.8562C15.8279 56.0277 15.8045 56.1751 15.6813 56.273C15.5582 56.3719 15.5582 56.371 15.436 56.5911C15.3129 56.8123 15.3875 56.8616 15.2394 57.0816C15.092 57.3027 15.0443 57.4249 15.0443 57.4249C15.0443 57.4249 14.8962 57.45 14.7749 57.5731C14.6518 57.6945 14.7003 57.6945 14.5781 57.8903C14.4559 58.087 14.4316 58.2354 14.2843 58.3566C14.1369 58.4788 14.0391 58.3566 13.818 58.4788C13.5979 58.6019 13.6716 58.6756 13.623 58.8229C13.5736 58.9694 13.6958 58.8229 13.4263 59.1158C13.1567 59.4115 13.083 59.5084 13.083 59.5084C13.083 59.5084 13.0345 59.5812 12.8378 59.6549C12.641 59.7286 12.7884 59.999 12.446 59.7286C12.1019 59.4608 12.0031 59.4608 12.0031 59.4608L11.8333 59.4843C11.8333 59.4843 11.8324 59.655 11.7354 59.8518C11.6365 60.0485 11.6617 60.1221 11.5386 60.2443C11.4155 60.3666 11.4155 60.4151 11.2933 60.4645C11.172 60.5139 11.1962 60.6127 10.9995 60.5139C10.8028 60.4151 10.8763 60.2443 10.6311 60.2443H10.1899C10.1899 60.2443 9.99402 60.3666 9.89696 60.3666C9.79815 60.3666 9.82327 60.1715 9.57716 60.2201C9.33271 60.2678 9.454 60.1222 9.23485 60.3414L9.01293 60.5633C9.01293 60.5633 8.81796 60.6127 8.81796 60.2929V59.8518C8.81796 59.8518 8.37675 60.0737 8.74513 59.7044C9.11167 59.3378 9.11163 59.2641 9.23473 59.2884C9.35783 59.3127 9.40725 59.2641 9.67498 59.2391C9.94538 59.2148 10.3129 59.2148 10.1412 59.0917C9.97056 58.9696 10.0181 58.798 9.74866 58.8958C9.47909 58.9947 9.30842 59.0423 9.18532 59.0666C9.06222 59.0917 8.98853 59.0917 8.6714 59.0917C8.3515 59.0917 8.13226 58.9947 8.13226 58.9947C8.13226 58.9947 8.00928 58.6264 7.98407 58.9695C7.95978 59.3128 7.98404 59.656 7.95975 59.7782C7.93556 59.9013 7.95975 60.3172 7.95975 60.4403C7.95975 60.5634 8.37578 60.6614 7.88614 60.6614C7.3965 60.6614 7.27339 60.7099 7.15029 60.4646C7.02719 60.2202 7.0514 60.1205 7.0272 59.9507C7.00383 59.7782 7.19971 59.6803 6.95443 59.655C6.70998 59.6308 6.58698 59.8024 6.43876 59.6075C6.2923 59.4116 6.61119 59.3622 6.26811 59.3128C5.92485 59.2642 5.80174 59.2642 5.70477 59.2642C5.60679 59.2642 5.53308 59.1654 5.53308 59.1654C5.53308 59.1654 5.43522 59.3622 5.04255 59.461C4.64997 59.5581 4.16031 59.8519 3.98781 59.5581C3.81705 59.2642 3.86638 59.116 3.74429 59.0666C3.6211 59.018 3.27802 58.8716 3.27802 58.8716C3.27802 58.8716 3.08122 58.5769 3.03274 58.7252C2.98416 58.8717 3.03272 58.9929 2.90962 59.0181C2.78744 59.0424 2.5682 59.0424 2.54299 59.2149C2.51879 59.3865 2.54217 59.4108 2.4694 59.5087C2.3957 59.6076 2.22319 59.7047 2.22319 59.7047C2.22319 59.7047 1.92943 59.4593 1.95362 59.8277C1.97874 60.1952 2.05151 60.3417 2.1252 60.3417C2.1989 60.3417 2.3714 60.6616 2.41998 60.5142C2.46939 60.3669 2.4694 60.074 2.4694 60.074C2.4694 60.074 2.41998 59.7783 2.66526 59.7783H2.90962C2.90962 59.7783 2.68947 59.9257 3.13154 59.9257H3.69488L3.89074 59.8277C3.89074 59.8277 4.01292 59.9985 4.16031 60.1216C4.3077 60.2446 4.06142 60.1224 4.30772 60.2446L4.553 60.3669C4.553 60.3669 4.67434 60.5879 4.52787 60.613C4.3814 60.6373 4.57727 60.5384 4.1846 60.6373C3.79202 60.7344 3.54759 60.8332 3.54759 60.8332C3.54759 60.8332 3.30148 60.8341 3.1793 61.0038C3.05795 61.1763 3.22779 61.2491 2.71294 61.3228C2.19892 61.3965 2.0759 61.3956 1.97884 61.4936C1.88085 61.5924 2.24831 61.8134 1.88085 61.5924C1.51247 61.3722 1.4397 61.2743 1.4397 61.2743C1.4397 61.2743 1.29148 60.8574 1.19442 61.1027C1.09653 61.3471 1.19443 61.3705 0.997823 61.4936C0.801857 61.6167 0.753356 61.6418 0.753356 61.8134C0.753356 61.9849 0.80193 62.3767 0.80193 62.3767L0.899834 62.6956C0.899834 62.6956 0.997816 62.6229 0.827059 62.8421C0.655473 63.064 0.164904 63.1611 0.33557 63.3318C0.508075 63.5043 0.801942 63.6517 0.827059 63.7981C0.851347 63.9445 0.753364 63.8736 0.924121 64.2159C1.09663 64.5572 1.02292 64.534 1.1945 64.6562C1.36618 64.7793 1.21798 64.6822 1.48746 64.8528L1.75784 65.0235C1.75784 65.0235 1.56115 65.2688 1.65996 65.515C1.75786 65.7594 1.88096 65.7594 1.88096 65.7594V66.1278C1.88096 66.3237 1.90615 66.3713 1.85684 66.5932C1.80734 66.8143 1.73364 67.0335 1.73364 67.0335C1.73364 67.0335 1.56115 67.1808 1.48746 67.3039C1.41468 67.427 1.34283 67.4755 1.31762 67.6463C1.29342 67.8188 1.21972 67.9166 1.21972 67.9166C1.21972 67.9166 0.973527 67.966 0.827059 67.966C0.68059 67.966 0.581764 67.6462 0.483873 67.966C0.384969 68.2833 0.311373 68.5052 0.33557 68.6283C0.360778 68.7495 0.335582 68.7513 0.434485 68.9705C0.532376 69.1916 0.606991 69.3623 0.606991 69.3623C0.606991 69.3623 0.827059 69.7801 0.827059 69.9265C0.827059 70.073 0.973522 70.1225 1.07141 69.9508C1.17032 69.7801 1.29342 69.8277 1.29342 70.0478C1.29342 70.2696 1.24392 70.2446 1.29342 70.4899C1.34098 70.7351 1.43978 70.9319 1.43978 70.9319C1.43978 70.9319 1.41641 71.1035 1.46407 71.3228C1.51256 71.5447 1.58625 71.4216 1.56113 71.692C1.53684 71.9606 1.24309 71.6417 1.34098 72.0092C1.43979 72.3775 1.46407 72.5483 1.46407 72.6965C1.46407 72.8439 1.31762 73.3578 1.31762 73.3578C1.31762 73.3578 1.26822 73.506 1.14512 73.5302C1.02294 73.5537 0.729158 73.1609 0.68058 73.4071C0.631175 73.6524 0.728247 73.8724 0.924121 73.9955C1.12092 74.1186 1.02293 74.0199 1.12091 74.1187C1.12091 74.1187 1.28616 74.1654 1.47578 74.0108C1.66448 73.8571 1.7848 73.7027 1.7848 73.7027C1.7848 73.7027 1.66446 73.5634 1.88812 73.5301C2.11187 73.4961 2.16311 73.5121 2.29964 73.4097C2.43802 73.3064 2.42007 73.3243 2.57455 73.186C2.72911 73.0494 3.05528 72.8077 3.14241 72.7566C3.22778 72.7053 3.34812 72.6693 3.41731 72.5328C3.48567 72.3963 3.52062 72.1365 3.53773 72.0341C3.55392 71.9308 3.60601 71.8464 3.60601 71.8464L4.01928 71.2102L4.39759 70.522C4.39759 70.522 4.49999 70.1959 4.63653 70.2983C4.7749 70.4016 4.9807 70.5732 5.03278 70.6083C5.08402 70.6433 5.27446 70.7125 5.32571 70.7457C5.37686 70.7789 5.56466 70.8662 5.63394 70.8662C5.70312 70.8662 5.72115 70.7277 5.87562 70.8662C6.03019 71.0027 6.30508 71.124 6.37334 71.2444C6.4417 71.3639 6.45965 71.4169 6.57999 71.5193C6.6995 71.6226 6.99155 71.7943 6.99155 71.7943C6.99155 71.7943 6.87121 71.8616 7.09487 72.017C7.31862 72.1725 7.49018 72.2237 7.54225 72.2579C7.59349 72.292 7.73094 72.3782 7.74805 72.4645C7.76507 72.5507 7.83518 72.5677 7.76507 72.6873C7.69588 72.8077 7.64473 73.186 7.64473 73.186C7.64473 73.186 7.55846 73.3064 7.6627 73.4609C7.7651 73.6154 7.93759 73.9263 8.00586 73.9597C8.07422 73.9929 8.11008 74.1141 8.2467 74.0629C8.38416 74.0108 8.36706 73.9245 8.48749 73.8733C8.60783 73.8221 8.74535 73.7871 8.79651 73.7026C8.84775 73.6154 8.95109 73.3745 9.00243 73.3405C9.05349 73.3063 9.02036 73.1518 9.29527 73.3064C9.57017 73.4609 9.50099 73.3927 9.65555 73.5633C9.81095 73.7358 9.77598 73.8212 9.9817 73.9245C10.1893 74.0288 10.2234 74.0629 10.36 74.097C10.4983 74.1321 10.4975 74.1483 10.6861 74.0288C10.8766 73.9083 11.0823 73.7178 11.0823 73.7178C11.0823 73.7178 11.8038 73.0825 12.0617 72.9452C12.3204 72.8077 12.3886 72.7897 12.4741 72.6873C12.5603 72.584 12.8353 72.1887 12.9206 71.9488C13.0078 71.7071 13.0589 71.6226 13.1443 71.5534C13.2314 71.4834 13.3168 71.2615 13.6259 71.3298C13.9359 71.399 13.6259 71.2623 14.0904 71.5363C14.554 71.8104 14.4507 71.9999 14.5198 72.07C14.589 72.1364 14.7949 72.2227 14.9835 72.1364C15.1731 72.052 15.1551 71.8625 15.2423 71.7942C15.3267 71.725 15.3267 71.5012 15.3618 71.3638C15.3968 71.2263 15.2423 70.831 15.4481 70.9002C15.6538 70.9695 15.8263 71.0377 15.8263 71.0377C15.8263 71.0377 16.3249 71.1931 16.3762 71.2775C16.4274 71.3638 16.6331 71.5013 16.5649 71.5714C16.4966 71.6387 16.2908 71.6405 16.5137 71.725C16.7365 71.8103 16.7374 71.8444 16.908 71.8794C17.0805 71.9145 17.0454 71.9657 17.253 71.9144C17.4588 71.8624 17.5612 71.8974 17.6996 71.777C17.8361 71.6557 17.7337 71.8462 17.9736 71.7941C18.2144 71.7429 18.4201 71.6405 18.4381 71.5362C18.456 71.432 18.4381 71.2263 18.456 71.1572C18.4722 71.0889 18.5073 70.9513 18.6618 70.9513C18.8164 70.9513 18.8496 70.9342 18.8334 71.0546C18.8163 71.175 18.713 71.2613 18.8334 71.2613C18.9546 71.2613 19.1075 71.1571 19.1605 71.0888C19.2116 71.0205 19.245 70.918 19.3662 70.8489C19.4866 70.7788 19.5899 70.6764 19.7956 70.6764C20.0023 70.6764 19.8136 70.7627 20.0886 70.7105C20.3635 70.6593 20.8783 70.4526 20.9295 70.4356C20.9816 70.4194 20.9476 70.4015 21.05 70.4356C21.1533 70.4706 21.7031 70.2299 21.8936 70.2137C22.0814 70.1957 22.0993 70.0412 22.4254 70.1957C22.7525 70.3493 22.4605 70.4373 22.6142 70.4194C22.7687 70.4015 23.1298 70.3493 23.2512 70.3332C23.3706 70.3161 23.7148 70.3493 23.75 70.4194C23.7832 70.4886 23.8684 70.7627 23.9035 70.8489C23.9377 70.9342 24.1794 71.0025 24.2306 71.0717C24.2818 71.1418 24.4031 71.175 24.315 71.2613C24.2306 71.3475 24.2638 71.3475 24.076 71.4158C23.8865 71.4832 23.8182 71.5012 23.7319 71.5532C23.6457 71.6045 23.5945 71.6045 23.5424 71.6908C23.4912 71.777 23.5262 71.742 23.457 71.8794C23.3869 72.0169 23.3024 72.052 23.2845 72.1364C23.2674 72.2237 23.2845 72.4473 23.2845 72.4473C23.2845 72.4473 23.2332 72.5148 23.164 72.5327C23.0967 72.5506 22.7346 72.5506 22.7176 72.6189C22.7005 72.6873 22.7346 72.7231 22.855 72.7231H23.13C23.1812 72.7231 23.2162 72.6881 23.3537 72.7231C23.4911 72.7565 23.6286 72.7052 23.6628 72.7564C23.6969 72.8076 23.6287 72.8256 23.8012 72.8588C23.9718 72.8939 23.9207 73.0493 23.9719 72.8939C24.024 72.7384 24.0922 72.5839 24.0239 72.5839C23.9557 72.5839 23.9035 72.6019 23.8182 72.5678C23.7319 72.5327 23.6107 72.6019 23.5945 72.4815C23.5774 72.3602 23.5594 72.2398 23.6628 72.2066C23.7653 72.1724 23.819 72.1886 23.8865 72.1545C23.9557 72.1212 23.9889 72.1032 24.1794 71.9828C24.3672 71.8625 24.5226 71.707 24.6421 71.6909C24.7624 71.6738 25.0382 71.5866 25.1074 71.6225C25.1758 71.6558 25.3295 71.7591 25.3465 71.8283C25.3644 71.8975 25.3644 71.9487 25.3825 72.07C25.3995 72.1894 25.5703 72.4123 25.6214 72.4995C25.6727 72.5839 25.4507 72.5506 25.9664 72.7384C26.4813 72.929 26.4984 72.8076 26.6187 72.9622C26.7401 73.1176 26.8065 73.2218 26.9107 73.3755C27.0149 73.53 26.997 73.547 27.1174 73.5983C27.2386 73.6495 27.4264 73.4275 27.5989 73.6845C27.7705 73.9414 27.9251 74.0448 27.9601 74.1139C27.9942 74.1832 27.9071 74.2344 28.0975 74.3036C28.2862 74.3718 28.2512 74.3198 28.5451 74.4581C28.8352 74.5947 28.9386 74.6639 29.0257 74.7151C29.1102 74.7672 29.2494 74.8526 29.2494 74.8526L29.4246 74.8965C29.5217 74.8723 29.8641 74.7259 29.9376 74.7501C30.0113 74.7743 30.4992 75.043 30.4992 75.043C30.4992 75.043 30.8172 75.3368 30.9646 75.4095C31.1102 75.4823 31.3545 75.6055 31.4273 75.6548C31.501 75.7025 31.6726 75.7753 31.6726 75.7753C31.6726 75.7753 31.624 75.9478 31.5998 76.0205C31.5746 76.0933 31.6474 76.3143 31.6474 76.3143V76.583C31.6474 76.7052 31.624 76.8023 31.624 76.876C31.624 76.9497 31.6232 76.9982 31.7453 77.0224C31.8675 77.0466 31.8676 77.0458 31.9897 76.9982C32.1119 76.9497 32.2593 76.6801 32.3563 76.583C32.4542 76.4842 32.4786 76.2165 32.4786 76.2165C32.4786 76.2165 32.332 75.9721 32.332 75.8742C32.332 75.7753 32.5027 75.751 32.3078 75.6783C32.1118 75.6055 32.1362 75.5561 32.0391 75.4581C31.9422 75.361 31.8432 75.1401 31.8432 75.0674C31.8432 74.9954 31.8674 74.9209 31.8674 74.7502C31.8674 74.5795 31.6967 74.2857 31.6967 74.0908C31.6967 73.8949 31.5261 73.7493 31.6967 73.6262C31.8675 73.5031 31.8926 73.503 32.0148 73.4555C32.1361 73.407 32.0381 73.4321 32.3077 73.407C32.5772 73.3827 32.7964 73.3827 32.7964 73.3827C32.7964 73.3827 33.3336 73.2839 33.3822 73.2102C33.4307 73.1374 33.6266 72.7951 33.6266 72.7951C33.6266 72.7951 33.6517 72.5274 33.6993 72.4295C33.7487 72.3315 33.7245 72.2821 33.7981 72.1851C33.8718 72.088 34.189 71.5256 34.1154 71.1105C34.0417 70.6945 33.9186 70.1824 33.8952 70.1087C33.8718 70.0342 33.8718 69.8159 33.8718 69.7412C33.8718 69.6676 33.773 69.0324 33.773 69.0324L33.4559 68.3486C33.4559 68.3486 33.8961 68.08 33.9689 68.0558C34.0417 68.0306 34.2142 67.7619 34.2142 67.7619C34.2142 67.7619 34.3839 67.8842 34.507 67.8842C34.6274 67.8842 34.7262 67.9811 34.7262 67.8842C34.7262 67.7871 34.8979 67.2247 34.8494 67.1519C34.8 67.0782 34.6526 66.9812 34.6275 66.859C34.6041 66.7359 34.6041 66.5166 34.6041 66.3935C34.6041 66.2714 34.507 65.8572 34.507 65.8572L34.4163 65.6623L34.3588 65.5392C34.3588 65.5392 34.507 65.4413 34.507 65.3676C34.507 65.2948 34.4334 65.2454 34.3588 65.1232C34.287 65.0019 34.1647 64.9778 34.1647 64.8555C34.1647 64.7324 33.9689 64.6606 34.2617 64.4638C34.5547 64.2688 34.7011 64.2203 34.897 64.072C35.093 63.9274 35.3857 63.7791 35.4845 63.6335C35.5816 63.4862 36.4613 62.3874 36.5097 62.2411C36.5574 62.0946 36.5591 61.8736 36.7793 61.8017C36.9984 61.7289 37.5357 61.2635 37.6085 61.2383C37.6822 61.2141 38.1224 61.2141 38.2932 61.1414C38.4639 61.0686 38.7819 61.02 38.879 61.02C38.9778 61.02 39.0021 61.0434 39.2949 61.0919C39.5879 61.1414 39.2213 61.0434 39.8808 61.1646C40.5411 61.2878 40.9572 61.4099 40.9572 61.4099C40.9572 61.4099 41.1269 61.5564 41.1269 61.6795C41.1269 61.7999 41.1764 62.1422 41.1764 62.2411C41.1764 62.339 41.1513 62.436 41.1764 62.5088C41.2006 62.5834 41.25 62.9733 41.3238 63.0955C41.3966 63.2177 41.4442 63.3659 41.4692 63.4863C41.4935 63.6095 41.6166 63.8053 41.6894 63.976C41.7622 64.1458 41.8853 64.2923 41.9822 64.3174C42.0793 64.3417 42.3974 64.4881 42.3974 64.4881C42.3974 64.4881 42.5681 64.6103 42.7145 64.6103C42.8619 64.6103 43.18 64.7073 43.18 64.7073C43.18 64.7073 43.5708 64.8798 43.6687 64.9526C43.7657 65.0254 43.9859 65.196 44.0587 65.3183C44.1324 65.4414 44.1323 65.5151 44.2545 65.5393C44.3767 65.5627 44.5709 65.6848 44.6445 65.6848C44.7181 65.6848 44.817 65.7091 44.9392 65.7091C45.0604 65.7091 45.1835 65.4162 45.3533 65.4162H45.8188C45.8188 65.4162 46.2087 65.1485 46.2815 65.099C46.3552 65.0496 46.3552 65.0002 46.454 64.8556C46.551 64.7073 47.2113 64.6831 47.2841 64.6831C47.3578 64.6831 47.7971 64.4639 47.7971 64.4639L47.9185 64.0972L47.6255 64.0245C47.6255 64.0245 47.7487 63.9742 47.6508 63.8781C47.5519 63.7792 47.3327 63.5851 47.3327 63.5851C47.3327 63.5851 47.065 63.4369 47.4315 63.4863C47.7971 63.5357 47.87 63.5851 47.9679 63.5851C48.0667 63.5851 48.2608 63.6328 48.2608 63.6328C48.2608 63.6328 48.2608 63.4863 48.3344 63.3642C48.409 63.2428 48.6283 62.9499 48.6283 62.9499L48.9948 62.5087L49.7765 62.5581L49.9229 62.8762L50.3138 62.8016C50.3138 62.8016 50.3865 62.7279 50.435 62.6075C50.4844 62.4844 50.435 62.3883 50.5824 62.3641C50.728 62.3389 50.9004 62.0945 51.0703 62.0945C51.2419 62.0945 51.1682 62.0217 51.5105 62.0945C51.8529 62.1673 51.9992 62.1916 51.9992 62.1916L52.3165 61.9229C52.3165 61.9229 52.4387 61.8735 52.6346 61.9229C52.8305 61.9723 53.1234 62.0693 53.1971 62.0693C53.2698 62.0693 53.4405 61.9724 53.5394 61.948C53.6356 61.9229 53.8322 61.8986 53.8322 61.8986C53.8322 61.8986 53.9041 61.9965 54.0265 61.9965C54.1495 61.9965 54.7847 61.825 54.7847 61.825C54.7847 61.825 54.8566 61.6057 55.004 61.6057C55.1513 61.6057 55.2483 61.63 55.3219 61.6057C55.3955 61.5806 55.516 61.7289 55.6391 61.3129C55.7622 60.8968 55.7379 61.0936 55.7622 60.8969C55.7864 60.702 55.7864 60.5789 55.7864 60.5789C55.7864 60.5789 55.6885 60.4333 55.6885 60.3354C55.6885 60.2366 55.7864 59.9931 55.7864 59.9931C55.7864 59.9931 55.9319 59.9688 56.1278 59.9688C56.3237 59.9688 56.6409 60.286 56.6409 60.286C56.6409 60.286 57.0084 60.2366 57.1781 60.2366H57.7172L58.2635 59.9427C58.2635 59.9427 58.4782 59.8709 58.657 59.764C58.8358 59.6562 59.1224 59.4414 59.1943 59.3345C59.2653 59.2267 59.5878 58.905 59.5878 58.905L59.9813 58.8691C59.9813 58.8691 60.5176 59.0128 60.5537 59.1198C60.5896 59.2267 60.4468 59.7999 60.4468 59.7999L60.4108 59.9787L60.9832 60.1216C60.9832 60.1216 61.126 60.0856 61.2338 60.2293C61.3408 60.3722 60.7684 60.3004 61.3408 60.3722C61.9139 60.4441 62.1637 60.4441 62.1637 60.4441L62.3785 60.5869C62.3785 60.5869 62.5932 60.6588 62.701 60.5869C62.8079 60.5151 62.9867 60.4082 62.9867 60.4082L63.0227 59.5851C63.0227 59.5851 63.2015 59.4064 63.3802 59.2627C63.56 59.1198 64.2033 58.7622 64.2033 58.7622C64.2033 58.7622 64.418 58.8332 64.5258 58.6903C64.6327 58.5474 64.8475 58.1539 64.8475 58.1539V57.4379L64.9319 57.4657L65.1701 57.5457L65.6354 58.0461C65.6354 58.0461 65.8851 58.2609 66.0999 58.2249C66.3146 58.189 66.8878 58.0821 66.8878 58.0821C66.8878 58.0821 67.0667 57.8674 67.2095 57.8314C67.3523 57.7954 67.7459 57.5457 67.8897 57.5807C68.0326 57.6166 68.6049 57.6885 68.6049 57.6885V57.1162C68.6049 57.1162 68.6407 57.0443 68.9624 57.0084C69.285 56.9724 69.4278 56.9724 69.5715 56.9374C69.7144 56.9015 69.7504 56.9374 69.8933 56.7937C70.036 56.6508 70.3227 56.4001 70.3227 56.4001H71.0379C71.1457 56.4001 71.4323 56.9015 71.4323 56.9015C71.4323 56.9015 71.3963 57.0084 71.3963 57.1512C71.3963 57.295 71.6111 57.4738 71.6111 57.4738L72.0405 57.5097L72.1834 57.1162C72.1834 57.1162 72.3622 57.0803 72.4341 57.259C72.5051 57.4379 72.6488 57.4379 72.7198 57.6166C72.7916 57.7954 72.8276 57.9032 72.8986 58.0101C72.9705 58.1179 72.8276 58.189 73.0783 58.3327C73.328 58.4756 73.7575 58.6542 73.7575 58.6542L73.8294 58.2607L74.4017 57.7603L75.1178 57.7953C75.1178 57.7953 75.797 58.1179 75.9408 58.1179H76.9785L77.1932 58.082C77.1932 58.082 77.0854 57.223 77.1932 57.1871C77.3001 57.1511 77.7296 56.9014 77.7296 56.9014L78.231 55.9705L78.4816 56.1143L78.5884 55.577L79.2686 55.0047C79.2686 55.0047 79.4115 55.0407 79.4834 54.8969C79.5543 54.7541 79.5903 54.5394 79.5903 54.5394L79.5543 54.003H78.8032C78.5166 54.003 78.0872 54.0389 78.0872 54.0389C78.0872 54.0389 77.8015 54.11 77.7295 54.2537C77.6577 54.3965 77.3 54.9689 77.3 54.9689L77.0144 55.2195L76.6918 54.6113V54.3606C76.6918 54.2178 76.7278 54.039 76.8347 54.039C76.9425 54.039 77.336 54.0741 77.336 54.0741C77.336 54.0741 77.3 54.1459 77.4789 54.039C77.6577 53.9312 77.8724 53.6446 77.8724 53.6446C77.8724 53.6446 78.159 53.5377 78.2668 53.5377C78.3737 53.5377 78.3736 53.4658 78.6603 53.5377C78.9461 53.6096 79.9479 53.8593 79.9479 53.8593L80.0198 54.2537H80.628C80.628 54.2537 80.6998 54.2888 80.8069 54.2888C80.9147 54.2888 81.4152 54.1459 81.523 54.11C81.6299 54.0741 82.1312 53.8242 82.1312 53.8242C82.1312 53.8242 82.0952 53.5376 82.3819 53.5016L82.6676 53.4657C82.6676 53.4657 82.9542 53.5016 82.9901 53.3948C83.0261 53.287 83.1689 52.9653 83.1689 52.9653C83.1689 52.9653 83.0612 52.6788 83.133 52.5C83.2049 52.3211 82.9542 52.1063 83.2409 52.1063C83.5265 52.1063 83.5265 52.1783 83.7412 52.0345C83.956 51.8916 83.956 51.6768 84.0989 51.4621C84.2426 51.2474 84.1707 51.3193 84.3855 51.1755L84.6002 51.0327L84.7071 50.6751C84.7071 50.6751 84.5284 50.4244 84.6721 50.3885C84.8149 50.3525 84.8509 50.3525 84.9937 50.3175C85.1366 50.2815 85.3154 50.2456 85.3154 50.2456L85.6379 50.0309C85.6379 50.0309 85.8168 49.9231 86.0315 49.888C86.2462 49.852 86.5328 49.7443 86.5328 49.7443H86.7799C86.7431 49.6185 86.7116 49.4838 86.7116 49.3876C86.7116 49.1486 86.7116 49.1953 86.9028 48.862C87.0925 48.5287 86.9029 48.5287 86.6163 48.2896C86.3297 48.0506 86.5678 47.9563 86.5678 47.9563L86.0906 47.1451C86.0906 47.1451 85.6144 46.9545 85.4707 46.9545C85.3279 46.9545 85.2317 46.1899 85.2317 46.1899L85.3746 45.2842C85.3746 45.2842 85.6144 44.8547 85.8525 44.5214C86.0906 44.1871 85.6612 43.8996 85.5183 43.8529C85.3746 43.8053 85.0422 43.5197 85.1365 43.0901C85.2317 42.6606 85.4231 42.7074 85.566 42.5169C85.7098 42.3265 85.6144 41.9922 85.5183 41.7523C85.4223 41.5141 85.5183 41.7523 85.3278 41.4666C85.1365 41.18 85.4707 41.18 85.6144 40.8C85.7573 40.4172 85.9477 40.4172 86.0906 40.3705C86.2335 40.3219 86.5678 40.1306 86.6163 39.8917C86.6631 39.6535 86.6631 39.5117 86.9497 39.2251C87.2353 38.9393 87.4753 38.8432 87.5221 38.6994C87.5688 38.5566 87.7609 37.9842 87.8086 37.8414C87.8553 37.6976 87.8563 37.5081 88 37.2214C88.1429 36.9349 88.5238 37.1252 88.7151 37.1252C88.9064 37.1252 88.8103 36.8386 88.8579 36.6491C88.9065 36.4577 88.9065 36.0767 88.8579 35.9329C88.8103 35.7901 88.4284 35.694 88.4284 35.694C88.4284 35.694 88.3342 35.2178 88.3342 34.9313C88.3342 34.6455 88.4284 34.6455 88.5723 34.3095C88.5929 34.2601 88.5965 34.2296 88.6054 34.1909L89.3359 34.5486C89.3359 34.5486 89.7167 34.7399 90.0033 34.4057C90.2891 34.0714 90.4796 33.7372 90.671 33.642C90.8623 33.5467 90.9567 33.6905 91.1966 33.4039C91.4347 33.1173 91.5299 32.8315 91.5299 32.8315C91.5299 32.8315 91.4348 32.2589 91.4348 31.9722Z" fill="#D2DFD5" stroke="white" stroke-width="0.6"/>
<path d="M58.5654 3.3395C58.5492 3.47796 58.497 3.92628 58.497 3.92628C58.497 3.92628 58.2895 3.92628 58.445 4.09971C58.6004 4.27222 59.0155 4.37635 59.0155 4.37635C59.0155 4.37635 59.0847 4.4438 59.0676 4.53176C59.0496 4.61889 58.9984 4.79046 59.0496 4.84271C59.1008 4.89387 59.6022 5.01429 59.6022 5.01429C59.6022 5.01429 59.6543 5.01523 59.6543 5.11947C59.6543 5.22279 59.6713 5.36107 59.6713 5.36107C59.6713 5.36107 60.0182 5.39612 60.0182 5.48149C60.0182 5.56779 59.8097 5.72502 60.0352 5.74112C60.2598 5.75824 60.329 5.81031 60.3982 5.74112C60.4666 5.67194 60.6732 5.17062 60.6732 5.17062C60.6732 5.17062 60.6579 5.17061 60.7603 5.20474C60.8637 5.24071 61.002 5.20568 61.1413 5.36107C61.2796 5.51656 61.364 5.60275 61.5725 5.62078C61.78 5.63698 61.9346 5.72319 61.9346 5.63698C61.9346 5.55161 62.1251 5.11946 61.9876 4.96305C61.8502 4.80858 62.0218 4.85972 61.6929 4.80857C61.364 4.75641 60.8304 4.60103 61.1924 4.60103H61.6596C61.763 4.60103 61.7971 4.65207 61.8502 4.58289C61.9013 4.51379 62.1251 4.08157 62.1251 4.08157C62.1251 4.08157 62.3677 4.15076 62.3847 4.22086C62.4018 4.29005 62.4368 4.308 62.4018 4.42844C62.3677 4.54878 62.2455 4.58282 62.3326 4.63416C62.4198 4.68715 62.6255 4.61886 62.6786 4.58289C62.7306 4.54885 62.8339 4.7393 62.8339 4.37635C62.8339 4.01248 62.8852 3.61539 62.9382 3.56313C62.9903 3.51106 63.0236 3.01066 63.0236 3.01066C63.0236 3.01066 63.2832 2.83816 63.2491 2.75094C63.214 2.66464 63.2499 2.43996 63.0074 2.30177C62.7648 2.16422 62.7468 2.18042 62.6786 2.11124C62.6102 2.04205 62.7648 1.92171 62.5743 1.86955C62.3847 1.8184 62.108 1.69797 62.108 1.69797L61.5905 1.19665C61.5905 1.19665 61.3487 0.954018 61.2616 0.936997C61.1745 0.918965 61.0198 0.762664 60.9688 0.729451C60.9157 0.696146 60.604 0.436523 60.604 0.436523L60.3802 0.747393H60.1727C60.0865 0.747393 59.896 0.729451 59.896 0.729451L59.8618 0.608102C59.8618 0.608102 59.7747 0.626137 59.7064 0.678211L59.6381 0.729451C59.6381 0.729451 59.4989 0.711419 59.4117 0.729451C59.3264 0.747392 59.2401 0.71235 59.3093 0.833702C59.3784 0.954041 59.4988 0.953111 59.4988 1.07446C59.4988 1.19664 59.533 1.26491 59.4117 1.26491C59.2913 1.26491 59.188 1.16067 59.0846 1.26491C58.9804 1.36915 58.9804 1.3871 58.8942 1.61085C58.8079 1.83543 58.7559 1.78427 58.7559 1.9738C58.7559 2.16424 58.9804 2.31972 58.7387 2.28467C58.497 2.25053 58.427 2.12928 58.3757 2.21549C58.3237 2.30178 58.2383 3.06275 58.2204 3.11482C58.2022 3.16607 58.117 3.25234 58.117 3.25234C58.117 3.25234 58.5824 3.2002 58.5654 3.3395Z" fill="#D2DFD5" stroke="white" stroke-width="0.6"/>
<path d="M52.2573 8.90383C52.2573 8.90383 52.6383 8.97292 52.7586 9.00631C52.879 9.0422 52.933 9.38722 53.3291 9.83647C53.7272 10.2857 53.5367 10.1141 53.7092 10.2165C53.8826 10.3217 53.7092 10.2165 53.8656 10.4582C54.0219 10.6999 53.9869 10.6478 54.1944 10.7358C54.401 10.823 54.3489 10.7358 54.4531 10.7358C54.5564 10.7358 54.6957 10.6478 54.6957 10.6478C54.6957 10.6478 54.9887 10.9767 55.109 11.0287C55.2303 11.08 55.0758 10.9254 55.145 10.8562C55.2142 10.787 55.2824 10.787 55.4729 10.6658C55.6625 10.5453 54.9716 10.5632 54.9545 10.4762C54.9374 10.3891 54.8673 10.39 54.6957 10.2857C54.5223 10.1815 54.5385 10.2678 54.1944 10.2345C53.8476 10.2012 53.9869 10.1653 53.8144 10.0261C53.6409 9.88856 53.5025 9.49238 53.5025 9.49238C53.5025 9.49238 53.3983 9.12758 53.3983 9.02426C53.3983 8.92186 53.3983 8.83464 53.3472 8.67925C53.295 8.52376 53.1225 8.59296 53.0874 8.38458C53.0542 8.17702 53.2079 8.19494 53.3472 8.19494C53.4855 8.19494 53.6059 8.19495 53.7613 8.12576C53.9167 8.0575 53.7613 7.95326 53.7784 7.83292C53.7965 7.71074 53.9347 7.91822 54.0048 7.98832C54.0741 8.05751 53.9518 8.24621 53.9168 8.31539C53.8827 8.38458 53.8998 8.45467 54.1253 8.69545C54.3489 8.93787 54.4363 8.74752 54.5224 8.73133C54.6087 8.71339 54.5224 8.73133 54.7471 8.71339C54.9717 8.69545 54.8334 8.67926 54.8674 8.59296C54.9025 8.50584 54.9196 8.41962 54.9375 8.22917C54.9545 8.03955 54.9025 8.09173 54.8674 7.98841C54.8334 7.88417 54.6266 7.45204 54.6428 7.24448C54.6598 7.03876 54.765 7.21127 55.145 7.24448C55.5251 7.28045 55.2995 7.57329 55.2995 7.64247C55.2995 7.71083 55.2995 7.98841 55.3175 8.12596C55.3355 8.26433 55.456 8.57519 55.456 8.66231C55.456 8.74861 55.3867 8.95527 55.3517 9.02445C55.3176 9.09364 55.2133 9.26614 55.127 9.35326C55.0408 9.43864 55.4379 9.71538 55.8 9.76746C56.1639 9.81962 55.853 9.68126 55.9573 9.55991C56.0597 9.43957 56.1468 9.45658 56.2501 9.23292C56.3553 9.00651 56.4577 8.88607 56.4757 8.83482C56.4927 8.78275 56.6814 8.5752 56.7867 8.54189C56.89 8.50684 56.89 8.52387 56.9932 8.50593C57.0974 8.4889 57.3733 8.47179 57.3733 8.38466C57.3733 8.29753 57.0615 8.38467 56.8036 8.35136C56.5449 8.3164 56.7344 8.28225 56.7344 8.17801C56.7344 8.07377 56.7684 7.95336 56.977 7.6596C57.1837 7.36491 56.9411 7.50419 56.9241 7.38284C56.9079 7.2625 56.561 7.24448 56.4757 7.24448C56.3885 7.24448 56.4757 7.45202 56.4757 7.69371C56.4757 7.9354 56.4065 7.90219 56.216 7.95334C56.0264 8.00459 56.0776 7.86621 56.0776 7.76289C56.0776 7.66049 55.8702 7.60751 55.7668 7.45202C55.6617 7.29571 55.7488 7.22746 55.7488 6.95164C55.7488 6.67397 55.836 6.81232 55.818 6.72519C55.8001 6.63982 55.818 6.72521 55.5071 6.62263C55.1962 6.51931 55.2484 6.8473 55.1962 6.86432C55.1441 6.88244 55.0229 6.95152 54.9545 6.95152C54.8854 6.95152 54.5737 6.80148 54.5224 6.79513C54.1253 6.74306 54.0211 7.00268 54.0211 7.00268C54.0211 7.00268 54.0211 7.36481 53.969 7.4178C53.9168 7.46987 53.8475 7.434 53.6761 7.434C53.5035 7.434 53.5548 7.43399 53.3472 7.4178C53.1387 7.40069 53.2259 7.46906 53.0875 7.52205C52.95 7.5732 52.9842 7.64238 52.8971 7.76281C52.8125 7.88407 52.897 7.91822 52.8809 8.05577C52.8638 8.19497 52.8809 8.05576 52.7076 8.213C52.5351 8.36664 52.3275 8.2291 52.2412 8.24621C52.155 8.26415 52.0678 8.55708 52.0166 8.83465C51.9644 9.1114 52.2573 8.90383 52.2573 8.90383Z" fill="#D2DFD5" stroke="white" stroke-width="0.6"/>
<path d="M39.8422 73.7641C39.7272 73.6949 39.8657 73.6248 39.7487 73.5799C39.6328 73.5331 39.3327 73.394 39.1944 73.4172C39.056 73.4415 39.056 73.3714 38.9167 73.5107C38.7784 73.6491 38.8008 73.5107 38.755 73.8099C38.709 74.1118 38.9868 74.2259 38.64 74.2259C38.2931 74.2259 37.9455 74.1799 37.853 74.2259C37.7613 74.2735 37.6221 74.6194 37.5295 74.6893C37.4369 74.7586 37.5529 75.0128 37.0902 74.8745C36.6265 74.7361 36.72 74.852 36.3274 74.5735C35.9338 74.2949 35.888 74.4351 35.8422 74.251C35.7954 74.0649 35.773 73.9733 35.773 73.8098V73.5158C35.7283 73.5176 35.6522 73.5169 35.5178 73.5106C35.0326 73.4872 35.0326 73.4414 34.985 73.3713C34.9392 73.3021 35.0326 73.0254 34.8934 73.0254H34.5233C34.4083 73.0254 34.5224 73.1863 34.3616 73.233C34.2007 73.2788 34.1298 73.1629 34.0373 73.2554C33.9456 73.348 34.0148 73.4414 33.853 73.463C33.6904 73.4873 33.4596 73.348 33.3437 73.4873C33.3437 73.4873 33.3437 73.7874 33.3212 73.8574C33.2978 73.9266 33.3212 73.9733 33.2287 74.0425C33.1361 74.1117 33.0669 74.2033 33.0669 74.2033C33.0669 74.2033 33.1127 74.2033 33.0893 74.4118C33.0669 74.6193 33.1361 74.8053 33.1361 74.9203C33.1361 75.0353 33.0903 75.0128 33.2978 75.2438C33.5062 75.4764 33.783 75.6373 33.783 75.7064V75.9383C33.783 75.9383 33.853 76.1 33.968 75.9841C34.084 75.8691 33.8297 75.9617 34.084 75.8691C34.3391 75.7756 33.854 75.7981 34.3391 75.7757C34.8243 75.7532 34.7776 75.7298 35.0552 75.7532C35.3319 75.7756 35.2627 75.8448 35.3319 75.7757C35.4012 75.7065 35.4488 75.3597 35.5404 75.2671C35.6338 75.1746 35.633 75.0829 35.7955 75.0829C35.9573 75.0829 36.0031 75.0353 36.1414 75.1045C36.2807 75.1746 36.0947 75.1288 36.3966 75.1979C36.6967 75.2671 36.8351 75.2213 36.951 75.3822C37.0678 75.5456 37.3454 75.6148 37.1594 75.684C36.9735 75.7532 36.9043 75.7298 36.8818 75.8233C36.8594 75.9149 36.6051 76.0533 36.8818 76.0533C37.1349 76.0533 37.3964 75.9801 37.4424 75.9667C37.4557 75.9734 37.482 75.9841 37.553 76.0075C37.7614 76.0767 37.5763 76.2149 37.7614 76.0767C37.9456 75.9383 38.1073 75.7756 38.0147 75.5905C37.9223 75.4073 37.8305 75.3139 37.8305 75.2213C37.8305 75.1288 37.8305 74.8745 37.8997 74.8053C37.9689 74.7361 37.8081 74.5502 38.0381 74.5277C38.269 74.5043 38.2699 74.5043 38.3625 74.5043C38.4541 74.5043 38.7093 74.6427 38.8009 74.6427C38.8934 74.6427 38.8702 74.6669 39.0786 74.5043C39.2861 74.3426 39.4029 74.2968 39.472 74.2509C39.5413 74.2032 39.5413 74.1565 39.7029 74.134C39.8114 74.1191 39.9117 74.1116 40.0039 74.1116C40.1432 74.1116 40.4667 73.8106 40.3732 73.7873C40.2816 73.7638 39.9572 73.8333 39.8422 73.7641Z" fill="#D2DFD5" stroke="white" stroke-width="0.6"/>
<path d="M35.7731 73.4868V73.5153C35.8903 73.5105 35.7731 73.4868 35.7731 73.4868Z" fill="#D2DFD5" stroke="white" stroke-width="0.6"/>
<path d="M35.7954 64.9996C35.9339 64.9538 36.0722 64.7221 36.1414 64.6762C36.2115 64.6295 36.2806 64.4453 36.3965 64.306C36.5115 64.1676 36.6508 64.0751 36.7891 64.0059C36.9275 63.9359 37.1126 63.7282 37.2284 63.4731C37.3453 63.2196 37.1818 62.8721 37.1818 62.8721C36.9967 62.572 36.7199 63.0347 36.5806 63.1506C36.4424 63.2656 36.3274 63.2431 36.003 63.4273C35.6787 63.6124 35.7729 63.7741 35.6786 63.9359C35.587 64.0984 35.4945 64.306 35.4253 64.4687C35.3552 64.6295 35.4253 64.6071 35.4253 64.7221C35.4253 64.8379 35.6562 65.0454 35.7954 64.9996Z" fill="#D2DFD5" stroke="white" stroke-width="0.6"/>
<path d="M43.1943 65.0226C42.9868 64.9768 42.569 64.8752 42.4998 64.8609C42.3848 64.8375 42.1764 65.2778 42.0839 65.347C41.9922 65.4161 42.2006 65.5779 42.2006 65.6938C42.2006 65.8088 42.0381 65.9715 41.8997 66.0865C41.7604 66.2015 41.7604 66.1789 41.622 66.2707C41.4836 66.3631 41.3687 66.5033 41.136 66.8035C40.9051 67.1026 40.905 66.9651 40.7434 66.8035C40.5807 66.6408 40.5116 66.6174 40.4657 66.4099C40.4199 66.2015 40.5115 66.2015 40.6508 66.0173C40.7893 65.8322 40.7667 65.9472 40.8359 65.878C40.905 65.8088 40.8584 65.7163 40.8817 65.5554C40.905 65.3928 40.8817 65.1619 40.9276 64.9759C40.9743 64.7917 40.9967 64.6759 41.1135 64.33C41.2295 63.9831 41.1135 64.0057 41.0911 63.8888C41.0677 63.7738 41.0911 63.8888 40.9742 63.7973C40.8584 63.7056 40.8584 63.6588 40.5807 63.4962C40.304 63.3345 40.4658 63.4504 40.1648 63.4962C39.8647 63.5421 39.9572 63.4729 39.6571 63.3812C39.357 63.2878 39.5412 63.5196 39.5412 63.5897C39.5412 63.6589 39.6327 63.7505 39.7019 63.8665C39.7712 63.9832 39.6795 64.0282 39.6327 64.0973C39.5869 64.1665 39.5869 64.2599 39.6795 64.5142C39.7729 64.7676 39.888 64.3058 40.0263 64.1908C40.1648 64.0748 40.3732 64.5142 40.5114 64.5834C40.6507 64.6526 40.6049 64.9535 40.6049 64.9535C40.6049 64.9535 40.5592 65.4162 40.4656 65.4388C40.3731 65.4612 40.1188 65.3004 40.1188 65.3004L39.7271 65.1836C39.3328 65.0686 39.6328 65.0452 39.5412 64.9068C39.4496 64.7676 39.3552 64.7676 39.2402 64.676C39.1252 64.5825 38.9392 64.445 38.8476 64.3058C38.755 64.1674 38.6149 64.2824 38.4541 64.3058C38.2933 64.33 38.2924 64.6068 38.2924 64.6068C38.2924 64.6068 38.3157 64.8152 38.3382 64.9535C38.3615 65.0919 38.4765 65.2779 38.5457 65.3696C38.6149 65.4612 38.9626 65.8323 39.1252 65.9716C39.286 66.1098 39.2169 66.179 39.2169 66.2708C39.2169 66.3632 39.3786 66.5259 39.3786 66.5259L39.4944 66.3632C39.6104 66.2016 39.5178 66.2016 39.6328 66.2248C39.7487 66.2482 39.702 66.6866 39.702 66.6866C39.702 66.6866 39.6796 67.0109 39.6796 67.1035C39.6796 67.1969 39.6104 67.2886 39.5412 67.427C39.4719 67.5654 39.4244 67.6821 39.5412 67.9121C39.6571 68.1439 39.7963 67.8205 40.0731 67.7279C40.3507 67.6353 40.4424 67.6821 40.6976 67.6129C40.9527 67.5436 40.7667 67.5195 41.0667 67.5195C41.3667 67.5195 41.2051 67.7044 41.2751 67.798C41.3461 67.8896 41.1602 68.0065 41.0667 68.1215C40.9741 68.2365 40.7666 68.3991 40.5114 68.4683C40.2581 68.5374 40.2815 68.5608 39.9805 68.6524C39.6795 68.7468 39.9347 68.745 39.8655 69.0936C39.7962 69.4395 39.957 69.3236 40.1431 69.4161C40.3273 69.5096 40.4423 69.3011 40.5806 69.3011C40.7199 69.3011 40.8358 69.232 41.1826 69.1852C41.5294 69.1377 41.205 68.9993 41.321 68.8843C41.4377 68.7693 41.4835 69.2068 41.5527 69.232C41.6219 69.2544 41.5986 69.0685 41.8061 68.9993C42.0146 68.93 41.9922 69.0936 42.2697 69.1377C42.5465 69.1852 42.4081 69.6705 42.5707 69.7396C42.7325 69.8096 42.7092 69.3928 42.7092 69.3928C42.7092 69.3928 42.9167 68.8843 42.9625 68.7917C43.0102 68.6992 43.2402 68.745 43.2868 68.5833C43.3345 68.4224 43.1709 68.3057 43.1709 68.3057C43.1709 68.3057 42.94 67.9598 42.5465 67.6587C42.153 67.3578 42.4081 67.5895 41.9922 67.5895C41.5764 67.5895 41.8062 67.4737 41.5986 67.4046C41.3903 67.3345 41.6678 67.2195 41.9922 66.9652C42.3165 66.7117 42.1764 66.8035 42.3614 66.4791C42.5466 66.1558 42.1764 66.3174 42.2473 66.2016C42.3166 66.0866 42.525 66.0174 42.7784 65.8781C43.0326 65.7397 43.0102 65.8323 43.5178 65.6939C44.0272 65.5555 43.542 65.4854 43.542 65.2088C43.542 64.9311 43.4028 65.0685 43.1943 65.0226Z" fill="#D2DFD5" stroke="white" stroke-width="0.6"/>
<path d="M45.392 66.041C45.392 66.041 45.0218 66.1101 44.976 66.2251C44.9284 66.3401 44.906 66.3653 44.8592 66.5261C44.8125 66.687 44.5124 66.8038 44.8125 66.8038C45.1144 66.8038 45.1601 66.8038 45.2985 66.7337C45.4378 66.6645 45.5762 66.6645 45.5762 66.5486C45.5762 66.4336 45.5996 66.3878 45.5996 66.2485C45.5996 66.11 45.392 66.041 45.392 66.041Z" fill="#D2DFD5" stroke="white" stroke-width="0.6"/>
<path d="M47.5188 66.4786C47.5188 66.4786 47.6347 66.4328 47.5879 66.3627C47.5412 66.2934 47.4729 66.2242 47.2412 66.201C47.0103 66.1785 46.2709 65.9233 46.2709 65.9233L45.9463 66.0626C45.9463 66.0626 45.9239 66.0626 45.8772 66.2702C45.8305 66.4786 45.3444 66.6412 45.8996 66.6412H46.5941C46.5941 66.6412 46.3624 66.7804 46.64 66.7804C46.9167 66.7804 46.8942 66.6413 47.0794 66.7804C47.2635 66.9188 47.0102 66.9879 47.3803 66.9879C47.7504 66.9879 47.6794 66.7804 47.6794 66.7804L47.5188 66.4786Z" fill="#D2DFD5" stroke="white" stroke-width="0.6"/>
<path d="M47.9813 66.7557C47.9813 66.8725 47.9571 67.1717 48.1197 67.0801C48.2814 66.9884 48.4666 66.895 48.489 66.8034C48.5124 66.7117 48.5124 66.5725 48.5124 66.5725L48.3048 66.4565C48.3048 66.4565 47.9813 66.6407 47.9813 66.7557Z" fill="#D2DFD5" stroke="white" stroke-width="0.6"/>
<path d="M50.1081 66.4562C50.1081 66.4562 49.923 66.086 49.6453 66.2243L49.1377 66.4562C49.1377 66.4562 48.9976 66.6403 48.9051 66.7553C48.8134 66.8721 48.8133 66.9638 48.8133 67.0572C48.8133 67.1488 48.7667 67.2405 48.8825 67.2657C48.9994 67.2881 49.5537 67.3124 49.7145 67.219C49.8772 67.1273 50.0857 66.9188 50.1781 66.8497C50.2698 66.7804 50.2931 66.8954 50.2698 66.7804C50.2473 66.6636 50.1081 66.4562 50.1081 66.4562Z" fill="#D2DFD5" stroke="white" stroke-width="0.6"/>
<path d="M52.0739 63.3803C51.7495 63.5878 51.7971 63.5645 51.6336 63.7505C51.4728 63.9356 51.2643 64.2132 51.1026 64.374C50.94 64.5358 51.1026 64.374 50.8942 64.374C50.6867 64.374 50.8942 64.374 50.71 64.259C50.5241 64.144 50.5717 64.3282 50.5016 64.374C50.4324 64.4198 50.3632 64.4908 50.2473 64.5599C50.1305 64.6292 49.923 64.6292 49.8313 64.6516C49.7369 64.6759 49.692 64.86 49.8538 64.9525C50.0164 65.0451 49.8538 65.0451 49.808 65.2311C49.7621 65.4153 49.7837 65.4845 50.0847 65.7387C50.3856 65.9921 50.2697 65.7387 50.6633 65.7387C51.0569 65.7387 50.8708 65.6694 51.0568 65.5995C51.241 65.5303 51.4252 65.5303 51.5186 65.4144C51.6112 65.2994 51.5645 65.2059 51.5645 65.1143C51.5645 65.0226 51.6112 64.86 51.6579 64.7675C51.7037 64.674 51.8412 64.5599 52.0739 64.3973C52.3048 64.2355 52.144 64.0972 52.1898 63.9112C52.2356 63.7271 52.259 63.6812 52.374 63.4494C52.3829 63.4314 52.3911 63.4288 52.4 63.4153L52.1934 63.3013C52.1574 63.3246 52.1269 63.3461 52.0739 63.3803Z" fill="#D2DFD5" stroke="white" stroke-width="0.6"/>
<path d="M60.232 60.5274C60.1879 60.6145 60.1124 60.8122 60.2553 60.9317C60.3981 61.0521 60.5895 60.9083 60.5895 60.9083L60.709 60.6702C60.709 60.6702 60.3516 60.2884 60.232 60.5274Z" fill="#D2DFD5" stroke="white" stroke-width="0.6"/>
<path d="M59.1494 59.8417C58.8485 59.7493 58.5016 60.0961 58.3866 60.1652C58.2716 60.2344 58.1549 60.3045 58.1549 60.3045C58.1549 60.3045 58.0633 60.328 57.8782 60.4195C57.6921 60.5121 57.7388 60.4195 57.7388 60.4195C57.7388 60.4195 57.6697 60.4672 57.4846 60.5364C57.3013 60.6055 57.8782 60.6972 57.8782 60.6972H58.0857L58.0165 60.9981C58.0165 60.9981 57.6005 61.3215 57.5537 61.3907C57.5089 61.46 57.4621 61.4842 57.3229 61.6694C57.1845 61.8536 57.207 61.9228 57.207 62.0153C57.207 62.1087 57.2995 62.1779 57.2995 62.1779C57.2995 62.1779 57.5537 62.5014 57.5771 62.6164C57.6005 62.7322 57.4846 62.7098 57.2762 62.7548C57.0686 62.8014 57.1612 62.6855 57.0462 62.4555C56.9293 62.2246 57.0462 62.4555 56.8826 62.5014C56.7218 62.5472 56.6526 62.5939 56.5592 62.6405C56.4666 62.6863 56.3283 62.6405 56.1198 62.6405C55.9123 62.6405 56.0048 62.5938 55.959 62.5246C55.9123 62.4555 55.8431 62.4312 55.7515 62.3162C55.658 62.2012 55.7038 62.2236 55.6571 62.0852C55.6113 61.946 55.5186 62.1544 55.3794 62.4312C55.2411 62.7088 55.3794 62.849 55.3794 62.849L55.6121 62.964C55.843 63.079 55.6813 63.079 55.6813 63.079C55.6813 63.079 55.5878 63.3566 55.5429 63.4491L55.5528 64.2335C55.7522 64.1922 56.0743 64.1661 56.143 64.1661C56.2365 64.1661 56.2824 64.0969 56.5357 63.9109C56.7909 63.7268 56.6049 63.8193 56.7442 63.6809C56.8825 63.5416 56.7909 63.5183 56.9077 63.4033C57.0227 63.2875 57.0919 63.3799 57.3928 63.3341C57.692 63.2875 57.3928 63.3341 57.5078 63.1481C57.6228 62.963 57.6462 63.1481 57.8547 63.1715C57.9045 63.1768 57.931 63.2002 57.9454 63.2308L58.4328 63.1339L58.5042 63.1051C58.4657 62.9937 58.6471 62.8698 58.6642 62.7322C58.6876 62.5473 58.7334 62.5714 58.7334 62.5714C58.7334 62.5714 58.8026 62.3854 58.8026 62.2929C58.8026 62.2003 58.6642 62.0853 58.595 61.9228C58.5249 61.7619 58.4557 61.7386 58.294 61.646C58.1314 61.5525 58.1772 61.5759 58.0856 61.5292C57.994 61.4834 58.0164 61.3459 58.0389 61.2767C58.0622 61.2075 58.2473 61.1824 58.2473 61.1824L58.3164 61.23C58.3856 61.2767 58.4099 61.23 58.5708 61.23C58.7325 61.23 58.8484 61.2767 59.0109 61.2767C59.1727 61.2767 59.1035 61.0908 59.1727 60.9982C59.2419 60.9057 59.1952 60.7664 59.2644 60.5823C59.3105 60.4595 59.388 60.3592 59.497 60.2813C59.6579 60.1654 59.4728 59.8654 59.4728 59.8654L59.1494 59.8417Z" fill="#D2DFD5" stroke="white" stroke-width="0.6"/>
<path d="M72.8841 60.6744C73.0701 60.5584 73.3477 60.3734 73.3477 60.3734C73.3477 60.3734 73.4862 59.7732 73.0468 60.0032C73.0468 60.0032 72.9775 60.2117 72.8383 60.2117C72.6999 60.2117 72.5373 59.9817 72.5157 60.12C72.4916 60.2585 72.5615 60.5819 72.5615 60.5819C72.5615 60.5819 72.7008 60.7894 72.8841 60.6744Z" fill="#D2DFD5" stroke="white" stroke-width="0.6"/>
<path d="M71.151 61.3914C71.4511 61.5074 71.3118 61.3465 71.3595 61.2307C71.4053 61.1139 71.4287 61.0448 71.4978 60.9989C71.567 60.9531 71.6586 60.8605 71.7521 60.6754C71.8446 60.4903 71.6129 60.0042 71.6129 60.0042C71.6129 59.7967 71.3118 60.2352 71.2202 60.3511C71.1276 60.4679 70.9875 60.652 70.8743 60.8839C70.7575 61.1139 70.8491 61.2774 71.151 61.3914Z" fill="#D2DFD5" stroke="white" stroke-width="0.6"/>
<path d="M52.7675 66.2472C53.0452 66.293 52.9059 66.2238 53.2068 66.0855C53.5078 65.9462 53.6687 65.7162 53.8312 65.647C53.993 65.5778 53.9462 65.6694 54.409 65.6928C54.8717 65.7162 54.5474 65.6693 54.6866 65.6236C54.8249 65.5778 54.8483 65.647 55.0568 65.6693C55.2644 65.691 55.0568 65.6693 55.4737 65.7853C55.8896 65.9003 55.4737 65.7852 55.4737 65.8769C55.4737 65.9713 55.4494 66.0629 55.3793 66.1321C55.3102 66.2013 55.2411 66.2013 55.1493 66.2013H54.9175C54.825 66.2013 54.4558 66.2237 54.2931 66.2705C54.1314 66.3171 54.2015 66.6397 54.2015 66.6397L54.5258 66.8033C54.8483 66.9641 54.5716 66.9416 54.5716 67.0107C54.5716 67.08 54.5716 67.3108 54.4782 67.4726C54.3856 67.6351 54.3623 67.4034 54.2706 67.265C54.179 67.1257 54.1538 67.3576 54.1314 67.4726C54.1099 67.5876 54.0388 67.6352 53.9696 67.7044C53.9004 67.7735 53.9696 67.8652 54.0621 68.0288C54.1556 68.1896 54.0154 68.2587 53.9696 68.3972C53.9238 68.5373 53.9696 68.6056 54.179 68.744C54.3866 68.8833 54.409 68.6982 54.5949 68.6056C54.7792 68.514 54.8025 68.5598 54.9634 68.514C55.1269 68.4672 55.0569 68.2822 55.1719 68.1205C55.2878 67.9578 55.3569 67.7512 55.3569 67.7512L55.7514 67.3343C55.7514 67.3343 55.9356 67.3109 56.0506 67.3109C56.1656 67.3109 56.0506 67.3109 56.1431 67.3109C56.2366 67.3109 56.3282 67.2651 56.3515 66.8258C56.3749 66.3856 55.8665 66.8258 55.6122 66.6173C55.3569 66.4098 55.6121 66.4565 55.657 66.2706C55.7038 66.0855 55.8897 65.9938 56.1197 65.9938C56.3525 65.9938 56.5358 65.9938 56.8825 65.9462C57.2294 65.9013 56.9078 65.8312 56.9078 65.6694C56.9078 65.5069 56.8601 65.5303 56.7442 65.4611C56.6292 65.392 56.5357 65.3919 56.3515 65.2536C56.1674 65.1143 56.3282 65.1143 56.2365 64.9067C56.1422 64.6983 56.0973 64.9983 56.0281 64.9983C55.9589 64.9983 55.9356 64.9984 55.3795 64.9759C54.8251 64.9535 55.2412 65.0217 55.0112 64.9759C54.7783 64.9301 55.0112 64.9759 54.9419 64.8133C54.8718 64.6516 54.9419 64.6983 55.1495 64.4216L55.0272 64.0892C54.9895 64.0694 54.9329 64.0289 54.7792 63.9804C54.4783 63.8888 54.6175 63.7963 54.5015 63.542C54.3865 63.2885 54.5016 63.3569 54.4315 63.1961C54.3623 63.0325 54.4315 63.1961 53.7854 63.0335C53.1368 62.8717 53.276 63.0568 52.8367 63.0792C52.3973 63.1017 52.6749 63.0793 52.5123 63.126C52.4504 63.1439 52.4184 63.1566 52.3848 63.1754L52.5312 63.329C52.5883 63.3381 52.648 63.3802 52.7208 63.3802C52.8592 63.3802 52.8834 63.4036 53.0918 63.4261C53.2994 63.4503 53.1143 63.6336 53.1143 63.6336L52.976 63.7963C52.976 63.7963 52.79 63.958 52.7675 64.0747C52.7451 64.1897 52.9059 64.0972 53.276 64.0972C53.6461 64.0972 53.3452 64.1897 53.391 64.2823C53.4377 64.3739 53.4611 64.4908 53.5303 64.5824C53.6004 64.6759 53.5303 64.9525 53.4845 65.0451C53.4387 65.1376 53.2526 65.2311 53.161 65.2536C53.0684 65.2751 53.161 65.2536 52.9534 65.2536C52.745 65.2536 52.7441 65.2751 52.6291 65.3452C52.5132 65.4144 52.3514 65.5537 52.259 65.7387C52.1655 65.9229 52.2356 66.0855 52.2356 66.0855C52.2356 66.0855 52.4898 66.2014 52.7675 66.2472Z" fill="#D2DFD5" stroke="white" stroke-width="0.6"/>
<path d="M57.3228 64.5821C57.462 64.5596 57.6004 64.3736 57.6004 64.3736C57.6004 64.3736 57.6004 64.1894 57.6697 63.9801C57.7389 63.7725 57.9932 64.166 57.9932 64.166C57.9932 64.166 58.1333 64.0053 58.1549 63.8885C58.1774 63.7725 58.3408 63.6117 58.4559 63.5641C58.5709 63.5182 58.5951 63.8193 58.9652 63.9576C59.3336 64.0968 58.9652 63.9576 59.126 63.9352C59.2887 63.9118 59.2877 63.7501 59.3589 63.6117C59.4281 63.4724 59.3337 63.5182 59.1495 63.3799C58.9652 63.2416 58.9652 63.3566 58.641 63.2173L57.9469 63.3691C57.9276 63.4501 57.8885 63.5318 57.8782 63.5641C57.8557 63.6333 57.6463 63.6809 57.5538 63.6575C57.4622 63.6332 57.4155 63.5874 57.4155 63.5874C57.4155 63.5874 57.3454 63.5874 57.207 63.6331C57.0687 63.6808 57.1154 63.7724 57.0686 64.6053C57.021 65.4382 57.1845 64.6054 57.3228 64.5821Z" fill="#D2DFD5" stroke="white" stroke-width="0.6"/>
<path d="M50.6176 66.6168C50.8485 66.5701 50.9877 66.3617 50.9877 66.3617C50.9877 66.3617 50.4082 66.085 50.339 66.2925C50.339 66.2925 50.3857 66.6636 50.6176 66.6168Z" fill="#D2DFD5" stroke="white" stroke-width="0.6"/>
</svg>
