<svg width="375" height="812" viewBox="0 0 375 812" fill="none" xmlns="http://www.w3.org/2000/svg">
<rect width="375" height="812" fill="#F5F5F5"/>
<rect width="375" height="70" fill="#D9D9D9"/>
<path d="M149.12 26.1L151.32 26.82C150.8 28.1 150.18 29.42 149.46 30.68V44.68H147.2V34.12C146.66 34.82 146.1 35.44 145.54 36C145.32 35.44 144.7 34.14 144.3 33.58C146.2 31.78 148.04 28.94 149.12 26.1ZM158.24 41.86H163.4V44.1H150.5V41.86H155.82V37.88H151.6V35.64H155.82V32.16H150.96V29.92H156.64C155.66 29.16 154.36 28.32 153.3 27.72L154.88 26.02C156.36 26.8 158.4 28.04 159.4 28.92L158.52 29.92H163.1V32.16H158.24V35.64H162.56V37.88H158.24V41.86ZM175.94 27.04V29.2H167.1V27.04H175.94ZM173.24 32.82H170.02V35.36H173.24V32.82ZM175.52 37.5H169.98C169.86 39.94 169.44 42.8 168.2 44.76C167.82 44.36 166.84 43.62 166.32 43.34C167.64 41.2 167.74 38.08 167.74 35.78V30.7H175.52V37.5ZM185.38 32.8V35.1H183.6V44.74H181.24V35.1H178.92C178.74 38.16 178 42.04 175.34 44.7C175.02 44.2 174.14 43.38 173.58 43.1C176.36 40.28 176.64 36.32 176.64 33.36V27.84L178.28 28.22C180.14 27.68 182 26.96 183.16 26.26L185.26 28.06C183.42 28.94 181.12 29.68 178.96 30.2V32.8H185.38ZM198.16 37.58H200.12C200.14 37.36 200.14 37.12 200.14 36.9V35.7H198.16V37.58ZM204.4 35.7H202.28V36.96C202.28 37.16 202.28 37.38 202.26 37.58H204.4V35.7ZM198.88 30.64H203.62C202.66 29.86 201.8 28.96 201.2 28.12C200.64 28.96 199.82 29.84 198.88 30.64ZM206.54 39.4H203C204.16 41.48 205.66 42.24 207.58 42.84C207.04 43.34 206.48 44.12 206.22 44.82C204.24 44.06 202.66 43.04 201.44 40.88C200.6 42.48 199 43.9 196.06 44.84C195.84 44.36 195.16 43.46 194.8 43.08C197.86 42.12 199.2 40.82 199.76 39.4H196.1V33.88H200.14V32.6H197.64V31.58C197.1 31.96 196.56 32.28 196 32.56C195.86 32.22 195.66 31.8 195.42 31.4V32.36H193.6V33.32C194.14 34.02 195.54 36.16 195.84 36.66L194.64 38.5C194.42 37.92 194.02 37.06 193.6 36.22V44.72H191.4V37.36C190.88 38.86 190.26 40.24 189.58 41.2C189.36 40.56 188.86 39.64 188.5 39.08C189.66 37.5 190.74 34.74 191.26 32.36H188.96V30.16H191.4V26.06H193.6V30.16H195.42V30.3C197.36 29.32 199.1 27.62 200.06 26.08H202.22C203.6 28 205.64 29.68 207.72 30.46C207.28 31.02 206.82 31.9 206.5 32.54C205.98 32.28 205.44 31.96 204.92 31.62V32.6H202.28V33.88H206.54V39.4ZM215.34 40.22L217.6 41.08C216.3 42.44 214.28 43.8 212.6 44.6C212.18 44.14 211.3 43.32 210.78 42.92C212.46 42.3 214.3 41.28 215.34 40.22ZM226.28 39.84L221.12 40V44.74H218.76V40.08C215.98 40.16 213.42 40.22 211.38 40.26L211.26 38.14C212.52 38.14 214.06 38.14 215.76 38.12C216.06 37.96 216.36 37.78 216.66 37.6C215.7 36.88 214.38 36.06 213.28 35.5L214.86 34.14C215.12 34.28 215.42 34.42 215.7 34.58C216.34 34.06 217.02 33.44 217.58 32.86H213.58V35.02H211.32V30.88H218.74V29.66H211.5V27.62H218.74V26.06H221.08V27.62H228.46V29.66H221.08V30.88H228.72V35.02H226.36V32.86H219.74L220.36 33.16C219.4 34.02 218.32 34.88 217.38 35.56C217.82 35.84 218.24 36.12 218.6 36.38C220.08 35.4 221.48 34.34 222.52 33.42L224.64 34.56C223.06 35.76 221.16 37.02 219.34 38.1C220.86 38.08 222.44 38.06 224.04 38.04C223.56 37.68 223.08 37.36 222.62 37.06L224.18 35.86C225.74 36.84 227.86 38.32 228.92 39.38L227.24 40.74C226.98 40.48 226.66 40.16 226.28 39.84ZM222.28 41.36L224.08 40.16C225.64 40.98 227.82 42.28 228.96 43.2L227 44.54C226.02 43.64 223.9 42.26 222.28 41.36Z" fill="black"/>
<path d="M23.888 106.032V107.328H27.184V106.032H23.888ZM23.888 103.68V104.96H27.184V103.68H23.888ZM32.224 103.68H28.736V104.96H32.224V103.68ZM32.224 107.328V106.032H28.736V107.328H32.224ZM33.728 108.464H29.904C31.312 109.856 33.44 111.12 35.408 111.776C35.04 112.08 34.576 112.672 34.336 113.056C32.368 112.256 30.24 110.8 28.736 109.152V113.248H27.184V109.216C25.696 110.832 23.632 112.24 21.68 113.04C21.44 112.656 20.992 112.096 20.656 111.792C22.576 111.104 24.656 109.856 26.032 108.464H22.432V102.544H27.184V101.376H21.072V100H27.184V98.576H28.736V100H34.992V101.376H28.736V102.544H33.728V108.464ZM52.544 100.272V101.696H38.656V100.272H44.768V98.56H46.352V100.272H52.544ZM41.12 108.656L42.624 109.136C41.856 110.4 40.64 111.792 39.504 112.688C39.184 112.384 38.64 112.016 38.288 111.808C39.408 111.008 40.544 109.712 41.12 108.656ZM42.032 104.304V106.576H49.216V104.304H42.032ZM50.784 107.856H46.352V111.616C46.352 112.416 46.176 112.832 45.568 113.04C44.96 113.248 44.032 113.264 42.688 113.248C42.624 112.832 42.4 112.256 42.208 111.84C43.168 111.872 44.176 111.872 44.432 111.856C44.72 111.856 44.8 111.792 44.8 111.584V107.856H40.544V102.992H50.784V107.856ZM48.432 109.312L49.808 108.656C50.816 109.68 52.128 111.12 52.752 112.064L51.296 112.816C50.736 111.888 49.472 110.384 48.432 109.312ZM60.32 103.312H60.72C61.152 102.784 61.52 102.224 61.888 101.632H60.32V103.312ZM62.032 108.496V107.184H58.864V108.496H62.032ZM58.864 111.104H62.032V109.664H58.864V111.104ZM63.104 99.184L64.448 99.584C63.888 100.944 63.216 102.176 62.416 103.312H64.08V104.608H61.408C60.992 105.088 60.544 105.552 60.096 105.984H63.44V112.976H62.032V112.32H58.864V113.2H57.52V108C57.168 108.208 56.816 108.432 56.432 108.64C56.288 108.32 55.824 107.712 55.568 107.424C57.04 106.704 58.4 105.744 59.552 104.608H55.952V103.312H58.944V101.632H56.656V100.352H58.944V98.704H60.32V100.352H62.16V101.184C62.512 100.56 62.832 99.888 63.104 99.184ZM69.536 99.408L70.624 100.096C70 101.6 69.2 103.424 68.48 104.864C70.016 106.288 70.368 107.536 70.368 108.624C70.384 109.696 70.128 110.464 69.536 110.864C69.248 111.056 68.864 111.168 68.448 111.232C68.032 111.28 67.504 111.28 66.992 111.248C66.976 110.848 66.816 110.192 66.592 109.808C67.056 109.856 67.472 109.856 67.792 109.84C68.064 109.824 68.32 109.776 68.496 109.664C68.832 109.472 68.944 109.056 68.944 108.48C68.944 107.536 68.496 106.352 66.992 105.04C67.584 103.792 68.24 102.128 68.688 100.864H66.144V113.248H64.688V99.472H69.312L69.536 99.408ZM87.824 104.544H81.984C83.072 107.872 85.088 110.576 88.112 111.84C87.744 112.16 87.248 112.784 87.008 113.232C84.016 111.84 82.08 109.248 80.832 105.856C80.016 108.752 78.288 111.52 74.656 113.232C74.416 112.832 73.936 112.304 73.52 111.984C77.328 110.32 78.88 107.44 79.52 104.544H73.84V103.008H79.792C79.984 101.408 79.968 99.872 79.984 98.592H81.6C81.584 99.888 81.568 101.424 81.376 103.008H87.824V104.544ZM99.056 110.64H103.392V106.576H99.056V110.64ZM93.392 106.576V110.64H97.552V106.576H93.392ZM97.552 101.088H93.392V105.088H97.552V101.088ZM103.392 105.088V101.088H99.056V105.088H103.392ZM91.92 99.664H104.928V113.12H103.392V112.144H93.392V113.12H91.92V99.664ZM123.216 111.008V112.432H110.96V113.28H109.488V99.504H122.832V100.928H110.96V111.008H123.216ZM121.28 108.8L120.112 109.92C119.424 109.024 118.336 107.936 117.072 106.864C115.808 108.272 114.4 109.504 112.944 110.464C112.688 110.16 112.112 109.568 111.76 109.296C113.264 108.432 114.688 107.264 115.936 105.92C114.768 104.992 113.552 104.112 112.4 103.376L113.424 102.416C114.544 103.12 115.744 103.936 116.896 104.8C117.76 103.728 118.528 102.544 119.136 101.328L120.592 101.824C119.872 103.2 119.008 104.512 118.048 105.712C119.36 106.784 120.528 107.856 121.28 108.8ZM129.696 98.608L131.12 99.04C130.688 100.192 130.16 101.36 129.552 102.464V113.248H128.144V104.752C127.744 105.312 127.344 105.824 126.944 106.288C126.784 105.92 126.368 105.136 126.112 104.768C127.552 103.264 128.896 100.944 129.696 98.608ZM136.384 106.768H139.072V103.184H136.384V106.768ZM132.32 106.768H134.912V103.184H132.32V106.768ZM136.384 101.808H140.528V109.024H139.072V108.144H136.384V113.232H134.912V108.144H132.32V109.136H130.912V101.808H134.912V98.752H136.384V101.808ZM158.192 102.192V103.728H144.208V102.192H150.352V98.64H151.952V102.192H158.192ZM147.712 105.712L149.44 106.144C148.448 108.8 146.88 111.424 145.328 113.088C145.008 112.8 144.272 112.256 143.856 112.032C145.44 110.544 146.88 108.112 147.712 105.712ZM152.928 106.32L154.416 105.712C155.888 107.76 157.584 110.512 158.272 112.32L156.608 113.04C156 111.28 154.384 108.432 152.928 106.32ZM169.456 100.608H167.696V102.192H169.456V100.608ZM167.696 105.024H169.456V103.408H167.696V105.024ZM175.264 99.264L176.24 99.856C175.76 101.36 175.136 103.248 174.592 104.672C175.744 106.144 176.016 107.408 176.016 108.464C176.032 109.488 175.808 110.256 175.328 110.624C175.088 110.8 174.768 110.912 174.4 110.96C174.096 111.008 173.68 111.008 173.28 110.976C173.28 110.624 173.168 110.032 172.96 109.648C173.296 109.68 173.616 109.68 173.856 109.68C174.048 109.664 174.224 109.616 174.368 109.52C174.624 109.328 174.688 108.864 174.688 108.32C174.688 107.376 174.416 106.192 173.28 104.816C173.744 103.552 174.224 101.856 174.56 100.624H172.768V113.232H171.456V112.032L170.176 112.512C170.112 112.112 170 111.616 169.856 111.072C168.512 111.584 167.152 112.064 166.048 112.448L165.584 111.056C165.84 110.992 166.128 110.912 166.448 110.816V106.128C165.856 109.408 164.592 111.68 162.256 113.168C162.128 112.896 161.68 112.336 161.408 112.08C162.928 111.2 163.92 109.92 164.544 108.224L161.616 108.704L161.28 107.328L162.08 107.232C162.528 106.576 163.024 105.76 163.504 104.912C162.944 104.192 162.096 103.344 161.344 102.704L162 101.584C162.16 101.712 162.336 101.856 162.496 102C163.024 100.944 163.584 99.6 163.888 98.592L165.248 99.04C164.64 100.288 163.952 101.728 163.328 102.752C163.648 103.056 163.936 103.36 164.176 103.648C164.496 102.992 164.8 102.368 165.04 101.792L166.288 102.256C165.472 103.808 164.416 105.664 163.472 107.072L164.96 106.88C165.088 106.352 165.184 105.776 165.264 105.184L166.448 105.312V99.344H170.688V106.288H167.696V110.464C168.272 110.288 168.88 110.112 169.504 109.92C169.248 109.168 168.944 108.4 168.624 107.728L169.824 107.328C170.56 108.8 171.248 110.672 171.456 111.936V99.328H175.04L175.264 99.264Z" fill="black"/>
<path d="M23.776 155V153.48H27.328V145.256H24.576V144.088C25.968 143.864 26.992 143.72 27.792 143.192H29.168V153.48H32.448V155H23.776Z" fill="black"/>
<path d="M23.744 260V258.928C27.312 256.112 30 253.664 30 251.68C30 250.4 29.104 249.504 27.712 249.504C26.528 249.504 25.632 250.128 24.688 251.168L23.568 250.096C24.72 248.784 26.144 248 27.792 248C30.16 248 31.808 249.328 31.808 251.632C31.808 253.968 29.552 256.224 26.736 258.544C27.376 258.496 27.968 258.448 28.56 258.448H32.352V260H23.744Z" fill="black"/>
<path d="M27.936 365.208C25.744 365.208 24.272 364.28 23.36 363.176L24.288 362.008C25.168 363.016 26.4 363.672 27.824 363.672C29.264 363.672 30.336 362.936 30.336 361.736C30.336 360.44 29.296 359.608 26.416 359.608V358.232C28.976 358.232 30.048 357.288 30.048 356.216C30.048 355.208 29.248 354.488 27.792 354.488C26.672 354.488 25.584 354.968 24.624 355.96L23.632 354.824C24.8 353.704 26.224 353 27.856 353C30.288 353 31.808 354.216 31.808 356.024C31.808 357.4 30.992 358.408 29.632 358.808V358.872C31.056 359.176 32.112 360.248 32.112 361.864C32.112 363.928 30.224 365.208 27.936 365.208Z" fill="black"/>
<path d="M25.504 465.392H29.344V461.968C29.344 461.312 29.376 460.48 29.424 459.68H29.36C28.88 460.464 28.48 461.2 28.064 461.824L25.504 465.392ZM32.8 465.392V466.832H31.056V470H29.344V466.832H23.472V465.584L28.72 458.192H31.056V465.392H32.8Z" fill="black"/>
<path d="M32 28L20 34.9992L32 42" stroke="black" stroke-width="2" stroke-miterlimit="10" stroke-linejoin="round"/>
<rect x="20.5" y="172.5" width="334" height="49" rx="5.5" fill="white" stroke="#DCDCDC"/>
<rect x="20.5" y="277.5" width="334" height="49" rx="5.5" fill="white" stroke="#DCDCDC"/>
<rect x="20.5" y="382.5" width="334" height="49" rx="5.5" fill="white" stroke="#DCDCDC"/>
<rect x="20.5" y="487.5" width="334" height="49" rx="5.5" fill="white" stroke="#DCDCDC"/>
<path d="M43.952 203V201.784H47.52V193.016H44.8V192.088C46.128 191.864 47.12 191.72 47.872 191.24H48.976V201.784H52.32V203H43.952ZM72.576 191.08V192.296H66.736V202.296C66.736 203.24 66.464 203.64 65.792 203.848C65.104 204.072 63.92 204.088 62.08 204.088C61.984 203.704 61.744 203.096 61.504 202.744C62.992 202.792 64.432 202.792 64.864 202.776C65.248 202.76 65.392 202.648 65.392 202.28V192.296H58.624V191.08H72.576ZM78.944 201.88H87.312V199.256H78.944V201.88ZM87.312 195.496H78.944V198.12H87.312V195.496ZM87.312 191.768H78.944V194.36H87.312V191.768ZM77.776 190.616H88.544V204.136H87.312V203.048H78.944V204.136H77.776V190.616Z" fill="black"/>
<path d="M43.888 308V307.152C47.6 304.192 50.224 301.696 50.224 299.648C50.224 298.272 49.328 297.264 47.744 297.264C46.512 297.264 45.552 297.952 44.624 298.992L43.696 298.16C44.8 296.896 46.144 296.048 47.808 296.048C50.128 296.048 51.68 297.392 51.68 299.616C51.68 301.984 49.264 304.384 46.256 306.848C46.896 306.8 47.504 306.752 48.112 306.752H52.256V308H43.888ZM72.576 296.08V297.296H66.736V307.296C66.736 308.24 66.464 308.64 65.792 308.848C65.104 309.072 63.92 309.088 62.08 309.088C61.984 308.704 61.744 308.096 61.504 307.744C62.992 307.792 64.432 307.792 64.864 307.776C65.248 307.76 65.392 307.648 65.392 307.28V297.296H58.624V296.08H72.576ZM78.944 306.88H87.312V304.256H78.944V306.88ZM87.312 300.496H78.944V303.12H87.312V300.496ZM87.312 296.768H78.944V299.36H87.312V296.768ZM77.776 295.616H88.544V309.136H87.312V308.048H78.944V309.136H77.776V295.616Z" fill="black"/>
<path d="M47.952 413.192C45.792 413.192 44.384 412.296 43.488 411.208L44.256 410.28C45.136 411.304 46.32 411.976 47.872 411.976C49.392 411.976 50.592 411.144 50.592 409.8C50.592 408.392 49.44 407.48 46.528 407.48V406.36C49.152 406.36 50.272 405.304 50.272 404.168C50.272 403.064 49.408 402.264 47.856 402.264C46.656 402.264 45.536 402.76 44.608 403.736L43.808 402.84C44.928 401.752 46.272 401.048 47.904 401.048C50.224 401.048 51.68 402.264 51.68 404.008C51.68 405.416 50.832 406.424 49.44 406.808V406.872C50.912 407.16 52.016 408.264 52.016 409.88C52.016 411.944 50.176 413.192 47.952 413.192ZM72.576 401.08V402.296H66.736V412.296C66.736 413.24 66.464 413.64 65.792 413.848C65.104 414.072 63.92 414.088 62.08 414.088C61.984 413.704 61.744 413.096 61.504 412.744C62.992 412.792 64.432 412.792 64.864 412.776C65.248 412.76 65.392 412.648 65.392 412.28V402.296H58.624V401.08H72.576ZM78.944 411.88H87.312V409.256H78.944V411.88ZM87.312 405.496H78.944V408.12H87.312V405.496ZM87.312 401.768H78.944V404.36H87.312V401.768ZM77.776 400.616H88.544V414.136H87.312V413.048H78.944V414.136H77.776V400.616Z" fill="black"/>
<path d="M45.216 513.6H49.472V509.68C49.472 509.04 49.488 508.32 49.536 507.536H49.472C49.008 508.272 48.624 508.944 48.208 509.536L45.216 513.6ZM52.656 513.6V514.768H50.848V518H49.472V514.768H43.552V513.792L49.04 506.24H50.848V513.6H52.656ZM72.576 506.08V507.296H66.736V517.296C66.736 518.24 66.464 518.64 65.792 518.848C65.104 519.072 63.92 519.088 62.08 519.088C61.984 518.704 61.744 518.096 61.504 517.744C62.992 517.792 64.432 517.792 64.864 517.776C65.248 517.76 65.392 517.648 65.392 517.28V507.296H58.624V506.08H72.576ZM78.944 516.88H87.312V514.256H78.944V516.88ZM87.312 510.496H78.944V513.12H87.312V510.496ZM87.312 506.768H78.944V509.36H87.312V506.768ZM77.776 505.616H88.544V519.136H87.312V518.048H78.944V519.136H77.776V505.616Z" fill="black"/>
</svg>
