<svg width="375" height="812" viewBox="0 0 375 812" fill="none" xmlns="http://www.w3.org/2000/svg">
<rect width="375" height="812" fill="#F5F5F5"/>
<rect width="375" height="70" fill="#D9D9D9"/>
<path d="M130.4 32.28H129.2V34H130.4V32.28ZM130.4 37.82V36H129.2V37.82H130.4ZM125.88 37.82H127.06V36H125.88V37.82ZM125.88 32.28V34H127.06V32.28H125.88ZM132.22 26.22L133.58 28.08C132.3 28.38 130.78 28.64 129.2 28.82V30.34H133.42V32.28H132.22V34H133.54V36H132.22V37.82H133.24V39.76H129.2V41.4C130.6 41.28 132.04 41.12 133.42 40.98L133.44 43.06C129.72 43.48 125.72 43.9 122.9 44.2L122.66 41.98C123.88 41.9 125.42 41.76 127.06 41.6V39.76H123V37.82H124.08V36H122.66V34H124.08V32.28H123.08V30.34H127.06V29.04C125.8 29.16 124.56 29.24 123.38 29.28C123.32 28.74 123.08 27.94 122.84 27.44C126.12 27.24 129.86 26.8 132.22 26.22ZM139.78 27.04L141.5 28.1C140.86 30.02 140.06 32.28 139.32 34.06C140.84 35.86 141.1 37.44 141.12 38.72C141.12 40.18 140.8 41.2 140.06 41.72C139.7 41.98 139.24 42.12 138.72 42.22C138.26 42.28 137.64 42.28 137.04 42.24C137.02 41.62 136.82 40.6 136.44 39.94C136.94 39.98 137.3 40 137.62 39.98C137.9 39.98 138.18 39.94 138.38 39.8C138.72 39.6 138.86 39.14 138.86 38.44C138.86 37.38 138.48 35.92 137.04 34.34C137.56 32.88 138.18 30.82 138.6 29.28H136.26V44.74H134.06V27.14H139.42L139.78 27.04ZM153.24 36.66H155.62C155.64 36.4 155.64 36.12 155.64 35.88V35.18H153.24V36.66ZM153.24 32.1V33.56H155.64V32.1H153.24ZM160.22 32.1H158V33.56H160.22V32.1ZM160.22 36.66V35.18H158V35.9C158 36.14 158 36.4 157.98 36.66H160.22ZM162.52 38.4H157.76C157.54 39.4 157.14 40.36 156.54 41.24C158.5 41.88 160.92 42.24 163.66 42.38C163.14 42.92 162.52 43.94 162.22 44.6C159.32 44.36 156.88 43.82 154.84 42.92C153.86 43.64 152.56 44.26 150.92 44.76C150.64 44.22 149.94 43.28 149.48 42.8C150.82 42.52 151.9 42.16 152.72 41.7C151.82 41.06 151 40.28 150.34 39.38L152.4 38.66C152.94 39.32 153.62 39.86 154.44 40.34C154.94 39.74 155.22 39.1 155.4 38.4H151.04V30.36H155.64V29.16H150.78V27.38C150.32 28.62 149.76 29.88 149.14 31.1V44.7H146.86V34.8C146.52 35.28 146.18 35.7 145.84 36.08C145.62 35.5 144.94 34.22 144.54 33.62C146.22 31.8 147.82 28.96 148.74 26.12L150.98 26.82L150.88 27.08H163.02V29.16H158V30.36H162.52V38.4ZM170.94 36.88H181.02C179.56 36.1 178.2 35.14 177.1 34.06V36.54H174.76V34.16C173.66 35.18 172.34 36.12 170.94 36.88ZM177.06 42.34H180.24V41.26H177.06V42.34ZM171.9 41.26V42.34H174.84V41.26H171.9ZM174.84 39.72V38.66H171.9V39.72H174.84ZM180.24 39.72V38.66H177.06V39.72H180.24ZM174.76 31.48V28.94C173.86 29 172.98 29.04 172.08 29.08C172.58 29.74 173.08 30.54 173.28 31.12L172.36 31.48H174.76ZM179.32 31.48L178.62 31.26C179.06 30.48 179.6 29.34 179.88 28.46C178.98 28.58 178.06 28.68 177.1 28.76V31.48H179.32ZM184.92 33.42H179.34C181.04 34.62 183.34 35.6 185.56 36.12C185.04 36.6 184.36 37.54 184 38.14C183.54 38 183.08 37.82 182.62 37.64V44.68H180.24V44.14H171.9V44.76H169.62V37.54C169.1 37.78 168.58 37.98 168.06 38.16C167.74 37.64 167.08 36.78 166.6 36.34C168.68 35.74 170.9 34.66 172.52 33.42H167.1V31.48H170.96C170.68 30.84 170.22 30.06 169.78 29.48L170.74 29.14C170.06 29.16 169.4 29.16 168.76 29.18C168.72 28.66 168.48 27.86 168.28 27.38C173.06 27.26 178.66 26.84 181.94 26.18L183.44 27.9C182.42 28.1 181.28 28.28 180.08 28.44L182.54 29.04C182 29.9 181.42 30.8 180.94 31.48H184.92V33.42ZM202.14 30.98V28.82H193.88V30.98H202.14ZM204.62 26.74V33.06H191.56V26.74H204.62ZM206.92 36.24H195.44L195.06 37.42H204.68C204.68 37.42 204.64 38.08 204.56 38.4C204.16 41.68 203.68 43.26 202.96 43.92C202.34 44.48 201.7 44.64 200.76 44.7C200 44.76 198.7 44.74 197.3 44.68C197.26 44 196.94 43.06 196.48 42.4C197.82 42.54 199.28 42.56 199.88 42.56C200.34 42.56 200.6 42.54 200.88 42.36C201.26 42.06 201.58 41.2 201.86 39.58H194.32C194.2 39.96 194.06 40.3 193.94 40.62L191.34 40.22C191.8 39.16 192.34 37.68 192.8 36.24H189.02V34.08H206.92V36.24ZM214.62 27.18H221.54C221.54 30.96 222.08 38.26 229.44 42.6C228.92 43.02 227.94 44.06 227.52 44.68C223.38 42.18 221.26 38.4 220.16 34.82C218.66 39.3 216.26 42.62 212.78 44.7C212.34 44.2 211.22 43.22 210.6 42.76C214.76 40.66 217.14 36.8 218.24 31.54L219.46 31.76C219.32 31 219.24 30.28 219.18 29.6H214.62V27.18ZM242.2 30.22H250.3C250.3 30.22 250.28 31.04 250.24 31.36C249.84 39.32 249.44 42.32 248.56 43.36C247.96 44.14 247.38 44.36 246.52 44.48C245.78 44.58 244.54 44.58 243.32 44.52C243.28 43.8 242.96 42.74 242.5 42.06C243.76 42.16 244.94 42.16 245.46 42.16C245.88 42.16 246.12 42.1 246.4 41.84C247 41.22 247.4 38.6 247.72 32.66H242.12C241.8 36.8 240.4 41.66 234.78 44.84C234.4 44.24 233.5 43.34 232.92 42.9C237.88 40.2 239.22 36.16 239.56 32.66H233.54V30.22H239.66V26.1H242.2V30.22Z" fill="black"/>
<path d="M26.896 107.904V106.176H25.664V107.904H26.896ZM23.104 107.904H24.304V106.176H23.104V107.904ZM23.104 103.232V104.912H24.304V103.232H23.104ZM26.896 103.232H25.664V104.912H26.896V103.232ZM28.064 103.232V104.912H29.296V106.176H28.064V107.904H29.088V109.152H25.664V110.816L29.2 110.432L29.216 111.712C26.24 112.112 23.056 112.48 20.848 112.752L20.672 111.344C21.68 111.248 22.944 111.12 24.304 110.96V109.152H20.96V107.904H21.952V106.176H20.64V104.912H21.952V103.232H21.024V102H24.304V100.672C23.248 100.784 22.192 100.864 21.2 100.928C21.152 100.576 20.976 100.064 20.816 99.744C23.44 99.584 26.512 99.216 28.32 98.736L29.184 99.904C28.192 100.16 26.96 100.368 25.664 100.528V102H29.168V103.232H28.064ZM34.352 99.36L35.424 100.016C34.864 101.52 34.176 103.328 33.536 104.8C34.864 106.256 35.168 107.52 35.184 108.576C35.184 109.648 34.944 110.416 34.384 110.8C34.112 111.008 33.76 111.12 33.344 111.184C32.96 111.232 32.448 111.232 31.984 111.2C31.968 110.784 31.808 110.144 31.552 109.744C32.016 109.776 32.4 109.792 32.704 109.792C32.944 109.776 33.168 109.712 33.344 109.616C33.632 109.424 33.744 108.992 33.744 108.432C33.744 107.504 33.392 106.32 32.08 104.976C32.608 103.712 33.168 102.016 33.568 100.768H31.136V113.264H29.76V99.408H34.112L34.352 99.36ZM41.6 98.64L43.008 99.056C42.608 100.224 42.08 101.408 41.504 102.544V113.248H40.096V104.912C39.728 105.424 39.376 105.888 38.992 106.304C38.864 105.952 38.432 105.152 38.16 104.816C39.552 103.312 40.832 100.96 41.6 98.64ZM44.656 106.992H47.056C47.072 106.752 47.072 106.48 47.072 106.24V105.552H44.656V106.992ZM44.656 103.056V104.496H47.072V103.056H44.656ZM50.768 103.056H48.544V104.496H50.768V103.056ZM50.768 106.992V105.552H48.544V106.256C48.544 106.496 48.544 106.752 48.528 106.992H50.768ZM52.224 108.112H48.384C48.224 109.04 47.888 109.904 47.28 110.688C48.88 111.312 50.88 111.648 53.136 111.792C52.8 112.128 52.432 112.752 52.24 113.168C49.904 112.96 47.888 112.512 46.224 111.728C45.408 112.352 44.304 112.88 42.864 113.312C42.688 112.96 42.256 112.368 41.952 112.096C43.232 111.808 44.192 111.424 44.912 110.992C44.064 110.416 43.344 109.728 42.784 108.896L44.08 108.448C44.544 109.104 45.184 109.632 45.984 110.096C46.528 109.488 46.784 108.816 46.928 108.112H43.28V101.936H47.072V100.752H42.944V99.456H52.688V100.752H48.544V101.936H52.224V108.112ZM58.944 107.088H67.504C66.16 106.4 64.88 105.488 63.888 104.496V106.816H62.416V104.56C61.456 105.504 60.224 106.384 58.944 107.088ZM63.872 111.6H66.912V110.4H63.872V111.6ZM59.648 110.4V111.6H62.464V110.4H59.648ZM62.464 109.376V108.256H59.648V109.376H62.464ZM66.912 109.376V108.256H63.872V109.376H66.912ZM62.416 102.944V100.64C61.552 100.704 60.672 100.752 59.808 100.8C60.272 101.392 60.736 102.144 60.928 102.688L60.272 102.944H62.416ZM70.24 104.192H65.344C66.768 105.296 68.8 106.256 70.688 106.768C70.368 107.056 69.92 107.632 69.712 108.016C69.28 107.872 68.832 107.712 68.4 107.52V113.216H66.912V112.752H59.648V113.28H58.208V107.472C57.712 107.712 57.2 107.92 56.72 108.096C56.528 107.76 56.096 107.232 55.776 106.944C57.568 106.384 59.552 105.36 60.944 104.192H56.192V102.944H59.472C59.248 102.4 58.816 101.68 58.416 101.136L59.264 100.816C58.64 100.848 58.016 100.864 57.408 100.88C57.376 100.544 57.232 100.032 57.104 99.728C60.896 99.616 65.392 99.264 67.936 98.736L68.896 99.808C67.488 100.112 65.744 100.336 63.888 100.512V102.944H65.888L65.376 102.784C65.792 102.112 66.304 101.104 66.576 100.384L68.192 100.816C67.728 101.568 67.232 102.368 66.816 102.944H70.24V104.192ZM84.448 102.688V100.496H77.232V102.688H84.448ZM85.984 99.184V103.984H75.776V99.184H85.984ZM87.904 106.4H78.56C78.432 106.8 78.304 107.2 78.16 107.6H86.016C86.016 107.6 85.984 108.048 85.936 108.256C85.568 110.96 85.184 112.208 84.592 112.736C84.176 113.104 83.728 113.216 83.072 113.248C82.512 113.28 81.456 113.264 80.352 113.216C80.336 112.784 80.128 112.192 79.824 111.792C80.928 111.888 82.096 111.904 82.544 111.904C82.912 111.904 83.12 111.888 83.328 111.76C83.696 111.472 84 110.624 84.256 108.96H77.68C77.552 109.312 77.424 109.648 77.312 109.936L75.696 109.696C76.08 108.832 76.528 107.568 76.912 106.4H73.648V105.056H87.904V106.4ZM97.952 99.264C97.856 99.712 97.728 100.304 97.52 100.992C99.088 100.928 100.768 100.784 102.224 100.528V102.016C100.656 102.24 98.688 102.384 96.96 102.432C96.608 103.184 96.176 103.936 95.728 104.544C96.256 104.24 97.152 104.064 97.776 104.064C98.784 104.064 99.616 104.528 99.92 105.424C100.912 104.96 101.728 104.624 102.48 104.272C103.024 104.032 103.488 103.824 104 103.568L104.656 105.04C104.192 105.184 103.504 105.44 103.024 105.632C102.208 105.952 101.168 106.368 100.048 106.88C100.064 107.792 100.08 109.072 100.096 109.84H98.576C98.608 109.28 98.624 108.368 98.64 107.584C97.264 108.336 96.4 109.072 96.4 110.016C96.4 111.104 97.44 111.328 99.056 111.328C100.352 111.328 102.096 111.168 103.504 110.912L103.456 112.528C102.304 112.672 100.448 112.816 99.008 112.816C96.624 112.816 94.768 112.256 94.768 110.272C94.768 108.304 96.688 107.056 98.544 106.112C98.336 105.552 97.824 105.312 97.232 105.312C96.256 105.312 95.248 105.824 94.576 106.464C94.112 106.912 93.648 107.504 93.12 108.176L91.744 107.152C93.616 105.392 94.704 103.84 95.36 102.48C95.2 102.48 95.04 102.48 94.896 102.48C94.224 102.48 93.12 102.448 92.224 102.384V100.88C93.072 101.008 94.208 101.056 94.976 101.056C95.28 101.056 95.6 101.056 95.92 101.04C96.128 100.384 96.256 99.712 96.288 99.136L97.952 99.264ZM111.696 99.504H116.976C116.976 102.4 117.344 108.336 123.44 111.936C123.104 112.192 122.496 112.832 122.24 113.2C118.608 111.008 116.896 107.744 116.112 104.8C114.928 108.656 112.928 111.456 109.968 113.232C109.68 112.928 108.992 112.304 108.592 112.032C112.032 110.256 113.968 107.104 114.896 102.768L115.712 102.912C115.6 102.24 115.536 101.584 115.504 101.008H111.696V99.504ZM133.552 101.968H140.112C140.112 101.968 140.096 102.496 140.08 102.704C139.728 109.184 139.424 111.552 138.72 112.368C138.288 112.88 137.872 113.04 137.248 113.104C136.672 113.168 135.648 113.152 134.704 113.104C134.672 112.672 134.464 112.016 134.176 111.568C135.232 111.664 136.208 111.664 136.608 111.664C136.96 111.664 137.152 111.616 137.344 111.424C137.888 110.912 138.224 108.72 138.496 103.488H133.488C133.248 106.784 132.16 110.656 127.616 113.344C127.376 112.976 126.816 112.416 126.464 112.144C130.624 109.76 131.664 106.368 131.904 103.488H126.944V101.968H131.984V101.568V98.608H133.552V101.568V101.968ZM148.864 99.44C148.768 100.032 148.704 100.704 148.688 101.28C148.608 103.056 148.496 106.752 148.496 108.96C148.496 110.656 149.536 111.232 150.928 111.232C153.728 111.232 155.408 109.648 156.56 107.936L157.696 109.328C156.64 110.848 154.48 112.912 150.896 112.912C148.464 112.912 146.832 111.872 146.832 109.216C146.832 106.944 146.992 102.816 146.992 101.28C146.992 100.608 146.928 99.952 146.816 99.424L148.864 99.44ZM161.58 101.2C162.204 101.184 162.764 101.152 163.068 101.12C164.236 101.008 167.084 100.736 170.028 100.496C171.74 100.352 173.34 100.256 174.444 100.208V101.824C173.564 101.824 172.172 101.84 171.34 102.064C169.212 102.704 167.788 104.976 167.788 106.88C167.788 109.792 170.508 110.768 173.164 110.88L172.572 112.576C169.436 112.432 166.156 110.752 166.156 107.216C166.156 104.816 167.58 102.864 168.876 102.016C167.26 102.192 163.532 102.576 161.756 102.96L161.58 101.2ZM188.903 100.32C188.503 100.624 187.991 101.056 187.671 101.312C186.599 102.208 184.391 103.952 183.255 104.912C182.343 105.696 182.343 105.904 183.287 106.72C184.647 107.84 187.559 110.16 189.223 111.824L187.767 113.152C187.383 112.72 186.967 112.272 186.551 111.856C185.479 110.768 183.095 108.72 181.607 107.472C180.055 106.176 180.215 105.408 181.735 104.144C182.967 103.12 185.287 101.264 186.375 100.192C186.743 99.808 187.207 99.328 187.415 98.992L188.903 100.32ZM203.671 108.352C203.543 108.848 203.463 109.344 203.463 109.744C203.463 110.464 203.895 111.12 205.943 111.12C206.983 111.12 208.087 110.992 209.143 110.8L209.095 112.416C208.199 112.528 207.143 112.64 205.927 112.64C203.319 112.64 201.911 111.792 201.911 110.208C201.911 109.536 202.039 108.864 202.167 108.208L203.671 108.352ZM201.847 99.536C201.751 99.936 201.607 100.592 201.543 100.912C201.479 101.184 201.415 101.504 201.351 101.856C202.327 101.728 203.319 101.536 204.247 101.312V102.88C203.239 103.12 202.119 103.296 201.015 103.424C200.871 104.112 200.695 104.848 200.519 105.52C199.927 107.776 198.855 111.072 197.991 112.88L196.231 112.288C197.191 110.656 198.359 107.36 198.951 105.12C199.079 104.624 199.223 104.096 199.335 103.568C198.887 103.584 198.455 103.6 198.055 103.6C197.303 103.6 196.727 103.584 196.151 103.536L196.119 101.968C196.903 102.064 197.447 102.096 198.071 102.096C198.567 102.096 199.111 102.08 199.655 102.032C199.751 101.552 199.831 101.152 199.863 100.848C199.943 100.336 199.959 99.744 199.927 99.392L201.847 99.536ZM203.111 104.4C203.975 104.32 205.079 104.256 206.103 104.256C207.031 104.256 207.991 104.288 208.903 104.384L208.855 105.92C208.039 105.808 207.095 105.728 206.135 105.728C205.095 105.728 204.119 105.776 203.111 105.888V104.4ZM207.175 100.016C207.575 100.592 208.151 101.6 208.471 102.208L207.415 102.672C207.095 102.016 206.567 101.056 206.135 100.448L207.175 100.016ZM208.999 99.328C209.431 99.936 210.023 100.944 210.327 101.52L209.287 101.984C208.935 101.296 208.407 100.368 207.975 99.76L208.999 99.328ZM220.887 100.656C220.775 100.304 220.615 99.776 220.439 99.296L222.167 99.088C222.295 99.904 222.567 100.864 222.855 101.728C224.023 101.568 225.255 101.312 226.311 100.96L226.503 102.56C225.591 102.816 224.439 103.024 223.383 103.184C223.879 104.32 224.519 105.44 225.031 106.16C225.271 106.512 225.527 106.816 225.799 107.104L224.999 108.256C224.167 108.064 222.199 107.872 220.967 107.776L221.079 106.448C221.927 106.512 223.063 106.608 223.607 106.672C223.047 105.808 222.375 104.576 221.863 103.344C219.943 103.504 217.703 103.504 215.079 103.296L215.047 101.68C217.431 101.968 219.575 102.016 221.303 101.888C221.143 101.392 220.999 100.976 220.887 100.656ZM217.847 106.928C217.351 107.696 217.079 108.4 217.079 109.136C217.079 110.576 218.375 111.2 220.679 111.216C222.359 111.232 223.751 111.056 224.871 110.832L224.791 112.432C223.831 112.608 222.439 112.8 220.583 112.784C217.447 112.768 215.463 111.6 215.463 109.376C215.463 108.448 215.767 107.584 216.263 106.576L217.847 106.928ZM234.055 100.72C233.975 101.184 233.895 102.016 233.895 102.448C233.879 103.456 233.895 104.8 234.007 106.048C234.247 108.56 234.903 110.256 235.975 110.256C236.775 110.256 237.479 108.512 237.847 107.056L239.111 108.544C238.103 111.28 237.111 112.224 235.943 112.224C234.327 112.224 232.839 110.688 232.407 106.48C232.247 105.072 232.231 103.152 232.231 102.192C232.231 101.792 232.199 101.12 232.103 100.688L234.055 100.72ZM242.247 101.12C243.719 102.976 244.903 106.64 245.111 109.232L243.463 109.872C243.191 107.12 242.279 103.568 240.663 101.648L242.247 101.12Z" fill="black"/>
<path d="M32 28L20 34.9992L32 42" stroke="black" stroke-width="2" stroke-miterlimit="10" stroke-linejoin="round"/>
<rect x="20.5" y="129.5" width="334" height="49" rx="5.5" fill="white" stroke="#DCDCDC"/>
<path d="M43.68 147.584H48.768C48.768 150.416 49.136 156.448 55.408 160.176C55.136 160.368 54.656 160.88 54.448 161.168C50.512 158.784 48.816 155.28 48.096 152.256C46.912 156.4 44.896 159.312 41.712 161.184C41.488 160.944 40.96 160.448 40.64 160.24C44.176 158.4 46.144 155.184 47.12 150.704L47.824 150.816C47.712 150.08 47.648 149.376 47.616 148.768H43.68V147.584ZM65.408 150.096H72.064C72.064 150.096 72.048 150.544 72.032 150.72C71.68 157.28 71.344 159.664 70.64 160.464C70.272 160.912 69.888 161.04 69.28 161.104C68.72 161.152 67.696 161.12 66.72 161.056C66.704 160.704 66.56 160.192 66.32 159.84C67.408 159.936 68.432 159.952 68.832 159.952C69.168 159.952 69.376 159.904 69.568 159.712C70.144 159.168 70.496 156.912 70.8 151.28H65.344C65.12 154.592 64.064 158.464 59.424 161.296C59.232 161.008 58.8 160.544 58.512 160.352C62.848 157.776 63.872 154.272 64.112 151.28H58.992V150.096H64.176C64.176 149.856 64.176 149.632 64.176 149.408V146.64H65.408V149.408C65.408 149.632 65.408 149.856 65.408 150.096ZM80.64 147.536C80.56 148.064 80.512 148.624 80.496 149.152C80.416 150.96 80.304 154.736 80.304 157.12C80.304 158.88 81.408 159.504 82.928 159.504C85.856 159.504 87.504 157.856 88.656 156.192L89.568 157.28C88.464 158.8 86.4 160.816 82.88 160.816C80.576 160.816 78.992 159.856 78.992 157.248C78.992 154.88 79.152 150.832 79.152 149.152C79.152 148.56 79.12 147.984 79.024 147.52L80.64 147.536ZM93.6756 149.376C94.2836 149.36 94.7956 149.328 95.0996 149.296C96.1396 149.184 99.1636 148.88 102.108 148.64C103.852 148.48 105.356 148.4 106.428 148.352V149.632C105.516 149.632 104.108 149.648 103.292 149.888C101.02 150.624 99.6276 153.056 99.6276 154.944C99.6276 158.08 102.54 159.072 105.148 159.168L104.684 160.496C101.724 160.384 98.3476 158.8 98.3476 155.232C98.3476 152.736 99.8676 150.704 101.34 149.824C99.6276 150.016 95.5476 150.4 93.8196 150.768L93.6756 149.376ZM120.695 148.192C120.359 148.464 119.863 148.88 119.591 149.104C118.503 150.064 116.199 151.888 115.015 152.88C114.055 153.696 114.039 153.952 115.063 154.816C116.519 156 119.351 158.288 121.047 159.984L119.911 161.04C119.575 160.656 119.207 160.256 118.807 159.872C117.687 158.72 115.255 156.64 113.767 155.408C112.247 154.144 112.439 153.456 113.879 152.24C115.079 151.232 117.511 149.312 118.599 148.208C118.919 147.888 119.319 147.44 119.511 147.136L120.695 148.192ZM135.479 156.4C135.335 156.928 135.255 157.424 135.255 157.84C135.255 158.592 135.671 159.328 137.959 159.328C138.999 159.328 140.103 159.216 141.079 159.008L141.031 160.304C140.167 160.432 139.111 160.544 137.943 160.544C135.415 160.544 134.039 159.76 134.039 158.176C134.039 157.568 134.135 156.96 134.279 156.288L135.479 156.4ZM133.639 147.648C133.543 147.984 133.415 148.592 133.351 148.912C133.287 149.264 133.191 149.664 133.111 150.096C134.151 149.968 135.207 149.776 136.183 149.536V150.784C135.143 151.024 133.975 151.2 132.855 151.328C132.695 152.032 132.535 152.768 132.343 153.472C131.767 155.744 130.679 159.056 129.847 160.8L128.439 160.32C129.399 158.672 130.535 155.424 131.127 153.168C131.271 152.64 131.415 152.032 131.543 151.456C131.015 151.488 130.519 151.504 130.071 151.504C129.367 151.504 128.791 151.472 128.215 151.44L128.167 150.192C128.935 150.288 129.511 150.304 130.087 150.304C130.615 150.304 131.191 150.272 131.815 150.224C131.927 149.664 132.007 149.152 132.055 148.832C132.119 148.384 132.135 147.84 132.103 147.52L133.639 147.648ZM135.143 152.512C135.991 152.432 137.047 152.368 138.071 152.368C139.015 152.368 139.975 152.416 140.839 152.512L140.807 153.728C139.991 153.616 139.047 153.536 138.119 153.536C137.111 153.536 136.135 153.6 135.143 153.712V152.512ZM139.111 148.128C139.527 148.704 140.103 149.68 140.423 150.336L139.559 150.72C139.239 150.064 138.695 149.104 138.263 148.496L139.111 148.128ZM140.871 147.472C141.303 148.08 141.927 149.072 142.231 149.68L141.367 150.064C141.015 149.36 140.487 148.448 140.039 147.84L140.871 147.472ZM153.015 148.656C152.903 148.32 152.759 147.824 152.615 147.408L153.975 147.232C154.103 147.984 154.391 149.04 154.711 149.968C155.863 149.808 157.191 149.552 158.279 149.184L158.423 150.432C157.447 150.72 156.183 150.944 155.111 151.088C155.607 152.32 156.311 153.552 156.903 154.384C157.127 154.688 157.367 154.96 157.607 155.232L156.951 156.128C156.183 155.952 154.247 155.776 153.095 155.696L153.191 154.624C154.087 154.704 155.271 154.8 155.847 154.864C155.223 153.952 154.455 152.544 153.911 151.216C152.007 151.392 149.703 151.376 147.191 151.184L147.159 149.904C149.511 150.192 151.735 150.224 153.479 150.096C153.287 149.504 153.127 149.024 153.015 148.656ZM149.623 155.008C149.143 155.776 148.871 156.464 148.871 157.232C148.871 158.752 150.263 159.424 152.631 159.44C154.263 159.456 155.639 159.296 156.759 159.04L156.695 160.32C155.703 160.496 154.343 160.672 152.567 160.672C149.527 160.656 147.607 159.552 147.607 157.376C147.607 156.496 147.927 155.664 148.375 154.72L149.623 155.008ZM165.799 148.832C165.735 149.216 165.671 149.968 165.671 150.384C165.655 151.392 165.671 152.848 165.783 154.176C166.039 156.848 166.823 158.624 167.959 158.624C168.775 158.624 169.527 156.96 169.943 155.36L170.951 156.496C169.991 159.216 169.015 160.144 167.943 160.144C166.423 160.144 164.967 158.64 164.535 154.496C164.391 153.104 164.359 151.152 164.359 150.224C164.359 149.856 164.343 149.184 164.247 148.8L165.799 148.832ZM174.135 149.28C175.559 151.136 176.711 154.528 176.951 157.232L175.671 157.76C175.383 154.864 174.423 151.584 172.887 149.712L174.135 149.28Z" fill="#CDCDCD"/>
</svg>
